<?xml version="1.0" encoding="utf-8" standalone="no"?>
<!DOCTYPE svg PUBLIC "-//W3C//DTD SVG 1.1//EN"
  "http://www.w3.org/Graphics/SVG/1.1/DTD/svg11.dtd">
<!-- Created with matplotlib (https://matplotlib.org/) -->
<svg height="345.6pt" version="1.1" viewBox="0 0 460.8 345.6" width="460.8pt" xmlns="http://www.w3.org/2000/svg" xmlns:xlink="http://www.w3.org/1999/xlink">
 <metadata>
  <rdf:RDF xmlns:cc="http://creativecommons.org/ns#" xmlns:dc="http://purl.org/dc/elements/1.1/" xmlns:rdf="http://www.w3.org/1999/02/22-rdf-syntax-ns#">
   <cc:Work>
    <dc:type rdf:resource="http://purl.org/dc/dcmitype/StillImage"/>
    <dc:date>2021-03-15T17:41:56.147343</dc:date>
    <dc:format>image/svg+xml</dc:format>
    <dc:creator>
     <cc:Agent>
      <dc:title>Matplotlib v3.3.3, https://matplotlib.org/</dc:title>
     </cc:Agent>
    </dc:creator>
   </cc:Work>
  </rdf:RDF>
 </metadata>
 <defs>
  <style type="text/css">*{stroke-linecap:butt;stroke-linejoin:round;}</style>
 </defs>
 <g id="figure_1">
  <g id="patch_1">
   <path d="M 0 345.6 
L 460.8 345.6 
L 460.8 0 
L 0 0 
z
" style="fill:#ffffff;"/>
  </g>
  <g id="axes_1">
   <g id="patch_2">
    <path d="M 57.6 307.584 
L 414.72 307.584 
L 414.72 41.472 
L 57.6 41.472 
z
" style="fill:#7d9051;"/>
   </g>
   <g id="matplotlib.axis_1">
    <g id="xtick_1">
     <g id="line2d_1">
      <defs>
       <path d="M 0 0 
L 0 3.5 
" id="mbc87ba882a" style="stroke:#000000;stroke-width:0.8;"/>
      </defs>
      <g>
       <use style="stroke:#000000;stroke-width:0.8;" x="109.45835" xlink:href="#mbc87ba882a" y="307.584"/>
      </g>
     </g>
     <g id="text_1">
      <!-- 20 -->
      <g transform="translate(103.09585 322.182437)scale(0.1 -0.1)">
       <defs>
        <path d="M 19.1875 8.296875 
L 53.609375 8.296875 
L 53.609375 0 
L 7.328125 0 
L 7.328125 8.296875 
Q 12.9375 14.109375 22.625 23.890625 
Q 32.328125 33.6875 34.8125 36.53125 
Q 39.546875 41.84375 41.421875 45.53125 
Q 43.3125 49.21875 43.3125 52.78125 
Q 43.3125 58.59375 39.234375 62.25 
Q 35.15625 65.921875 28.609375 65.921875 
Q 23.96875 65.921875 18.8125 64.3125 
Q 13.671875 62.703125 7.8125 59.421875 
L 7.8125 69.390625 
Q 13.765625 71.78125 18.9375 73 
Q 24.125 74.21875 28.421875 74.21875 
Q 39.75 74.21875 46.484375 68.546875 
Q 53.21875 62.890625 53.21875 53.421875 
Q 53.21875 48.921875 51.53125 44.890625 
Q 49.859375 40.875 45.40625 35.40625 
Q 44.1875 33.984375 37.640625 27.21875 
Q 31.109375 20.453125 19.1875 8.296875 
z
" id="DejaVuSans-50"/>
        <path d="M 31.78125 66.40625 
Q 24.171875 66.40625 20.328125 58.90625 
Q 16.5 51.421875 16.5 36.375 
Q 16.5 21.390625 20.328125 13.890625 
Q 24.171875 6.390625 31.78125 6.390625 
Q 39.453125 6.390625 43.28125 13.890625 
Q 47.125 21.390625 47.125 36.375 
Q 47.125 51.421875 43.28125 58.90625 
Q 39.453125 66.40625 31.78125 66.40625 
z
M 31.78125 74.21875 
Q 44.046875 74.21875 50.515625 64.515625 
Q 56.984375 54.828125 56.984375 36.375 
Q 56.984375 17.96875 50.515625 8.265625 
Q 44.046875 -1.421875 31.78125 -1.421875 
Q 19.53125 -1.421875 13.0625 8.265625 
Q 6.59375 17.96875 6.59375 36.375 
Q 6.59375 54.828125 13.0625 64.515625 
Q 19.53125 74.21875 31.78125 74.21875 
z
" id="DejaVuSans-48"/>
       </defs>
       <use xlink:href="#DejaVuSans-50"/>
       <use x="63.623047" xlink:href="#DejaVuSans-48"/>
      </g>
     </g>
    </g>
    <g id="xtick_2">
     <g id="line2d_2">
      <g>
       <use style="stroke:#000000;stroke-width:0.8;" x="177.985224" xlink:href="#mbc87ba882a" y="307.584"/>
      </g>
     </g>
     <g id="text_2">
      <!-- 40 -->
      <g transform="translate(171.622724 322.182437)scale(0.1 -0.1)">
       <defs>
        <path d="M 37.796875 64.3125 
L 12.890625 25.390625 
L 37.796875 25.390625 
z
M 35.203125 72.90625 
L 47.609375 72.90625 
L 47.609375 25.390625 
L 58.015625 25.390625 
L 58.015625 17.1875 
L 47.609375 17.1875 
L 47.609375 0 
L 37.796875 0 
L 37.796875 17.1875 
L 4.890625 17.1875 
L 4.890625 26.703125 
z
" id="DejaVuSans-52"/>
       </defs>
       <use xlink:href="#DejaVuSans-52"/>
       <use x="63.623047" xlink:href="#DejaVuSans-48"/>
      </g>
     </g>
    </g>
    <g id="xtick_3">
     <g id="line2d_3">
      <g>
       <use style="stroke:#000000;stroke-width:0.8;" x="246.512099" xlink:href="#mbc87ba882a" y="307.584"/>
      </g>
     </g>
     <g id="text_3">
      <!-- 60 -->
      <g transform="translate(240.149599 322.182437)scale(0.1 -0.1)">
       <defs>
        <path d="M 33.015625 40.375 
Q 26.375 40.375 22.484375 35.828125 
Q 18.609375 31.296875 18.609375 23.390625 
Q 18.609375 15.53125 22.484375 10.953125 
Q 26.375 6.390625 33.015625 6.390625 
Q 39.65625 6.390625 43.53125 10.953125 
Q 47.40625 15.53125 47.40625 23.390625 
Q 47.40625 31.296875 43.53125 35.828125 
Q 39.65625 40.375 33.015625 40.375 
z
M 52.59375 71.296875 
L 52.59375 62.3125 
Q 48.875 64.0625 45.09375 64.984375 
Q 41.3125 65.921875 37.59375 65.921875 
Q 27.828125 65.921875 22.671875 59.328125 
Q 17.53125 52.734375 16.796875 39.40625 
Q 19.671875 43.65625 24.015625 45.921875 
Q 28.375 48.1875 33.59375 48.1875 
Q 44.578125 48.1875 50.953125 41.515625 
Q 57.328125 34.859375 57.328125 23.390625 
Q 57.328125 12.15625 50.6875 5.359375 
Q 44.046875 -1.421875 33.015625 -1.421875 
Q 20.359375 -1.421875 13.671875 8.265625 
Q 6.984375 17.96875 6.984375 36.375 
Q 6.984375 53.65625 15.1875 63.9375 
Q 23.390625 74.21875 37.203125 74.21875 
Q 40.921875 74.21875 44.703125 73.484375 
Q 48.484375 72.75 52.59375 71.296875 
z
" id="DejaVuSans-54"/>
       </defs>
       <use xlink:href="#DejaVuSans-54"/>
       <use x="63.623047" xlink:href="#DejaVuSans-48"/>
      </g>
     </g>
    </g>
    <g id="xtick_4">
     <g id="line2d_4">
      <g>
       <use style="stroke:#000000;stroke-width:0.8;" x="315.038973" xlink:href="#mbc87ba882a" y="307.584"/>
      </g>
     </g>
     <g id="text_4">
      <!-- 80 -->
      <g transform="translate(308.676473 322.182437)scale(0.1 -0.1)">
       <defs>
        <path d="M 31.78125 34.625 
Q 24.75 34.625 20.71875 30.859375 
Q 16.703125 27.09375 16.703125 20.515625 
Q 16.703125 13.921875 20.71875 10.15625 
Q 24.75 6.390625 31.78125 6.390625 
Q 38.8125 6.390625 42.859375 10.171875 
Q 46.921875 13.96875 46.921875 20.515625 
Q 46.921875 27.09375 42.890625 30.859375 
Q 38.875 34.625 31.78125 34.625 
z
M 21.921875 38.8125 
Q 15.578125 40.375 12.03125 44.71875 
Q 8.5 49.078125 8.5 55.328125 
Q 8.5 64.0625 14.71875 69.140625 
Q 20.953125 74.21875 31.78125 74.21875 
Q 42.671875 74.21875 48.875 69.140625 
Q 55.078125 64.0625 55.078125 55.328125 
Q 55.078125 49.078125 51.53125 44.71875 
Q 48 40.375 41.703125 38.8125 
Q 48.828125 37.15625 52.796875 32.3125 
Q 56.78125 27.484375 56.78125 20.515625 
Q 56.78125 9.90625 50.3125 4.234375 
Q 43.84375 -1.421875 31.78125 -1.421875 
Q 19.734375 -1.421875 13.25 4.234375 
Q 6.78125 9.90625 6.78125 20.515625 
Q 6.78125 27.484375 10.78125 32.3125 
Q 14.796875 37.15625 21.921875 38.8125 
z
M 18.3125 54.390625 
Q 18.3125 48.734375 21.84375 45.5625 
Q 25.390625 42.390625 31.78125 42.390625 
Q 38.140625 42.390625 41.71875 45.5625 
Q 45.3125 48.734375 45.3125 54.390625 
Q 45.3125 60.0625 41.71875 63.234375 
Q 38.140625 66.40625 31.78125 66.40625 
Q 25.390625 66.40625 21.84375 63.234375 
Q 18.3125 60.0625 18.3125 54.390625 
z
" id="DejaVuSans-56"/>
       </defs>
       <use xlink:href="#DejaVuSans-56"/>
       <use x="63.623047" xlink:href="#DejaVuSans-48"/>
      </g>
     </g>
    </g>
    <g id="xtick_5">
     <g id="line2d_5">
      <g>
       <use style="stroke:#000000;stroke-width:0.8;" x="383.565848" xlink:href="#mbc87ba882a" y="307.584"/>
      </g>
     </g>
     <g id="text_5">
      <!-- 100 -->
      <g transform="translate(374.022098 322.182437)scale(0.1 -0.1)">
       <defs>
        <path d="M 12.40625 8.296875 
L 28.515625 8.296875 
L 28.515625 63.921875 
L 10.984375 60.40625 
L 10.984375 69.390625 
L 28.421875 72.90625 
L 38.28125 72.90625 
L 38.28125 8.296875 
L 54.390625 8.296875 
L 54.390625 0 
L 12.40625 0 
z
" id="DejaVuSans-49"/>
       </defs>
       <use xlink:href="#DejaVuSans-49"/>
       <use x="63.623047" xlink:href="#DejaVuSans-48"/>
       <use x="127.246094" xlink:href="#DejaVuSans-48"/>
      </g>
     </g>
    </g>
   </g>
   <g id="matplotlib.axis_2">
    <g id="ytick_1">
     <g id="line2d_6">
      <defs>
       <path d="M 0 0 
L -3.5 0 
" id="mba297c14f1" style="stroke:#000000;stroke-width:0.8;"/>
      </defs>
      <g>
       <use style="stroke:#000000;stroke-width:0.8;" x="57.6" xlink:href="#mba297c14f1" y="294.217231"/>
      </g>
     </g>
     <g id="text_6">
      <!-- 0 -->
      <g transform="translate(44.2375 298.01645)scale(0.1 -0.1)">
       <use xlink:href="#DejaVuSans-48"/>
      </g>
     </g>
    </g>
    <g id="ytick_2">
     <g id="line2d_7">
      <g>
       <use style="stroke:#000000;stroke-width:0.8;" x="57.6" xlink:href="#mba297c14f1" y="259.953794"/>
      </g>
     </g>
     <g id="text_7">
      <!-- 10 -->
      <g transform="translate(37.875 263.753013)scale(0.1 -0.1)">
       <use xlink:href="#DejaVuSans-49"/>
       <use x="63.623047" xlink:href="#DejaVuSans-48"/>
      </g>
     </g>
    </g>
    <g id="ytick_3">
     <g id="line2d_8">
      <g>
       <use style="stroke:#000000;stroke-width:0.8;" x="57.6" xlink:href="#mba297c14f1" y="225.690357"/>
      </g>
     </g>
     <g id="text_8">
      <!-- 20 -->
      <g transform="translate(37.875 229.489576)scale(0.1 -0.1)">
       <use xlink:href="#DejaVuSans-50"/>
       <use x="63.623047" xlink:href="#DejaVuSans-48"/>
      </g>
     </g>
    </g>
    <g id="ytick_4">
     <g id="line2d_9">
      <g>
       <use style="stroke:#000000;stroke-width:0.8;" x="57.6" xlink:href="#mba297c14f1" y="191.42692"/>
      </g>
     </g>
     <g id="text_9">
      <!-- 30 -->
      <g transform="translate(37.875 195.226138)scale(0.1 -0.1)">
       <defs>
        <path d="M 40.578125 39.3125 
Q 47.65625 37.796875 51.625 33 
Q 55.609375 28.21875 55.609375 21.1875 
Q 55.609375 10.40625 48.1875 4.484375 
Q 40.765625 -1.421875 27.09375 -1.421875 
Q 22.515625 -1.421875 17.65625 -0.515625 
Q 12.796875 0.390625 7.625 2.203125 
L 7.625 11.71875 
Q 11.71875 9.328125 16.59375 8.109375 
Q 21.484375 6.890625 26.8125 6.890625 
Q 36.078125 6.890625 40.9375 10.546875 
Q 45.796875 14.203125 45.796875 21.1875 
Q 45.796875 27.640625 41.28125 31.265625 
Q 36.765625 34.90625 28.71875 34.90625 
L 20.21875 34.90625 
L 20.21875 43.015625 
L 29.109375 43.015625 
Q 36.375 43.015625 40.234375 45.921875 
Q 44.09375 48.828125 44.09375 54.296875 
Q 44.09375 59.90625 40.109375 62.90625 
Q 36.140625 65.921875 28.71875 65.921875 
Q 24.65625 65.921875 20.015625 65.03125 
Q 15.375 64.15625 9.8125 62.3125 
L 9.8125 71.09375 
Q 15.4375 72.65625 20.34375 73.4375 
Q 25.25 74.21875 29.59375 74.21875 
Q 40.828125 74.21875 47.359375 69.109375 
Q 53.90625 64.015625 53.90625 55.328125 
Q 53.90625 49.265625 50.4375 45.09375 
Q 46.96875 40.921875 40.578125 39.3125 
z
" id="DejaVuSans-51"/>
       </defs>
       <use xlink:href="#DejaVuSans-51"/>
       <use x="63.623047" xlink:href="#DejaVuSans-48"/>
      </g>
     </g>
    </g>
    <g id="ytick_5">
     <g id="line2d_10">
      <g>
       <use style="stroke:#000000;stroke-width:0.8;" x="57.6" xlink:href="#mba297c14f1" y="157.163482"/>
      </g>
     </g>
     <g id="text_10">
      <!-- 40 -->
      <g transform="translate(37.875 160.962701)scale(0.1 -0.1)">
       <use xlink:href="#DejaVuSans-52"/>
       <use x="63.623047" xlink:href="#DejaVuSans-48"/>
      </g>
     </g>
    </g>
    <g id="ytick_6">
     <g id="line2d_11">
      <g>
       <use style="stroke:#000000;stroke-width:0.8;" x="57.6" xlink:href="#mba297c14f1" y="122.900045"/>
      </g>
     </g>
     <g id="text_11">
      <!-- 50 -->
      <g transform="translate(37.875 126.699264)scale(0.1 -0.1)">
       <defs>
        <path d="M 10.796875 72.90625 
L 49.515625 72.90625 
L 49.515625 64.59375 
L 19.828125 64.59375 
L 19.828125 46.734375 
Q 21.96875 47.46875 24.109375 47.828125 
Q 26.265625 48.1875 28.421875 48.1875 
Q 40.625 48.1875 47.75 41.5 
Q 54.890625 34.8125 54.890625 23.390625 
Q 54.890625 11.625 47.5625 5.09375 
Q 40.234375 -1.421875 26.90625 -1.421875 
Q 22.3125 -1.421875 17.546875 -0.640625 
Q 12.796875 0.140625 7.71875 1.703125 
L 7.71875 11.625 
Q 12.109375 9.234375 16.796875 8.0625 
Q 21.484375 6.890625 26.703125 6.890625 
Q 35.15625 6.890625 40.078125 11.328125 
Q 45.015625 15.765625 45.015625 23.390625 
Q 45.015625 31 40.078125 35.4375 
Q 35.15625 39.890625 26.703125 39.890625 
Q 22.75 39.890625 18.8125 39.015625 
Q 14.890625 38.140625 10.796875 36.28125 
z
" id="DejaVuSans-53"/>
       </defs>
       <use xlink:href="#DejaVuSans-53"/>
       <use x="63.623047" xlink:href="#DejaVuSans-48"/>
      </g>
     </g>
    </g>
    <g id="ytick_7">
     <g id="line2d_12">
      <g>
       <use style="stroke:#000000;stroke-width:0.8;" x="57.6" xlink:href="#mba297c14f1" y="88.636608"/>
      </g>
     </g>
     <g id="text_12">
      <!-- 60 -->
      <g transform="translate(37.875 92.435827)scale(0.1 -0.1)">
       <use xlink:href="#DejaVuSans-54"/>
       <use x="63.623047" xlink:href="#DejaVuSans-48"/>
      </g>
     </g>
    </g>
    <g id="ytick_8">
     <g id="line2d_13">
      <g>
       <use style="stroke:#000000;stroke-width:0.8;" x="57.6" xlink:href="#mba297c14f1" y="54.373171"/>
      </g>
     </g>
     <g id="text_13">
      <!-- 70 -->
      <g transform="translate(37.875 58.17239)scale(0.1 -0.1)">
       <defs>
        <path d="M 8.203125 72.90625 
L 55.078125 72.90625 
L 55.078125 68.703125 
L 28.609375 0 
L 18.3125 0 
L 43.21875 64.59375 
L 8.203125 64.59375 
z
" id="DejaVuSans-55"/>
       </defs>
       <use xlink:href="#DejaVuSans-55"/>
       <use x="63.623047" xlink:href="#DejaVuSans-48"/>
      </g>
     </g>
    </g>
   </g>
   <g id="line2d_14">
    <path clip-path="url(#p65ff6f19f7)" d="M 75.194913 259.953794 
L 81.245836 259.446695 
L 87.601703 259.247967 
L 94.221399 259.289083 
L 104.531268 259.624865 
L 122.37224 260.316987 
L 129.601825 260.423203 
L 136.817705 260.320413 
L 143.975337 259.933236 
L 151.026752 259.193146 
L 154.497638 258.665489 
L 157.923982 258.021336 
L 161.302357 257.250409 
L 164.62591 256.342428 
L 167.887789 255.29054 
L 171.084568 254.084467 
L 174.205967 252.717356 
L 177.251987 251.175501 
L 180.215774 249.455477 
L 183.08705 247.560709 
L 185.858962 245.504903 
L 188.524658 243.30519 
L 191.077284 240.968424 
L 193.506561 238.508309 
L 195.809064 235.938551 
L 197.97794 233.262577 
L 200.013188 230.483812 
L 201.911383 227.609109 
L 203.665671 224.638469 
L 205.272626 221.585597 
L 206.721969 218.450493 
L 208.003422 215.250288 
L 209.113557 211.984982 
L 210.03867 208.668281 
L 210.77876 205.307038 
L 211.35096 201.911531 
L 211.7724 198.49204 
L 212.063639 195.055418 
L 212.327468 188.175319 
L 212.300057 181.3055 
L 212.019097 164.129239 
L 212.245235 157.228583 
L 212.509064 153.767976 
L 212.889388 150.310795 
L 213.39306 146.86732 
L 214.026934 143.444402 
L 214.794435 140.052322 
L 215.702416 136.701358 
L 216.75773 133.401789 
L 217.967229 130.163894 
L 219.337767 126.997952 
L 220.876195 123.914243 
L 222.585941 120.919619 
L 224.467003 118.020932 
L 226.505678 115.231888 
L 228.691685 112.549061 
L 231.021599 109.979303 
L 233.481714 107.53632 
L 236.061751 105.216685 
L 238.754857 103.030678 
L 241.550753 100.981724 
L 244.439161 99.076677 
L 247.42008 97.318963 
L 250.483231 95.712008 
L 253.618336 94.259238 
L 256.825393 92.967507 
L 260.094125 91.833387 
L 263.421105 90.870584 
L 266.792627 90.075672 
L 270.205266 89.455504 
L 273.645315 89.003227 
L 277.102496 88.729119 
L 280.563103 88.629755 
L 284.016857 88.705135 
L 287.456906 88.958684 
L 290.869545 89.386977 
L 294.244493 89.996867 
L 297.585178 90.778073 
L 300.888174 91.72717 
L 304.150053 92.837305 
L 307.370816 94.105053 
L 310.547037 95.523559 
L 313.682141 97.085972 
L 316.769277 98.792291 
L 319.808444 100.635664 
L 322.799642 102.609238 
L 325.739445 104.70616 
L 328.624426 106.926431 
L 331.458012 109.259771 
L 334.236777 111.70618 
L 336.96072 114.25538 
L 342.227011 119.645019 
L 347.246604 125.394423 
L 352.009222 131.459052 
L 356.497732 137.801214 
L 360.708709 144.372941 
L 364.621593 151.133118 
L 368.226107 158.047479 
L 371.51197 165.068057 
L 374.462052 172.157163 
L 377.0695 179.266826 
L 379.320608 186.362784 
L 381.201671 193.40392 
L 382.702409 200.342266 
L 383.805692 207.140132 
L 384.504666 213.752975 
L 384.7822 220.146533 
L 384.631441 226.272835 
L 384.38817 229.222917 
L 384.035257 232.090767 
L 383.565848 234.869532 
L 383.565848 234.869532 
" style="fill:none;stroke:#fea952;stroke-linecap:square;"/>
   </g>
   <g id="line2d_15">
    <path clip-path="url(#p65ff6f19f7)" d="M 73.832727 246.316281 
L 80.663473 245.753699 
L 87.587382 245.5426 
L 94.553553 245.587734 
L 105.117912 245.932051 
L 122.657977 246.614591 
L 129.523881 246.71805 
L 136.229752 246.627655 
L 142.733319 246.284255 
L 148.966877 245.643451 
L 154.874868 244.659442 
L 157.690468 244.029533 
L 160.419523 243.298517 
L 163.049915 242.467425 
L 165.586136 241.530403 
L 168.016291 240.489306 
L 170.372676 239.321709 
L 172.667036 238.01634 
L 174.922727 236.552479 
L 177.135883 234.933943 
L 179.27036 233.196023 
L 181.325193 231.338573 
L 183.29916 229.362477 
L 185.161714 227.30888 
L 186.921091 225.164219 
L 188.576183 222.931844 
L 190.110165 220.639994 
L 191.53783 218.254679 
L 192.832286 215.834489 
L 193.998728 213.355747 
L 195.027463 210.838734 
L 195.912098 208.302757 
L 196.653907 205.721178 
L 197.263938 203.029566 
L 197.748504 200.235077 
L 198.115976 197.334716 
L 198.540681 191.274205 
L 198.636781 184.902821 
L 198.440372 174.739951 
L 198.313722 167.569288 
L 198.396497 160.057544 
L 198.579517 156.186741 
L 198.885876 152.26929 
L 199.328312 148.327235 
L 199.916812 144.371718 
L 200.659461 140.419843 
L 201.566072 136.46795 
L 202.648457 132.52626 
L 203.918856 128.605892 
L 205.3898 124.719119 
L 207.073861 120.879626 
L 208.974084 117.118873 
L 211.089171 113.458949 
L 213.402402 109.93317 
L 215.880792 106.574573 
L 218.538287 103.343313 
L 221.364356 100.254337 
L 224.318537 97.344485 
L 227.42434 94.575612 
L 230.65352 91.976012 
L 234.004847 89.540719 
L 237.47781 87.270878 
L 241.053082 85.182298 
L 244.720928 83.276849 
L 248.497859 81.546331 
L 252.332898 80.019349 
L 256.284223 78.668208 
L 260.275991 77.530961 
L 264.342127 76.59115 
L 268.418738 75.867067 
L 272.562064 75.340728 
L 276.709137 75.029391 
L 280.862157 74.927644 
L 285.024282 75.036836 
L 289.16357 75.359986 
L 293.306776 75.90005 
L 297.36525 76.651524 
L 301.370182 77.605714 
L 305.30388 78.752624 
L 309.16985 80.084308 
L 312.959633 81.590963 
L 316.660174 83.257066 
L 320.312046 85.090903 
L 323.876895 87.073969 
L 327.3563 89.195945 
L 330.758347 91.451446 
L 334.098253 93.84487 
L 337.336584 96.346468 
L 340.514453 98.972974 
L 343.60165 101.69936 
L 346.626842 104.539239 
L 349.559378 107.464374 
L 352.434364 110.499132 
L 357.924851 116.803012 
L 363.100056 123.4073 
L 367.951073 130.274045 
L 372.49268 137.374705 
L 376.706899 144.669164 
L 380.577473 152.107694 
L 384.107936 159.666303 
L 387.273858 167.289418 
L 390.085301 174.974247 
L 392.519721 182.672158 
L 394.560265 190.340384 
L 396.201816 197.975136 
L 397.412844 205.502234 
L 398.185887 212.939654 
L 398.396902 216.60991 
L 398.487273 220.237496 
L 398.454371 223.832549 
L 398.290453 227.399188 
L 397.990936 230.896854 
L 397.549169 234.373635 
L 397.07976 237.1524 
L 397.07976 237.1524 
" style="fill:none;stroke:#ffffff;stroke-linecap:square;"/>
   </g>
   <g id="line2d_16">
    <path clip-path="url(#p65ff6f19f7)" d="M 76.557098 273.591307 
L 81.828199 273.139692 
L 87.616025 272.953335 
L 93.889246 272.990433 
L 103.944623 273.317679 
L 122.086502 274.019382 
L 129.679769 274.128356 
L 137.405657 274.013171 
L 145.217354 273.582217 
L 149.13459 273.220473 
L 153.086627 272.74284 
L 157.029887 272.134899 
L 160.973096 271.38323 
L 164.914246 270.471285 
L 168.832297 269.386339 
L 172.725663 268.113655 
L 176.583001 266.638532 
L 180.395644 264.945406 
L 184.131297 263.029294 
L 187.764512 260.894614 
L 191.251374 258.568939 
L 194.582042 256.075862 
L 197.778956 253.414357 
L 200.829375 250.598274 
L 203.713963 247.654141 
L 206.456415 244.568222 
L 209.034789 241.360934 
L 211.450193 238.035779 
L 213.7126 234.578225 
L 215.793511 231.02226 
L 217.712966 227.336705 
L 219.445211 223.545238 
L 220.97938 219.661841 
L 222.315016 215.667207 
L 223.423433 211.615385 
L 224.293582 207.584511 
L 224.953415 203.587986 
L 225.428823 199.649364 
L 225.750669 195.764308 
L 226.032733 188.229977 
L 226.002423 181.018325 
L 225.721764 164.401658 
L 225.910954 158.270425 
L 226.450464 152.294355 
L 227.394407 146.468962 
L 228.022798 143.636694 
L 228.756376 140.876456 
L 229.596604 138.197685 
L 230.544659 135.608669 
L 231.601673 133.116279 
L 232.778306 130.709613 
L 234.08271 128.380288 
L 235.531605 126.108694 
L 237.130564 123.889203 
L 238.845084 121.754809 
L 240.678842 119.704269 
L 242.64489 117.728155 
L 244.699161 115.857759 
L 246.856193 114.085344 
L 249.096659 112.42273 
L 251.400512 110.882477 
L 253.787078 109.455628 
L 256.245534 108.147166 
L 258.738812 106.972146 
L 261.317888 105.915664 
L 263.904028 104.998566 
L 266.56622 104.210208 
L 269.243128 103.560195 
L 271.991793 103.043941 
L 274.728565 102.665725 
L 277.495854 102.428848 
L 280.264049 102.331867 
L 283.009433 102.373434 
L 285.750242 102.557383 
L 288.432313 102.873904 
L 291.123736 103.342209 
L 293.800175 103.950432 
L 296.472467 104.701716 
L 299.130256 105.590303 
L 301.781999 106.619142 
L 304.433899 107.790052 
L 307.052237 109.08104 
L 309.661659 110.510613 
L 312.260588 112.075383 
L 314.840937 113.76703 
L 317.380637 115.567451 
L 322.401572 119.546568 
L 327.294599 123.971521 
L 332.019658 128.790906 
L 336.568358 133.985835 
L 340.918388 139.510804 
L 345.044391 145.328384 
L 348.924737 151.371178 
L 352.536288 157.597071 
L 355.874741 163.987265 
L 358.916005 170.469812 
L 361.650247 177.024907 
L 364.053699 183.559404 
L 366.121495 190.053409 
L 367.843076 196.467456 
L 369.203002 202.709397 
L 370.19854 208.77803 
L 370.823445 214.566296 
L 371.077127 220.05557 
L 370.972428 225.146482 
L 370.521345 229.807899 
L 370.051936 232.586664 
L 370.051936 232.586664 
" style="fill:none;stroke:#ffffff;stroke-linecap:square;"/>
   </g>
   <g id="patch_3">
    <path d="M 57.6 307.584 
L 57.6 41.472 
" style="fill:none;stroke:#000000;stroke-linecap:square;stroke-linejoin:miter;stroke-width:0.8;"/>
   </g>
   <g id="patch_4">
    <path d="M 414.72 307.584 
L 414.72 41.472 
" style="fill:none;stroke:#000000;stroke-linecap:square;stroke-linejoin:miter;stroke-width:0.8;"/>
   </g>
   <g id="patch_5">
    <path d="M 57.6 307.584 
L 414.72 307.584 
" style="fill:none;stroke:#000000;stroke-linecap:square;stroke-linejoin:miter;stroke-width:0.8;"/>
   </g>
   <g id="patch_6">
    <path d="M 57.6 41.472 
L 414.72 41.472 
" style="fill:none;stroke:#000000;stroke-linecap:square;stroke-linejoin:miter;stroke-width:0.8;"/>
   </g>
  </g>
 </g>
 <defs>
  <clipPath id="p65ff6f19f7">
   <rect height="266.112" width="357.12" x="57.6" y="41.472"/>
  </clipPath>
 </defs>
</svg>
