<?xml version="1.0" encoding="utf-8" standalone="no"?>
<!DOCTYPE svg PUBLIC "-//W3C//DTD SVG 1.1//EN"
  "http://www.w3.org/Graphics/SVG/1.1/DTD/svg11.dtd">
<!-- Created with matplotlib (https://matplotlib.org/) -->
<svg height="345.6pt" version="1.1" viewBox="0 0 460.8 345.6" width="460.8pt" xmlns="http://www.w3.org/2000/svg" xmlns:xlink="http://www.w3.org/1999/xlink">
 <metadata>
  <rdf:RDF xmlns:cc="http://creativecommons.org/ns#" xmlns:dc="http://purl.org/dc/elements/1.1/" xmlns:rdf="http://www.w3.org/1999/02/22-rdf-syntax-ns#">
   <cc:Work>
    <dc:type rdf:resource="http://purl.org/dc/dcmitype/StillImage"/>
    <dc:date>2021-03-15T19:13:55.593156</dc:date>
    <dc:format>image/svg+xml</dc:format>
    <dc:creator>
     <cc:Agent>
      <dc:title>Matplotlib v3.3.3, https://matplotlib.org/</dc:title>
     </cc:Agent>
    </dc:creator>
   </cc:Work>
  </rdf:RDF>
 </metadata>
 <defs>
  <style type="text/css">*{stroke-linecap:butt;stroke-linejoin:round;}</style>
 </defs>
 <g id="figure_1">
  <g id="patch_1">
   <path d="M 0 345.6 
L 460.8 345.6 
L 460.8 0 
L 0 0 
z
" style="fill:#ffffff;"/>
  </g>
  <g id="axes_1">
   <g id="patch_2">
    <path d="M 57.6 307.584 
L 414.72 307.584 
L 414.72 41.472 
L 57.6 41.472 
z
" style="fill:#7d9051;"/>
   </g>
   <g id="matplotlib.axis_1">
    <g id="xtick_1">
     <g id="line2d_1">
      <defs>
       <path d="M 0 0 
L 0 3.5 
" id="m6234b20306" style="stroke:#000000;stroke-width:0.8;"/>
      </defs>
      <g>
       <use style="stroke:#000000;stroke-width:0.8;" x="109.303698" xlink:href="#m6234b20306" y="307.584"/>
      </g>
     </g>
     <g id="text_1">
      <!-- 20 -->
      <g transform="translate(102.941198 322.182437)scale(0.1 -0.1)">
       <defs>
        <path d="M 19.1875 8.296875 
L 53.609375 8.296875 
L 53.609375 0 
L 7.328125 0 
L 7.328125 8.296875 
Q 12.9375 14.109375 22.625 23.890625 
Q 32.328125 33.6875 34.8125 36.53125 
Q 39.546875 41.84375 41.421875 45.53125 
Q 43.3125 49.21875 43.3125 52.78125 
Q 43.3125 58.59375 39.234375 62.25 
Q 35.15625 65.921875 28.609375 65.921875 
Q 23.96875 65.921875 18.8125 64.3125 
Q 13.671875 62.703125 7.8125 59.421875 
L 7.8125 69.390625 
Q 13.765625 71.78125 18.9375 73 
Q 24.125 74.21875 28.421875 74.21875 
Q 39.75 74.21875 46.484375 68.546875 
Q 53.21875 62.890625 53.21875 53.421875 
Q 53.21875 48.921875 51.53125 44.890625 
Q 49.859375 40.875 45.40625 35.40625 
Q 44.1875 33.984375 37.640625 27.21875 
Q 31.109375 20.453125 19.1875 8.296875 
z
" id="DejaVuSans-50"/>
        <path d="M 31.78125 66.40625 
Q 24.171875 66.40625 20.328125 58.90625 
Q 16.5 51.421875 16.5 36.375 
Q 16.5 21.390625 20.328125 13.890625 
Q 24.171875 6.390625 31.78125 6.390625 
Q 39.453125 6.390625 43.28125 13.890625 
Q 47.125 21.390625 47.125 36.375 
Q 47.125 51.421875 43.28125 58.90625 
Q 39.453125 66.40625 31.78125 66.40625 
z
M 31.78125 74.21875 
Q 44.046875 74.21875 50.515625 64.515625 
Q 56.984375 54.828125 56.984375 36.375 
Q 56.984375 17.96875 50.515625 8.265625 
Q 44.046875 -1.421875 31.78125 -1.421875 
Q 19.53125 -1.421875 13.0625 8.265625 
Q 6.59375 17.96875 6.59375 36.375 
Q 6.59375 54.828125 13.0625 64.515625 
Q 19.53125 74.21875 31.78125 74.21875 
z
" id="DejaVuSans-48"/>
       </defs>
       <use xlink:href="#DejaVuSans-50"/>
       <use x="63.623047" xlink:href="#DejaVuSans-48"/>
      </g>
     </g>
    </g>
    <g id="xtick_2">
     <g id="line2d_2">
      <g>
       <use style="stroke:#000000;stroke-width:0.8;" x="175.236787" xlink:href="#m6234b20306" y="307.584"/>
      </g>
     </g>
     <g id="text_2">
      <!-- 40 -->
      <g transform="translate(168.874287 322.182437)scale(0.1 -0.1)">
       <defs>
        <path d="M 37.796875 64.3125 
L 12.890625 25.390625 
L 37.796875 25.390625 
z
M 35.203125 72.90625 
L 47.609375 72.90625 
L 47.609375 25.390625 
L 58.015625 25.390625 
L 58.015625 17.1875 
L 47.609375 17.1875 
L 47.609375 0 
L 37.796875 0 
L 37.796875 17.1875 
L 4.890625 17.1875 
L 4.890625 26.703125 
z
" id="DejaVuSans-52"/>
       </defs>
       <use xlink:href="#DejaVuSans-52"/>
       <use x="63.623047" xlink:href="#DejaVuSans-48"/>
      </g>
     </g>
    </g>
    <g id="xtick_3">
     <g id="line2d_3">
      <g>
       <use style="stroke:#000000;stroke-width:0.8;" x="241.169876" xlink:href="#m6234b20306" y="307.584"/>
      </g>
     </g>
     <g id="text_3">
      <!-- 60 -->
      <g transform="translate(234.807376 322.182437)scale(0.1 -0.1)">
       <defs>
        <path d="M 33.015625 40.375 
Q 26.375 40.375 22.484375 35.828125 
Q 18.609375 31.296875 18.609375 23.390625 
Q 18.609375 15.53125 22.484375 10.953125 
Q 26.375 6.390625 33.015625 6.390625 
Q 39.65625 6.390625 43.53125 10.953125 
Q 47.40625 15.53125 47.40625 23.390625 
Q 47.40625 31.296875 43.53125 35.828125 
Q 39.65625 40.375 33.015625 40.375 
z
M 52.59375 71.296875 
L 52.59375 62.3125 
Q 48.875 64.0625 45.09375 64.984375 
Q 41.3125 65.921875 37.59375 65.921875 
Q 27.828125 65.921875 22.671875 59.328125 
Q 17.53125 52.734375 16.796875 39.40625 
Q 19.671875 43.65625 24.015625 45.921875 
Q 28.375 48.1875 33.59375 48.1875 
Q 44.578125 48.1875 50.953125 41.515625 
Q 57.328125 34.859375 57.328125 23.390625 
Q 57.328125 12.15625 50.6875 5.359375 
Q 44.046875 -1.421875 33.015625 -1.421875 
Q 20.359375 -1.421875 13.671875 8.265625 
Q 6.984375 17.96875 6.984375 36.375 
Q 6.984375 53.65625 15.1875 63.9375 
Q 23.390625 74.21875 37.203125 74.21875 
Q 40.921875 74.21875 44.703125 73.484375 
Q 48.484375 72.75 52.59375 71.296875 
z
" id="DejaVuSans-54"/>
       </defs>
       <use xlink:href="#DejaVuSans-54"/>
       <use x="63.623047" xlink:href="#DejaVuSans-48"/>
      </g>
     </g>
    </g>
    <g id="xtick_4">
     <g id="line2d_4">
      <g>
       <use style="stroke:#000000;stroke-width:0.8;" x="307.102964" xlink:href="#m6234b20306" y="307.584"/>
      </g>
     </g>
     <g id="text_4">
      <!-- 80 -->
      <g transform="translate(300.740464 322.182437)scale(0.1 -0.1)">
       <defs>
        <path d="M 31.78125 34.625 
Q 24.75 34.625 20.71875 30.859375 
Q 16.703125 27.09375 16.703125 20.515625 
Q 16.703125 13.921875 20.71875 10.15625 
Q 24.75 6.390625 31.78125 6.390625 
Q 38.8125 6.390625 42.859375 10.171875 
Q 46.921875 13.96875 46.921875 20.515625 
Q 46.921875 27.09375 42.890625 30.859375 
Q 38.875 34.625 31.78125 34.625 
z
M 21.921875 38.8125 
Q 15.578125 40.375 12.03125 44.71875 
Q 8.5 49.078125 8.5 55.328125 
Q 8.5 64.0625 14.71875 69.140625 
Q 20.953125 74.21875 31.78125 74.21875 
Q 42.671875 74.21875 48.875 69.140625 
Q 55.078125 64.0625 55.078125 55.328125 
Q 55.078125 49.078125 51.53125 44.71875 
Q 48 40.375 41.703125 38.8125 
Q 48.828125 37.15625 52.796875 32.3125 
Q 56.78125 27.484375 56.78125 20.515625 
Q 56.78125 9.90625 50.3125 4.234375 
Q 43.84375 -1.421875 31.78125 -1.421875 
Q 19.734375 -1.421875 13.25 4.234375 
Q 6.78125 9.90625 6.78125 20.515625 
Q 6.78125 27.484375 10.78125 32.3125 
Q 14.796875 37.15625 21.921875 38.8125 
z
M 18.3125 54.390625 
Q 18.3125 48.734375 21.84375 45.5625 
Q 25.390625 42.390625 31.78125 42.390625 
Q 38.140625 42.390625 41.71875 45.5625 
Q 45.3125 48.734375 45.3125 54.390625 
Q 45.3125 60.0625 41.71875 63.234375 
Q 38.140625 66.40625 31.78125 66.40625 
Q 25.390625 66.40625 21.84375 63.234375 
Q 18.3125 60.0625 18.3125 54.390625 
z
" id="DejaVuSans-56"/>
       </defs>
       <use xlink:href="#DejaVuSans-56"/>
       <use x="63.623047" xlink:href="#DejaVuSans-48"/>
      </g>
     </g>
    </g>
    <g id="xtick_5">
     <g id="line2d_5">
      <g>
       <use style="stroke:#000000;stroke-width:0.8;" x="373.036053" xlink:href="#m6234b20306" y="307.584"/>
      </g>
     </g>
     <g id="text_5">
      <!-- 100 -->
      <g transform="translate(363.492303 322.182437)scale(0.1 -0.1)">
       <defs>
        <path d="M 12.40625 8.296875 
L 28.515625 8.296875 
L 28.515625 63.921875 
L 10.984375 60.40625 
L 10.984375 69.390625 
L 28.421875 72.90625 
L 38.28125 72.90625 
L 38.28125 8.296875 
L 54.390625 8.296875 
L 54.390625 0 
L 12.40625 0 
z
" id="DejaVuSans-49"/>
       </defs>
       <use xlink:href="#DejaVuSans-49"/>
       <use x="63.623047" xlink:href="#DejaVuSans-48"/>
       <use x="127.246094" xlink:href="#DejaVuSans-48"/>
      </g>
     </g>
    </g>
   </g>
   <g id="matplotlib.axis_2">
    <g id="ytick_1">
     <g id="line2d_6">
      <defs>
       <path d="M 0 0 
L -3.5 0 
" id="m559b81e21f" style="stroke:#000000;stroke-width:0.8;"/>
      </defs>
      <g>
       <use style="stroke:#000000;stroke-width:0.8;" x="57.6" xlink:href="#m559b81e21f" y="301.111119"/>
      </g>
     </g>
     <g id="text_6">
      <!-- 0 -->
      <g transform="translate(44.2375 304.910338)scale(0.1 -0.1)">
       <use xlink:href="#DejaVuSans-48"/>
      </g>
     </g>
    </g>
    <g id="ytick_2">
     <g id="line2d_7">
      <g>
       <use style="stroke:#000000;stroke-width:0.8;" x="57.6" xlink:href="#m559b81e21f" y="268.144575"/>
      </g>
     </g>
     <g id="text_7">
      <!-- 10 -->
      <g transform="translate(37.875 271.943794)scale(0.1 -0.1)">
       <use xlink:href="#DejaVuSans-49"/>
       <use x="63.623047" xlink:href="#DejaVuSans-48"/>
      </g>
     </g>
    </g>
    <g id="ytick_3">
     <g id="line2d_8">
      <g>
       <use style="stroke:#000000;stroke-width:0.8;" x="57.6" xlink:href="#m559b81e21f" y="235.178031"/>
      </g>
     </g>
     <g id="text_8">
      <!-- 20 -->
      <g transform="translate(37.875 238.977249)scale(0.1 -0.1)">
       <use xlink:href="#DejaVuSans-50"/>
       <use x="63.623047" xlink:href="#DejaVuSans-48"/>
      </g>
     </g>
    </g>
    <g id="ytick_4">
     <g id="line2d_9">
      <g>
       <use style="stroke:#000000;stroke-width:0.8;" x="57.6" xlink:href="#m559b81e21f" y="202.211486"/>
      </g>
     </g>
     <g id="text_9">
      <!-- 30 -->
      <g transform="translate(37.875 206.010705)scale(0.1 -0.1)">
       <defs>
        <path d="M 40.578125 39.3125 
Q 47.65625 37.796875 51.625 33 
Q 55.609375 28.21875 55.609375 21.1875 
Q 55.609375 10.40625 48.1875 4.484375 
Q 40.765625 -1.421875 27.09375 -1.421875 
Q 22.515625 -1.421875 17.65625 -0.515625 
Q 12.796875 0.390625 7.625 2.203125 
L 7.625 11.71875 
Q 11.71875 9.328125 16.59375 8.109375 
Q 21.484375 6.890625 26.8125 6.890625 
Q 36.078125 6.890625 40.9375 10.546875 
Q 45.796875 14.203125 45.796875 21.1875 
Q 45.796875 27.640625 41.28125 31.265625 
Q 36.765625 34.90625 28.71875 34.90625 
L 20.21875 34.90625 
L 20.21875 43.015625 
L 29.109375 43.015625 
Q 36.375 43.015625 40.234375 45.921875 
Q 44.09375 48.828125 44.09375 54.296875 
Q 44.09375 59.90625 40.109375 62.90625 
Q 36.140625 65.921875 28.71875 65.921875 
Q 24.65625 65.921875 20.015625 65.03125 
Q 15.375 64.15625 9.8125 62.3125 
L 9.8125 71.09375 
Q 15.4375 72.65625 20.34375 73.4375 
Q 25.25 74.21875 29.59375 74.21875 
Q 40.828125 74.21875 47.359375 69.109375 
Q 53.90625 64.015625 53.90625 55.328125 
Q 53.90625 49.265625 50.4375 45.09375 
Q 46.96875 40.921875 40.578125 39.3125 
z
" id="DejaVuSans-51"/>
       </defs>
       <use xlink:href="#DejaVuSans-51"/>
       <use x="63.623047" xlink:href="#DejaVuSans-48"/>
      </g>
     </g>
    </g>
    <g id="ytick_5">
     <g id="line2d_10">
      <g>
       <use style="stroke:#000000;stroke-width:0.8;" x="57.6" xlink:href="#m559b81e21f" y="169.244942"/>
      </g>
     </g>
     <g id="text_10">
      <!-- 40 -->
      <g transform="translate(37.875 173.044161)scale(0.1 -0.1)">
       <use xlink:href="#DejaVuSans-52"/>
       <use x="63.623047" xlink:href="#DejaVuSans-48"/>
      </g>
     </g>
    </g>
    <g id="ytick_6">
     <g id="line2d_11">
      <g>
       <use style="stroke:#000000;stroke-width:0.8;" x="57.6" xlink:href="#m559b81e21f" y="136.278398"/>
      </g>
     </g>
     <g id="text_11">
      <!-- 50 -->
      <g transform="translate(37.875 140.077616)scale(0.1 -0.1)">
       <defs>
        <path d="M 10.796875 72.90625 
L 49.515625 72.90625 
L 49.515625 64.59375 
L 19.828125 64.59375 
L 19.828125 46.734375 
Q 21.96875 47.46875 24.109375 47.828125 
Q 26.265625 48.1875 28.421875 48.1875 
Q 40.625 48.1875 47.75 41.5 
Q 54.890625 34.8125 54.890625 23.390625 
Q 54.890625 11.625 47.5625 5.09375 
Q 40.234375 -1.421875 26.90625 -1.421875 
Q 22.3125 -1.421875 17.546875 -0.640625 
Q 12.796875 0.140625 7.71875 1.703125 
L 7.71875 11.625 
Q 12.109375 9.234375 16.796875 8.0625 
Q 21.484375 6.890625 26.703125 6.890625 
Q 35.15625 6.890625 40.078125 11.328125 
Q 45.015625 15.765625 45.015625 23.390625 
Q 45.015625 31 40.078125 35.4375 
Q 35.15625 39.890625 26.703125 39.890625 
Q 22.75 39.890625 18.8125 39.015625 
Q 14.890625 38.140625 10.796875 36.28125 
z
" id="DejaVuSans-53"/>
       </defs>
       <use xlink:href="#DejaVuSans-53"/>
       <use x="63.623047" xlink:href="#DejaVuSans-48"/>
      </g>
     </g>
    </g>
    <g id="ytick_7">
     <g id="line2d_12">
      <g>
       <use style="stroke:#000000;stroke-width:0.8;" x="57.6" xlink:href="#m559b81e21f" y="103.311853"/>
      </g>
     </g>
     <g id="text_12">
      <!-- 60 -->
      <g transform="translate(37.875 107.111072)scale(0.1 -0.1)">
       <use xlink:href="#DejaVuSans-54"/>
       <use x="63.623047" xlink:href="#DejaVuSans-48"/>
      </g>
     </g>
    </g>
    <g id="ytick_8">
     <g id="line2d_13">
      <g>
       <use style="stroke:#000000;stroke-width:0.8;" x="57.6" xlink:href="#m559b81e21f" y="70.345309"/>
      </g>
     </g>
     <g id="text_13">
      <!-- 70 -->
      <g transform="translate(37.875 74.144528)scale(0.1 -0.1)">
       <defs>
        <path d="M 8.203125 72.90625 
L 55.078125 72.90625 
L 55.078125 68.703125 
L 28.609375 0 
L 18.3125 0 
L 43.21875 64.59375 
L 8.203125 64.59375 
z
" id="DejaVuSans-55"/>
       </defs>
       <use xlink:href="#DejaVuSans-55"/>
       <use x="63.623047" xlink:href="#DejaVuSans-48"/>
      </g>
     </g>
    </g>
   </g>
   <g id="line2d_14">
    <path clip-path="url(#p4a0611591f)" d="M 76.337154 268.144575 
L 79.353592 267.561067 
L 82.422778 267.112722 
L 85.548006 266.786353 
L 91.940219 266.450095 
L 98.490671 266.456688 
L 105.169693 266.71053 
L 118.778283 267.561067 
L 129.070438 268.118202 
L 135.910996 268.266551 
L 142.695511 268.124795 
L 149.387719 267.594034 
L 152.694264 267.148985 
L 155.961248 266.572071 
L 159.19197 265.850104 
L 162.376538 264.969897 
L 165.51825 263.918264 
L 168.603918 262.688612 
L 171.62695 261.29083 
L 174.580753 259.728216 
L 177.452139 258.010659 
L 180.234515 256.14805 
L 182.917992 254.143684 
L 185.492679 252.007452 
L 187.948686 249.749243 
L 190.282718 247.372355 
L 192.491476 244.880085 
L 194.571665 242.285618 
L 196.526581 239.588954 
L 198.349631 236.793391 
L 200.044111 233.908819 
L 201.603429 230.938533 
L 203.03088 227.889128 
L 204.313279 224.770493 
L 205.434141 221.592518 
L 206.383578 218.365093 
L 207.141808 215.104702 
L 207.698943 211.817937 
L 208.035202 208.521283 
L 208.140695 205.221332 
L 208.008829 201.927974 
L 207.67257 198.644506 
L 206.591267 192.094054 
L 204.659428 182.270024 
L 204.128666 178.986556 
L 203.713288 175.696495 
L 203.231976 169.093296 
L 203.156153 162.463724 
L 203.419886 155.814372 
L 203.96713 149.141943 
L 204.741844 142.456328 
L 205.783587 135.803679 
L 206.433028 132.510322 
L 207.191258 129.24993 
L 208.068168 126.035692 
L 209.076945 122.870904 
L 210.230774 119.768752 
L 211.542842 116.739127 
L 213.029633 113.785324 
L 214.694444 110.920532 
L 216.537274 108.151342 
L 218.541639 105.481052 
L 220.700948 102.919551 
L 223.002013 100.46684 
L 225.438241 98.136106 
L 227.996444 95.927347 
L 230.666735 93.853752 
L 233.435924 91.912022 
L 236.29742 90.118642 
L 239.238036 88.470315 
L 242.251178 86.97693 
L 245.330253 85.638489 
L 248.465372 84.45499 
L 251.656533 83.433027 
L 254.890551 82.5726 
L 258.164129 81.877006 
L 261.47397 81.346245 
L 264.806888 80.983613 
L 268.156289 80.792407 
L 271.522173 80.775923 
L 274.891354 80.930866 
L 278.250645 81.257235 
L 281.593452 81.751733 
L 284.903293 82.414361 
L 288.170278 83.241821 
L 291.384516 84.234114 
L 294.532821 85.387943 
L 297.59871 86.700011 
L 300.578885 88.167023 
L 303.456865 89.792273 
L 306.226054 91.56917 
L 308.886454 93.49112 
L 311.447955 95.551529 
L 313.910556 97.743804 
L 316.284147 100.058055 
L 318.568728 102.48769 
L 320.770894 105.02941 
L 322.893939 107.673327 
L 326.929044 113.23808 
L 330.70701 119.122608 
L 334.27399 125.274165 
L 337.659654 131.630115 
L 342.49255 141.427772 
L 358.000012 174.018498 
L 361.276887 180.090935 
L 364.698814 185.87986 
L 368.308651 191.32923 
L 372.14266 196.376408 
L 374.156916 198.736813 
L 376.240401 200.971944 
L 378.396413 203.078506 
L 380.634842 205.053202 
L 382.958983 206.882846 
L 385.372134 208.560843 
L 387.877591 210.083897 
L 390.485245 211.442119 
L 393.191798 212.628914 
L 393.191798 212.628914 
" style="fill:none;stroke:#fea952;stroke-linecap:square;"/>
   </g>
   <g id="line2d_15">
    <path clip-path="url(#p4a0611591f)" d="M 73.832727 255.197964 
L 77.447528 254.512933 
L 81.053142 253.997426 
L 84.646366 253.630597 
L 91.806758 253.264152 
L 98.895619 253.276289 
L 105.901867 253.544255 
L 119.600842 254.400129 
L 129.476378 254.937834 
L 135.808678 255.08033 
L 141.868932 254.964109 
L 147.628712 254.525263 
L 153.085377 253.702873 
L 155.678942 253.140048 
L 158.190821 252.465231 
L 160.636662 251.668489 
L 163.069682 250.719522 
L 165.46068 249.634759 
L 167.811585 248.411624 
L 170.116559 247.052732 
L 172.343326 245.583201 
L 174.497872 243.99536 
L 176.567416 242.300414 
L 178.539903 240.510105 
L 180.413964 238.626237 
L 182.203391 236.631315 
L 183.895332 234.545928 
L 185.481071 232.385927 
L 186.979628 230.114326 
L 188.368574 227.779486 
L 189.660544 225.347972 
L 190.835102 222.874162 
L 191.877474 220.38442 
L 192.783561 217.870999 
L 193.539706 215.378146 
L 194.14065 212.900895 
L 194.580391 210.479845 
L 194.855317 208.099948 
L 194.964635 205.748902 
L 194.89082 203.271384 
L 194.629734 200.586498 
L 193.659224 194.672649 
L 191.641786 184.374281 
L 191.045904 180.638287 
L 190.578587 176.865483 
L 190.25451 173.148022 
L 190.049778 169.434667 
L 189.97462 162.09757 
L 190.268381 154.8527 
L 190.857426 147.719786 
L 191.69035 140.573405 
L 192.846118 133.252447 
L 193.589156 129.523375 
L 194.469588 125.779198 
L 195.504365 122.03098 
L 196.717559 118.273896 
L 198.130198 114.528242 
L 199.76419 110.810363 
L 201.628382 107.159741 
L 203.716486 103.614962 
L 205.991105 100.235205 
L 208.459424 96.981887 
L 211.084045 93.897242 
L 213.886246 90.938479 
L 216.820545 88.155013 
L 219.908658 85.512233 
L 223.096082 83.056895 
L 226.433151 80.73848 
L 229.849683 78.615879 
L 233.382203 76.655235 
L 236.994276 74.883466 
L 240.673123 73.301633 
L 244.443586 71.896641 
L 248.266112 70.689718 
L 252.149753 69.67396 
L 256.076217 68.856733 
L 260.047642 68.236993 
L 264.055332 67.818429 
L 268.091713 67.605947 
L 272.127962 67.603228 
L 276.166484 67.806045 
L 280.180328 68.212573 
L 284.182037 68.821686 
L 288.140959 69.631387 
L 292.060079 70.641966 
L 295.922166 71.852813 
L 299.72099 73.264833 
L 303.422542 74.869125 
L 307.063122 76.684794 
L 310.578277 78.693968 
L 313.948145 80.880101 
L 317.151456 83.21607 
L 320.21603 85.702277 
L 323.116135 88.302184 
L 325.89085 91.024886 
L 328.534991 93.852847 
L 331.052886 96.773047 
L 333.446284 99.765425 
L 335.739075 102.835705 
L 340.035485 109.162441 
L 343.985182 115.665705 
L 347.669136 122.316227 
L 351.123423 129.035623 
L 356.000096 139.151426 
L 368.14893 164.897133 
L 371.17415 170.725618 
L 374.244363 176.188868 
L 377.369899 181.214309 
L 380.556427 185.747417 
L 383.802737 189.745427 
L 387.120001 193.189831 
L 388.791551 194.691977 
L 390.487225 196.056375 
L 392.22189 197.292847 
L 393.969186 198.388626 
L 395.780719 199.365495 
L 398.487273 200.552291 
L 398.487273 200.552291 
" style="fill:none;stroke:#ffffff;stroke-linecap:square;"/>
   </g>
   <g id="line2d_16">
    <path clip-path="url(#p4a0611591f)" d="M 78.84158 281.091186 
L 81.259657 280.609201 
L 83.792413 280.228018 
L 89.208745 279.746431 
L 95.038927 279.602795 
L 101.22116 279.732034 
L 111.079815 280.270971 
L 125.056495 281.140318 
L 132.330206 281.409274 
L 139.758984 281.419145 
L 147.314203 281.040149 
L 151.146726 280.662805 
L 154.9874 280.134686 
L 158.83712 279.441269 
L 162.704998 278.56016 
L 166.562255 277.474562 
L 170.399837 276.168039 
L 174.138154 274.657702 
L 177.79322 272.946902 
L 181.34992 271.044809 
L 184.787718 268.968586 
L 188.125704 266.712898 
L 191.338111 264.292007 
L 194.417941 261.714489 
L 197.35747 258.988382 
L 200.151472 256.118473 
L 202.779561 253.128854 
L 205.247999 250.025307 
L 207.572091 246.791981 
L 209.719635 243.472456 
L 211.719648 240.038152 
L 213.546314 236.529095 
L 215.226659 232.904094 
L 216.749084 229.156565 
L 218.084722 225.314037 
L 219.227449 221.35204 
L 220.142967 217.308509 
L 220.817495 213.15603 
L 221.215087 208.942618 
L 221.316755 204.693762 
L 221.126837 200.584564 
L 220.715405 196.702515 
L 219.52331 189.515459 
L 217.677069 180.165766 
L 216.847988 174.527506 
L 216.414175 168.751924 
L 216.337686 162.829877 
L 216.57139 156.776043 
L 217.076835 150.5641 
L 217.793338 144.339251 
L 218.721056 138.354912 
L 219.912929 132.720663 
L 221.43633 127.467912 
L 222.33135 125.009263 
L 223.321494 122.66789 
L 224.430885 120.410908 
L 225.672401 118.226101 
L 227.083442 116.067478 
L 228.623855 113.980217 
L 230.317851 111.941861 
L 232.11778 109.995202 
L 234.055936 108.117198 
L 236.084231 106.342461 
L 238.237387 104.650608 
L 240.438697 103.085565 
L 242.745158 101.621406 
L 245.093869 100.285395 
L 247.50808 99.070394 
L 249.987384 97.975345 
L 252.487157 97.013339 
L 255.046955 96.176336 
L 257.63135 95.47124 
L 260.252041 94.897279 
L 262.900298 94.455496 
L 265.558444 94.148796 
L 268.220865 93.978866 
L 270.916384 93.948619 
L 273.616224 94.055687 
L 276.320961 94.301897 
L 279.004867 94.68178 
L 281.665628 95.197334 
L 284.280477 95.841675 
L 286.846866 96.615415 
L 289.344651 97.511053 
L 291.774877 98.530898 
L 294.094649 99.649251 
L 296.335452 100.890578 
L 298.503963 102.258239 
L 300.621453 103.766169 
L 302.67988 105.40078 
L 304.704976 107.185424 
L 306.677444 109.091224 
L 308.602466 111.122532 
L 310.488901 113.285773 
L 314.149841 117.983396 
L 317.659909 123.122424 
L 321.041972 128.671728 
L 324.300772 134.5419 
L 327.47276 140.705829 
L 332.110232 150.3238 
L 343.017874 173.579791 
L 346.34401 180.184899 
L 349.852265 186.676138 
L 353.606515 193.010624 
L 357.67187 199.123188 
L 359.83884 202.067011 
L 362.111868 204.936204 
L 364.511094 207.728198 
L 367.024846 210.403827 
L 369.672825 212.967182 
L 372.478132 215.414427 
L 375.430741 217.709316 
L 378.522378 219.828839 
L 381.785996 221.779168 
L 385.189771 223.518742 
L 387.896324 224.705538 
L 387.896324 224.705538 
" style="fill:none;stroke:#ffffff;stroke-linecap:square;"/>
   </g>
   <g id="patch_3">
    <path d="M 57.6 307.584 
L 57.6 41.472 
" style="fill:none;stroke:#000000;stroke-linecap:square;stroke-linejoin:miter;stroke-width:0.8;"/>
   </g>
   <g id="patch_4">
    <path d="M 414.72 307.584 
L 414.72 41.472 
" style="fill:none;stroke:#000000;stroke-linecap:square;stroke-linejoin:miter;stroke-width:0.8;"/>
   </g>
   <g id="patch_5">
    <path d="M 57.6 307.584 
L 414.72 307.584 
" style="fill:none;stroke:#000000;stroke-linecap:square;stroke-linejoin:miter;stroke-width:0.8;"/>
   </g>
   <g id="patch_6">
    <path d="M 57.6 41.472 
L 414.72 41.472 
" style="fill:none;stroke:#000000;stroke-linecap:square;stroke-linejoin:miter;stroke-width:0.8;"/>
   </g>
  </g>
 </g>
 <defs>
  <clipPath id="p4a0611591f">
   <rect height="266.112" width="357.12" x="57.6" y="41.472"/>
  </clipPath>
 </defs>
</svg>
