<?xml version="1.0" encoding="utf-8" standalone="no"?>
<!DOCTYPE svg PUBLIC "-//W3C//DTD SVG 1.1//EN"
  "http://www.w3.org/Graphics/SVG/1.1/DTD/svg11.dtd">
<!-- Created with matplotlib (https://matplotlib.org/) -->
<svg height="345.6pt" version="1.1" viewBox="0 0 460.8 345.6" width="460.8pt" xmlns="http://www.w3.org/2000/svg" xmlns:xlink="http://www.w3.org/1999/xlink">
 <metadata>
  <rdf:RDF xmlns:cc="http://creativecommons.org/ns#" xmlns:dc="http://purl.org/dc/elements/1.1/" xmlns:rdf="http://www.w3.org/1999/02/22-rdf-syntax-ns#">
   <cc:Work>
    <dc:type rdf:resource="http://purl.org/dc/dcmitype/StillImage"/>
    <dc:date>2021-03-15T18:09:48.258601</dc:date>
    <dc:format>image/svg+xml</dc:format>
    <dc:creator>
     <cc:Agent>
      <dc:title>Matplotlib v3.3.3, https://matplotlib.org/</dc:title>
     </cc:Agent>
    </dc:creator>
   </cc:Work>
  </rdf:RDF>
 </metadata>
 <defs>
  <style type="text/css">*{stroke-linecap:butt;stroke-linejoin:round;}</style>
 </defs>
 <g id="figure_1">
  <g id="patch_1">
   <path d="M 0 345.6 
L 460.8 345.6 
L 460.8 0 
L 0 0 
z
" style="fill:#ffffff;"/>
  </g>
  <g id="axes_1">
   <g id="patch_2">
    <path d="M 57.6 307.584 
L 414.72 307.584 
L 414.72 41.472 
L 57.6 41.472 
z
" style="fill:#7d9051;"/>
   </g>
   <g id="matplotlib.axis_1">
    <g id="xtick_1">
     <g id="line2d_1">
      <defs>
       <path d="M 0 0 
L 0 3.5 
" id="me0b45a74c9" style="stroke:#000000;stroke-width:0.8;"/>
      </defs>
      <g>
       <use style="stroke:#000000;stroke-width:0.8;" x="110.344622" xlink:href="#me0b45a74c9" y="307.584"/>
      </g>
     </g>
     <g id="text_1">
      <!-- 20 -->
      <g transform="translate(103.982122 322.182437)scale(0.1 -0.1)">
       <defs>
        <path d="M 19.1875 8.296875 
L 53.609375 8.296875 
L 53.609375 0 
L 7.328125 0 
L 7.328125 8.296875 
Q 12.9375 14.109375 22.625 23.890625 
Q 32.328125 33.6875 34.8125 36.53125 
Q 39.546875 41.84375 41.421875 45.53125 
Q 43.3125 49.21875 43.3125 52.78125 
Q 43.3125 58.59375 39.234375 62.25 
Q 35.15625 65.921875 28.609375 65.921875 
Q 23.96875 65.921875 18.8125 64.3125 
Q 13.671875 62.703125 7.8125 59.421875 
L 7.8125 69.390625 
Q 13.765625 71.78125 18.9375 73 
Q 24.125 74.21875 28.421875 74.21875 
Q 39.75 74.21875 46.484375 68.546875 
Q 53.21875 62.890625 53.21875 53.421875 
Q 53.21875 48.921875 51.53125 44.890625 
Q 49.859375 40.875 45.40625 35.40625 
Q 44.1875 33.984375 37.640625 27.21875 
Q 31.109375 20.453125 19.1875 8.296875 
z
" id="DejaVuSans-50"/>
        <path d="M 31.78125 66.40625 
Q 24.171875 66.40625 20.328125 58.90625 
Q 16.5 51.421875 16.5 36.375 
Q 16.5 21.390625 20.328125 13.890625 
Q 24.171875 6.390625 31.78125 6.390625 
Q 39.453125 6.390625 43.28125 13.890625 
Q 47.125 21.390625 47.125 36.375 
Q 47.125 51.421875 43.28125 58.90625 
Q 39.453125 66.40625 31.78125 66.40625 
z
M 31.78125 74.21875 
Q 44.046875 74.21875 50.515625 64.515625 
Q 56.984375 54.828125 56.984375 36.375 
Q 56.984375 17.96875 50.515625 8.265625 
Q 44.046875 -1.421875 31.78125 -1.421875 
Q 19.53125 -1.421875 13.0625 8.265625 
Q 6.59375 17.96875 6.59375 36.375 
Q 6.59375 54.828125 13.0625 64.515625 
Q 19.53125 74.21875 31.78125 74.21875 
z
" id="DejaVuSans-48"/>
       </defs>
       <use xlink:href="#DejaVuSans-50"/>
       <use x="63.623047" xlink:href="#DejaVuSans-48"/>
      </g>
     </g>
    </g>
    <g id="xtick_2">
     <g id="line2d_2">
      <g>
       <use style="stroke:#000000;stroke-width:0.8;" x="175.754612" xlink:href="#me0b45a74c9" y="307.584"/>
      </g>
     </g>
     <g id="text_2">
      <!-- 40 -->
      <g transform="translate(169.392112 322.182437)scale(0.1 -0.1)">
       <defs>
        <path d="M 37.796875 64.3125 
L 12.890625 25.390625 
L 37.796875 25.390625 
z
M 35.203125 72.90625 
L 47.609375 72.90625 
L 47.609375 25.390625 
L 58.015625 25.390625 
L 58.015625 17.1875 
L 47.609375 17.1875 
L 47.609375 0 
L 37.796875 0 
L 37.796875 17.1875 
L 4.890625 17.1875 
L 4.890625 26.703125 
z
" id="DejaVuSans-52"/>
       </defs>
       <use xlink:href="#DejaVuSans-52"/>
       <use x="63.623047" xlink:href="#DejaVuSans-48"/>
      </g>
     </g>
    </g>
    <g id="xtick_3">
     <g id="line2d_3">
      <g>
       <use style="stroke:#000000;stroke-width:0.8;" x="241.164602" xlink:href="#me0b45a74c9" y="307.584"/>
      </g>
     </g>
     <g id="text_3">
      <!-- 60 -->
      <g transform="translate(234.802102 322.182437)scale(0.1 -0.1)">
       <defs>
        <path d="M 33.015625 40.375 
Q 26.375 40.375 22.484375 35.828125 
Q 18.609375 31.296875 18.609375 23.390625 
Q 18.609375 15.53125 22.484375 10.953125 
Q 26.375 6.390625 33.015625 6.390625 
Q 39.65625 6.390625 43.53125 10.953125 
Q 47.40625 15.53125 47.40625 23.390625 
Q 47.40625 31.296875 43.53125 35.828125 
Q 39.65625 40.375 33.015625 40.375 
z
M 52.59375 71.296875 
L 52.59375 62.3125 
Q 48.875 64.0625 45.09375 64.984375 
Q 41.3125 65.921875 37.59375 65.921875 
Q 27.828125 65.921875 22.671875 59.328125 
Q 17.53125 52.734375 16.796875 39.40625 
Q 19.671875 43.65625 24.015625 45.921875 
Q 28.375 48.1875 33.59375 48.1875 
Q 44.578125 48.1875 50.953125 41.515625 
Q 57.328125 34.859375 57.328125 23.390625 
Q 57.328125 12.15625 50.6875 5.359375 
Q 44.046875 -1.421875 33.015625 -1.421875 
Q 20.359375 -1.421875 13.671875 8.265625 
Q 6.984375 17.96875 6.984375 36.375 
Q 6.984375 53.65625 15.1875 63.9375 
Q 23.390625 74.21875 37.203125 74.21875 
Q 40.921875 74.21875 44.703125 73.484375 
Q 48.484375 72.75 52.59375 71.296875 
z
" id="DejaVuSans-54"/>
       </defs>
       <use xlink:href="#DejaVuSans-54"/>
       <use x="63.623047" xlink:href="#DejaVuSans-48"/>
      </g>
     </g>
    </g>
    <g id="xtick_4">
     <g id="line2d_4">
      <g>
       <use style="stroke:#000000;stroke-width:0.8;" x="306.574591" xlink:href="#me0b45a74c9" y="307.584"/>
      </g>
     </g>
     <g id="text_4">
      <!-- 80 -->
      <g transform="translate(300.212091 322.182437)scale(0.1 -0.1)">
       <defs>
        <path d="M 31.78125 34.625 
Q 24.75 34.625 20.71875 30.859375 
Q 16.703125 27.09375 16.703125 20.515625 
Q 16.703125 13.921875 20.71875 10.15625 
Q 24.75 6.390625 31.78125 6.390625 
Q 38.8125 6.390625 42.859375 10.171875 
Q 46.921875 13.96875 46.921875 20.515625 
Q 46.921875 27.09375 42.890625 30.859375 
Q 38.875 34.625 31.78125 34.625 
z
M 21.921875 38.8125 
Q 15.578125 40.375 12.03125 44.71875 
Q 8.5 49.078125 8.5 55.328125 
Q 8.5 64.0625 14.71875 69.140625 
Q 20.953125 74.21875 31.78125 74.21875 
Q 42.671875 74.21875 48.875 69.140625 
Q 55.078125 64.0625 55.078125 55.328125 
Q 55.078125 49.078125 51.53125 44.71875 
Q 48 40.375 41.703125 38.8125 
Q 48.828125 37.15625 52.796875 32.3125 
Q 56.78125 27.484375 56.78125 20.515625 
Q 56.78125 9.90625 50.3125 4.234375 
Q 43.84375 -1.421875 31.78125 -1.421875 
Q 19.734375 -1.421875 13.25 4.234375 
Q 6.78125 9.90625 6.78125 20.515625 
Q 6.78125 27.484375 10.78125 32.3125 
Q 14.796875 37.15625 21.921875 38.8125 
z
M 18.3125 54.390625 
Q 18.3125 48.734375 21.84375 45.5625 
Q 25.390625 42.390625 31.78125 42.390625 
Q 38.140625 42.390625 41.71875 45.5625 
Q 45.3125 48.734375 45.3125 54.390625 
Q 45.3125 60.0625 41.71875 63.234375 
Q 38.140625 66.40625 31.78125 66.40625 
Q 25.390625 66.40625 21.84375 63.234375 
Q 18.3125 60.0625 18.3125 54.390625 
z
" id="DejaVuSans-56"/>
       </defs>
       <use xlink:href="#DejaVuSans-56"/>
       <use x="63.623047" xlink:href="#DejaVuSans-48"/>
      </g>
     </g>
    </g>
    <g id="xtick_5">
     <g id="line2d_5">
      <g>
       <use style="stroke:#000000;stroke-width:0.8;" x="371.984581" xlink:href="#me0b45a74c9" y="307.584"/>
      </g>
     </g>
     <g id="text_5">
      <!-- 100 -->
      <g transform="translate(362.440831 322.182437)scale(0.1 -0.1)">
       <defs>
        <path d="M 12.40625 8.296875 
L 28.515625 8.296875 
L 28.515625 63.921875 
L 10.984375 60.40625 
L 10.984375 69.390625 
L 28.421875 72.90625 
L 38.28125 72.90625 
L 38.28125 8.296875 
L 54.390625 8.296875 
L 54.390625 0 
L 12.40625 0 
z
" id="DejaVuSans-49"/>
       </defs>
       <use xlink:href="#DejaVuSans-49"/>
       <use x="63.623047" xlink:href="#DejaVuSans-48"/>
       <use x="127.246094" xlink:href="#DejaVuSans-48"/>
      </g>
     </g>
    </g>
   </g>
   <g id="matplotlib.axis_2">
    <g id="ytick_1">
     <g id="line2d_6">
      <defs>
       <path d="M 0 0 
L -3.5 0 
" id="me086b876ea" style="stroke:#000000;stroke-width:0.8;"/>
      </defs>
      <g>
       <use style="stroke:#000000;stroke-width:0.8;" x="57.6" xlink:href="#me086b876ea" y="294.671065"/>
      </g>
     </g>
     <g id="text_6">
      <!-- 0 -->
      <g transform="translate(44.2375 298.470284)scale(0.1 -0.1)">
       <use xlink:href="#DejaVuSans-48"/>
      </g>
     </g>
    </g>
    <g id="ytick_2">
     <g id="line2d_7">
      <g>
       <use style="stroke:#000000;stroke-width:0.8;" x="57.6" xlink:href="#me086b876ea" y="261.96607"/>
      </g>
     </g>
     <g id="text_7">
      <!-- 10 -->
      <g transform="translate(37.875 265.765289)scale(0.1 -0.1)">
       <use xlink:href="#DejaVuSans-49"/>
       <use x="63.623047" xlink:href="#DejaVuSans-48"/>
      </g>
     </g>
    </g>
    <g id="ytick_3">
     <g id="line2d_8">
      <g>
       <use style="stroke:#000000;stroke-width:0.8;" x="57.6" xlink:href="#me086b876ea" y="229.261076"/>
      </g>
     </g>
     <g id="text_8">
      <!-- 20 -->
      <g transform="translate(37.875 233.060294)scale(0.1 -0.1)">
       <use xlink:href="#DejaVuSans-50"/>
       <use x="63.623047" xlink:href="#DejaVuSans-48"/>
      </g>
     </g>
    </g>
    <g id="ytick_4">
     <g id="line2d_9">
      <g>
       <use style="stroke:#000000;stroke-width:0.8;" x="57.6" xlink:href="#me086b876ea" y="196.556081"/>
      </g>
     </g>
     <g id="text_9">
      <!-- 30 -->
      <g transform="translate(37.875 200.3553)scale(0.1 -0.1)">
       <defs>
        <path d="M 40.578125 39.3125 
Q 47.65625 37.796875 51.625 33 
Q 55.609375 28.21875 55.609375 21.1875 
Q 55.609375 10.40625 48.1875 4.484375 
Q 40.765625 -1.421875 27.09375 -1.421875 
Q 22.515625 -1.421875 17.65625 -0.515625 
Q 12.796875 0.390625 7.625 2.203125 
L 7.625 11.71875 
Q 11.71875 9.328125 16.59375 8.109375 
Q 21.484375 6.890625 26.8125 6.890625 
Q 36.078125 6.890625 40.9375 10.546875 
Q 45.796875 14.203125 45.796875 21.1875 
Q 45.796875 27.640625 41.28125 31.265625 
Q 36.765625 34.90625 28.71875 34.90625 
L 20.21875 34.90625 
L 20.21875 43.015625 
L 29.109375 43.015625 
Q 36.375 43.015625 40.234375 45.921875 
Q 44.09375 48.828125 44.09375 54.296875 
Q 44.09375 59.90625 40.109375 62.90625 
Q 36.140625 65.921875 28.71875 65.921875 
Q 24.65625 65.921875 20.015625 65.03125 
Q 15.375 64.15625 9.8125 62.3125 
L 9.8125 71.09375 
Q 15.4375 72.65625 20.34375 73.4375 
Q 25.25 74.21875 29.59375 74.21875 
Q 40.828125 74.21875 47.359375 69.109375 
Q 53.90625 64.015625 53.90625 55.328125 
Q 53.90625 49.265625 50.4375 45.09375 
Q 46.96875 40.921875 40.578125 39.3125 
z
" id="DejaVuSans-51"/>
       </defs>
       <use xlink:href="#DejaVuSans-51"/>
       <use x="63.623047" xlink:href="#DejaVuSans-48"/>
      </g>
     </g>
    </g>
    <g id="ytick_5">
     <g id="line2d_10">
      <g>
       <use style="stroke:#000000;stroke-width:0.8;" x="57.6" xlink:href="#me086b876ea" y="163.851086"/>
      </g>
     </g>
     <g id="text_10">
      <!-- 40 -->
      <g transform="translate(37.875 167.650305)scale(0.1 -0.1)">
       <use xlink:href="#DejaVuSans-52"/>
       <use x="63.623047" xlink:href="#DejaVuSans-48"/>
      </g>
     </g>
    </g>
    <g id="ytick_6">
     <g id="line2d_11">
      <g>
       <use style="stroke:#000000;stroke-width:0.8;" x="57.6" xlink:href="#me086b876ea" y="131.146091"/>
      </g>
     </g>
     <g id="text_11">
      <!-- 50 -->
      <g transform="translate(37.875 134.94531)scale(0.1 -0.1)">
       <defs>
        <path d="M 10.796875 72.90625 
L 49.515625 72.90625 
L 49.515625 64.59375 
L 19.828125 64.59375 
L 19.828125 46.734375 
Q 21.96875 47.46875 24.109375 47.828125 
Q 26.265625 48.1875 28.421875 48.1875 
Q 40.625 48.1875 47.75 41.5 
Q 54.890625 34.8125 54.890625 23.390625 
Q 54.890625 11.625 47.5625 5.09375 
Q 40.234375 -1.421875 26.90625 -1.421875 
Q 22.3125 -1.421875 17.546875 -0.640625 
Q 12.796875 0.140625 7.71875 1.703125 
L 7.71875 11.625 
Q 12.109375 9.234375 16.796875 8.0625 
Q 21.484375 6.890625 26.703125 6.890625 
Q 35.15625 6.890625 40.078125 11.328125 
Q 45.015625 15.765625 45.015625 23.390625 
Q 45.015625 31 40.078125 35.4375 
Q 35.15625 39.890625 26.703125 39.890625 
Q 22.75 39.890625 18.8125 39.015625 
Q 14.890625 38.140625 10.796875 36.28125 
z
" id="DejaVuSans-53"/>
       </defs>
       <use xlink:href="#DejaVuSans-53"/>
       <use x="63.623047" xlink:href="#DejaVuSans-48"/>
      </g>
     </g>
    </g>
    <g id="ytick_7">
     <g id="line2d_12">
      <g>
       <use style="stroke:#000000;stroke-width:0.8;" x="57.6" xlink:href="#me086b876ea" y="98.441097"/>
      </g>
     </g>
     <g id="text_12">
      <!-- 60 -->
      <g transform="translate(37.875 102.240315)scale(0.1 -0.1)">
       <use xlink:href="#DejaVuSans-54"/>
       <use x="63.623047" xlink:href="#DejaVuSans-48"/>
      </g>
     </g>
    </g>
    <g id="ytick_8">
     <g id="line2d_13">
      <g>
       <use style="stroke:#000000;stroke-width:0.8;" x="57.6" xlink:href="#me086b876ea" y="65.736102"/>
      </g>
     </g>
     <g id="text_13">
      <!-- 70 -->
      <g transform="translate(37.875 69.535321)scale(0.1 -0.1)">
       <defs>
        <path d="M 8.203125 72.90625 
L 55.078125 72.90625 
L 55.078125 68.703125 
L 28.609375 0 
L 18.3125 0 
L 43.21875 64.59375 
L 8.203125 64.59375 
z
" id="DejaVuSans-55"/>
       </defs>
       <use xlink:href="#DejaVuSans-55"/>
       <use x="63.623047" xlink:href="#DejaVuSans-48"/>
      </g>
     </g>
    </g>
   </g>
   <g id="line2d_14">
    <path clip-path="url(#p247d1b7d01)" d="M 77.639628 261.96607 
L 80.779307 261.011085 
L 83.951692 260.25887 
L 87.14697 259.689803 
L 90.365141 259.290802 
L 93.609477 259.038973 
L 96.870165 258.924506 
L 103.447139 259.029162 
L 110.076442 259.467409 
L 120.077629 260.4551 
L 130.098439 261.442791 
L 136.760447 261.871226 
L 143.386479 261.959529 
L 146.679872 261.835251 
L 149.956912 261.576881 
L 153.2176 261.164798 
L 156.458665 260.58592 
L 159.670296 259.833705 
L 162.845951 258.914694 
L 165.975819 257.828889 
L 169.046818 256.589369 
L 172.055677 255.192866 
L 174.986045 253.64592 
L 177.831379 251.951801 
L 180.581869 250.120321 
L 183.230974 248.151481 
L 185.778693 246.05182 
L 188.218486 243.82788 
L 190.547081 241.486203 
L 192.76448 239.026787 
L 194.86087 236.459445 
L 196.832981 233.787447 
L 198.680813 231.017334 
L 200.388014 228.155647 
L 201.948042 225.215468 
L 203.344546 222.203338 
L 204.570983 219.129068 
L 205.614272 215.9992 
L 206.464602 212.823545 
L 207.10562 209.611915 
L 207.543867 206.367579 
L 207.808777 203.103621 
L 207.929786 199.816769 
L 207.851294 193.21363 
L 206.915931 170.140257 
L 206.922472 163.579635 
L 207.151407 157.009201 
L 207.658334 150.415874 
L 208.502123 143.816006 
L 209.074461 140.538966 
L 209.761266 137.284819 
L 210.565808 134.066647 
L 211.504442 130.894263 
L 212.583707 127.777477 
L 213.813414 124.72283 
L 215.203377 121.740135 
L 216.760134 118.842472 
L 218.490229 116.036384 
L 220.383848 113.32841 
L 222.42791 110.718552 
L 224.615874 108.21989 
L 226.937929 105.835696 
L 229.384262 103.57251 
L 231.941793 101.433604 
L 234.60725 99.428787 
L 237.367552 97.558062 
L 240.212886 95.831238 
L 243.133442 94.251587 
L 246.12922 92.822379 
L 249.187137 91.543613 
L 252.303923 90.418561 
L 255.476307 89.453764 
L 258.691208 88.649221 
L 261.942085 88.008203 
L 265.228937 87.533981 
L 268.538682 87.226554 
L 271.868051 87.089193 
L 275.20069 87.125168 
L 278.530058 87.324669 
L 281.839804 87.694235 
L 285.123385 88.227327 
L 288.370991 88.927214 
L 291.566269 89.790626 
L 294.699408 90.814292 
L 297.763866 92.001483 
L 300.743291 93.345658 
L 303.644224 94.846818 
L 306.463394 96.495149 
L 309.204073 98.287383 
L 311.86953 100.213707 
L 314.459765 102.274122 
L 316.97805 104.458816 
L 319.424384 106.764518 
L 321.802037 109.181417 
L 324.11428 111.706243 
L 328.545807 117.06005 
L 332.732046 122.773613 
L 336.68935 128.801143 
L 340.430802 135.100125 
L 343.972753 141.618231 
L 347.331556 148.312943 
L 350.523563 155.135205 
L 353.558587 162.0425 
L 357.859293 172.4525 
L 363.193478 186.185327 
L 372.955919 211.754092 
L 376.461894 220.205063 
L 378.793761 225.372452 
L 381.135438 230.108135 
L 383.50655 234.366325 
L 385.920179 238.101236 
L 388.392677 241.267079 
L 388.392677 241.267079 
" style="fill:none;stroke:#fea952;stroke-linecap:square;"/>
   </g>
   <g id="line2d_15">
    <path clip-path="url(#p247d1b7d01)" d="M 73.832727 249.450233 
L 77.761077 248.282025 
L 81.657931 247.379532 
L 85.537339 246.707208 
L 89.352749 246.248036 
L 93.150512 245.965029 
L 96.870165 245.842508 
L 100.565568 245.849095 
L 107.746469 246.171065 
L 114.716881 246.75249 
L 134.140799 248.628439 
L 140.054124 248.884098 
L 145.651648 248.793724 
L 148.316667 248.598119 
L 150.917458 248.286599 
L 153.475388 247.848623 
L 156.033683 247.267332 
L 158.558264 246.555309 
L 161.079444 245.697764 
L 163.539356 244.723176 
L 165.94842 243.623939 
L 168.293451 242.405463 
L 170.580769 241.062939 
L 172.778374 239.620601 
L 174.911019 238.056084 
L 176.965895 236.383663 
L 178.942241 234.603459 
L 180.831022 232.726245 
L 182.631525 230.752617 
L 184.335287 228.690869 
L 185.950078 226.527895 
L 187.446135 224.315046 
L 188.831935 222.024112 
L 190.079566 219.712928 
L 191.193763 217.355951 
L 192.16031 214.992177 
L 192.977452 212.6155 
L 193.635644 210.262979 
L 194.141365 207.860695 
L 194.504745 205.309294 
L 194.735636 202.622321 
L 194.855056 196.843498 
L 194.6459 190.571926 
L 194.006948 177.110752 
L 193.834167 170.218512 
L 193.844528 163.253989 
L 194.097417 156.153627 
L 194.660321 148.935903 
L 195.615193 141.565295 
L 196.274441 137.837454 
L 197.069863 134.111968 
L 198.021379 130.355048 
L 199.142599 126.613667 
L 200.448159 122.892075 
L 201.955741 119.19705 
L 203.679214 115.548824 
L 205.624539 111.97682 
L 207.76939 108.539565 
L 210.084706 105.262039 
L 212.585896 102.100348 
L 215.244183 99.092455 
L 218.054011 96.232849 
L 220.991713 93.537383 
L 224.078234 90.978791 
L 227.267966 88.599495 
L 230.580294 86.374511 
L 233.989209 84.324522 
L 237.500548 82.444421 
L 241.082105 80.753191 
L 244.745495 79.238716 
L 248.497514 77.902575 
L 252.300419 76.763122 
L 256.160391 75.814361 
L 260.073976 75.060275 
L 264.019019 74.508054 
L 267.999412 74.155676 
L 272.009261 74.007957 
L 275.983178 74.066593 
L 279.981773 74.323469 
L 283.936225 74.781308 
L 287.879394 75.43893 
L 291.783551 76.298156 
L 295.629099 77.355511 
L 299.425219 78.615711 
L 303.143682 80.076877 
L 306.755598 81.727103 
L 310.247264 83.553522 
L 313.623213 85.546375 
L 316.866784 87.684481 
L 320.013382 89.975722 
L 323.03245 92.392435 
L 325.950736 94.938859 
L 328.75016 97.590175 
L 331.449634 100.346117 
L 334.059959 103.207882 
L 336.566868 106.151517 
L 338.988046 109.179802 
L 343.581949 115.464832 
L 347.867593 122.005147 
L 351.868707 128.750874 
L 355.618222 135.658221 
L 359.146136 142.695616 
L 362.47149 149.807382 
L 365.610281 156.953754 
L 370.022202 167.63562 
L 375.427828 181.552903 
L 385.082348 206.846101 
L 388.428588 214.919525 
L 390.579281 219.694408 
L 392.652103 223.902887 
L 394.625312 227.473444 
L 396.427905 230.308524 
L 397.244483 231.438454 
L 398.487273 232.946154 
L 398.487273 232.946154 
" style="fill:none;stroke:#ffffff;stroke-linecap:square;"/>
   </g>
   <g id="line2d_16">
    <path clip-path="url(#p247d1b7d01)" d="M 81.446528 274.481908 
L 83.797538 273.740144 
L 86.245453 273.138207 
L 88.7566 272.672397 
L 91.377533 272.333567 
L 94.068442 272.112918 
L 99.735383 271.999917 
L 105.767301 272.260096 
L 112.088198 272.7841 
L 129.126397 274.488625 
L 136.386828 274.947888 
L 140.105883 275.048043 
L 143.879788 275.032223 
L 147.708096 274.876777 
L 151.597157 274.555643 
L 155.517743 274.042997 
L 159.441942 273.323216 
L 163.306908 272.400077 
L 167.133637 271.27408 
L 170.872194 269.960013 
L 174.554279 268.455562 
L 178.162934 266.761793 
L 181.678638 264.886376 
L 185.081989 262.840664 
L 188.385365 260.620042 
L 191.550928 258.246877 
L 194.591491 255.719977 
L 197.49473 253.052302 
L 200.263141 250.246161 
L 202.897434 247.300958 
L 205.386453 244.228021 
L 207.715884 241.046999 
L 209.915492 237.719622 
L 211.944093 234.287181 
L 213.816518 230.718008 
L 215.495328 227.050724 
L 216.981656 223.265959 
L 218.251093 219.382901 
L 219.29356 215.384111 
L 220.069875 211.363135 
L 220.582989 207.425865 
L 220.881919 203.584921 
L 221.011777 199.829747 
L 220.921522 192.658823 
L 219.997695 170.062001 
L 220.000416 163.905281 
L 220.205397 157.864776 
L 220.656348 151.895846 
L 221.389053 146.066718 
L 222.452668 140.457669 
L 223.110238 137.778247 
L 223.866285 135.174859 
L 224.719254 132.662879 
L 225.671088 130.24861 
L 226.72754 127.931446 
L 227.89573 125.708125 
L 229.211067 123.533202 
L 230.68299 121.394781 
L 232.269924 119.336755 
L 233.987565 117.347326 
L 235.821846 115.438543 
L 237.776812 113.607638 
L 239.805352 111.888417 
L 241.946534 110.25808 
L 244.15481 108.741612 
L 246.436563 107.337954 
L 248.766337 106.058753 
L 251.176335 104.891567 
L 253.628779 103.84851 
L 256.110331 102.934548 
L 258.652195 102.144406 
L 261.222026 101.484081 
L 263.810194 100.956131 
L 266.438855 100.559908 
L 269.077952 100.297432 
L 271.72684 100.170429 
L 274.418201 100.183743 
L 277.078343 100.325869 
L 279.743382 100.607162 
L 282.367376 101.015723 
L 284.958431 101.556272 
L 287.503439 102.22574 
L 289.973597 103.012873 
L 292.384049 103.92609 
L 294.730983 104.964214 
L 297.041183 106.140113 
L 299.303575 107.443924 
L 301.541362 108.890285 
L 303.725678 110.451693 
L 305.887081 112.155809 
L 308.005364 113.978772 
L 310.098607 115.938861 
L 314.1686 120.204603 
L 318.103567 124.940298 
L 321.882143 130.082393 
L 325.511108 135.59714 
L 328.992897 141.449377 
L 332.327283 147.57824 
L 335.516975 153.93027 
L 338.575636 160.463028 
L 341.506892 167.131246 
L 345.696385 177.269379 
L 350.959128 190.817751 
L 360.82949 216.662083 
L 364.4952 225.4906 
L 367.00824 231.050496 
L 369.618773 236.313383 
L 372.387789 241.259206 
L 375.412453 245.893948 
L 378.29808 249.588005 
L 378.29808 249.588005 
" style="fill:none;stroke:#ffffff;stroke-linecap:square;"/>
   </g>
   <g id="patch_3">
    <path d="M 57.6 307.584 
L 57.6 41.472 
" style="fill:none;stroke:#000000;stroke-linecap:square;stroke-linejoin:miter;stroke-width:0.8;"/>
   </g>
   <g id="patch_4">
    <path d="M 414.72 307.584 
L 414.72 41.472 
" style="fill:none;stroke:#000000;stroke-linecap:square;stroke-linejoin:miter;stroke-width:0.8;"/>
   </g>
   <g id="patch_5">
    <path d="M 57.6 307.584 
L 414.72 307.584 
" style="fill:none;stroke:#000000;stroke-linecap:square;stroke-linejoin:miter;stroke-width:0.8;"/>
   </g>
   <g id="patch_6">
    <path d="M 57.6 41.472 
L 414.72 41.472 
" style="fill:none;stroke:#000000;stroke-linecap:square;stroke-linejoin:miter;stroke-width:0.8;"/>
   </g>
  </g>
 </g>
 <defs>
  <clipPath id="p247d1b7d01">
   <rect height="266.112" width="357.12" x="57.6" y="41.472"/>
  </clipPath>
 </defs>
</svg>
