<?xml version="1.0" encoding="utf-8" standalone="no"?>
<!DOCTYPE svg PUBLIC "-//W3C//DTD SVG 1.1//EN"
  "http://www.w3.org/Graphics/SVG/1.1/DTD/svg11.dtd">
<!-- Created with matplotlib (https://matplotlib.org/) -->
<svg height="345.6pt" version="1.1" viewBox="0 0 460.8 345.6" width="460.8pt" xmlns="http://www.w3.org/2000/svg" xmlns:xlink="http://www.w3.org/1999/xlink">
 <metadata>
  <rdf:RDF xmlns:cc="http://creativecommons.org/ns#" xmlns:dc="http://purl.org/dc/elements/1.1/" xmlns:rdf="http://www.w3.org/1999/02/22-rdf-syntax-ns#">
   <cc:Work>
    <dc:type rdf:resource="http://purl.org/dc/dcmitype/StillImage"/>
    <dc:date>2021-03-15T18:06:12.309963</dc:date>
    <dc:format>image/svg+xml</dc:format>
    <dc:creator>
     <cc:Agent>
      <dc:title>Matplotlib v3.3.3, https://matplotlib.org/</dc:title>
     </cc:Agent>
    </dc:creator>
   </cc:Work>
  </rdf:RDF>
 </metadata>
 <defs>
  <style type="text/css">*{stroke-linecap:butt;stroke-linejoin:round;}</style>
 </defs>
 <g id="figure_1">
  <g id="patch_1">
   <path d="M 0 345.6 
L 460.8 345.6 
L 460.8 0 
L 0 0 
z
" style="fill:#ffffff;"/>
  </g>
  <g id="axes_1">
   <g id="patch_2">
    <path d="M 57.6 307.584 
L 414.72 307.584 
L 414.72 41.472 
L 57.6 41.472 
z
" style="fill:#7d9051;"/>
   </g>
   <g id="matplotlib.axis_1">
    <g id="xtick_1">
     <g id="line2d_1">
      <defs>
       <path d="M 0 0 
L 0 3.5 
" id="mfff5a834fc" style="stroke:#000000;stroke-width:0.8;"/>
      </defs>
      <g>
       <use style="stroke:#000000;stroke-width:0.8;" x="110.227848" xlink:href="#mfff5a834fc" y="307.584"/>
      </g>
     </g>
     <g id="text_1">
      <!-- 20 -->
      <g transform="translate(103.865348 322.182437)scale(0.1 -0.1)">
       <defs>
        <path d="M 19.1875 8.296875 
L 53.609375 8.296875 
L 53.609375 0 
L 7.328125 0 
L 7.328125 8.296875 
Q 12.9375 14.109375 22.625 23.890625 
Q 32.328125 33.6875 34.8125 36.53125 
Q 39.546875 41.84375 41.421875 45.53125 
Q 43.3125 49.21875 43.3125 52.78125 
Q 43.3125 58.59375 39.234375 62.25 
Q 35.15625 65.921875 28.609375 65.921875 
Q 23.96875 65.921875 18.8125 64.3125 
Q 13.671875 62.703125 7.8125 59.421875 
L 7.8125 69.390625 
Q 13.765625 71.78125 18.9375 73 
Q 24.125 74.21875 28.421875 74.21875 
Q 39.75 74.21875 46.484375 68.546875 
Q 53.21875 62.890625 53.21875 53.421875 
Q 53.21875 48.921875 51.53125 44.890625 
Q 49.859375 40.875 45.40625 35.40625 
Q 44.1875 33.984375 37.640625 27.21875 
Q 31.109375 20.453125 19.1875 8.296875 
z
" id="DejaVuSans-50"/>
        <path d="M 31.78125 66.40625 
Q 24.171875 66.40625 20.328125 58.90625 
Q 16.5 51.421875 16.5 36.375 
Q 16.5 21.390625 20.328125 13.890625 
Q 24.171875 6.390625 31.78125 6.390625 
Q 39.453125 6.390625 43.28125 13.890625 
Q 47.125 21.390625 47.125 36.375 
Q 47.125 51.421875 43.28125 58.90625 
Q 39.453125 66.40625 31.78125 66.40625 
z
M 31.78125 74.21875 
Q 44.046875 74.21875 50.515625 64.515625 
Q 56.984375 54.828125 56.984375 36.375 
Q 56.984375 17.96875 50.515625 8.265625 
Q 44.046875 -1.421875 31.78125 -1.421875 
Q 19.53125 -1.421875 13.0625 8.265625 
Q 6.59375 17.96875 6.59375 36.375 
Q 6.59375 54.828125 13.0625 64.515625 
Q 19.53125 74.21875 31.78125 74.21875 
z
" id="DejaVuSans-48"/>
       </defs>
       <use xlink:href="#DejaVuSans-50"/>
       <use x="63.623047" xlink:href="#DejaVuSans-48"/>
      </g>
     </g>
    </g>
    <g id="xtick_2">
     <g id="line2d_2">
      <g>
       <use style="stroke:#000000;stroke-width:0.8;" x="175.438908" xlink:href="#mfff5a834fc" y="307.584"/>
      </g>
     </g>
     <g id="text_2">
      <!-- 40 -->
      <g transform="translate(169.076408 322.182437)scale(0.1 -0.1)">
       <defs>
        <path d="M 37.796875 64.3125 
L 12.890625 25.390625 
L 37.796875 25.390625 
z
M 35.203125 72.90625 
L 47.609375 72.90625 
L 47.609375 25.390625 
L 58.015625 25.390625 
L 58.015625 17.1875 
L 47.609375 17.1875 
L 47.609375 0 
L 37.796875 0 
L 37.796875 17.1875 
L 4.890625 17.1875 
L 4.890625 26.703125 
z
" id="DejaVuSans-52"/>
       </defs>
       <use xlink:href="#DejaVuSans-52"/>
       <use x="63.623047" xlink:href="#DejaVuSans-48"/>
      </g>
     </g>
    </g>
    <g id="xtick_3">
     <g id="line2d_3">
      <g>
       <use style="stroke:#000000;stroke-width:0.8;" x="240.649968" xlink:href="#mfff5a834fc" y="307.584"/>
      </g>
     </g>
     <g id="text_3">
      <!-- 60 -->
      <g transform="translate(234.287468 322.182437)scale(0.1 -0.1)">
       <defs>
        <path d="M 33.015625 40.375 
Q 26.375 40.375 22.484375 35.828125 
Q 18.609375 31.296875 18.609375 23.390625 
Q 18.609375 15.53125 22.484375 10.953125 
Q 26.375 6.390625 33.015625 6.390625 
Q 39.65625 6.390625 43.53125 10.953125 
Q 47.40625 15.53125 47.40625 23.390625 
Q 47.40625 31.296875 43.53125 35.828125 
Q 39.65625 40.375 33.015625 40.375 
z
M 52.59375 71.296875 
L 52.59375 62.3125 
Q 48.875 64.0625 45.09375 64.984375 
Q 41.3125 65.921875 37.59375 65.921875 
Q 27.828125 65.921875 22.671875 59.328125 
Q 17.53125 52.734375 16.796875 39.40625 
Q 19.671875 43.65625 24.015625 45.921875 
Q 28.375 48.1875 33.59375 48.1875 
Q 44.578125 48.1875 50.953125 41.515625 
Q 57.328125 34.859375 57.328125 23.390625 
Q 57.328125 12.15625 50.6875 5.359375 
Q 44.046875 -1.421875 33.015625 -1.421875 
Q 20.359375 -1.421875 13.671875 8.265625 
Q 6.984375 17.96875 6.984375 36.375 
Q 6.984375 53.65625 15.1875 63.9375 
Q 23.390625 74.21875 37.203125 74.21875 
Q 40.921875 74.21875 44.703125 73.484375 
Q 48.484375 72.75 52.59375 71.296875 
z
" id="DejaVuSans-54"/>
       </defs>
       <use xlink:href="#DejaVuSans-54"/>
       <use x="63.623047" xlink:href="#DejaVuSans-48"/>
      </g>
     </g>
    </g>
    <g id="xtick_4">
     <g id="line2d_4">
      <g>
       <use style="stroke:#000000;stroke-width:0.8;" x="305.861028" xlink:href="#mfff5a834fc" y="307.584"/>
      </g>
     </g>
     <g id="text_4">
      <!-- 80 -->
      <g transform="translate(299.498528 322.182437)scale(0.1 -0.1)">
       <defs>
        <path d="M 31.78125 34.625 
Q 24.75 34.625 20.71875 30.859375 
Q 16.703125 27.09375 16.703125 20.515625 
Q 16.703125 13.921875 20.71875 10.15625 
Q 24.75 6.390625 31.78125 6.390625 
Q 38.8125 6.390625 42.859375 10.171875 
Q 46.921875 13.96875 46.921875 20.515625 
Q 46.921875 27.09375 42.890625 30.859375 
Q 38.875 34.625 31.78125 34.625 
z
M 21.921875 38.8125 
Q 15.578125 40.375 12.03125 44.71875 
Q 8.5 49.078125 8.5 55.328125 
Q 8.5 64.0625 14.71875 69.140625 
Q 20.953125 74.21875 31.78125 74.21875 
Q 42.671875 74.21875 48.875 69.140625 
Q 55.078125 64.0625 55.078125 55.328125 
Q 55.078125 49.078125 51.53125 44.71875 
Q 48 40.375 41.703125 38.8125 
Q 48.828125 37.15625 52.796875 32.3125 
Q 56.78125 27.484375 56.78125 20.515625 
Q 56.78125 9.90625 50.3125 4.234375 
Q 43.84375 -1.421875 31.78125 -1.421875 
Q 19.734375 -1.421875 13.25 4.234375 
Q 6.78125 9.90625 6.78125 20.515625 
Q 6.78125 27.484375 10.78125 32.3125 
Q 14.796875 37.15625 21.921875 38.8125 
z
M 18.3125 54.390625 
Q 18.3125 48.734375 21.84375 45.5625 
Q 25.390625 42.390625 31.78125 42.390625 
Q 38.140625 42.390625 41.71875 45.5625 
Q 45.3125 48.734375 45.3125 54.390625 
Q 45.3125 60.0625 41.71875 63.234375 
Q 38.140625 66.40625 31.78125 66.40625 
Q 25.390625 66.40625 21.84375 63.234375 
Q 18.3125 60.0625 18.3125 54.390625 
z
" id="DejaVuSans-56"/>
       </defs>
       <use xlink:href="#DejaVuSans-56"/>
       <use x="63.623047" xlink:href="#DejaVuSans-48"/>
      </g>
     </g>
    </g>
    <g id="xtick_5">
     <g id="line2d_5">
      <g>
       <use style="stroke:#000000;stroke-width:0.8;" x="371.072088" xlink:href="#mfff5a834fc" y="307.584"/>
      </g>
     </g>
     <g id="text_5">
      <!-- 100 -->
      <g transform="translate(361.528338 322.182437)scale(0.1 -0.1)">
       <defs>
        <path d="M 12.40625 8.296875 
L 28.515625 8.296875 
L 28.515625 63.921875 
L 10.984375 60.40625 
L 10.984375 69.390625 
L 28.421875 72.90625 
L 38.28125 72.90625 
L 38.28125 8.296875 
L 54.390625 8.296875 
L 54.390625 0 
L 12.40625 0 
z
" id="DejaVuSans-49"/>
       </defs>
       <use xlink:href="#DejaVuSans-49"/>
       <use x="63.623047" xlink:href="#DejaVuSans-48"/>
       <use x="127.246094" xlink:href="#DejaVuSans-48"/>
      </g>
     </g>
    </g>
   </g>
   <g id="matplotlib.axis_2">
    <g id="ytick_1">
     <g id="line2d_6">
      <defs>
       <path d="M 0 0 
L -3.5 0 
" id="ma6169188b3" style="stroke:#000000;stroke-width:0.8;"/>
      </defs>
      <g>
       <use style="stroke:#000000;stroke-width:0.8;" x="57.6" xlink:href="#ma6169188b3" y="288.646332"/>
      </g>
     </g>
     <g id="text_6">
      <!-- 0 -->
      <g transform="translate(44.2375 292.44555)scale(0.1 -0.1)">
       <use xlink:href="#DejaVuSans-48"/>
      </g>
     </g>
    </g>
    <g id="ytick_2">
     <g id="line2d_7">
      <g>
       <use style="stroke:#000000;stroke-width:0.8;" x="57.6" xlink:href="#ma6169188b3" y="256.040802"/>
      </g>
     </g>
     <g id="text_7">
      <!-- 10 -->
      <g transform="translate(37.875 259.84002)scale(0.1 -0.1)">
       <use xlink:href="#DejaVuSans-49"/>
       <use x="63.623047" xlink:href="#DejaVuSans-48"/>
      </g>
     </g>
    </g>
    <g id="ytick_3">
     <g id="line2d_8">
      <g>
       <use style="stroke:#000000;stroke-width:0.8;" x="57.6" xlink:href="#ma6169188b3" y="223.435272"/>
      </g>
     </g>
     <g id="text_8">
      <!-- 20 -->
      <g transform="translate(37.875 227.23449)scale(0.1 -0.1)">
       <use xlink:href="#DejaVuSans-50"/>
       <use x="63.623047" xlink:href="#DejaVuSans-48"/>
      </g>
     </g>
    </g>
    <g id="ytick_4">
     <g id="line2d_9">
      <g>
       <use style="stroke:#000000;stroke-width:0.8;" x="57.6" xlink:href="#ma6169188b3" y="190.829742"/>
      </g>
     </g>
     <g id="text_9">
      <!-- 30 -->
      <g transform="translate(37.875 194.628961)scale(0.1 -0.1)">
       <defs>
        <path d="M 40.578125 39.3125 
Q 47.65625 37.796875 51.625 33 
Q 55.609375 28.21875 55.609375 21.1875 
Q 55.609375 10.40625 48.1875 4.484375 
Q 40.765625 -1.421875 27.09375 -1.421875 
Q 22.515625 -1.421875 17.65625 -0.515625 
Q 12.796875 0.390625 7.625 2.203125 
L 7.625 11.71875 
Q 11.71875 9.328125 16.59375 8.109375 
Q 21.484375 6.890625 26.8125 6.890625 
Q 36.078125 6.890625 40.9375 10.546875 
Q 45.796875 14.203125 45.796875 21.1875 
Q 45.796875 27.640625 41.28125 31.265625 
Q 36.765625 34.90625 28.71875 34.90625 
L 20.21875 34.90625 
L 20.21875 43.015625 
L 29.109375 43.015625 
Q 36.375 43.015625 40.234375 45.921875 
Q 44.09375 48.828125 44.09375 54.296875 
Q 44.09375 59.90625 40.109375 62.90625 
Q 36.140625 65.921875 28.71875 65.921875 
Q 24.65625 65.921875 20.015625 65.03125 
Q 15.375 64.15625 9.8125 62.3125 
L 9.8125 71.09375 
Q 15.4375 72.65625 20.34375 73.4375 
Q 25.25 74.21875 29.59375 74.21875 
Q 40.828125 74.21875 47.359375 69.109375 
Q 53.90625 64.015625 53.90625 55.328125 
Q 53.90625 49.265625 50.4375 45.09375 
Q 46.96875 40.921875 40.578125 39.3125 
z
" id="DejaVuSans-51"/>
       </defs>
       <use xlink:href="#DejaVuSans-51"/>
       <use x="63.623047" xlink:href="#DejaVuSans-48"/>
      </g>
     </g>
    </g>
    <g id="ytick_5">
     <g id="line2d_10">
      <g>
       <use style="stroke:#000000;stroke-width:0.8;" x="57.6" xlink:href="#ma6169188b3" y="158.224212"/>
      </g>
     </g>
     <g id="text_10">
      <!-- 40 -->
      <g transform="translate(37.875 162.023431)scale(0.1 -0.1)">
       <use xlink:href="#DejaVuSans-52"/>
       <use x="63.623047" xlink:href="#DejaVuSans-48"/>
      </g>
     </g>
    </g>
    <g id="ytick_6">
     <g id="line2d_11">
      <g>
       <use style="stroke:#000000;stroke-width:0.8;" x="57.6" xlink:href="#ma6169188b3" y="125.618682"/>
      </g>
     </g>
     <g id="text_11">
      <!-- 50 -->
      <g transform="translate(37.875 129.417901)scale(0.1 -0.1)">
       <defs>
        <path d="M 10.796875 72.90625 
L 49.515625 72.90625 
L 49.515625 64.59375 
L 19.828125 64.59375 
L 19.828125 46.734375 
Q 21.96875 47.46875 24.109375 47.828125 
Q 26.265625 48.1875 28.421875 48.1875 
Q 40.625 48.1875 47.75 41.5 
Q 54.890625 34.8125 54.890625 23.390625 
Q 54.890625 11.625 47.5625 5.09375 
Q 40.234375 -1.421875 26.90625 -1.421875 
Q 22.3125 -1.421875 17.546875 -0.640625 
Q 12.796875 0.140625 7.71875 1.703125 
L 7.71875 11.625 
Q 12.109375 9.234375 16.796875 8.0625 
Q 21.484375 6.890625 26.703125 6.890625 
Q 35.15625 6.890625 40.078125 11.328125 
Q 45.015625 15.765625 45.015625 23.390625 
Q 45.015625 31 40.078125 35.4375 
Q 35.15625 39.890625 26.703125 39.890625 
Q 22.75 39.890625 18.8125 39.015625 
Q 14.890625 38.140625 10.796875 36.28125 
z
" id="DejaVuSans-53"/>
       </defs>
       <use xlink:href="#DejaVuSans-53"/>
       <use x="63.623047" xlink:href="#DejaVuSans-48"/>
      </g>
     </g>
    </g>
    <g id="ytick_7">
     <g id="line2d_12">
      <g>
       <use style="stroke:#000000;stroke-width:0.8;" x="57.6" xlink:href="#ma6169188b3" y="93.013152"/>
      </g>
     </g>
     <g id="text_12">
      <!-- 60 -->
      <g transform="translate(37.875 96.812371)scale(0.1 -0.1)">
       <use xlink:href="#DejaVuSans-54"/>
       <use x="63.623047" xlink:href="#DejaVuSans-48"/>
      </g>
     </g>
    </g>
    <g id="ytick_8">
     <g id="line2d_13">
      <g>
       <use style="stroke:#000000;stroke-width:0.8;" x="57.6" xlink:href="#ma6169188b3" y="60.407622"/>
      </g>
     </g>
     <g id="text_13">
      <!-- 70 -->
      <g transform="translate(37.875 64.206841)scale(0.1 -0.1)">
       <defs>
        <path d="M 8.203125 72.90625 
L 55.078125 72.90625 
L 55.078125 68.703125 
L 28.609375 0 
L 18.3125 0 
L 43.21875 64.59375 
L 8.203125 64.59375 
z
" id="DejaVuSans-55"/>
       </defs>
       <use xlink:href="#DejaVuSans-55"/>
       <use x="63.623047" xlink:href="#DejaVuSans-48"/>
      </g>
     </g>
    </g>
   </g>
   <g id="line2d_14">
    <path clip-path="url(#pc340e613a6)" d="M 77.622318 256.040802 
L 80.736146 255.095241 
L 83.879319 254.345314 
L 87.048577 253.781238 
L 90.247179 253.383451 
L 93.468606 253.132388 
L 96.709595 253.018269 
L 103.247004 253.116086 
L 109.839842 253.549739 
L 119.794311 254.527905 
L 129.768342 255.509332 
L 136.400307 255.939725 
L 142.993145 256.037541 
L 146.270001 255.920161 
L 149.530554 255.672359 
L 152.771544 255.271311 
L 155.99297 254.707236 
L 159.185051 253.970351 
L 162.341267 253.067177 
L 165.451834 252.004237 
L 168.506972 250.78479 
L 171.496899 249.408837 
L 174.411834 247.886159 
L 177.245254 246.216756 
L 179.99064 244.410409 
L 182.638209 242.47038 
L 185.184701 240.399929 
L 187.626855 238.205577 
L 189.958151 235.893845 
L 192.172066 233.464733 
L 194.268602 230.928023 
L 196.234715 228.290235 
L 198.063885 225.554631 
L 199.749591 222.730992 
L 201.285312 219.82584 
L 202.661265 216.848955 
L 203.87093 213.800338 
L 204.907786 210.696291 
L 205.778354 207.540076 
L 206.492415 204.338213 
L 207.063012 201.107005 
L 207.499926 197.852973 
L 208.021614 191.305783 
L 208.165078 184.768374 
L 207.992269 174.976933 
L 207.839023 165.175711 
L 208.021614 158.621999 
L 208.601993 152.051985 
L 209.064991 148.77839 
L 209.651891 145.524358 
L 210.369212 142.29641 
L 211.216956 139.10759 
L 212.208164 135.964417 
L 213.346097 132.879933 
L 214.634016 129.860661 
L 216.078441 126.916382 
L 217.685893 124.053616 
L 219.456373 121.285407 
L 221.3801 118.611754 
L 223.44729 116.042438 
L 225.648164 113.58072 
L 227.979459 111.236383 
L 230.428134 109.009425 
L 232.987668 106.909629 
L 235.64828 104.940255 
L 238.403447 103.107824 
L 241.243389 101.418858 
L 244.158323 99.876616 
L 247.14825 98.48436 
L 250.200128 97.242089 
L 253.310695 96.153065 
L 256.473432 95.220546 
L 259.678555 94.447795 
L 262.922805 93.841332 
L 266.196401 93.397897 
L 269.49282 93.12075 
L 272.805542 93.016413 
L 276.118263 93.075102 
L 279.427725 93.303341 
L 282.714362 93.697868 
L 285.974915 94.252162 
L 289.196341 94.972744 
L 292.362338 95.856354 
L 295.469645 96.899731 
L 298.50196 98.102875 
L 301.456021 99.462526 
L 304.325307 100.975422 
L 307.119601 102.631783 
L 309.832381 104.431609 
L 312.473429 106.368377 
L 315.039484 108.432307 
L 317.533808 110.620138 
L 319.959659 112.925349 
L 322.317039 115.344679 
L 324.605947 117.868347 
L 328.997912 123.209133 
L 333.148596 128.90858 
L 337.074302 134.92104 
L 340.784811 141.194344 
L 344.299687 147.686105 
L 347.635233 154.347414 
L 350.80123 161.135886 
L 353.817241 168.005871 
L 358.085305 178.354866 
L 362.099046 188.625608 
L 374.254387 220.292099 
L 377.730137 228.420657 
L 380.04839 233.344092 
L 382.389467 237.817571 
L 384.76315 241.795446 
L 387.185741 245.228808 
L 388.42149 246.728662 
L 388.42149 246.728662 
" style="fill:none;stroke:#fea952;stroke-linecap:square;"/>
   </g>
   <g id="line2d_15">
    <path clip-path="url(#pc340e613a6)" d="M 73.832727 243.561287 
L 77.709372 242.40911 
L 81.593936 241.504897 
L 85.439009 240.838728 
L 89.233805 240.380668 
L 93.009657 240.098254 
L 96.709595 239.976057 
L 103.969741 240.093914 
L 111.017167 240.560775 
L 121.154998 241.556867 
L 130.739322 242.503314 
L 136.786764 242.903239 
L 142.526261 243.003689 
L 147.928894 242.728867 
L 150.522061 242.424556 
L 153.059357 241.999238 
L 155.596948 241.431419 
L 158.12393 240.725647 
L 160.616995 239.891284 
L 163.054639 238.936948 
L 165.458271 237.848808 
L 167.79126 236.649286 
L 170.076564 235.321382 
L 172.281882 233.890222 
L 174.410472 232.350912 
L 176.467796 230.698648 
L 178.443558 228.944565 
L 180.318827 227.108474 
L 182.118951 225.156053 
L 183.811612 223.133752 
L 185.392889 221.040814 
L 186.865475 218.869206 
L 188.219267 216.635838 
L 189.446551 214.353817 
L 190.538509 212.038749 
L 191.500603 209.668232 
L 192.335075 207.228405 
L 193.048854 204.701216 
L 193.64892 202.070189 
L 194.136796 199.371421 
L 194.799537 193.766668 
L 195.09091 187.905293 
L 195.099384 181.761831 
L 194.798266 164.980879 
L 195.012612 157.691862 
L 195.285682 153.974641 
L 195.688302 150.225547 
L 196.229872 146.463438 
L 196.920252 142.695105 
L 197.764808 138.945546 
L 198.77857 135.185111 
L 199.972083 131.45026 
L 201.349719 127.762688 
L 202.924953 124.116348 
L 204.706328 120.530902 
L 206.698696 117.026469 
L 208.869722 113.668182 
L 211.218528 110.436073 
L 213.724328 107.349723 
L 216.400239 104.384244 
L 219.2044 101.587672 
L 222.15603 98.926192 
L 225.228272 96.426735 
L 228.42563 94.080576 
L 231.736865 91.898186 
L 235.14406 89.89074 
L 238.652845 88.053376 
L 242.231154 86.404564 
L 245.890478 84.932491 
L 249.622244 83.643283 
L 253.416562 82.541633 
L 257.282027 81.627657 
L 261.17212 80.917154 
L 265.103729 80.401538 
L 269.082245 80.085002 
L 273.036568 79.976247 
L 277.015595 80.063796 
L 280.982148 80.354092 
L 284.900178 80.840127 
L 288.821897 81.524476 
L 292.702354 82.410612 
L 296.513882 83.492537 
L 300.279671 84.776903 
L 303.954963 86.255342 
L 307.539028 87.925788 
L 310.975694 89.756169 
L 314.329986 91.763957 
L 317.545072 93.914304 
L 320.647578 96.205573 
L 323.639631 98.627371 
L 326.51796 101.165811 
L 329.300716 103.823484 
L 331.977653 106.582727 
L 334.545761 109.424451 
L 337.036231 112.366321 
L 339.434587 115.387681 
L 343.985709 121.652116 
L 348.227816 128.160979 
L 352.195004 134.877162 
L 355.918892 141.76214 
L 359.4185 148.756896 
L 362.715611 155.830529 
L 365.835266 162.939671 
L 370.206544 173.540838 
L 374.287019 183.98313 
L 386.302875 215.298779 
L 389.576878 222.965932 
L 391.673798 227.432308 
L 393.697782 231.319778 
L 395.581402 234.510893 
L 397.251523 236.935478 
L 398.487273 238.435333 
L 398.487273 238.435333 
" style="fill:none;stroke:#ffffff;stroke-linecap:square;"/>
   </g>
   <g id="line2d_16">
    <path clip-path="url(#pc340e613a6)" d="M 81.411909 268.520317 
L 83.76292 267.781373 
L 86.164702 267.185731 
L 88.658145 266.723749 
L 91.260554 266.386234 
L 93.927554 266.166523 
L 99.581002 266.054674 
L 105.548391 266.303373 
L 111.861654 266.828202 
L 132.369813 268.779579 
L 139.699987 269.079753 
L 143.460029 269.071394 
L 147.258359 268.92487 
L 151.132213 268.615851 
L 155.021026 268.118066 
L 158.926583 267.415233 
L 162.773155 266.509282 
L 166.558603 265.408708 
L 170.286673 264.11719 
L 173.959305 262.632632 
L 177.535527 260.968866 
L 181.032408 259.123031 
L 184.413945 257.112129 
L 187.699398 254.930597 
L 190.865946 252.589849 
L 193.901606 250.10121 
L 196.810152 247.466589 
L 199.597474 244.679215 
L 202.225181 241.773413 
L 204.725592 238.722293 
L 207.076541 235.539656 
L 209.262295 232.240056 
L 211.279916 228.826147 
L 213.124072 225.297863 
L 214.784021 221.659161 
L 216.241258 217.932443 
L 217.480497 214.164177 
L 218.507854 210.378936 
L 219.33591 206.606237 
L 219.989227 202.842589 
L 220.481572 199.108426 
L 220.832861 195.398608 
L 221.174035 188.165603 
L 221.178604 181.240768 
L 220.87978 165.370543 
L 221.030616 159.552137 
L 221.515684 153.878423 
L 222.383529 148.353611 
L 223.655342 143.030068 
L 224.444245 140.478573 
L 225.342475 137.997179 
L 226.343079 135.604975 
L 227.450553 133.301862 
L 228.67309 131.080764 
L 230.043025 128.902632 
L 231.541671 126.787434 
L 233.170253 124.735153 
L 234.896089 122.777197 
L 236.754518 120.885094 
L 238.700239 119.092658 
L 240.747065 117.392522 
L 242.87093 115.799933 
L 245.070028 114.317462 
L 247.342717 112.946975 
L 249.663801 111.699856 
L 252.065346 110.564155 
L 254.509777 109.551688 
L 256.999146 108.662846 
L 259.530301 107.89946 
L 262.075084 107.267934 
L 264.673491 106.765511 
L 267.289072 106.394257 
L 269.903394 106.156498 
L 272.574515 106.056578 
L 275.220932 106.086409 
L 277.873301 106.252591 
L 280.528546 106.555609 
L 283.127933 106.979848 
L 285.690329 107.534877 
L 288.210794 108.220171 
L 290.65962 109.022559 
L 293.048956 109.950408 
L 295.373014 110.999264 
L 297.674921 112.194676 
L 299.909217 113.499609 
L 302.119691 114.948913 
L 304.299281 116.531181 
L 306.439338 118.237243 
L 308.549655 120.074465 
L 310.618602 122.027214 
L 314.666133 126.312244 
L 318.561237 131.030585 
L 322.311483 136.165044 
L 325.920788 141.6811 
L 329.374618 147.511525 
L 332.680482 153.61007 
L 335.851965 159.937933 
L 338.886849 166.441243 
L 341.799217 173.07207 
L 345.964066 183.168894 
L 349.911073 193.268086 
L 362.2059 225.285418 
L 365.883396 233.875382 
L 368.422982 239.255876 
L 371.081153 244.315364 
L 373.944898 249.079999 
L 375.485395 251.34432 
L 378.355708 255.021992 
L 378.355708 255.021992 
" style="fill:none;stroke:#ffffff;stroke-linecap:square;"/>
   </g>
   <g id="patch_3">
    <path d="M 57.6 307.584 
L 57.6 41.472 
" style="fill:none;stroke:#000000;stroke-linecap:square;stroke-linejoin:miter;stroke-width:0.8;"/>
   </g>
   <g id="patch_4">
    <path d="M 414.72 307.584 
L 414.72 41.472 
" style="fill:none;stroke:#000000;stroke-linecap:square;stroke-linejoin:miter;stroke-width:0.8;"/>
   </g>
   <g id="patch_5">
    <path d="M 57.6 307.584 
L 414.72 307.584 
" style="fill:none;stroke:#000000;stroke-linecap:square;stroke-linejoin:miter;stroke-width:0.8;"/>
   </g>
   <g id="patch_6">
    <path d="M 57.6 41.472 
L 414.72 41.472 
" style="fill:none;stroke:#000000;stroke-linecap:square;stroke-linejoin:miter;stroke-width:0.8;"/>
   </g>
  </g>
 </g>
 <defs>
  <clipPath id="pc340e613a6">
   <rect height="266.112" width="357.12" x="57.6" y="41.472"/>
  </clipPath>
 </defs>
</svg>
