<?xml version="1.0" encoding="utf-8" standalone="no"?>
<!DOCTYPE svg PUBLIC "-//W3C//DTD SVG 1.1//EN"
  "http://www.w3.org/Graphics/SVG/1.1/DTD/svg11.dtd">
<!-- Created with matplotlib (https://matplotlib.org/) -->
<svg height="345.6pt" version="1.1" viewBox="0 0 460.8 345.6" width="460.8pt" xmlns="http://www.w3.org/2000/svg" xmlns:xlink="http://www.w3.org/1999/xlink">
 <metadata>
  <rdf:RDF xmlns:cc="http://creativecommons.org/ns#" xmlns:dc="http://purl.org/dc/elements/1.1/" xmlns:rdf="http://www.w3.org/1999/02/22-rdf-syntax-ns#">
   <cc:Work>
    <dc:type rdf:resource="http://purl.org/dc/dcmitype/StillImage"/>
    <dc:date>2021-02-10T18:11:36.425683</dc:date>
    <dc:format>image/svg+xml</dc:format>
    <dc:creator>
     <cc:Agent>
      <dc:title>Matplotlib v3.3.3, https://matplotlib.org/</dc:title>
     </cc:Agent>
    </dc:creator>
   </cc:Work>
  </rdf:RDF>
 </metadata>
 <defs>
  <style type="text/css">*{stroke-linecap:butt;stroke-linejoin:round;}</style>
 </defs>
 <g id="figure_1">
  <g id="patch_1">
   <path d="M 0 345.6 
L 460.8 345.6 
L 460.8 0 
L 0 0 
z
" style="fill:#ffffff;"/>
  </g>
  <g id="axes_1">
   <g id="patch_2">
    <path d="M 57.6 307.584 
L 414.72 307.584 
L 414.72 41.472 
L 57.6 41.472 
z
" style="fill:#7d9051;"/>
   </g>
   <g id="matplotlib.axis_1">
    <g id="xtick_1">
     <g id="line2d_1">
      <defs>
       <path d="M 0 0 
L 0 3.5 
" id="m8e680da2e5" style="stroke:#000000;stroke-width:0.8;"/>
      </defs>
      <g>
       <use style="stroke:#000000;stroke-width:0.8;" x="91.378174" xlink:href="#m8e680da2e5" y="307.584"/>
      </g>
     </g>
     <g id="text_1">
      <!-- 10 -->
      <g transform="translate(85.015674 322.182437)scale(0.1 -0.1)">
       <defs>
        <path d="M 12.40625 8.296875 
L 28.515625 8.296875 
L 28.515625 63.921875 
L 10.984375 60.40625 
L 10.984375 69.390625 
L 28.421875 72.90625 
L 38.28125 72.90625 
L 38.28125 8.296875 
L 54.390625 8.296875 
L 54.390625 0 
L 12.40625 0 
z
" id="DejaVuSans-49"/>
        <path d="M 31.78125 66.40625 
Q 24.171875 66.40625 20.328125 58.90625 
Q 16.5 51.421875 16.5 36.375 
Q 16.5 21.390625 20.328125 13.890625 
Q 24.171875 6.390625 31.78125 6.390625 
Q 39.453125 6.390625 43.28125 13.890625 
Q 47.125 21.390625 47.125 36.375 
Q 47.125 51.421875 43.28125 58.90625 
Q 39.453125 66.40625 31.78125 66.40625 
z
M 31.78125 74.21875 
Q 44.046875 74.21875 50.515625 64.515625 
Q 56.984375 54.828125 56.984375 36.375 
Q 56.984375 17.96875 50.515625 8.265625 
Q 44.046875 -1.421875 31.78125 -1.421875 
Q 19.53125 -1.421875 13.0625 8.265625 
Q 6.59375 17.96875 6.59375 36.375 
Q 6.59375 54.828125 13.0625 64.515625 
Q 19.53125 74.21875 31.78125 74.21875 
z
" id="DejaVuSans-48"/>
       </defs>
       <use xlink:href="#DejaVuSans-49"/>
       <use x="63.623047" xlink:href="#DejaVuSans-48"/>
      </g>
     </g>
    </g>
    <g id="xtick_2">
     <g id="line2d_2">
      <g>
       <use style="stroke:#000000;stroke-width:0.8;" x="132.891071" xlink:href="#m8e680da2e5" y="307.584"/>
      </g>
     </g>
     <g id="text_2">
      <!-- 20 -->
      <g transform="translate(126.528571 322.182437)scale(0.1 -0.1)">
       <defs>
        <path d="M 19.1875 8.296875 
L 53.609375 8.296875 
L 53.609375 0 
L 7.328125 0 
L 7.328125 8.296875 
Q 12.9375 14.109375 22.625 23.890625 
Q 32.328125 33.6875 34.8125 36.53125 
Q 39.546875 41.84375 41.421875 45.53125 
Q 43.3125 49.21875 43.3125 52.78125 
Q 43.3125 58.59375 39.234375 62.25 
Q 35.15625 65.921875 28.609375 65.921875 
Q 23.96875 65.921875 18.8125 64.3125 
Q 13.671875 62.703125 7.8125 59.421875 
L 7.8125 69.390625 
Q 13.765625 71.78125 18.9375 73 
Q 24.125 74.21875 28.421875 74.21875 
Q 39.75 74.21875 46.484375 68.546875 
Q 53.21875 62.890625 53.21875 53.421875 
Q 53.21875 48.921875 51.53125 44.890625 
Q 49.859375 40.875 45.40625 35.40625 
Q 44.1875 33.984375 37.640625 27.21875 
Q 31.109375 20.453125 19.1875 8.296875 
z
" id="DejaVuSans-50"/>
       </defs>
       <use xlink:href="#DejaVuSans-50"/>
       <use x="63.623047" xlink:href="#DejaVuSans-48"/>
      </g>
     </g>
    </g>
    <g id="xtick_3">
     <g id="line2d_3">
      <g>
       <use style="stroke:#000000;stroke-width:0.8;" x="174.403969" xlink:href="#m8e680da2e5" y="307.584"/>
      </g>
     </g>
     <g id="text_3">
      <!-- 30 -->
      <g transform="translate(168.041469 322.182437)scale(0.1 -0.1)">
       <defs>
        <path d="M 40.578125 39.3125 
Q 47.65625 37.796875 51.625 33 
Q 55.609375 28.21875 55.609375 21.1875 
Q 55.609375 10.40625 48.1875 4.484375 
Q 40.765625 -1.421875 27.09375 -1.421875 
Q 22.515625 -1.421875 17.65625 -0.515625 
Q 12.796875 0.390625 7.625 2.203125 
L 7.625 11.71875 
Q 11.71875 9.328125 16.59375 8.109375 
Q 21.484375 6.890625 26.8125 6.890625 
Q 36.078125 6.890625 40.9375 10.546875 
Q 45.796875 14.203125 45.796875 21.1875 
Q 45.796875 27.640625 41.28125 31.265625 
Q 36.765625 34.90625 28.71875 34.90625 
L 20.21875 34.90625 
L 20.21875 43.015625 
L 29.109375 43.015625 
Q 36.375 43.015625 40.234375 45.921875 
Q 44.09375 48.828125 44.09375 54.296875 
Q 44.09375 59.90625 40.109375 62.90625 
Q 36.140625 65.921875 28.71875 65.921875 
Q 24.65625 65.921875 20.015625 65.03125 
Q 15.375 64.15625 9.8125 62.3125 
L 9.8125 71.09375 
Q 15.4375 72.65625 20.34375 73.4375 
Q 25.25 74.21875 29.59375 74.21875 
Q 40.828125 74.21875 47.359375 69.109375 
Q 53.90625 64.015625 53.90625 55.328125 
Q 53.90625 49.265625 50.4375 45.09375 
Q 46.96875 40.921875 40.578125 39.3125 
z
" id="DejaVuSans-51"/>
       </defs>
       <use xlink:href="#DejaVuSans-51"/>
       <use x="63.623047" xlink:href="#DejaVuSans-48"/>
      </g>
     </g>
    </g>
    <g id="xtick_4">
     <g id="line2d_4">
      <g>
       <use style="stroke:#000000;stroke-width:0.8;" x="215.916867" xlink:href="#m8e680da2e5" y="307.584"/>
      </g>
     </g>
     <g id="text_4">
      <!-- 40 -->
      <g transform="translate(209.554367 322.182437)scale(0.1 -0.1)">
       <defs>
        <path d="M 37.796875 64.3125 
L 12.890625 25.390625 
L 37.796875 25.390625 
z
M 35.203125 72.90625 
L 47.609375 72.90625 
L 47.609375 25.390625 
L 58.015625 25.390625 
L 58.015625 17.1875 
L 47.609375 17.1875 
L 47.609375 0 
L 37.796875 0 
L 37.796875 17.1875 
L 4.890625 17.1875 
L 4.890625 26.703125 
z
" id="DejaVuSans-52"/>
       </defs>
       <use xlink:href="#DejaVuSans-52"/>
       <use x="63.623047" xlink:href="#DejaVuSans-48"/>
      </g>
     </g>
    </g>
    <g id="xtick_5">
     <g id="line2d_5">
      <g>
       <use style="stroke:#000000;stroke-width:0.8;" x="257.429765" xlink:href="#m8e680da2e5" y="307.584"/>
      </g>
     </g>
     <g id="text_5">
      <!-- 50 -->
      <g transform="translate(251.067265 322.182437)scale(0.1 -0.1)">
       <defs>
        <path d="M 10.796875 72.90625 
L 49.515625 72.90625 
L 49.515625 64.59375 
L 19.828125 64.59375 
L 19.828125 46.734375 
Q 21.96875 47.46875 24.109375 47.828125 
Q 26.265625 48.1875 28.421875 48.1875 
Q 40.625 48.1875 47.75 41.5 
Q 54.890625 34.8125 54.890625 23.390625 
Q 54.890625 11.625 47.5625 5.09375 
Q 40.234375 -1.421875 26.90625 -1.421875 
Q 22.3125 -1.421875 17.546875 -0.640625 
Q 12.796875 0.140625 7.71875 1.703125 
L 7.71875 11.625 
Q 12.109375 9.234375 16.796875 8.0625 
Q 21.484375 6.890625 26.703125 6.890625 
Q 35.15625 6.890625 40.078125 11.328125 
Q 45.015625 15.765625 45.015625 23.390625 
Q 45.015625 31 40.078125 35.4375 
Q 35.15625 39.890625 26.703125 39.890625 
Q 22.75 39.890625 18.8125 39.015625 
Q 14.890625 38.140625 10.796875 36.28125 
z
" id="DejaVuSans-53"/>
       </defs>
       <use xlink:href="#DejaVuSans-53"/>
       <use x="63.623047" xlink:href="#DejaVuSans-48"/>
      </g>
     </g>
    </g>
    <g id="xtick_6">
     <g id="line2d_6">
      <g>
       <use style="stroke:#000000;stroke-width:0.8;" x="298.942662" xlink:href="#m8e680da2e5" y="307.584"/>
      </g>
     </g>
     <g id="text_6">
      <!-- 60 -->
      <g transform="translate(292.580162 322.182437)scale(0.1 -0.1)">
       <defs>
        <path d="M 33.015625 40.375 
Q 26.375 40.375 22.484375 35.828125 
Q 18.609375 31.296875 18.609375 23.390625 
Q 18.609375 15.53125 22.484375 10.953125 
Q 26.375 6.390625 33.015625 6.390625 
Q 39.65625 6.390625 43.53125 10.953125 
Q 47.40625 15.53125 47.40625 23.390625 
Q 47.40625 31.296875 43.53125 35.828125 
Q 39.65625 40.375 33.015625 40.375 
z
M 52.59375 71.296875 
L 52.59375 62.3125 
Q 48.875 64.0625 45.09375 64.984375 
Q 41.3125 65.921875 37.59375 65.921875 
Q 27.828125 65.921875 22.671875 59.328125 
Q 17.53125 52.734375 16.796875 39.40625 
Q 19.671875 43.65625 24.015625 45.921875 
Q 28.375 48.1875 33.59375 48.1875 
Q 44.578125 48.1875 50.953125 41.515625 
Q 57.328125 34.859375 57.328125 23.390625 
Q 57.328125 12.15625 50.6875 5.359375 
Q 44.046875 -1.421875 33.015625 -1.421875 
Q 20.359375 -1.421875 13.671875 8.265625 
Q 6.984375 17.96875 6.984375 36.375 
Q 6.984375 53.65625 15.1875 63.9375 
Q 23.390625 74.21875 37.203125 74.21875 
Q 40.921875 74.21875 44.703125 73.484375 
Q 48.484375 72.75 52.59375 71.296875 
z
" id="DejaVuSans-54"/>
       </defs>
       <use xlink:href="#DejaVuSans-54"/>
       <use x="63.623047" xlink:href="#DejaVuSans-48"/>
      </g>
     </g>
    </g>
    <g id="xtick_7">
     <g id="line2d_7">
      <g>
       <use style="stroke:#000000;stroke-width:0.8;" x="340.45556" xlink:href="#m8e680da2e5" y="307.584"/>
      </g>
     </g>
     <g id="text_7">
      <!-- 70 -->
      <g transform="translate(334.09306 322.182437)scale(0.1 -0.1)">
       <defs>
        <path d="M 8.203125 72.90625 
L 55.078125 72.90625 
L 55.078125 68.703125 
L 28.609375 0 
L 18.3125 0 
L 43.21875 64.59375 
L 8.203125 64.59375 
z
" id="DejaVuSans-55"/>
       </defs>
       <use xlink:href="#DejaVuSans-55"/>
       <use x="63.623047" xlink:href="#DejaVuSans-48"/>
      </g>
     </g>
    </g>
    <g id="xtick_8">
     <g id="line2d_8">
      <g>
       <use style="stroke:#000000;stroke-width:0.8;" x="381.968458" xlink:href="#m8e680da2e5" y="307.584"/>
      </g>
     </g>
     <g id="text_8">
      <!-- 80 -->
      <g transform="translate(375.605958 322.182437)scale(0.1 -0.1)">
       <defs>
        <path d="M 31.78125 34.625 
Q 24.75 34.625 20.71875 30.859375 
Q 16.703125 27.09375 16.703125 20.515625 
Q 16.703125 13.921875 20.71875 10.15625 
Q 24.75 6.390625 31.78125 6.390625 
Q 38.8125 6.390625 42.859375 10.171875 
Q 46.921875 13.96875 46.921875 20.515625 
Q 46.921875 27.09375 42.890625 30.859375 
Q 38.875 34.625 31.78125 34.625 
z
M 21.921875 38.8125 
Q 15.578125 40.375 12.03125 44.71875 
Q 8.5 49.078125 8.5 55.328125 
Q 8.5 64.0625 14.71875 69.140625 
Q 20.953125 74.21875 31.78125 74.21875 
Q 42.671875 74.21875 48.875 69.140625 
Q 55.078125 64.0625 55.078125 55.328125 
Q 55.078125 49.078125 51.53125 44.71875 
Q 48 40.375 41.703125 38.8125 
Q 48.828125 37.15625 52.796875 32.3125 
Q 56.78125 27.484375 56.78125 20.515625 
Q 56.78125 9.90625 50.3125 4.234375 
Q 43.84375 -1.421875 31.78125 -1.421875 
Q 19.734375 -1.421875 13.25 4.234375 
Q 6.78125 9.90625 6.78125 20.515625 
Q 6.78125 27.484375 10.78125 32.3125 
Q 14.796875 37.15625 21.921875 38.8125 
z
M 18.3125 54.390625 
Q 18.3125 48.734375 21.84375 45.5625 
Q 25.390625 42.390625 31.78125 42.390625 
Q 38.140625 42.390625 41.71875 45.5625 
Q 45.3125 48.734375 45.3125 54.390625 
Q 45.3125 60.0625 41.71875 63.234375 
Q 38.140625 66.40625 31.78125 66.40625 
Q 25.390625 66.40625 21.84375 63.234375 
Q 18.3125 60.0625 18.3125 54.390625 
z
" id="DejaVuSans-56"/>
       </defs>
       <use xlink:href="#DejaVuSans-56"/>
       <use x="63.623047" xlink:href="#DejaVuSans-48"/>
      </g>
     </g>
    </g>
   </g>
   <g id="matplotlib.axis_2">
    <g id="ytick_1">
     <g id="line2d_9">
      <defs>
       <path d="M 0 0 
L -3.5 0 
" id="mc944baa4d9" style="stroke:#000000;stroke-width:0.8;"/>
      </defs>
      <g>
       <use style="stroke:#000000;stroke-width:0.8;" x="57.6" xlink:href="#mc944baa4d9" y="277.732934"/>
      </g>
     </g>
     <g id="text_9">
      <!-- 10 -->
      <g transform="translate(37.875 281.532152)scale(0.1 -0.1)">
       <use xlink:href="#DejaVuSans-49"/>
       <use x="63.623047" xlink:href="#DejaVuSans-48"/>
      </g>
     </g>
    </g>
    <g id="ytick_2">
     <g id="line2d_10">
      <g>
       <use style="stroke:#000000;stroke-width:0.8;" x="57.6" xlink:href="#mc944baa4d9" y="236.220036"/>
      </g>
     </g>
     <g id="text_10">
      <!-- 20 -->
      <g transform="translate(37.875 240.019255)scale(0.1 -0.1)">
       <use xlink:href="#DejaVuSans-50"/>
       <use x="63.623047" xlink:href="#DejaVuSans-48"/>
      </g>
     </g>
    </g>
    <g id="ytick_3">
     <g id="line2d_11">
      <g>
       <use style="stroke:#000000;stroke-width:0.8;" x="57.6" xlink:href="#mc944baa4d9" y="194.707138"/>
      </g>
     </g>
     <g id="text_11">
      <!-- 30 -->
      <g transform="translate(37.875 198.506357)scale(0.1 -0.1)">
       <use xlink:href="#DejaVuSans-51"/>
       <use x="63.623047" xlink:href="#DejaVuSans-48"/>
      </g>
     </g>
    </g>
    <g id="ytick_4">
     <g id="line2d_12">
      <g>
       <use style="stroke:#000000;stroke-width:0.8;" x="57.6" xlink:href="#mc944baa4d9" y="153.19424"/>
      </g>
     </g>
     <g id="text_12">
      <!-- 40 -->
      <g transform="translate(37.875 156.993459)scale(0.1 -0.1)">
       <use xlink:href="#DejaVuSans-52"/>
       <use x="63.623047" xlink:href="#DejaVuSans-48"/>
      </g>
     </g>
    </g>
    <g id="ytick_5">
     <g id="line2d_13">
      <g>
       <use style="stroke:#000000;stroke-width:0.8;" x="57.6" xlink:href="#mc944baa4d9" y="111.681343"/>
      </g>
     </g>
     <g id="text_13">
      <!-- 50 -->
      <g transform="translate(37.875 115.480562)scale(0.1 -0.1)">
       <use xlink:href="#DejaVuSans-53"/>
       <use x="63.623047" xlink:href="#DejaVuSans-48"/>
      </g>
     </g>
    </g>
    <g id="ytick_6">
     <g id="line2d_14">
      <g>
       <use style="stroke:#000000;stroke-width:0.8;" x="57.6" xlink:href="#mc944baa4d9" y="70.168445"/>
      </g>
     </g>
     <g id="text_14">
      <!-- 60 -->
      <g transform="translate(37.875 73.967664)scale(0.1 -0.1)">
       <use xlink:href="#DejaVuSans-54"/>
       <use x="63.623047" xlink:href="#DejaVuSans-48"/>
      </g>
     </g>
    </g>
   </g>
   <g id="line2d_15">
    <path clip-path="url(#p2a524c6f94)" d="M 91.378174 277.732934 
L 95.579279 277.371771 
L 99.776233 277.081181 
L 103.964884 276.865314 
L 108.149384 276.711716 
L 112.325582 276.620388 
L 116.501779 276.578875 
L 120.669674 276.587178 
L 124.837569 276.641144 
L 129.001313 276.728322 
L 133.160905 276.848709 
L 137.316346 276.998155 
L 141.471787 277.164207 
L 145.627228 277.351015 
L 149.782669 277.546126 
L 153.933959 277.745388 
L 158.0894 277.948801 
L 162.244841 278.13976 
L 166.396131 278.322417 
L 170.555724 278.49262 
L 174.711165 278.633764 
L 178.874908 278.75 
L 183.034501 278.837177 
L 187.202395 278.882841 
L 191.374442 278.882841 
L 195.546488 278.837177 
L 199.726837 278.737546 
L 203.911337 278.575645 
L 208.099988 278.347325 
L 212.296942 278.048432 
L 216.502199 277.674816 
L 220.707455 277.218174 
L 224.90856 276.661901 
L 229.088909 275.997695 
L 233.236048 275.200647 
L 237.345825 274.266607 
L 241.397483 273.174817 
L 245.386873 271.908674 
L 249.293237 270.459874 
L 253.108272 268.807661 
L 256.823676 266.93958 
L 260.422844 264.84733 
L 263.901625 262.539213 
L 267.251716 260.027683 
L 270.468966 257.337647 
L 273.545071 254.485711 
L 276.471731 251.492631 
L 279.248944 248.362559 
L 281.868407 245.103796 
L 284.325971 241.724646 
L 286.613332 238.22926 
L 288.726338 234.617638 
L 290.660839 230.906385 
L 292.40023 227.095501 
L 293.936207 223.205742 
L 295.260468 219.241261 
L 296.36056 215.210358 
L 297.236482 211.129641 
L 297.913142 207.00741 
L 298.407146 202.85612 
L 298.7434 198.688225 
L 298.950965 194.516179 
L 299.042293 190.344133 
L 299.050596 186.180389 
L 298.996629 182.016645 
L 298.909452 177.852902 
L 298.80567 173.689158 
L 298.714341 169.525414 
L 298.660375 165.353368 
L 298.668677 161.181322 
L 298.764157 156.996822 
L 298.96757 152.808171 
L 299.303824 148.607065 
L 299.777072 144.410111 
L 300.403916 140.229763 
L 301.18851 136.078473 
L 302.135004 131.968696 
L 303.260004 127.908734 
L 304.563509 123.915194 
L 306.053822 120.000527 
L 307.743397 116.17719 
L 309.636385 112.457634 
L 311.741089 108.850163 
L 314.049206 105.367231 
L 316.548282 102.012989 
L 319.221713 98.791588 
L 322.057044 95.70718 
L 325.03767 92.768067 
L 328.15944 89.9784 
L 331.4099 87.350633 
L 334.789049 84.884767 
L 338.280284 82.593255 
L 341.887755 80.4844 
L 345.599008 78.558202 
L 349.405741 76.822963 
L 353.291348 75.278683 
L 357.251678 73.933665 
L 361.278429 72.787909 
L 365.350845 71.845566 
L 369.468924 71.106637 
L 373.620214 70.579423 
L 377.788109 70.268076 
L 381.968458 70.168445 
" style="fill:none;stroke:#fea952;stroke-linecap:square;"/>
   </g>
   <g id="line2d_16">
    <path clip-path="url(#p2a524c6f94)" d="M 89.955901 261.188797 
L 94.432311 260.806272 
L 98.921601 260.49803 
L 103.35578 260.27133 
L 107.786336 260.110527 
L 112.160529 260.016049 
L 116.534857 259.973749 
L 120.884663 259.98341 
L 125.185158 260.039624 
L 129.4817 260.130113 
L 133.757708 260.254278 
L 137.97936 260.406238 
L 142.21752 260.575802 
L 146.406033 260.764129 
L 150.578801 260.960063 
L 154.745827 261.160087 
L 158.85167 261.361147 
L 162.974762 261.550651 
L 167.075016 261.731141 
L 171.11941 261.897031 
L 175.174538 262.035071 
L 179.222844 262.148486 
L 183.216419 262.233014 
L 187.202395 262.277682 
L 191.192705 262.278676 
L 195.150847 262.236732 
L 199.084856 262.144801 
L 203.007541 261.995101 
L 206.920412 261.784115 
L 210.827445 261.508423 
L 214.709609 261.166698 
L 218.527773 260.756695 
L 222.302889 260.262456 
L 225.954885 259.690972 
L 229.555994 259.008411 
L 233.025389 258.233355 
L 236.374296 257.34766 
L 239.612658 256.339803 
L 242.694159 255.222306 
L 245.649086 253.972168 
L 248.478447 252.583799 
L 251.242465 251.010715 
L 253.941164 249.25311 
L 256.600349 247.288779 
L 259.179425 245.160719 
L 261.672455 242.876564 
L 264.050888 240.472016 
L 266.306655 237.959267 
L 268.439216 235.337111 
L 270.431447 232.632149 
L 272.280913 229.843971 
L 274.00152 226.942285 
L 275.554785 224.011574 
L 276.955595 220.996766 
L 278.186471 217.944836 
L 279.241173 214.869363 
L 280.125205 211.725455 
L 280.850614 208.439916 
L 281.424322 205.04524 
L 281.855764 201.520799 
L 282.158754 197.863118 
L 282.349783 194.15277 
L 282.437167 190.311022 
L 282.446831 186.395592 
L 282.395108 182.364235 
L 282.309449 178.266661 
L 282.204504 174.053291 
L 282.110571 169.74019 
L 282.055248 165.320323 
L 282.067839 160.802533 
L 282.178544 156.191376 
L 282.415346 151.483338 
L 282.803234 146.746465 
L 283.355506 141.947692 
L 284.087617 137.145982 
L 285.006938 132.351808 
L 286.132826 127.534555 
L 287.474456 122.756279 
L 289.044888 118.007257 
L 290.865589 113.288681 
L 292.94452 108.645619 
L 295.293797 104.089749 
L 297.899432 99.677385 
L 300.733504 95.446374 
L 303.770277 91.408562 
L 306.996871 87.553948 
L 310.398049 83.88351 
L 313.973138 80.386328 
L 317.720045 77.065215 
L 321.621672 73.937136 
L 325.67744 71.002769 
L 329.900095 68.257854 
L 334.238341 65.74609 
L 338.71161 63.448766 
L 343.272864 61.391853 
L 347.951421 59.555563 
L 352.70729 57.962446 
L 357.534967 56.610214 
L 362.418128 55.501439 
L 367.376873 54.633791 
L 372.383235 54.020401 
L 377.392468 53.667631 
L 381.572817 53.568 
" style="fill:none;stroke:#ffffff;stroke-linecap:square;"/>
   </g>
   <g id="line2d_17">
    <path clip-path="url(#p2a524c6f94)" d="M 92.800446 294.27707 
L 96.726247 293.937271 
L 100.630865 293.664333 
L 104.573989 293.459298 
L 108.512432 293.312906 
L 112.490635 293.224727 
L 116.468701 293.184001 
L 120.454685 293.190945 
L 124.48998 293.242665 
L 128.520926 293.32653 
L 132.564103 293.44314 
L 136.653333 293.590073 
L 140.726055 293.752612 
L 144.848424 293.937901 
L 148.986538 294.132189 
L 153.122091 294.330688 
L 157.327131 294.536454 
L 161.514921 294.728869 
L 165.717247 294.913692 
L 169.992037 295.088208 
L 174.247791 295.232456 
L 178.526972 295.351513 
L 182.852582 295.441339 
L 187.202395 295.488 
L 191.556179 295.487005 
L 195.942129 295.437622 
L 200.368818 295.33029 
L 204.815133 295.15619 
L 209.279564 294.910534 
L 213.766439 294.58844 
L 218.294788 294.182933 
L 222.887137 293.679653 
L 227.514232 293.061346 
L 232.222934 292.304417 
L 236.916101 291.392883 
L 241.66626 290.299858 
L 246.420671 289.001974 
L 251.161088 287.477545 
L 255.892314 285.697442 
L 260.567458 283.643153 
L 265.168906 281.295362 
L 269.603224 278.683946 
L 273.862086 275.825316 
L 277.903084 272.766587 
L 281.758506 269.514575 
L 285.417688 266.094857 
L 288.892574 262.513246 
L 292.191232 258.76585 
L 295.297599 254.870481 
L 298.220495 250.817144 
L 300.945751 246.614549 
L 303.451156 242.292991 
L 305.766894 237.801196 
L 307.844864 233.194236 
L 309.685942 228.466649 
L 311.279763 223.613159 
L 312.595915 218.695262 
L 313.622351 213.819365 
L 314.401963 208.969579 
L 314.958527 204.191441 
L 315.328047 199.513332 
L 315.552147 194.879588 
L 315.647419 190.377244 
L 315.65436 185.965186 
L 315.59815 181.669056 
L 315.509455 177.439143 
L 315.406836 173.325025 
L 315.318111 169.310639 
L 315.265501 165.386413 
L 315.269515 161.560111 
L 315.34977 157.802268 
L 315.519794 154.133003 
L 315.804415 150.467666 
L 316.198637 146.872531 
L 316.720215 143.313543 
L 317.370082 139.805138 
L 318.137182 136.402837 
L 319.045551 133.06119 
L 320.082129 129.823131 
L 321.242055 126.712374 
L 322.542273 123.708761 
L 323.978972 120.825519 
L 325.582745 118.022941 
L 327.364907 115.288088 
L 329.326288 112.617416 
L 331.446554 110.029228 
L 333.716038 107.530849 
L 336.102202 105.149805 
L 338.598834 102.891585 
L 341.198127 100.764131 
L 343.900659 98.766766 
L 346.660473 96.928657 
L 349.537169 95.22271 
L 352.486406 93.667638 
L 355.538617 92.254072 
L 358.631275 91.001802 
L 361.796067 89.904884 
L 365.021892 88.965603 
L 368.283561 88.189693 
L 371.560976 87.579482 
L 374.857193 87.138444 
L 378.18375 86.868521 
L 382.364099 86.76889 
" style="fill:none;stroke:#ffffff;stroke-linecap:square;"/>
   </g>
   <g id="patch_3">
    <path d="M 57.6 307.584 
L 57.6 41.472 
" style="fill:none;stroke:#000000;stroke-linecap:square;stroke-linejoin:miter;stroke-width:0.8;"/>
   </g>
   <g id="patch_4">
    <path d="M 414.72 307.584 
L 414.72 41.472 
" style="fill:none;stroke:#000000;stroke-linecap:square;stroke-linejoin:miter;stroke-width:0.8;"/>
   </g>
   <g id="patch_5">
    <path d="M 57.6 307.584 
L 414.72 307.584 
" style="fill:none;stroke:#000000;stroke-linecap:square;stroke-linejoin:miter;stroke-width:0.8;"/>
   </g>
   <g id="patch_6">
    <path d="M 57.6 41.472 
L 414.72 41.472 
" style="fill:none;stroke:#000000;stroke-linecap:square;stroke-linejoin:miter;stroke-width:0.8;"/>
   </g>
  </g>
 </g>
 <defs>
  <clipPath id="p2a524c6f94">
   <rect height="266.112" width="357.12" x="57.6" y="41.472"/>
  </clipPath>
 </defs>
</svg>
