<?xml version="1.0" encoding="utf-8" standalone="no"?>
<!DOCTYPE svg PUBLIC "-//W3C//DTD SVG 1.1//EN"
  "http://www.w3.org/Graphics/SVG/1.1/DTD/svg11.dtd">
<!-- Created with matplotlib (https://matplotlib.org/) -->
<svg height="345.6pt" version="1.1" viewBox="0 0 460.8 345.6" width="460.8pt" xmlns="http://www.w3.org/2000/svg" xmlns:xlink="http://www.w3.org/1999/xlink">
 <metadata>
  <rdf:RDF xmlns:cc="http://creativecommons.org/ns#" xmlns:dc="http://purl.org/dc/elements/1.1/" xmlns:rdf="http://www.w3.org/1999/02/22-rdf-syntax-ns#">
   <cc:Work>
    <dc:type rdf:resource="http://purl.org/dc/dcmitype/StillImage"/>
    <dc:date>2021-02-10T17:40:14.530080</dc:date>
    <dc:format>image/svg+xml</dc:format>
    <dc:creator>
     <cc:Agent>
      <dc:title>Matplotlib v3.3.3, https://matplotlib.org/</dc:title>
     </cc:Agent>
    </dc:creator>
   </cc:Work>
  </rdf:RDF>
 </metadata>
 <defs>
  <style type="text/css">*{stroke-linecap:butt;stroke-linejoin:round;}</style>
 </defs>
 <g id="figure_1">
  <g id="patch_1">
   <path d="M 0 345.6 
L 460.8 345.6 
L 460.8 0 
L 0 0 
z
" style="fill:#ffffff;"/>
  </g>
  <g id="axes_1">
   <g id="patch_2">
    <path d="M 57.6 307.584 
L 414.72 307.584 
L 414.72 41.472 
L 57.6 41.472 
z
" style="fill:#7d9051;"/>
   </g>
   <g id="matplotlib.axis_1">
    <g id="xtick_1">
     <g id="line2d_1">
      <defs>
       <path d="M 0 0 
L 0 3.5 
" id="mfa4e6ac211" style="stroke:#000000;stroke-width:0.8;"/>
      </defs>
      <g>
       <use style="stroke:#000000;stroke-width:0.8;" x="111.29858" xlink:href="#mfa4e6ac211" y="307.584"/>
      </g>
     </g>
     <g id="text_1">
      <!-- 20 -->
      <g transform="translate(104.93608 322.182437)scale(0.1 -0.1)">
       <defs>
        <path d="M 19.1875 8.296875 
L 53.609375 8.296875 
L 53.609375 0 
L 7.328125 0 
L 7.328125 8.296875 
Q 12.9375 14.109375 22.625 23.890625 
Q 32.328125 33.6875 34.8125 36.53125 
Q 39.546875 41.84375 41.421875 45.53125 
Q 43.3125 49.21875 43.3125 52.78125 
Q 43.3125 58.59375 39.234375 62.25 
Q 35.15625 65.921875 28.609375 65.921875 
Q 23.96875 65.921875 18.8125 64.3125 
Q 13.671875 62.703125 7.8125 59.421875 
L 7.8125 69.390625 
Q 13.765625 71.78125 18.9375 73 
Q 24.125 74.21875 28.421875 74.21875 
Q 39.75 74.21875 46.484375 68.546875 
Q 53.21875 62.890625 53.21875 53.421875 
Q 53.21875 48.921875 51.53125 44.890625 
Q 49.859375 40.875 45.40625 35.40625 
Q 44.1875 33.984375 37.640625 27.21875 
Q 31.109375 20.453125 19.1875 8.296875 
z
" id="DejaVuSans-50"/>
        <path d="M 31.78125 66.40625 
Q 24.171875 66.40625 20.328125 58.90625 
Q 16.5 51.421875 16.5 36.375 
Q 16.5 21.390625 20.328125 13.890625 
Q 24.171875 6.390625 31.78125 6.390625 
Q 39.453125 6.390625 43.28125 13.890625 
Q 47.125 21.390625 47.125 36.375 
Q 47.125 51.421875 43.28125 58.90625 
Q 39.453125 66.40625 31.78125 66.40625 
z
M 31.78125 74.21875 
Q 44.046875 74.21875 50.515625 64.515625 
Q 56.984375 54.828125 56.984375 36.375 
Q 56.984375 17.96875 50.515625 8.265625 
Q 44.046875 -1.421875 31.78125 -1.421875 
Q 19.53125 -1.421875 13.0625 8.265625 
Q 6.59375 17.96875 6.59375 36.375 
Q 6.59375 54.828125 13.0625 64.515625 
Q 19.53125 74.21875 31.78125 74.21875 
z
" id="DejaVuSans-48"/>
       </defs>
       <use xlink:href="#DejaVuSans-50"/>
       <use x="63.623047" xlink:href="#DejaVuSans-48"/>
      </g>
     </g>
    </g>
    <g id="xtick_2">
     <g id="line2d_2">
      <g>
       <use style="stroke:#000000;stroke-width:0.8;" x="186.140567" xlink:href="#mfa4e6ac211" y="307.584"/>
      </g>
     </g>
     <g id="text_2">
      <!-- 40 -->
      <g transform="translate(179.778067 322.182437)scale(0.1 -0.1)">
       <defs>
        <path d="M 37.796875 64.3125 
L 12.890625 25.390625 
L 37.796875 25.390625 
z
M 35.203125 72.90625 
L 47.609375 72.90625 
L 47.609375 25.390625 
L 58.015625 25.390625 
L 58.015625 17.1875 
L 47.609375 17.1875 
L 47.609375 0 
L 37.796875 0 
L 37.796875 17.1875 
L 4.890625 17.1875 
L 4.890625 26.703125 
z
" id="DejaVuSans-52"/>
       </defs>
       <use xlink:href="#DejaVuSans-52"/>
       <use x="63.623047" xlink:href="#DejaVuSans-48"/>
      </g>
     </g>
    </g>
    <g id="xtick_3">
     <g id="line2d_3">
      <g>
       <use style="stroke:#000000;stroke-width:0.8;" x="260.982553" xlink:href="#mfa4e6ac211" y="307.584"/>
      </g>
     </g>
     <g id="text_3">
      <!-- 60 -->
      <g transform="translate(254.620053 322.182437)scale(0.1 -0.1)">
       <defs>
        <path d="M 33.015625 40.375 
Q 26.375 40.375 22.484375 35.828125 
Q 18.609375 31.296875 18.609375 23.390625 
Q 18.609375 15.53125 22.484375 10.953125 
Q 26.375 6.390625 33.015625 6.390625 
Q 39.65625 6.390625 43.53125 10.953125 
Q 47.40625 15.53125 47.40625 23.390625 
Q 47.40625 31.296875 43.53125 35.828125 
Q 39.65625 40.375 33.015625 40.375 
z
M 52.59375 71.296875 
L 52.59375 62.3125 
Q 48.875 64.0625 45.09375 64.984375 
Q 41.3125 65.921875 37.59375 65.921875 
Q 27.828125 65.921875 22.671875 59.328125 
Q 17.53125 52.734375 16.796875 39.40625 
Q 19.671875 43.65625 24.015625 45.921875 
Q 28.375 48.1875 33.59375 48.1875 
Q 44.578125 48.1875 50.953125 41.515625 
Q 57.328125 34.859375 57.328125 23.390625 
Q 57.328125 12.15625 50.6875 5.359375 
Q 44.046875 -1.421875 33.015625 -1.421875 
Q 20.359375 -1.421875 13.671875 8.265625 
Q 6.984375 17.96875 6.984375 36.375 
Q 6.984375 53.65625 15.1875 63.9375 
Q 23.390625 74.21875 37.203125 74.21875 
Q 40.921875 74.21875 44.703125 73.484375 
Q 48.484375 72.75 52.59375 71.296875 
z
" id="DejaVuSans-54"/>
       </defs>
       <use xlink:href="#DejaVuSans-54"/>
       <use x="63.623047" xlink:href="#DejaVuSans-48"/>
      </g>
     </g>
    </g>
    <g id="xtick_4">
     <g id="line2d_4">
      <g>
       <use style="stroke:#000000;stroke-width:0.8;" x="335.824539" xlink:href="#mfa4e6ac211" y="307.584"/>
      </g>
     </g>
     <g id="text_4">
      <!-- 80 -->
      <g transform="translate(329.462039 322.182437)scale(0.1 -0.1)">
       <defs>
        <path d="M 31.78125 34.625 
Q 24.75 34.625 20.71875 30.859375 
Q 16.703125 27.09375 16.703125 20.515625 
Q 16.703125 13.921875 20.71875 10.15625 
Q 24.75 6.390625 31.78125 6.390625 
Q 38.8125 6.390625 42.859375 10.171875 
Q 46.921875 13.96875 46.921875 20.515625 
Q 46.921875 27.09375 42.890625 30.859375 
Q 38.875 34.625 31.78125 34.625 
z
M 21.921875 38.8125 
Q 15.578125 40.375 12.03125 44.71875 
Q 8.5 49.078125 8.5 55.328125 
Q 8.5 64.0625 14.71875 69.140625 
Q 20.953125 74.21875 31.78125 74.21875 
Q 42.671875 74.21875 48.875 69.140625 
Q 55.078125 64.0625 55.078125 55.328125 
Q 55.078125 49.078125 51.53125 44.71875 
Q 48 40.375 41.703125 38.8125 
Q 48.828125 37.15625 52.796875 32.3125 
Q 56.78125 27.484375 56.78125 20.515625 
Q 56.78125 9.90625 50.3125 4.234375 
Q 43.84375 -1.421875 31.78125 -1.421875 
Q 19.734375 -1.421875 13.25 4.234375 
Q 6.78125 9.90625 6.78125 20.515625 
Q 6.78125 27.484375 10.78125 32.3125 
Q 14.796875 37.15625 21.921875 38.8125 
z
M 18.3125 54.390625 
Q 18.3125 48.734375 21.84375 45.5625 
Q 25.390625 42.390625 31.78125 42.390625 
Q 38.140625 42.390625 41.71875 45.5625 
Q 45.3125 48.734375 45.3125 54.390625 
Q 45.3125 60.0625 41.71875 63.234375 
Q 38.140625 66.40625 31.78125 66.40625 
Q 25.390625 66.40625 21.84375 63.234375 
Q 18.3125 60.0625 18.3125 54.390625 
z
" id="DejaVuSans-56"/>
       </defs>
       <use xlink:href="#DejaVuSans-56"/>
       <use x="63.623047" xlink:href="#DejaVuSans-48"/>
      </g>
     </g>
    </g>
    <g id="xtick_5">
     <g id="line2d_5">
      <g>
       <use style="stroke:#000000;stroke-width:0.8;" x="410.666525" xlink:href="#mfa4e6ac211" y="307.584"/>
      </g>
     </g>
     <g id="text_5">
      <!-- 100 -->
      <g transform="translate(401.122775 322.182437)scale(0.1 -0.1)">
       <defs>
        <path d="M 12.40625 8.296875 
L 28.515625 8.296875 
L 28.515625 63.921875 
L 10.984375 60.40625 
L 10.984375 69.390625 
L 28.421875 72.90625 
L 38.28125 72.90625 
L 38.28125 8.296875 
L 54.390625 8.296875 
L 54.390625 0 
L 12.40625 0 
z
" id="DejaVuSans-49"/>
       </defs>
       <use xlink:href="#DejaVuSans-49"/>
       <use x="63.623047" xlink:href="#DejaVuSans-48"/>
       <use x="127.246094" xlink:href="#DejaVuSans-48"/>
      </g>
     </g>
    </g>
   </g>
   <g id="matplotlib.axis_2">
    <g id="ytick_1">
     <g id="line2d_6">
      <defs>
       <path d="M 0 0 
L -3.5 0 
" id="meb937aa5c9" style="stroke:#000000;stroke-width:0.8;"/>
      </defs>
      <g>
       <use style="stroke:#000000;stroke-width:0.8;" x="57.6" xlink:href="#meb937aa5c9" y="292.329021"/>
      </g>
     </g>
     <g id="text_6">
      <!-- −10 -->
      <g transform="translate(29.495313 296.12824)scale(0.1 -0.1)">
       <defs>
        <path d="M 10.59375 35.5 
L 73.1875 35.5 
L 73.1875 27.203125 
L 10.59375 27.203125 
z
" id="DejaVuSans-8722"/>
       </defs>
       <use xlink:href="#DejaVuSans-8722"/>
       <use x="83.789062" xlink:href="#DejaVuSans-49"/>
       <use x="147.412109" xlink:href="#DejaVuSans-48"/>
      </g>
     </g>
    </g>
    <g id="ytick_2">
     <g id="line2d_7">
      <g>
       <use style="stroke:#000000;stroke-width:0.8;" x="57.6" xlink:href="#meb937aa5c9" y="254.908028"/>
      </g>
     </g>
     <g id="text_7">
      <!-- 0 -->
      <g transform="translate(44.2375 258.707247)scale(0.1 -0.1)">
       <use xlink:href="#DejaVuSans-48"/>
      </g>
     </g>
    </g>
    <g id="ytick_3">
     <g id="line2d_8">
      <g>
       <use style="stroke:#000000;stroke-width:0.8;" x="57.6" xlink:href="#meb937aa5c9" y="217.487035"/>
      </g>
     </g>
     <g id="text_8">
      <!-- 10 -->
      <g transform="translate(37.875 221.286253)scale(0.1 -0.1)">
       <use xlink:href="#DejaVuSans-49"/>
       <use x="63.623047" xlink:href="#DejaVuSans-48"/>
      </g>
     </g>
    </g>
    <g id="ytick_4">
     <g id="line2d_9">
      <g>
       <use style="stroke:#000000;stroke-width:0.8;" x="57.6" xlink:href="#meb937aa5c9" y="180.066042"/>
      </g>
     </g>
     <g id="text_9">
      <!-- 20 -->
      <g transform="translate(37.875 183.86526)scale(0.1 -0.1)">
       <use xlink:href="#DejaVuSans-50"/>
       <use x="63.623047" xlink:href="#DejaVuSans-48"/>
      </g>
     </g>
    </g>
    <g id="ytick_5">
     <g id="line2d_10">
      <g>
       <use style="stroke:#000000;stroke-width:0.8;" x="57.6" xlink:href="#meb937aa5c9" y="142.645049"/>
      </g>
     </g>
     <g id="text_10">
      <!-- 30 -->
      <g transform="translate(37.875 146.444267)scale(0.1 -0.1)">
       <defs>
        <path d="M 40.578125 39.3125 
Q 47.65625 37.796875 51.625 33 
Q 55.609375 28.21875 55.609375 21.1875 
Q 55.609375 10.40625 48.1875 4.484375 
Q 40.765625 -1.421875 27.09375 -1.421875 
Q 22.515625 -1.421875 17.65625 -0.515625 
Q 12.796875 0.390625 7.625 2.203125 
L 7.625 11.71875 
Q 11.71875 9.328125 16.59375 8.109375 
Q 21.484375 6.890625 26.8125 6.890625 
Q 36.078125 6.890625 40.9375 10.546875 
Q 45.796875 14.203125 45.796875 21.1875 
Q 45.796875 27.640625 41.28125 31.265625 
Q 36.765625 34.90625 28.71875 34.90625 
L 20.21875 34.90625 
L 20.21875 43.015625 
L 29.109375 43.015625 
Q 36.375 43.015625 40.234375 45.921875 
Q 44.09375 48.828125 44.09375 54.296875 
Q 44.09375 59.90625 40.109375 62.90625 
Q 36.140625 65.921875 28.71875 65.921875 
Q 24.65625 65.921875 20.015625 65.03125 
Q 15.375 64.15625 9.8125 62.3125 
L 9.8125 71.09375 
Q 15.4375 72.65625 20.34375 73.4375 
Q 25.25 74.21875 29.59375 74.21875 
Q 40.828125 74.21875 47.359375 69.109375 
Q 53.90625 64.015625 53.90625 55.328125 
Q 53.90625 49.265625 50.4375 45.09375 
Q 46.96875 40.921875 40.578125 39.3125 
z
" id="DejaVuSans-51"/>
       </defs>
       <use xlink:href="#DejaVuSans-51"/>
       <use x="63.623047" xlink:href="#DejaVuSans-48"/>
      </g>
     </g>
    </g>
    <g id="ytick_6">
     <g id="line2d_11">
      <g>
       <use style="stroke:#000000;stroke-width:0.8;" x="57.6" xlink:href="#meb937aa5c9" y="105.224056"/>
      </g>
     </g>
     <g id="text_11">
      <!-- 40 -->
      <g transform="translate(37.875 109.023274)scale(0.1 -0.1)">
       <use xlink:href="#DejaVuSans-52"/>
       <use x="63.623047" xlink:href="#DejaVuSans-48"/>
      </g>
     </g>
    </g>
    <g id="ytick_7">
     <g id="line2d_12">
      <g>
       <use style="stroke:#000000;stroke-width:0.8;" x="57.6" xlink:href="#meb937aa5c9" y="67.803062"/>
      </g>
     </g>
     <g id="text_12">
      <!-- 50 -->
      <g transform="translate(37.875 71.602281)scale(0.1 -0.1)">
       <defs>
        <path d="M 10.796875 72.90625 
L 49.515625 72.90625 
L 49.515625 64.59375 
L 19.828125 64.59375 
L 19.828125 46.734375 
Q 21.96875 47.46875 24.109375 47.828125 
Q 26.265625 48.1875 28.421875 48.1875 
Q 40.625 48.1875 47.75 41.5 
Q 54.890625 34.8125 54.890625 23.390625 
Q 54.890625 11.625 47.5625 5.09375 
Q 40.234375 -1.421875 26.90625 -1.421875 
Q 22.3125 -1.421875 17.546875 -0.640625 
Q 12.796875 0.140625 7.71875 1.703125 
L 7.71875 11.625 
Q 12.109375 9.234375 16.796875 8.0625 
Q 21.484375 6.890625 26.703125 6.890625 
Q 35.15625 6.890625 40.078125 11.328125 
Q 45.015625 15.765625 45.015625 23.390625 
Q 45.015625 31 40.078125 35.4375 
Q 35.15625 39.890625 26.703125 39.890625 
Q 22.75 39.890625 18.8125 39.015625 
Q 14.890625 38.140625 10.796875 36.28125 
z
" id="DejaVuSans-53"/>
       </defs>
       <use xlink:href="#DejaVuSans-53"/>
       <use x="63.623047" xlink:href="#DejaVuSans-48"/>
      </g>
     </g>
    </g>
   </g>
   <g id="line2d_13">
    <path clip-path="url(#p6e3ec0c670)" d="M 73.877587 217.487035 
L 77.623429 217.475808 
L 81.365528 217.468324 
L 85.11137 217.464582 
L 88.857211 217.464582 
L 92.59931 217.464582 
L 96.34141 217.464582 
L 100.087251 217.468324 
L 103.82935 217.475808 
L 107.57145 217.479551 
L 111.317291 217.487035 
L 115.05939 217.494519 
L 118.80149 217.498261 
L 122.547331 217.505745 
L 126.28943 217.509487 
L 130.03153 217.509487 
L 133.777371 217.509487 
L 137.51947 217.509487 
L 141.265312 217.505745 
L 145.011153 217.498261 
L 148.753252 217.487035 
L 152.499094 217.472066 
L 156.244935 217.457098 
L 159.990777 217.44213 
L 163.736618 217.427161 
L 167.482459 217.415935 
L 171.224559 217.412193 
L 174.9704 217.415935 
L 178.712499 217.427161 
L 182.454599 217.449614 
L 186.192956 217.487035 
L 189.931313 217.539424 
L 193.66967 217.595556 
L 197.408028 217.655429 
L 201.146385 217.707819 
L 204.888484 217.74524 
L 208.630583 217.76395 
L 212.372683 217.752724 
L 216.122266 217.707819 
L 219.875592 217.62175 
L 223.63266 217.483293 
L 227.393469 217.292446 
L 231.161763 217.045467 
L 234.926315 216.738615 
L 238.694609 216.371889 
L 242.459161 215.949032 
L 246.219971 215.466301 
L 249.977039 214.923697 
L 253.72288 214.317477 
L 257.461237 213.651383 
L 261.184626 212.921674 
L 264.896789 212.128348 
L 268.593983 211.271408 
L 272.268724 210.347109 
L 275.928497 209.359195 
L 279.565818 208.307665 
L 283.176944 207.185035 
L 286.765617 205.99879 
L 290.328095 204.741444 
L 293.860637 203.416741 
L 297.3595 202.020938 
L 300.828426 200.554035 
L 304.259931 199.016033 
L 307.654015 197.40693 
L 311.010678 195.726727 
L 314.326178 193.971683 
L 317.600515 192.141796 
L 320.826205 190.24081 
L 324.010731 188.264981 
L 327.150353 186.221795 
L 330.248811 184.111251 
L 333.298622 181.940833 
L 336.30727 179.7068 
L 339.271012 177.412893 
L 342.18985 175.066597 
L 345.063782 172.660427 
L 347.889067 170.198126 
L 350.665705 167.683435 
L 353.389953 165.112613 
L 356.061812 162.489401 
L 358.681281 159.810058 
L 361.244619 157.078326 
L 363.755568 154.297946 
L 366.206643 151.465177 
L 368.601587 148.58376 
L 370.940399 145.653696 
L 373.219337 142.68247 
L 375.438402 139.662595 
L 377.593851 136.597816 
L 379.689427 133.491874 
L 381.725129 130.344768 
L 383.693473 127.160242 
L 385.598202 123.934552 
" style="fill:none;stroke:#fea952;stroke-linecap:square;"/>
   </g>
   <g id="line2d_14">
    <path clip-path="url(#p6e3ec0c670)" d="M 73.832727 202.518705 
L 77.593492 202.507441 
L 81.350575 202.499934 
L 85.11137 202.496185 
L 88.857211 202.496185 
L 92.59931 202.496185 
L 96.356363 202.496192 
L 100.117188 202.499957 
L 103.844319 202.507419 
L 107.601356 202.511183 
L 111.347228 202.518667 
L 115.074359 202.526129 
L 118.831396 202.529894 
L 122.562299 202.537355 
L 126.28943 202.54109 
L 130.03153 202.54109 
L 133.777371 202.54109 
L 137.504517 202.541098 
L 141.235405 202.537378 
L 144.966248 202.529931 
L 148.693439 202.518757 
L 152.439281 202.503789 
L 156.185122 202.48882 
L 159.930963 202.473852 
L 163.691758 202.458831 
L 167.467491 202.447545 
L 171.239512 202.443803 
L 175.015305 202.447605 
L 178.802308 202.459033 
L 182.604425 202.481966 
L 186.402703 202.520107 
L 190.156039 202.572714 
L 193.909374 202.629078 
L 197.617774 202.688502 
L 201.296061 202.74017 
L 204.963325 202.777029 
L 208.585678 202.79562 
L 212.193433 202.7854 
L 215.779113 202.743355 
L 219.324342 202.663507 
L 222.874045 202.534131 
L 226.414523 202.356095 
L 229.945708 202.126549 
L 233.476459 201.8406 
L 237.023776 201.497037 
L 240.553479 201.10244 
L 244.080399 200.651607 
L 247.585695 200.147554 
L 251.097192 199.581172 
L 254.582495 198.962416 
L 258.056374 198.283813 
L 261.516991 197.546514 
L 264.942748 196.755162 
L 268.367801 195.89596 
L 271.771443 194.979633 
L 275.122209 194.014056 
L 278.479103 192.972956 
L 281.783833 191.883736 
L 285.07234 190.726097 
L 288.314335 189.513812 
L 291.52964 188.234509 
L 294.70637 186.89485 
L 297.847678 185.490652 
L 300.953976 184.021774 
L 304.007835 182.497475 
L 307.02394 180.905305 
L 310.000779 179.24618 
L 312.93466 177.521673 
L 315.846298 175.719267 
L 318.723667 173.850704 
L 321.569852 171.915818 
L 324.375084 169.923205 
L 327.145525 167.869767 
L 329.892994 165.746459 
L 332.580883 163.589635 
L 335.229263 161.376139 
L 337.84109 159.103484 
L 340.392443 156.797067 
L 342.903381 154.431568 
L 345.358644 152.02541 
L 347.765943 149.567583 
L 350.135813 147.046011 
L 352.436223 144.503797 
L 354.695357 141.897355 
L 356.903036 139.245836 
L 359.06331 136.543939 
L 361.157306 133.819044 
L 363.194806 131.051715 
L 365.185582 128.225972 
L 367.121205 125.362132 
L 368.992605 122.474841 
L 370.804402 119.54941 
L 372.709131 116.32372 
" style="fill:none;stroke:#ffffff;stroke-linecap:square;"/>
   </g>
   <g id="line2d_15">
    <path clip-path="url(#p6e3ec0c670)" d="M 73.922448 232.455365 
L 77.653366 232.444176 
L 81.380482 232.436714 
L 85.11137 232.432979 
L 88.857211 232.432979 
L 92.59931 232.432979 
L 96.326456 232.432972 
L 100.057314 232.436691 
L 103.814382 232.444198 
L 107.541543 232.447918 
L 111.287354 232.455402 
L 115.044422 232.462909 
L 118.771583 232.466628 
L 122.532363 232.474135 
L 126.28943 232.477885 
L 130.03153 232.477885 
L 133.777371 232.477885 
L 137.534424 232.477877 
L 141.295219 232.474113 
L 145.056058 232.466591 
L 148.813066 232.455312 
L 152.558907 232.440344 
L 156.304749 232.425376 
L 160.05059 232.410407 
L 163.781478 232.395491 
L 167.497428 232.384325 
L 171.209605 232.380582 
L 174.925495 232.384265 
L 178.622691 232.395289 
L 182.304772 232.417261 
L 185.983209 232.453962 
L 189.706588 232.506134 
L 193.429967 232.562033 
L 197.198281 232.622357 
L 200.996708 232.675467 
L 204.813643 232.71345 
L 208.675488 232.73228 
L 212.551932 232.720048 
L 216.465419 232.672282 
L 220.426842 232.579993 
L 224.391274 232.432454 
L 228.372416 232.228796 
L 232.377818 231.964385 
L 236.376172 231.636629 
L 240.365443 231.246741 
L 244.364843 230.795624 
L 248.359543 230.280995 
L 252.368382 229.699839 
L 256.348568 229.053781 
L 260.33998 228.34035 
L 264.312878 227.559534 
L 268.276586 226.710183 
L 272.245218 225.787654 
L 276.169648 224.798258 
L 280.085552 223.738757 
L 284.009427 222.601274 
L 287.874784 221.397115 
L 291.747401 220.113844 
L 295.583851 218.756792 
L 299.40694 217.319671 
L 303.18936 215.807368 
L 306.950482 214.213221 
L 310.672184 212.541413 
L 314.354054 210.792086 
L 318.013522 208.955979 
L 321.628417 207.03806 
L 325.200252 205.037412 
L 328.717749 202.959947 
L 332.175165 200.810695 
L 335.577038 198.592886 
L 338.927769 196.306684 
L 342.222159 193.958462 
L 345.469014 191.543833 
L 348.649031 189.079327 
L 351.798817 186.543559 
L 354.898301 183.944715 
L 357.937044 181.292767 
L 360.938967 178.569803 
L 363.876525 175.793658 
L 366.76498 172.953392 
L 369.59662 170.052533 
L 372.353426 167.11064 
L 375.074913 164.092095 
L 377.717929 161.032999 
L 380.300138 157.921684 
L 382.817488 154.763454 
L 385.281369 151.545895 
L 387.681998 148.273476 
L 390.00212 144.96966 
L 392.257649 141.621616 
L 394.457653 138.214695 
L 396.582544 134.771074 
L 398.487273 131.545384 
" style="fill:none;stroke:#ffffff;stroke-linecap:square;"/>
   </g>
   <g id="patch_3">
    <path d="M 57.6 307.584 
L 57.6 41.472 
" style="fill:none;stroke:#000000;stroke-linecap:square;stroke-linejoin:miter;stroke-width:0.8;"/>
   </g>
   <g id="patch_4">
    <path d="M 414.72 307.584 
L 414.72 41.472 
" style="fill:none;stroke:#000000;stroke-linecap:square;stroke-linejoin:miter;stroke-width:0.8;"/>
   </g>
   <g id="patch_5">
    <path d="M 57.6 307.584 
L 414.72 307.584 
" style="fill:none;stroke:#000000;stroke-linecap:square;stroke-linejoin:miter;stroke-width:0.8;"/>
   </g>
   <g id="patch_6">
    <path d="M 57.6 41.472 
L 414.72 41.472 
" style="fill:none;stroke:#000000;stroke-linecap:square;stroke-linejoin:miter;stroke-width:0.8;"/>
   </g>
  </g>
 </g>
 <defs>
  <clipPath id="p6e3ec0c670">
   <rect height="266.112" width="357.12" x="57.6" y="41.472"/>
  </clipPath>
 </defs>
</svg>
