<?xml version="1.0" encoding="utf-8" standalone="no"?>
<!DOCTYPE svg PUBLIC "-//W3C//DTD SVG 1.1//EN"
  "http://www.w3.org/Graphics/SVG/1.1/DTD/svg11.dtd">
<!-- Created with matplotlib (https://matplotlib.org/) -->
<svg height="345.6pt" version="1.1" viewBox="0 0 460.8 345.6" width="460.8pt" xmlns="http://www.w3.org/2000/svg" xmlns:xlink="http://www.w3.org/1999/xlink">
 <metadata>
  <rdf:RDF xmlns:cc="http://creativecommons.org/ns#" xmlns:dc="http://purl.org/dc/elements/1.1/" xmlns:rdf="http://www.w3.org/1999/02/22-rdf-syntax-ns#">
   <cc:Work>
    <dc:type rdf:resource="http://purl.org/dc/dcmitype/StillImage"/>
    <dc:date>2021-02-10T18:13:53.993831</dc:date>
    <dc:format>image/svg+xml</dc:format>
    <dc:creator>
     <cc:Agent>
      <dc:title>Matplotlib v3.3.3, https://matplotlib.org/</dc:title>
     </cc:Agent>
    </dc:creator>
   </cc:Work>
  </rdf:RDF>
 </metadata>
 <defs>
  <style type="text/css">*{stroke-linecap:butt;stroke-linejoin:round;}</style>
 </defs>
 <g id="figure_1">
  <g id="patch_1">
   <path d="M 0 345.6 
L 460.8 345.6 
L 460.8 0 
L 0 0 
z
" style="fill:#ffffff;"/>
  </g>
  <g id="axes_1">
   <g id="patch_2">
    <path d="M 57.6 307.584 
L 414.72 307.584 
L 414.72 41.472 
L 57.6 41.472 
z
" style="fill:#7d9051;"/>
   </g>
   <g id="matplotlib.axis_1">
    <g id="xtick_1">
     <g id="line2d_1">
      <defs>
       <path d="M 0 0 
L 0 3.5 
" id="md4ae01101a" style="stroke:#000000;stroke-width:0.8;"/>
      </defs>
      <g>
       <use style="stroke:#000000;stroke-width:0.8;" x="60.947339" xlink:href="#md4ae01101a" y="307.584"/>
      </g>
     </g>
     <g id="text_1">
      <!-- 0 -->
      <g transform="translate(57.766089 322.182437)scale(0.1 -0.1)">
       <defs>
        <path d="M 31.78125 66.40625 
Q 24.171875 66.40625 20.328125 58.90625 
Q 16.5 51.421875 16.5 36.375 
Q 16.5 21.390625 20.328125 13.890625 
Q 24.171875 6.390625 31.78125 6.390625 
Q 39.453125 6.390625 43.28125 13.890625 
Q 47.125 21.390625 47.125 36.375 
Q 47.125 51.421875 43.28125 58.90625 
Q 39.453125 66.40625 31.78125 66.40625 
z
M 31.78125 74.21875 
Q 44.046875 74.21875 50.515625 64.515625 
Q 56.984375 54.828125 56.984375 36.375 
Q 56.984375 17.96875 50.515625 8.265625 
Q 44.046875 -1.421875 31.78125 -1.421875 
Q 19.53125 -1.421875 13.0625 8.265625 
Q 6.59375 17.96875 6.59375 36.375 
Q 6.59375 54.828125 13.0625 64.515625 
Q 19.53125 74.21875 31.78125 74.21875 
z
" id="DejaVuSans-48"/>
       </defs>
       <use xlink:href="#DejaVuSans-48"/>
      </g>
     </g>
    </g>
    <g id="xtick_2">
     <g id="line2d_2">
      <g>
       <use style="stroke:#000000;stroke-width:0.8;" x="139.302155" xlink:href="#md4ae01101a" y="307.584"/>
      </g>
     </g>
     <g id="text_2">
      <!-- 20 -->
      <g transform="translate(132.939655 322.182437)scale(0.1 -0.1)">
       <defs>
        <path d="M 19.1875 8.296875 
L 53.609375 8.296875 
L 53.609375 0 
L 7.328125 0 
L 7.328125 8.296875 
Q 12.9375 14.109375 22.625 23.890625 
Q 32.328125 33.6875 34.8125 36.53125 
Q 39.546875 41.84375 41.421875 45.53125 
Q 43.3125 49.21875 43.3125 52.78125 
Q 43.3125 58.59375 39.234375 62.25 
Q 35.15625 65.921875 28.609375 65.921875 
Q 23.96875 65.921875 18.8125 64.3125 
Q 13.671875 62.703125 7.8125 59.421875 
L 7.8125 69.390625 
Q 13.765625 71.78125 18.9375 73 
Q 24.125 74.21875 28.421875 74.21875 
Q 39.75 74.21875 46.484375 68.546875 
Q 53.21875 62.890625 53.21875 53.421875 
Q 53.21875 48.921875 51.53125 44.890625 
Q 49.859375 40.875 45.40625 35.40625 
Q 44.1875 33.984375 37.640625 27.21875 
Q 31.109375 20.453125 19.1875 8.296875 
z
" id="DejaVuSans-50"/>
       </defs>
       <use xlink:href="#DejaVuSans-50"/>
       <use x="63.623047" xlink:href="#DejaVuSans-48"/>
      </g>
     </g>
    </g>
    <g id="xtick_3">
     <g id="line2d_3">
      <g>
       <use style="stroke:#000000;stroke-width:0.8;" x="217.656972" xlink:href="#md4ae01101a" y="307.584"/>
      </g>
     </g>
     <g id="text_3">
      <!-- 40 -->
      <g transform="translate(211.294472 322.182437)scale(0.1 -0.1)">
       <defs>
        <path d="M 37.796875 64.3125 
L 12.890625 25.390625 
L 37.796875 25.390625 
z
M 35.203125 72.90625 
L 47.609375 72.90625 
L 47.609375 25.390625 
L 58.015625 25.390625 
L 58.015625 17.1875 
L 47.609375 17.1875 
L 47.609375 0 
L 37.796875 0 
L 37.796875 17.1875 
L 4.890625 17.1875 
L 4.890625 26.703125 
z
" id="DejaVuSans-52"/>
       </defs>
       <use xlink:href="#DejaVuSans-52"/>
       <use x="63.623047" xlink:href="#DejaVuSans-48"/>
      </g>
     </g>
    </g>
    <g id="xtick_4">
     <g id="line2d_4">
      <g>
       <use style="stroke:#000000;stroke-width:0.8;" x="296.011788" xlink:href="#md4ae01101a" y="307.584"/>
      </g>
     </g>
     <g id="text_4">
      <!-- 60 -->
      <g transform="translate(289.649288 322.182437)scale(0.1 -0.1)">
       <defs>
        <path d="M 33.015625 40.375 
Q 26.375 40.375 22.484375 35.828125 
Q 18.609375 31.296875 18.609375 23.390625 
Q 18.609375 15.53125 22.484375 10.953125 
Q 26.375 6.390625 33.015625 6.390625 
Q 39.65625 6.390625 43.53125 10.953125 
Q 47.40625 15.53125 47.40625 23.390625 
Q 47.40625 31.296875 43.53125 35.828125 
Q 39.65625 40.375 33.015625 40.375 
z
M 52.59375 71.296875 
L 52.59375 62.3125 
Q 48.875 64.0625 45.09375 64.984375 
Q 41.3125 65.921875 37.59375 65.921875 
Q 27.828125 65.921875 22.671875 59.328125 
Q 17.53125 52.734375 16.796875 39.40625 
Q 19.671875 43.65625 24.015625 45.921875 
Q 28.375 48.1875 33.59375 48.1875 
Q 44.578125 48.1875 50.953125 41.515625 
Q 57.328125 34.859375 57.328125 23.390625 
Q 57.328125 12.15625 50.6875 5.359375 
Q 44.046875 -1.421875 33.015625 -1.421875 
Q 20.359375 -1.421875 13.671875 8.265625 
Q 6.984375 17.96875 6.984375 36.375 
Q 6.984375 53.65625 15.1875 63.9375 
Q 23.390625 74.21875 37.203125 74.21875 
Q 40.921875 74.21875 44.703125 73.484375 
Q 48.484375 72.75 52.59375 71.296875 
z
" id="DejaVuSans-54"/>
       </defs>
       <use xlink:href="#DejaVuSans-54"/>
       <use x="63.623047" xlink:href="#DejaVuSans-48"/>
      </g>
     </g>
    </g>
    <g id="xtick_5">
     <g id="line2d_5">
      <g>
       <use style="stroke:#000000;stroke-width:0.8;" x="374.366605" xlink:href="#md4ae01101a" y="307.584"/>
      </g>
     </g>
     <g id="text_5">
      <!-- 80 -->
      <g transform="translate(368.004105 322.182437)scale(0.1 -0.1)">
       <defs>
        <path d="M 31.78125 34.625 
Q 24.75 34.625 20.71875 30.859375 
Q 16.703125 27.09375 16.703125 20.515625 
Q 16.703125 13.921875 20.71875 10.15625 
Q 24.75 6.390625 31.78125 6.390625 
Q 38.8125 6.390625 42.859375 10.171875 
Q 46.921875 13.96875 46.921875 20.515625 
Q 46.921875 27.09375 42.890625 30.859375 
Q 38.875 34.625 31.78125 34.625 
z
M 21.921875 38.8125 
Q 15.578125 40.375 12.03125 44.71875 
Q 8.5 49.078125 8.5 55.328125 
Q 8.5 64.0625 14.71875 69.140625 
Q 20.953125 74.21875 31.78125 74.21875 
Q 42.671875 74.21875 48.875 69.140625 
Q 55.078125 64.0625 55.078125 55.328125 
Q 55.078125 49.078125 51.53125 44.71875 
Q 48 40.375 41.703125 38.8125 
Q 48.828125 37.15625 52.796875 32.3125 
Q 56.78125 27.484375 56.78125 20.515625 
Q 56.78125 9.90625 50.3125 4.234375 
Q 43.84375 -1.421875 31.78125 -1.421875 
Q 19.734375 -1.421875 13.25 4.234375 
Q 6.78125 9.90625 6.78125 20.515625 
Q 6.78125 27.484375 10.78125 32.3125 
Q 14.796875 37.15625 21.921875 38.8125 
z
M 18.3125 54.390625 
Q 18.3125 48.734375 21.84375 45.5625 
Q 25.390625 42.390625 31.78125 42.390625 
Q 38.140625 42.390625 41.71875 45.5625 
Q 45.3125 48.734375 45.3125 54.390625 
Q 45.3125 60.0625 41.71875 63.234375 
Q 38.140625 66.40625 31.78125 66.40625 
Q 25.390625 66.40625 21.84375 63.234375 
Q 18.3125 60.0625 18.3125 54.390625 
z
" id="DejaVuSans-56"/>
       </defs>
       <use xlink:href="#DejaVuSans-56"/>
       <use x="63.623047" xlink:href="#DejaVuSans-48"/>
      </g>
     </g>
    </g>
   </g>
   <g id="matplotlib.axis_2">
    <g id="ytick_1">
     <g id="line2d_6">
      <defs>
       <path d="M 0 0 
L -3.5 0 
" id="maf6a12388e" style="stroke:#000000;stroke-width:0.8;"/>
      </defs>
      <g>
       <use style="stroke:#000000;stroke-width:0.8;" x="57.6" xlink:href="#maf6a12388e" y="278.727905"/>
      </g>
     </g>
     <g id="text_6">
      <!-- 10 -->
      <g transform="translate(37.875 282.527123)scale(0.1 -0.1)">
       <defs>
        <path d="M 12.40625 8.296875 
L 28.515625 8.296875 
L 28.515625 63.921875 
L 10.984375 60.40625 
L 10.984375 69.390625 
L 28.421875 72.90625 
L 38.28125 72.90625 
L 38.28125 8.296875 
L 54.390625 8.296875 
L 54.390625 0 
L 12.40625 0 
z
" id="DejaVuSans-49"/>
       </defs>
       <use xlink:href="#DejaVuSans-49"/>
       <use x="63.623047" xlink:href="#DejaVuSans-48"/>
      </g>
     </g>
    </g>
    <g id="ytick_2">
     <g id="line2d_7">
      <g>
       <use style="stroke:#000000;stroke-width:0.8;" x="57.6" xlink:href="#maf6a12388e" y="239.550496"/>
      </g>
     </g>
     <g id="text_7">
      <!-- 20 -->
      <g transform="translate(37.875 243.349715)scale(0.1 -0.1)">
       <use xlink:href="#DejaVuSans-50"/>
       <use x="63.623047" xlink:href="#DejaVuSans-48"/>
      </g>
     </g>
    </g>
    <g id="ytick_3">
     <g id="line2d_8">
      <g>
       <use style="stroke:#000000;stroke-width:0.8;" x="57.6" xlink:href="#maf6a12388e" y="200.373088"/>
      </g>
     </g>
     <g id="text_8">
      <!-- 30 -->
      <g transform="translate(37.875 204.172307)scale(0.1 -0.1)">
       <defs>
        <path d="M 40.578125 39.3125 
Q 47.65625 37.796875 51.625 33 
Q 55.609375 28.21875 55.609375 21.1875 
Q 55.609375 10.40625 48.1875 4.484375 
Q 40.765625 -1.421875 27.09375 -1.421875 
Q 22.515625 -1.421875 17.65625 -0.515625 
Q 12.796875 0.390625 7.625 2.203125 
L 7.625 11.71875 
Q 11.71875 9.328125 16.59375 8.109375 
Q 21.484375 6.890625 26.8125 6.890625 
Q 36.078125 6.890625 40.9375 10.546875 
Q 45.796875 14.203125 45.796875 21.1875 
Q 45.796875 27.640625 41.28125 31.265625 
Q 36.765625 34.90625 28.71875 34.90625 
L 20.21875 34.90625 
L 20.21875 43.015625 
L 29.109375 43.015625 
Q 36.375 43.015625 40.234375 45.921875 
Q 44.09375 48.828125 44.09375 54.296875 
Q 44.09375 59.90625 40.109375 62.90625 
Q 36.140625 65.921875 28.71875 65.921875 
Q 24.65625 65.921875 20.015625 65.03125 
Q 15.375 64.15625 9.8125 62.3125 
L 9.8125 71.09375 
Q 15.4375 72.65625 20.34375 73.4375 
Q 25.25 74.21875 29.59375 74.21875 
Q 40.828125 74.21875 47.359375 69.109375 
Q 53.90625 64.015625 53.90625 55.328125 
Q 53.90625 49.265625 50.4375 45.09375 
Q 46.96875 40.921875 40.578125 39.3125 
z
" id="DejaVuSans-51"/>
       </defs>
       <use xlink:href="#DejaVuSans-51"/>
       <use x="63.623047" xlink:href="#DejaVuSans-48"/>
      </g>
     </g>
    </g>
    <g id="ytick_4">
     <g id="line2d_9">
      <g>
       <use style="stroke:#000000;stroke-width:0.8;" x="57.6" xlink:href="#maf6a12388e" y="161.19568"/>
      </g>
     </g>
     <g id="text_9">
      <!-- 40 -->
      <g transform="translate(37.875 164.994899)scale(0.1 -0.1)">
       <use xlink:href="#DejaVuSans-52"/>
       <use x="63.623047" xlink:href="#DejaVuSans-48"/>
      </g>
     </g>
    </g>
    <g id="ytick_5">
     <g id="line2d_10">
      <g>
       <use style="stroke:#000000;stroke-width:0.8;" x="57.6" xlink:href="#maf6a12388e" y="122.018272"/>
      </g>
     </g>
     <g id="text_10">
      <!-- 50 -->
      <g transform="translate(37.875 125.81749)scale(0.1 -0.1)">
       <defs>
        <path d="M 10.796875 72.90625 
L 49.515625 72.90625 
L 49.515625 64.59375 
L 19.828125 64.59375 
L 19.828125 46.734375 
Q 21.96875 47.46875 24.109375 47.828125 
Q 26.265625 48.1875 28.421875 48.1875 
Q 40.625 48.1875 47.75 41.5 
Q 54.890625 34.8125 54.890625 23.390625 
Q 54.890625 11.625 47.5625 5.09375 
Q 40.234375 -1.421875 26.90625 -1.421875 
Q 22.3125 -1.421875 17.546875 -0.640625 
Q 12.796875 0.140625 7.71875 1.703125 
L 7.71875 11.625 
Q 12.109375 9.234375 16.796875 8.0625 
Q 21.484375 6.890625 26.703125 6.890625 
Q 35.15625 6.890625 40.078125 11.328125 
Q 45.015625 15.765625 45.015625 23.390625 
Q 45.015625 31 40.078125 35.4375 
Q 35.15625 39.890625 26.703125 39.890625 
Q 22.75 39.890625 18.8125 39.015625 
Q 14.890625 38.140625 10.796875 36.28125 
z
" id="DejaVuSans-53"/>
       </defs>
       <use xlink:href="#DejaVuSans-53"/>
       <use x="63.623047" xlink:href="#DejaVuSans-48"/>
      </g>
     </g>
    </g>
    <g id="ytick_6">
     <g id="line2d_11">
      <g>
       <use style="stroke:#000000;stroke-width:0.8;" x="57.6" xlink:href="#maf6a12388e" y="82.840863"/>
      </g>
     </g>
     <g id="text_11">
      <!-- 60 -->
      <g transform="translate(37.875 86.640082)scale(0.1 -0.1)">
       <use xlink:href="#DejaVuSans-54"/>
       <use x="63.623047" xlink:href="#DejaVuSans-48"/>
      </g>
     </g>
    </g>
    <g id="ytick_7">
     <g id="line2d_12">
      <g>
       <use style="stroke:#000000;stroke-width:0.8;" x="57.6" xlink:href="#maf6a12388e" y="43.663455"/>
      </g>
     </g>
     <g id="text_12">
      <!-- 70 -->
      <g transform="translate(37.875 47.462674)scale(0.1 -0.1)">
       <defs>
        <path d="M 8.203125 72.90625 
L 55.078125 72.90625 
L 55.078125 68.703125 
L 28.609375 0 
L 18.3125 0 
L 43.21875 64.59375 
L 8.203125 64.59375 
z
" id="DejaVuSans-55"/>
       </defs>
       <use xlink:href="#DejaVuSans-55"/>
       <use x="63.623047" xlink:href="#DejaVuSans-48"/>
      </g>
     </g>
    </g>
   </g>
   <g id="line2d_13">
    <path clip-path="url(#pd3b8ca22f6)" d="M 100.124747 278.727905 
L 104.105172 278.383144 
L 108.077761 278.108902 
L 112.05035 277.905179 
L 116.011186 277.760223 
L 119.972022 277.670115 
L 123.92894 277.634855 
L 127.878023 277.642691 
L 131.827106 277.693621 
L 135.772271 277.779811 
L 139.717436 277.897344 
L 143.658683 278.038382 
L 147.596013 278.19901 
L 151.533342 278.375308 
L 155.470672 278.56336 
L 159.408001 278.751411 
L 163.345331 278.94338 
L 167.28266 279.127514 
L 171.223907 279.299895 
L 175.161237 279.456605 
L 179.102484 279.593725 
L 183.047649 279.703422 
L 186.992814 279.777859 
L 190.941897 279.817037 
L 194.894898 279.817037 
L 198.851816 279.766106 
L 202.812652 279.664245 
L 206.777405 279.503617 
L 210.746077 279.280306 
L 214.722584 278.990393 
L 218.706926 278.626043 
L 222.691269 278.179421 
L 226.667776 277.638773 
L 230.624694 276.988428 
L 234.55027 276.212715 
L 238.436669 275.303799 
L 242.26822 274.246009 
L 246.033168 273.023674 
L 249.727598 271.621123 
L 253.33192 270.026602 
L 256.838298 268.228359 
L 260.238897 266.214641 
L 263.518046 263.993282 
L 266.679663 261.587789 
L 269.708076 259.009915 
L 272.599369 256.275332 
L 275.345705 253.39971 
L 277.943168 250.394803 
L 280.38392 247.272364 
L 282.671881 244.040227 
L 284.799214 240.694477 
L 286.762002 237.250783 
L 288.564163 233.709145 
L 290.197861 230.077399 
L 291.647425 226.367299 
L 292.897184 222.586679 
L 293.935386 218.75121 
L 294.74244 214.876565 
L 295.302677 210.966659 
L 295.608261 207.037165 
L 295.694451 203.095918 
L 295.612179 199.142918 
L 295.408456 195.182082 
L 295.14205 191.221246 
L 294.856055 187.26041 
L 294.597484 183.307409 
L 294.382008 179.358326 
L 294.217463 175.409244 
L 294.103848 171.464079 
L 294.049 167.522831 
L 294.056836 163.573749 
L 294.131273 159.624666 
L 294.276229 155.667748 
L 294.503458 151.706912 
L 294.809042 147.73824 
L 295.204734 143.757816 
L 295.698369 139.781309 
L 296.301701 135.816555 
L 297.034319 131.879225 
L 297.904057 127.977156 
L 298.92267 124.126016 
L 300.10191 120.333643 
L 301.461366 116.615707 
L 303.008873 112.983961 
L 304.756186 109.450159 
L 306.715056 106.022136 
L 308.881567 102.711645 
L 311.236129 99.522604 
L 313.763072 96.458931 
L 316.446724 93.52846 
L 319.271415 90.731194 
L 322.221474 88.082801 
L 325.296901 85.579364 
L 328.48986 83.236555 
L 331.792515 81.058291 
L 335.204867 79.04849 
L 338.719081 77.218905 
L 342.319485 75.565619 
L 346.002161 74.100384 
L 349.755357 72.819282 
L 353.567319 71.726233 
L 357.430211 70.82907 
L 361.332281 70.127795 
L 365.265693 69.626324 
L 369.214776 69.328575 
L 373.175611 69.23455 
" style="fill:none;stroke:#fea952;stroke-linecap:square;"/>
   </g>
   <g id="line2d_14">
    <path clip-path="url(#pd3b8ca22f6)" d="M 98.772482 263.115395 
L 103.025918 262.749388 
L 107.275176 262.458504 
L 111.477217 262.2447 
L 115.654768 262.093313 
L 119.832385 261.999774 
L 123.960033 261.963923 
L 128.080112 261.97303 
L 132.169389 262.026396 
L 136.238925 262.115798 
L 140.277867 262.236405 
L 144.297465 262.380444 
L 148.296995 262.543732 
L 152.280954 262.722188 
L 156.218283 262.91024 
L 160.171151 263.099041 
L 164.077401 263.289526 
L 167.967415 263.471519 
L 171.847134 263.641329 
L 175.70612 263.795117 
L 179.538053 263.928817 
L 183.343275 264.035248 
L 187.148273 264.107667 
L 190.941897 264.146073 
L 194.693209 264.147371 
L 198.448937 264.100322 
L 202.178281 264.006127 
L 205.897016 263.857404 
L 209.606588 263.650826 
L 213.2955 263.384544 
L 216.961232 263.052616 
L 220.580059 262.651321 
L 224.12625 262.175276 
L 227.58678 261.614743 
L 230.981583 260.953503 
L 234.266336 260.197926 
L 237.429102 259.340908 
L 240.47118 258.372962 
L 243.387597 257.289916 
L 246.180682 256.082468 
L 248.853462 254.74424 
L 251.449866 253.240357 
L 254.029148 251.521717 
L 256.521877 249.654706 
L 258.939873 247.624623 
L 261.266495 245.451975 
L 263.490079 243.151627 
L 265.59665 240.743761 
L 267.593289 238.218147 
L 269.447705 235.631882 
L 271.184437 232.934519 
L 272.795255 230.14381 
L 274.272609 227.280258 
L 275.601435 224.374466 
L 276.768355 221.448725 
L 277.770589 218.492146 
L 278.59369 215.55567 
L 279.229912 212.653828 
L 279.678886 209.751649 
L 279.941044 206.694542 
L 280.026881 203.422002 
L 279.961903 199.947877 
L 279.77282 196.233737 
L 279.511779 192.349841 
L 279.218509 188.283282 
L 278.949796 184.161202 
L 278.72463 180.010717 
L 278.552994 175.860356 
L 278.434402 171.682143 
L 278.378068 167.491738 
L 278.388655 163.278416 
L 278.470814 159.050966 
L 278.63099 154.770197 
L 278.878745 150.503824 
L 279.214941 146.188039 
L 279.653139 141.827273 
L 280.205759 137.423738 
L 280.89517 132.949867 
L 281.738698 128.469961 
L 282.75407 123.970038 
L 283.958462 119.47289 
L 285.383974 114.952059 
L 287.044638 110.472657 
L 288.961329 106.038058 
L 291.149979 101.675184 
L 293.602491 97.440777 
L 296.274526 93.403498 
L 299.146828 89.55125 
L 302.206027 85.875273 
L 305.419865 82.393495 
L 308.802647 79.069977 
L 312.32841 75.92935 
L 316.026303 72.944686 
L 319.86174 70.154712 
L 323.83957 67.555338 
L 327.968196 65.148502 
L 332.179564 62.977634 
L 336.526152 61.004836 
L 340.939876 59.269593 
L 345.435901 57.755372 
L 350.022074 56.461557 
L 354.658253 55.405214 
L 359.350431 54.582655 
L 364.087496 53.999714 
L 368.842869 53.662026 
L 372.803705 53.568 
" style="fill:none;stroke:#ffffff;stroke-linecap:square;"/>
   </g>
   <g id="line2d_15">
    <path clip-path="url(#pd3b8ca22f6)" d="M 101.477012 294.340415 
L 105.184425 294.016899 
L 108.880345 293.759299 
L 112.623483 293.565658 
L 116.367604 293.427132 
L 120.111659 293.340456 
L 123.897847 293.305788 
L 127.675934 293.312351 
L 131.484823 293.360846 
L 135.305617 293.443825 
L 139.157005 293.558283 
L 143.019901 293.696321 
L 146.89503 293.854287 
L 150.78573 294.028428 
L 154.72306 294.21648 
L 158.644851 294.403781 
L 162.61326 294.597235 
L 166.597905 294.78351 
L 170.600681 294.958461 
L 174.616354 295.118092 
L 178.666916 295.258634 
L 182.752023 295.371597 
L 186.837356 295.448051 
L 190.941897 295.488 
L 195.096586 295.486702 
L 199.254694 295.43189 
L 203.447022 295.322363 
L 207.657795 295.149831 
L 211.885566 294.909787 
L 216.149667 294.596242 
L 220.45262 294.199471 
L 224.802478 293.707521 
L 229.209301 293.10227 
L 233.662608 292.362112 
L 238.118957 291.471928 
L 242.607002 290.409673 
L 247.107337 289.15111 
L 251.595157 287.674387 
L 256.067599 285.952329 
L 260.483157 283.970737 
L 264.823134 281.712479 
L 269.027927 279.188924 
L 273.006943 276.464846 
L 276.837449 273.520872 
L 280.47628 270.395208 
L 283.932243 267.09869 
L 287.201332 263.647794 
L 290.289685 260.045845 
L 293.174551 256.32658 
L 295.896056 252.448573 
L 298.413991 248.454435 
L 300.728749 244.357756 
L 302.855717 240.138032 
L 304.794287 235.780332 
L 306.526495 231.285872 
L 308.02378 226.681212 
L 309.277081 221.946751 
L 310.254968 217.099302 
L 310.926468 212.18167 
L 311.275478 207.379788 
L 311.362022 202.769834 
L 311.262454 198.337958 
L 311.044092 194.130427 
L 310.77232 190.09265 
L 310.4936 186.237538 
L 310.245171 182.453617 
L 310.039386 178.705936 
L 309.881932 174.958132 
L 309.773294 171.246015 
L 309.719932 167.553925 
L 309.725016 163.869081 
L 309.791731 160.198366 
L 309.921468 156.565298 
L 310.128171 152.909999 
L 310.403142 149.288441 
L 310.756328 145.688358 
L 311.190978 142.13888 
L 311.708232 138.683243 
L 312.329939 135.28849 
L 313.054044 131.984273 
L 313.886877 128.779143 
L 314.819846 125.715228 
L 315.878093 122.758757 
L 317.056418 119.929865 
L 318.362392 117.225134 
L 319.827621 114.603495 
L 321.488608 112.019792 
L 323.32543 109.493958 
L 325.320117 107.042588 
L 327.473584 104.663426 
L 329.740184 102.39241 
L 332.114538 100.236252 
L 334.567499 98.214043 
L 337.11798 96.318399 
L 339.74546 94.561245 
L 342.441539 92.948479 
L 345.258598 91.460177 
L 348.112817 90.126401 
L 351.064446 88.931175 
L 354.074813 87.883193 
L 357.112563 86.990909 
L 360.202169 86.252926 
L 363.314131 85.672934 
L 366.44389 85.252934 
L 369.586682 84.995125 
L 373.547518 84.901099 
" style="fill:none;stroke:#ffffff;stroke-linecap:square;"/>
   </g>
   <g id="patch_3">
    <path d="M 57.6 307.584 
L 57.6 41.472 
" style="fill:none;stroke:#000000;stroke-linecap:square;stroke-linejoin:miter;stroke-width:0.8;"/>
   </g>
   <g id="patch_4">
    <path d="M 414.72 307.584 
L 414.72 41.472 
" style="fill:none;stroke:#000000;stroke-linecap:square;stroke-linejoin:miter;stroke-width:0.8;"/>
   </g>
   <g id="patch_5">
    <path d="M 57.6 307.584 
L 414.72 307.584 
" style="fill:none;stroke:#000000;stroke-linecap:square;stroke-linejoin:miter;stroke-width:0.8;"/>
   </g>
   <g id="patch_6">
    <path d="M 57.6 41.472 
L 414.72 41.472 
" style="fill:none;stroke:#000000;stroke-linecap:square;stroke-linejoin:miter;stroke-width:0.8;"/>
   </g>
  </g>
 </g>
 <defs>
  <clipPath id="pd3b8ca22f6">
   <rect height="266.112" width="357.12" x="57.6" y="41.472"/>
  </clipPath>
 </defs>
</svg>
