<?xml version="1.0" encoding="utf-8" standalone="no"?>
<!DOCTYPE svg PUBLIC "-//W3C//DTD SVG 1.1//EN"
  "http://www.w3.org/Graphics/SVG/1.1/DTD/svg11.dtd">
<!-- Created with matplotlib (https://matplotlib.org/) -->
<svg height="345.6pt" version="1.1" viewBox="0 0 460.8 345.6" width="460.8pt" xmlns="http://www.w3.org/2000/svg" xmlns:xlink="http://www.w3.org/1999/xlink">
 <metadata>
  <rdf:RDF xmlns:cc="http://creativecommons.org/ns#" xmlns:dc="http://purl.org/dc/elements/1.1/" xmlns:rdf="http://www.w3.org/1999/02/22-rdf-syntax-ns#">
   <cc:Work>
    <dc:type rdf:resource="http://purl.org/dc/dcmitype/StillImage"/>
    <dc:date>2021-02-10T18:17:01.110594</dc:date>
    <dc:format>image/svg+xml</dc:format>
    <dc:creator>
     <cc:Agent>
      <dc:title>Matplotlib v3.3.3, https://matplotlib.org/</dc:title>
     </cc:Agent>
    </dc:creator>
   </cc:Work>
  </rdf:RDF>
 </metadata>
 <defs>
  <style type="text/css">*{stroke-linecap:butt;stroke-linejoin:round;}</style>
 </defs>
 <g id="figure_1">
  <g id="patch_1">
   <path d="M 0 345.6 
L 460.8 345.6 
L 460.8 0 
L 0 0 
z
" style="fill:#ffffff;"/>
  </g>
  <g id="axes_1">
   <g id="patch_2">
    <path d="M 57.6 307.584 
L 414.72 307.584 
L 414.72 41.472 
L 57.6 41.472 
z
" style="fill:#7d9051;"/>
   </g>
   <g id="matplotlib.axis_1">
    <g id="xtick_1">
     <g id="line2d_1">
      <defs>
       <path d="M 0 0 
L 0 3.5 
" id="m439935b10c" style="stroke:#000000;stroke-width:0.8;"/>
      </defs>
      <g>
       <use style="stroke:#000000;stroke-width:0.8;" x="87.284831" xlink:href="#m439935b10c" y="307.584"/>
      </g>
     </g>
     <g id="text_1">
      <!-- 10 -->
      <g transform="translate(80.922331 322.182437)scale(0.1 -0.1)">
       <defs>
        <path d="M 12.40625 8.296875 
L 28.515625 8.296875 
L 28.515625 63.921875 
L 10.984375 60.40625 
L 10.984375 69.390625 
L 28.421875 72.90625 
L 38.28125 72.90625 
L 38.28125 8.296875 
L 54.390625 8.296875 
L 54.390625 0 
L 12.40625 0 
z
" id="DejaVuSans-49"/>
        <path d="M 31.78125 66.40625 
Q 24.171875 66.40625 20.328125 58.90625 
Q 16.5 51.421875 16.5 36.375 
Q 16.5 21.390625 20.328125 13.890625 
Q 24.171875 6.390625 31.78125 6.390625 
Q 39.453125 6.390625 43.28125 13.890625 
Q 47.125 21.390625 47.125 36.375 
Q 47.125 51.421875 43.28125 58.90625 
Q 39.453125 66.40625 31.78125 66.40625 
z
M 31.78125 74.21875 
Q 44.046875 74.21875 50.515625 64.515625 
Q 56.984375 54.828125 56.984375 36.375 
Q 56.984375 17.96875 50.515625 8.265625 
Q 44.046875 -1.421875 31.78125 -1.421875 
Q 19.53125 -1.421875 13.0625 8.265625 
Q 6.59375 17.96875 6.59375 36.375 
Q 6.59375 54.828125 13.0625 64.515625 
Q 19.53125 74.21875 31.78125 74.21875 
z
" id="DejaVuSans-48"/>
       </defs>
       <use xlink:href="#DejaVuSans-49"/>
       <use x="63.623047" xlink:href="#DejaVuSans-48"/>
      </g>
     </g>
    </g>
    <g id="xtick_2">
     <g id="line2d_2">
      <g>
       <use style="stroke:#000000;stroke-width:0.8;" x="128.904297" xlink:href="#m439935b10c" y="307.584"/>
      </g>
     </g>
     <g id="text_2">
      <!-- 20 -->
      <g transform="translate(122.541797 322.182437)scale(0.1 -0.1)">
       <defs>
        <path d="M 19.1875 8.296875 
L 53.609375 8.296875 
L 53.609375 0 
L 7.328125 0 
L 7.328125 8.296875 
Q 12.9375 14.109375 22.625 23.890625 
Q 32.328125 33.6875 34.8125 36.53125 
Q 39.546875 41.84375 41.421875 45.53125 
Q 43.3125 49.21875 43.3125 52.78125 
Q 43.3125 58.59375 39.234375 62.25 
Q 35.15625 65.921875 28.609375 65.921875 
Q 23.96875 65.921875 18.8125 64.3125 
Q 13.671875 62.703125 7.8125 59.421875 
L 7.8125 69.390625 
Q 13.765625 71.78125 18.9375 73 
Q 24.125 74.21875 28.421875 74.21875 
Q 39.75 74.21875 46.484375 68.546875 
Q 53.21875 62.890625 53.21875 53.421875 
Q 53.21875 48.921875 51.53125 44.890625 
Q 49.859375 40.875 45.40625 35.40625 
Q 44.1875 33.984375 37.640625 27.21875 
Q 31.109375 20.453125 19.1875 8.296875 
z
" id="DejaVuSans-50"/>
       </defs>
       <use xlink:href="#DejaVuSans-50"/>
       <use x="63.623047" xlink:href="#DejaVuSans-48"/>
      </g>
     </g>
    </g>
    <g id="xtick_3">
     <g id="line2d_3">
      <g>
       <use style="stroke:#000000;stroke-width:0.8;" x="170.523763" xlink:href="#m439935b10c" y="307.584"/>
      </g>
     </g>
     <g id="text_3">
      <!-- 30 -->
      <g transform="translate(164.161263 322.182437)scale(0.1 -0.1)">
       <defs>
        <path d="M 40.578125 39.3125 
Q 47.65625 37.796875 51.625 33 
Q 55.609375 28.21875 55.609375 21.1875 
Q 55.609375 10.40625 48.1875 4.484375 
Q 40.765625 -1.421875 27.09375 -1.421875 
Q 22.515625 -1.421875 17.65625 -0.515625 
Q 12.796875 0.390625 7.625 2.203125 
L 7.625 11.71875 
Q 11.71875 9.328125 16.59375 8.109375 
Q 21.484375 6.890625 26.8125 6.890625 
Q 36.078125 6.890625 40.9375 10.546875 
Q 45.796875 14.203125 45.796875 21.1875 
Q 45.796875 27.640625 41.28125 31.265625 
Q 36.765625 34.90625 28.71875 34.90625 
L 20.21875 34.90625 
L 20.21875 43.015625 
L 29.109375 43.015625 
Q 36.375 43.015625 40.234375 45.921875 
Q 44.09375 48.828125 44.09375 54.296875 
Q 44.09375 59.90625 40.109375 62.90625 
Q 36.140625 65.921875 28.71875 65.921875 
Q 24.65625 65.921875 20.015625 65.03125 
Q 15.375 64.15625 9.8125 62.3125 
L 9.8125 71.09375 
Q 15.4375 72.65625 20.34375 73.4375 
Q 25.25 74.21875 29.59375 74.21875 
Q 40.828125 74.21875 47.359375 69.109375 
Q 53.90625 64.015625 53.90625 55.328125 
Q 53.90625 49.265625 50.4375 45.09375 
Q 46.96875 40.921875 40.578125 39.3125 
z
" id="DejaVuSans-51"/>
       </defs>
       <use xlink:href="#DejaVuSans-51"/>
       <use x="63.623047" xlink:href="#DejaVuSans-48"/>
      </g>
     </g>
    </g>
    <g id="xtick_4">
     <g id="line2d_4">
      <g>
       <use style="stroke:#000000;stroke-width:0.8;" x="212.143229" xlink:href="#m439935b10c" y="307.584"/>
      </g>
     </g>
     <g id="text_4">
      <!-- 40 -->
      <g transform="translate(205.780729 322.182437)scale(0.1 -0.1)">
       <defs>
        <path d="M 37.796875 64.3125 
L 12.890625 25.390625 
L 37.796875 25.390625 
z
M 35.203125 72.90625 
L 47.609375 72.90625 
L 47.609375 25.390625 
L 58.015625 25.390625 
L 58.015625 17.1875 
L 47.609375 17.1875 
L 47.609375 0 
L 37.796875 0 
L 37.796875 17.1875 
L 4.890625 17.1875 
L 4.890625 26.703125 
z
" id="DejaVuSans-52"/>
       </defs>
       <use xlink:href="#DejaVuSans-52"/>
       <use x="63.623047" xlink:href="#DejaVuSans-48"/>
      </g>
     </g>
    </g>
    <g id="xtick_5">
     <g id="line2d_5">
      <g>
       <use style="stroke:#000000;stroke-width:0.8;" x="253.762695" xlink:href="#m439935b10c" y="307.584"/>
      </g>
     </g>
     <g id="text_5">
      <!-- 50 -->
      <g transform="translate(247.400195 322.182437)scale(0.1 -0.1)">
       <defs>
        <path d="M 10.796875 72.90625 
L 49.515625 72.90625 
L 49.515625 64.59375 
L 19.828125 64.59375 
L 19.828125 46.734375 
Q 21.96875 47.46875 24.109375 47.828125 
Q 26.265625 48.1875 28.421875 48.1875 
Q 40.625 48.1875 47.75 41.5 
Q 54.890625 34.8125 54.890625 23.390625 
Q 54.890625 11.625 47.5625 5.09375 
Q 40.234375 -1.421875 26.90625 -1.421875 
Q 22.3125 -1.421875 17.546875 -0.640625 
Q 12.796875 0.140625 7.71875 1.703125 
L 7.71875 11.625 
Q 12.109375 9.234375 16.796875 8.0625 
Q 21.484375 6.890625 26.703125 6.890625 
Q 35.15625 6.890625 40.078125 11.328125 
Q 45.015625 15.765625 45.015625 23.390625 
Q 45.015625 31 40.078125 35.4375 
Q 35.15625 39.890625 26.703125 39.890625 
Q 22.75 39.890625 18.8125 39.015625 
Q 14.890625 38.140625 10.796875 36.28125 
z
" id="DejaVuSans-53"/>
       </defs>
       <use xlink:href="#DejaVuSans-53"/>
       <use x="63.623047" xlink:href="#DejaVuSans-48"/>
      </g>
     </g>
    </g>
    <g id="xtick_6">
     <g id="line2d_6">
      <g>
       <use style="stroke:#000000;stroke-width:0.8;" x="295.382161" xlink:href="#m439935b10c" y="307.584"/>
      </g>
     </g>
     <g id="text_6">
      <!-- 60 -->
      <g transform="translate(289.019661 322.182437)scale(0.1 -0.1)">
       <defs>
        <path d="M 33.015625 40.375 
Q 26.375 40.375 22.484375 35.828125 
Q 18.609375 31.296875 18.609375 23.390625 
Q 18.609375 15.53125 22.484375 10.953125 
Q 26.375 6.390625 33.015625 6.390625 
Q 39.65625 6.390625 43.53125 10.953125 
Q 47.40625 15.53125 47.40625 23.390625 
Q 47.40625 31.296875 43.53125 35.828125 
Q 39.65625 40.375 33.015625 40.375 
z
M 52.59375 71.296875 
L 52.59375 62.3125 
Q 48.875 64.0625 45.09375 64.984375 
Q 41.3125 65.921875 37.59375 65.921875 
Q 27.828125 65.921875 22.671875 59.328125 
Q 17.53125 52.734375 16.796875 39.40625 
Q 19.671875 43.65625 24.015625 45.921875 
Q 28.375 48.1875 33.59375 48.1875 
Q 44.578125 48.1875 50.953125 41.515625 
Q 57.328125 34.859375 57.328125 23.390625 
Q 57.328125 12.15625 50.6875 5.359375 
Q 44.046875 -1.421875 33.015625 -1.421875 
Q 20.359375 -1.421875 13.671875 8.265625 
Q 6.984375 17.96875 6.984375 36.375 
Q 6.984375 53.65625 15.1875 63.9375 
Q 23.390625 74.21875 37.203125 74.21875 
Q 40.921875 74.21875 44.703125 73.484375 
Q 48.484375 72.75 52.59375 71.296875 
z
" id="DejaVuSans-54"/>
       </defs>
       <use xlink:href="#DejaVuSans-54"/>
       <use x="63.623047" xlink:href="#DejaVuSans-48"/>
      </g>
     </g>
    </g>
    <g id="xtick_7">
     <g id="line2d_7">
      <g>
       <use style="stroke:#000000;stroke-width:0.8;" x="337.001627" xlink:href="#m439935b10c" y="307.584"/>
      </g>
     </g>
     <g id="text_7">
      <!-- 70 -->
      <g transform="translate(330.639127 322.182437)scale(0.1 -0.1)">
       <defs>
        <path d="M 8.203125 72.90625 
L 55.078125 72.90625 
L 55.078125 68.703125 
L 28.609375 0 
L 18.3125 0 
L 43.21875 64.59375 
L 8.203125 64.59375 
z
" id="DejaVuSans-55"/>
       </defs>
       <use xlink:href="#DejaVuSans-55"/>
       <use x="63.623047" xlink:href="#DejaVuSans-48"/>
      </g>
     </g>
    </g>
    <g id="xtick_8">
     <g id="line2d_8">
      <g>
       <use style="stroke:#000000;stroke-width:0.8;" x="378.621093" xlink:href="#m439935b10c" y="307.584"/>
      </g>
     </g>
     <g id="text_8">
      <!-- 80 -->
      <g transform="translate(372.258593 322.182437)scale(0.1 -0.1)">
       <defs>
        <path d="M 31.78125 34.625 
Q 24.75 34.625 20.71875 30.859375 
Q 16.703125 27.09375 16.703125 20.515625 
Q 16.703125 13.921875 20.71875 10.15625 
Q 24.75 6.390625 31.78125 6.390625 
Q 38.8125 6.390625 42.859375 10.171875 
Q 46.921875 13.96875 46.921875 20.515625 
Q 46.921875 27.09375 42.890625 30.859375 
Q 38.875 34.625 31.78125 34.625 
z
M 21.921875 38.8125 
Q 15.578125 40.375 12.03125 44.71875 
Q 8.5 49.078125 8.5 55.328125 
Q 8.5 64.0625 14.71875 69.140625 
Q 20.953125 74.21875 31.78125 74.21875 
Q 42.671875 74.21875 48.875 69.140625 
Q 55.078125 64.0625 55.078125 55.328125 
Q 55.078125 49.078125 51.53125 44.71875 
Q 48 40.375 41.703125 38.8125 
Q 48.828125 37.15625 52.796875 32.3125 
Q 56.78125 27.484375 56.78125 20.515625 
Q 56.78125 9.90625 50.3125 4.234375 
Q 43.84375 -1.421875 31.78125 -1.421875 
Q 19.734375 -1.421875 13.25 4.234375 
Q 6.78125 9.90625 6.78125 20.515625 
Q 6.78125 27.484375 10.78125 32.3125 
Q 14.796875 37.15625 21.921875 38.8125 
z
M 18.3125 54.390625 
Q 18.3125 48.734375 21.84375 45.5625 
Q 25.390625 42.390625 31.78125 42.390625 
Q 38.140625 42.390625 41.71875 45.5625 
Q 45.3125 48.734375 45.3125 54.390625 
Q 45.3125 60.0625 41.71875 63.234375 
Q 38.140625 66.40625 31.78125 66.40625 
Q 25.390625 66.40625 21.84375 63.234375 
Q 18.3125 60.0625 18.3125 54.390625 
z
" id="DejaVuSans-56"/>
       </defs>
       <use xlink:href="#DejaVuSans-56"/>
       <use x="63.623047" xlink:href="#DejaVuSans-48"/>
      </g>
     </g>
    </g>
   </g>
   <g id="matplotlib.axis_2">
    <g id="ytick_1">
     <g id="line2d_9">
      <defs>
       <path d="M 0 0 
L -3.5 0 
" id="md496898065" style="stroke:#000000;stroke-width:0.8;"/>
      </defs>
      <g>
       <use style="stroke:#000000;stroke-width:0.8;" x="57.6" xlink:href="#md496898065" y="278.270391"/>
      </g>
     </g>
     <g id="text_9">
      <!-- 10 -->
      <g transform="translate(37.875 282.069609)scale(0.1 -0.1)">
       <use xlink:href="#DejaVuSans-49"/>
       <use x="63.623047" xlink:href="#DejaVuSans-48"/>
      </g>
     </g>
    </g>
    <g id="ytick_2">
     <g id="line2d_10">
      <g>
       <use style="stroke:#000000;stroke-width:0.8;" x="57.6" xlink:href="#md496898065" y="236.650925"/>
      </g>
     </g>
     <g id="text_10">
      <!-- 20 -->
      <g transform="translate(37.875 240.450143)scale(0.1 -0.1)">
       <use xlink:href="#DejaVuSans-50"/>
       <use x="63.623047" xlink:href="#DejaVuSans-48"/>
      </g>
     </g>
    </g>
    <g id="ytick_3">
     <g id="line2d_11">
      <g>
       <use style="stroke:#000000;stroke-width:0.8;" x="57.6" xlink:href="#md496898065" y="195.031459"/>
      </g>
     </g>
     <g id="text_11">
      <!-- 30 -->
      <g transform="translate(37.875 198.830677)scale(0.1 -0.1)">
       <use xlink:href="#DejaVuSans-51"/>
       <use x="63.623047" xlink:href="#DejaVuSans-48"/>
      </g>
     </g>
    </g>
    <g id="ytick_4">
     <g id="line2d_12">
      <g>
       <use style="stroke:#000000;stroke-width:0.8;" x="57.6" xlink:href="#md496898065" y="153.411993"/>
      </g>
     </g>
     <g id="text_12">
      <!-- 40 -->
      <g transform="translate(37.875 157.211211)scale(0.1 -0.1)">
       <use xlink:href="#DejaVuSans-52"/>
       <use x="63.623047" xlink:href="#DejaVuSans-48"/>
      </g>
     </g>
    </g>
    <g id="ytick_5">
     <g id="line2d_13">
      <g>
       <use style="stroke:#000000;stroke-width:0.8;" x="57.6" xlink:href="#md496898065" y="111.792527"/>
      </g>
     </g>
     <g id="text_13">
      <!-- 50 -->
      <g transform="translate(37.875 115.591745)scale(0.1 -0.1)">
       <use xlink:href="#DejaVuSans-53"/>
       <use x="63.623047" xlink:href="#DejaVuSans-48"/>
      </g>
     </g>
    </g>
    <g id="ytick_6">
     <g id="line2d_14">
      <g>
       <use style="stroke:#000000;stroke-width:0.8;" x="57.6" xlink:href="#md496898065" y="70.173061"/>
      </g>
     </g>
     <g id="text_14">
      <!-- 60 -->
      <g transform="translate(37.875 73.972279)scale(0.1 -0.1)">
       <use xlink:href="#DejaVuSans-54"/>
       <use x="63.623047" xlink:href="#DejaVuSans-48"/>
      </g>
     </g>
    </g>
   </g>
   <g id="line2d_15">
    <path clip-path="url(#p0eacf9a805)" d="M 87.284831 278.270391 
L 90.926534 277.908301 
L 94.668124 277.654423 
L 98.501277 277.492107 
L 102.425993 277.41303 
L 106.425624 277.408868 
L 110.500169 277.462973 
L 114.637144 277.567022 
L 118.836548 277.708528 
L 123.085896 277.879168 
L 127.376863 278.062293 
L 131.709449 278.249581 
L 136.071169 278.428545 
L 140.453699 278.586699 
L 144.852876 278.715719 
L 149.26454 278.807282 
L 153.676203 278.840577 
L 158.083705 278.811444 
L 162.47872 278.703233 
L 166.852926 278.511784 
L 171.20216 278.216285 
L 175.518099 277.816738 
L 179.79658 277.292333 
L 184.025118 276.634746 
L 188.19955 275.83149 
L 192.315715 274.874242 
L 196.361128 273.750517 
L 200.331625 272.447827 
L 204.218883 270.953688 
L 208.01874 269.259776 
L 211.722872 267.353605 
L 215.322956 265.222688 
L 218.810668 262.887836 
L 222.17352 260.35321 
L 225.407353 257.639621 
L 228.495517 254.767878 
L 231.438014 251.750467 
L 234.222356 248.591549 
L 236.844382 245.307774 
L 239.299931 241.899139 
L 241.584839 238.369809 
L 243.694946 234.728105 
L 245.621928 230.986515 
L 247.353297 227.145039 
L 248.87657 223.224485 
L 250.187583 219.229016 
L 251.273851 215.171118 
L 252.135374 211.063277 
L 252.792961 206.913816 
L 253.271585 202.735222 
L 253.596217 198.544142 
L 253.787667 194.344737 
L 253.866744 190.149495 
L 253.866744 185.958415 
L 253.808476 181.771497 
L 253.712752 177.584578 
L 253.608703 173.39766 
L 253.521302 169.20658 
L 253.475521 165.011338 
L 253.49633 160.811934 
L 253.604541 156.604206 
L 253.829286 152.392316 
L 254.191376 148.172102 
L 254.694971 143.95605 
L 255.348397 139.756646 
L 256.164138 135.590537 
L 257.15052 131.466048 
L 258.307541 127.395664 
L 259.651849 123.391872 
L 261.183446 119.467156 
L 262.914816 115.634003 
L 264.854283 111.900737 
L 267.001847 108.284006 
L 269.357509 104.792132 
L 271.900458 101.42928 
L 274.626533 98.199609 
L 277.519086 95.115607 
L 280.569793 92.181434 
L 283.766168 89.405416 
L 287.099887 86.795875 
L 290.550141 84.352813 
L 294.121091 82.088714 
L 297.791928 80.003579 
L 301.562652 78.109893 
L 305.420776 76.407657 
L 309.357978 74.901032 
L 313.370094 73.598343 
L 317.440478 72.503751 
L 321.564967 71.621418 
L 325.726914 70.951345 
L 329.922156 70.489369 
L 334.138208 70.239652 
L 338.362584 70.202194 
L 342.582797 70.372834 
L 346.786363 70.751571 
L 350.96912 71.342568 
L 355.114419 72.141661 
L 359.213936 73.153014 
L 363.255186 74.368303 
L 367.225683 75.795851 
L 371.121265 77.431496 
L 374.921122 79.275238 
L 378.621093 81.322916 
" style="fill:none;stroke:#fea952;stroke-linecap:square;"/>
   </g>
   <g id="line2d_16">
    <path clip-path="url(#p0eacf9a805)" d="M 85.637687 261.704289 
L 89.799521 261.298707 
L 93.9638 261.021542 
L 98.165918 260.847698 
L 102.408669 260.765252 
L 106.646668 260.762549 
L 110.918744 260.820449 
L 115.197802 260.928679 
L 119.50453 261.074148 
L 123.795727 261.246521 
L 128.095836 261.430039 
L 132.391942 261.61579 
L 136.671553 261.791588 
L 140.94174 261.946067 
L 145.198322 262.071517 
L 149.39018 262.159969 
L 153.566164 262.193155 
L 157.67394 262.168701 
L 161.75078 262.071369 
L 165.724434 261.902289 
L 169.667558 261.63938 
L 173.492768 261.29261 
L 177.238401 260.842272 
L 180.879413 260.286861 
L 184.428602 259.616412 
L 187.860038 258.833802 
L 191.171308 257.932345 
L 194.358762 256.908403 
L 197.440583 255.748313 
L 200.40115 254.457036 
L 203.243056 253.027352 
L 206.061776 251.388696 
L 208.790433 249.593337 
L 211.472341 247.600425 
L 214.070529 245.448428 
L 216.576727 243.145003 
L 218.949113 240.742463 
L 221.212972 238.203829 
L 223.336635 235.576918 
L 225.325157 232.851792 
L 227.180414 230.023473 
L 228.894675 227.105719 
L 230.444455 224.145965 
L 231.835628 221.115881 
L 233.058551 218.034198 
L 234.106024 214.924106 
L 234.980541 211.75398 
L 235.692781 208.45753 
L 236.25332 205.019335 
L 236.673516 201.449572 
L 236.965704 197.785962 
L 237.142837 194.030996 
L 237.218957 190.149495 
L 237.220569 186.190072 
L 237.165039 182.152013 
L 237.070103 177.998163 
L 236.964535 173.744758 
L 236.874507 169.388241 
L 236.827939 164.928842 
L 236.854047 160.383942 
L 236.980404 155.717147 
L 237.242439 150.969184 
L 237.661095 146.197606 
L 238.245129 141.396461 
L 239.01085 136.557686 
L 239.972933 131.718372 
L 241.13711 126.914179 
L 242.525585 122.096733 
L 244.143144 117.339694 
L 246.011541 112.614266 
L 248.141655 107.959206 
L 250.539831 103.401017 
L 253.200873 98.973694 
L 256.078825 94.75095 
L 259.178717 90.691212 
L 262.483909 86.810778 
L 265.978725 83.116905 
L 269.653571 79.612231 
L 273.504676 76.296237 
L 277.479452 73.209264 
L 281.635692 70.292891 
L 285.89862 67.613226 
L 290.32055 65.126505 
L 294.842531 62.878715 
L 299.471011 60.859374 
L 304.216836 59.066972 
L 309.046828 57.521709 
L 313.957892 56.224304 
L 318.91875 55.185289 
L 323.90469 54.403587 
L 328.937832 53.870707 
L 333.990598 53.59252 
L 339.035169 53.568 
L 344.076695 53.792211 
L 349.115454 54.267514 
L 354.120315 54.995741 
L 359.101887 55.978466 
L 364.008185 57.210494 
L 368.887719 58.702309 
L 373.670574 60.446187 
L 378.388681 62.45373 
L 382.982342 64.709335 
L 386.682313 66.757013 
" style="fill:none;stroke:#ffffff;stroke-linecap:square;"/>
   </g>
   <g id="line2d_17">
    <path clip-path="url(#p0eacf9a805)" d="M 88.931975 294.836492 
L 92.053548 294.517896 
L 95.372448 294.287303 
L 98.836636 294.136515 
L 102.443316 294.060807 
L 106.204579 294.055187 
L 110.081595 294.105496 
L 114.076486 294.205365 
L 118.168566 294.342908 
L 122.376064 294.511814 
L 126.657889 294.694547 
L 131.026956 294.883372 
L 135.470785 295.065501 
L 139.965658 295.22733 
L 144.507431 295.359921 
L 149.1389 295.454594 
L 153.786243 295.488 
L 158.493469 295.454186 
L 163.206661 295.335097 
L 167.981418 295.121278 
L 172.736763 294.793191 
L 177.54343 294.340867 
L 182.354759 293.742394 
L 187.170822 292.98263 
L 191.970499 292.046567 
L 196.771393 290.914683 
L 201.550947 289.568689 
L 206.304487 287.987252 
L 210.997183 286.159064 
L 215.63633 284.062516 
L 220.202689 281.679857 
L 224.584137 279.05668 
L 228.830902 276.182334 
L 232.8747 273.105996 
L 236.744177 269.830815 
L 240.414307 266.390754 
L 243.926914 262.758471 
L 247.231739 258.97927 
L 250.352129 255.038629 
L 253.274704 250.946487 
L 255.989265 246.716144 
L 258.495217 242.350492 
L 260.7994 237.827066 
L 262.870966 233.174197 
L 264.694588 228.414772 
L 266.269142 223.533926 
L 267.567161 218.588256 
L 268.577967 213.669024 
L 269.332603 208.808297 
L 269.869654 204.020872 
L 270.22673 199.302322 
L 270.432497 194.658479 
L 270.51453 190.149495 
L 270.512918 185.726759 
L 270.451914 181.390981 
L 270.3554 177.170994 
L 270.252871 173.050562 
L 270.168097 169.024919 
L 270.123103 165.093833 
L 270.138614 161.239925 
L 270.228678 157.491264 
L 270.416133 153.815448 
L 270.721656 150.146597 
L 271.144813 146.515639 
L 271.685944 142.955606 
L 272.355344 139.462702 
L 273.163929 136.017917 
L 274.089496 132.694595 
L 275.160555 129.444049 
L 276.35535 126.320047 
L 277.687976 123.3088 
L 279.168735 120.400458 
L 280.802821 117.594317 
L 282.636193 114.833315 
L 284.622199 112.167347 
L 286.769157 109.58844 
L 289.059448 107.114309 
L 291.486016 104.750638 
L 294.02766 102.514595 
L 296.720323 100.382487 
L 299.46459 98.412734 
L 302.343562 96.564202 
L 305.263306 94.880652 
L 308.282772 93.341071 
L 311.370542 91.955939 
L 314.49912 90.735092 
L 317.693361 89.674977 
L 320.923064 88.783198 
L 324.211184 88.057547 
L 327.549137 87.499103 
L 330.906479 87.10803 
L 334.285818 86.886784 
L 337.689998 86.836389 
L 341.0889 86.953457 
L 344.457273 87.235628 
L 347.817924 87.689395 
L 351.12695 88.304857 
L 354.419687 89.095535 
L 357.622654 90.034297 
L 360.780792 91.145514 
L 363.85385 92.409261 
L 366.859903 93.841141 
L 370.559873 95.888819 
" style="fill:none;stroke:#ffffff;stroke-linecap:square;"/>
   </g>
   <g id="patch_3">
    <path d="M 57.6 307.584 
L 57.6 41.472 
" style="fill:none;stroke:#000000;stroke-linecap:square;stroke-linejoin:miter;stroke-width:0.8;"/>
   </g>
   <g id="patch_4">
    <path d="M 414.72 307.584 
L 414.72 41.472 
" style="fill:none;stroke:#000000;stroke-linecap:square;stroke-linejoin:miter;stroke-width:0.8;"/>
   </g>
   <g id="patch_5">
    <path d="M 57.6 307.584 
L 414.72 307.584 
" style="fill:none;stroke:#000000;stroke-linecap:square;stroke-linejoin:miter;stroke-width:0.8;"/>
   </g>
   <g id="patch_6">
    <path d="M 57.6 41.472 
L 414.72 41.472 
" style="fill:none;stroke:#000000;stroke-linecap:square;stroke-linejoin:miter;stroke-width:0.8;"/>
   </g>
  </g>
 </g>
 <defs>
  <clipPath id="p0eacf9a805">
   <rect height="266.112" width="357.12" x="57.6" y="41.472"/>
  </clipPath>
 </defs>
</svg>
