<?xml version="1.0" encoding="utf-8" standalone="no"?>
<!DOCTYPE svg PUBLIC "-//W3C//DTD SVG 1.1//EN"
  "http://www.w3.org/Graphics/SVG/1.1/DTD/svg11.dtd">
<!-- Created with matplotlib (https://matplotlib.org/) -->
<svg height="345.6pt" version="1.1" viewBox="0 0 460.8 345.6" width="460.8pt" xmlns="http://www.w3.org/2000/svg" xmlns:xlink="http://www.w3.org/1999/xlink">
 <metadata>
  <rdf:RDF xmlns:cc="http://creativecommons.org/ns#" xmlns:dc="http://purl.org/dc/elements/1.1/" xmlns:rdf="http://www.w3.org/1999/02/22-rdf-syntax-ns#">
   <cc:Work>
    <dc:type rdf:resource="http://purl.org/dc/dcmitype/StillImage"/>
    <dc:date>2021-02-10T18:09:38.166820</dc:date>
    <dc:format>image/svg+xml</dc:format>
    <dc:creator>
     <cc:Agent>
      <dc:title>Matplotlib v3.3.3, https://matplotlib.org/</dc:title>
     </cc:Agent>
    </dc:creator>
   </cc:Work>
  </rdf:RDF>
 </metadata>
 <defs>
  <style type="text/css">*{stroke-linecap:butt;stroke-linejoin:round;}</style>
 </defs>
 <g id="figure_1">
  <g id="patch_1">
   <path d="M 0 345.6 
L 460.8 345.6 
L 460.8 0 
L 0 0 
z
" style="fill:#ffffff;"/>
  </g>
  <g id="axes_1">
   <g id="patch_2">
    <path d="M 57.6 307.584 
L 414.72 307.584 
L 414.72 41.472 
L 57.6 41.472 
z
" style="fill:#7d9051;"/>
   </g>
   <g id="matplotlib.axis_1">
    <g id="xtick_1">
     <g id="line2d_1">
      <defs>
       <path d="M 0 0 
L 0 3.5 
" id="me7c8dbebf9" style="stroke:#000000;stroke-width:0.8;"/>
      </defs>
      <g>
       <use style="stroke:#000000;stroke-width:0.8;" x="97.512095" xlink:href="#me7c8dbebf9" y="307.584"/>
      </g>
     </g>
     <g id="text_1">
      <!-- 0 -->
      <g transform="translate(94.330845 322.182437)scale(0.1 -0.1)">
       <defs>
        <path d="M 31.78125 66.40625 
Q 24.171875 66.40625 20.328125 58.90625 
Q 16.5 51.421875 16.5 36.375 
Q 16.5 21.390625 20.328125 13.890625 
Q 24.171875 6.390625 31.78125 6.390625 
Q 39.453125 6.390625 43.28125 13.890625 
Q 47.125 21.390625 47.125 36.375 
Q 47.125 51.421875 43.28125 58.90625 
Q 39.453125 66.40625 31.78125 66.40625 
z
M 31.78125 74.21875 
Q 44.046875 74.21875 50.515625 64.515625 
Q 56.984375 54.828125 56.984375 36.375 
Q 56.984375 17.96875 50.515625 8.265625 
Q 44.046875 -1.421875 31.78125 -1.421875 
Q 19.53125 -1.421875 13.0625 8.265625 
Q 6.59375 17.96875 6.59375 36.375 
Q 6.59375 54.828125 13.0625 64.515625 
Q 19.53125 74.21875 31.78125 74.21875 
z
" id="DejaVuSans-48"/>
       </defs>
       <use xlink:href="#DejaVuSans-48"/>
      </g>
     </g>
    </g>
    <g id="xtick_2">
     <g id="line2d_2">
      <g>
       <use style="stroke:#000000;stroke-width:0.8;" x="172.715359" xlink:href="#me7c8dbebf9" y="307.584"/>
      </g>
     </g>
     <g id="text_2">
      <!-- 20 -->
      <g transform="translate(166.352859 322.182437)scale(0.1 -0.1)">
       <defs>
        <path d="M 19.1875 8.296875 
L 53.609375 8.296875 
L 53.609375 0 
L 7.328125 0 
L 7.328125 8.296875 
Q 12.9375 14.109375 22.625 23.890625 
Q 32.328125 33.6875 34.8125 36.53125 
Q 39.546875 41.84375 41.421875 45.53125 
Q 43.3125 49.21875 43.3125 52.78125 
Q 43.3125 58.59375 39.234375 62.25 
Q 35.15625 65.921875 28.609375 65.921875 
Q 23.96875 65.921875 18.8125 64.3125 
Q 13.671875 62.703125 7.8125 59.421875 
L 7.8125 69.390625 
Q 13.765625 71.78125 18.9375 73 
Q 24.125 74.21875 28.421875 74.21875 
Q 39.75 74.21875 46.484375 68.546875 
Q 53.21875 62.890625 53.21875 53.421875 
Q 53.21875 48.921875 51.53125 44.890625 
Q 49.859375 40.875 45.40625 35.40625 
Q 44.1875 33.984375 37.640625 27.21875 
Q 31.109375 20.453125 19.1875 8.296875 
z
" id="DejaVuSans-50"/>
       </defs>
       <use xlink:href="#DejaVuSans-50"/>
       <use x="63.623047" xlink:href="#DejaVuSans-48"/>
      </g>
     </g>
    </g>
    <g id="xtick_3">
     <g id="line2d_3">
      <g>
       <use style="stroke:#000000;stroke-width:0.8;" x="247.918623" xlink:href="#me7c8dbebf9" y="307.584"/>
      </g>
     </g>
     <g id="text_3">
      <!-- 40 -->
      <g transform="translate(241.556123 322.182437)scale(0.1 -0.1)">
       <defs>
        <path d="M 37.796875 64.3125 
L 12.890625 25.390625 
L 37.796875 25.390625 
z
M 35.203125 72.90625 
L 47.609375 72.90625 
L 47.609375 25.390625 
L 58.015625 25.390625 
L 58.015625 17.1875 
L 47.609375 17.1875 
L 47.609375 0 
L 37.796875 0 
L 37.796875 17.1875 
L 4.890625 17.1875 
L 4.890625 26.703125 
z
" id="DejaVuSans-52"/>
       </defs>
       <use xlink:href="#DejaVuSans-52"/>
       <use x="63.623047" xlink:href="#DejaVuSans-48"/>
      </g>
     </g>
    </g>
    <g id="xtick_4">
     <g id="line2d_4">
      <g>
       <use style="stroke:#000000;stroke-width:0.8;" x="323.121887" xlink:href="#me7c8dbebf9" y="307.584"/>
      </g>
     </g>
     <g id="text_4">
      <!-- 60 -->
      <g transform="translate(316.759387 322.182437)scale(0.1 -0.1)">
       <defs>
        <path d="M 33.015625 40.375 
Q 26.375 40.375 22.484375 35.828125 
Q 18.609375 31.296875 18.609375 23.390625 
Q 18.609375 15.53125 22.484375 10.953125 
Q 26.375 6.390625 33.015625 6.390625 
Q 39.65625 6.390625 43.53125 10.953125 
Q 47.40625 15.53125 47.40625 23.390625 
Q 47.40625 31.296875 43.53125 35.828125 
Q 39.65625 40.375 33.015625 40.375 
z
M 52.59375 71.296875 
L 52.59375 62.3125 
Q 48.875 64.0625 45.09375 64.984375 
Q 41.3125 65.921875 37.59375 65.921875 
Q 27.828125 65.921875 22.671875 59.328125 
Q 17.53125 52.734375 16.796875 39.40625 
Q 19.671875 43.65625 24.015625 45.921875 
Q 28.375 48.1875 33.59375 48.1875 
Q 44.578125 48.1875 50.953125 41.515625 
Q 57.328125 34.859375 57.328125 23.390625 
Q 57.328125 12.15625 50.6875 5.359375 
Q 44.046875 -1.421875 33.015625 -1.421875 
Q 20.359375 -1.421875 13.671875 8.265625 
Q 6.984375 17.96875 6.984375 36.375 
Q 6.984375 53.65625 15.1875 63.9375 
Q 23.390625 74.21875 37.203125 74.21875 
Q 40.921875 74.21875 44.703125 73.484375 
Q 48.484375 72.75 52.59375 71.296875 
z
" id="DejaVuSans-54"/>
       </defs>
       <use xlink:href="#DejaVuSans-54"/>
       <use x="63.623047" xlink:href="#DejaVuSans-48"/>
      </g>
     </g>
    </g>
    <g id="xtick_5">
     <g id="line2d_5">
      <g>
       <use style="stroke:#000000;stroke-width:0.8;" x="398.325151" xlink:href="#me7c8dbebf9" y="307.584"/>
      </g>
     </g>
     <g id="text_5">
      <!-- 80 -->
      <g transform="translate(391.962651 322.182437)scale(0.1 -0.1)">
       <defs>
        <path d="M 31.78125 34.625 
Q 24.75 34.625 20.71875 30.859375 
Q 16.703125 27.09375 16.703125 20.515625 
Q 16.703125 13.921875 20.71875 10.15625 
Q 24.75 6.390625 31.78125 6.390625 
Q 38.8125 6.390625 42.859375 10.171875 
Q 46.921875 13.96875 46.921875 20.515625 
Q 46.921875 27.09375 42.890625 30.859375 
Q 38.875 34.625 31.78125 34.625 
z
M 21.921875 38.8125 
Q 15.578125 40.375 12.03125 44.71875 
Q 8.5 49.078125 8.5 55.328125 
Q 8.5 64.0625 14.71875 69.140625 
Q 20.953125 74.21875 31.78125 74.21875 
Q 42.671875 74.21875 48.875 69.140625 
Q 55.078125 64.0625 55.078125 55.328125 
Q 55.078125 49.078125 51.53125 44.71875 
Q 48 40.375 41.703125 38.8125 
Q 48.828125 37.15625 52.796875 32.3125 
Q 56.78125 27.484375 56.78125 20.515625 
Q 56.78125 9.90625 50.3125 4.234375 
Q 43.84375 -1.421875 31.78125 -1.421875 
Q 19.734375 -1.421875 13.25 4.234375 
Q 6.78125 9.90625 6.78125 20.515625 
Q 6.78125 27.484375 10.78125 32.3125 
Q 14.796875 37.15625 21.921875 38.8125 
z
M 18.3125 54.390625 
Q 18.3125 48.734375 21.84375 45.5625 
Q 25.390625 42.390625 31.78125 42.390625 
Q 38.140625 42.390625 41.71875 45.5625 
Q 45.3125 48.734375 45.3125 54.390625 
Q 45.3125 60.0625 41.71875 63.234375 
Q 38.140625 66.40625 31.78125 66.40625 
Q 25.390625 66.40625 21.84375 63.234375 
Q 18.3125 60.0625 18.3125 54.390625 
z
" id="DejaVuSans-56"/>
       </defs>
       <use xlink:href="#DejaVuSans-56"/>
       <use x="63.623047" xlink:href="#DejaVuSans-48"/>
      </g>
     </g>
    </g>
   </g>
   <g id="matplotlib.axis_2">
    <g id="ytick_1">
     <g id="line2d_6">
      <defs>
       <path d="M 0 0 
L -3.5 0 
" id="m4545b9893f" style="stroke:#000000;stroke-width:0.8;"/>
      </defs>
      <g>
       <use style="stroke:#000000;stroke-width:0.8;" x="57.6" xlink:href="#m4545b9893f" y="279.402926"/>
      </g>
     </g>
     <g id="text_6">
      <!-- 10 -->
      <g transform="translate(37.875 283.202145)scale(0.1 -0.1)">
       <defs>
        <path d="M 12.40625 8.296875 
L 28.515625 8.296875 
L 28.515625 63.921875 
L 10.984375 60.40625 
L 10.984375 69.390625 
L 28.421875 72.90625 
L 38.28125 72.90625 
L 38.28125 8.296875 
L 54.390625 8.296875 
L 54.390625 0 
L 12.40625 0 
z
" id="DejaVuSans-49"/>
       </defs>
       <use xlink:href="#DejaVuSans-49"/>
       <use x="63.623047" xlink:href="#DejaVuSans-48"/>
      </g>
     </g>
    </g>
    <g id="ytick_2">
     <g id="line2d_7">
      <g>
       <use style="stroke:#000000;stroke-width:0.8;" x="57.6" xlink:href="#m4545b9893f" y="241.801294"/>
      </g>
     </g>
     <g id="text_7">
      <!-- 20 -->
      <g transform="translate(37.875 245.600513)scale(0.1 -0.1)">
       <use xlink:href="#DejaVuSans-50"/>
       <use x="63.623047" xlink:href="#DejaVuSans-48"/>
      </g>
     </g>
    </g>
    <g id="ytick_3">
     <g id="line2d_8">
      <g>
       <use style="stroke:#000000;stroke-width:0.8;" x="57.6" xlink:href="#m4545b9893f" y="204.199662"/>
      </g>
     </g>
     <g id="text_8">
      <!-- 30 -->
      <g transform="translate(37.875 207.998881)scale(0.1 -0.1)">
       <defs>
        <path d="M 40.578125 39.3125 
Q 47.65625 37.796875 51.625 33 
Q 55.609375 28.21875 55.609375 21.1875 
Q 55.609375 10.40625 48.1875 4.484375 
Q 40.765625 -1.421875 27.09375 -1.421875 
Q 22.515625 -1.421875 17.65625 -0.515625 
Q 12.796875 0.390625 7.625 2.203125 
L 7.625 11.71875 
Q 11.71875 9.328125 16.59375 8.109375 
Q 21.484375 6.890625 26.8125 6.890625 
Q 36.078125 6.890625 40.9375 10.546875 
Q 45.796875 14.203125 45.796875 21.1875 
Q 45.796875 27.640625 41.28125 31.265625 
Q 36.765625 34.90625 28.71875 34.90625 
L 20.21875 34.90625 
L 20.21875 43.015625 
L 29.109375 43.015625 
Q 36.375 43.015625 40.234375 45.921875 
Q 44.09375 48.828125 44.09375 54.296875 
Q 44.09375 59.90625 40.109375 62.90625 
Q 36.140625 65.921875 28.71875 65.921875 
Q 24.65625 65.921875 20.015625 65.03125 
Q 15.375 64.15625 9.8125 62.3125 
L 9.8125 71.09375 
Q 15.4375 72.65625 20.34375 73.4375 
Q 25.25 74.21875 29.59375 74.21875 
Q 40.828125 74.21875 47.359375 69.109375 
Q 53.90625 64.015625 53.90625 55.328125 
Q 53.90625 49.265625 50.4375 45.09375 
Q 46.96875 40.921875 40.578125 39.3125 
z
" id="DejaVuSans-51"/>
       </defs>
       <use xlink:href="#DejaVuSans-51"/>
       <use x="63.623047" xlink:href="#DejaVuSans-48"/>
      </g>
     </g>
    </g>
    <g id="ytick_4">
     <g id="line2d_9">
      <g>
       <use style="stroke:#000000;stroke-width:0.8;" x="57.6" xlink:href="#m4545b9893f" y="166.59803"/>
      </g>
     </g>
     <g id="text_9">
      <!-- 40 -->
      <g transform="translate(37.875 170.397249)scale(0.1 -0.1)">
       <use xlink:href="#DejaVuSans-52"/>
       <use x="63.623047" xlink:href="#DejaVuSans-48"/>
      </g>
     </g>
    </g>
    <g id="ytick_5">
     <g id="line2d_10">
      <g>
       <use style="stroke:#000000;stroke-width:0.8;" x="57.6" xlink:href="#m4545b9893f" y="128.996398"/>
      </g>
     </g>
     <g id="text_10">
      <!-- 50 -->
      <g transform="translate(37.875 132.795617)scale(0.1 -0.1)">
       <defs>
        <path d="M 10.796875 72.90625 
L 49.515625 72.90625 
L 49.515625 64.59375 
L 19.828125 64.59375 
L 19.828125 46.734375 
Q 21.96875 47.46875 24.109375 47.828125 
Q 26.265625 48.1875 28.421875 48.1875 
Q 40.625 48.1875 47.75 41.5 
Q 54.890625 34.8125 54.890625 23.390625 
Q 54.890625 11.625 47.5625 5.09375 
Q 40.234375 -1.421875 26.90625 -1.421875 
Q 22.3125 -1.421875 17.546875 -0.640625 
Q 12.796875 0.140625 7.71875 1.703125 
L 7.71875 11.625 
Q 12.109375 9.234375 16.796875 8.0625 
Q 21.484375 6.890625 26.703125 6.890625 
Q 35.15625 6.890625 40.078125 11.328125 
Q 45.015625 15.765625 45.015625 23.390625 
Q 45.015625 31 40.078125 35.4375 
Q 35.15625 39.890625 26.703125 39.890625 
Q 22.75 39.890625 18.8125 39.015625 
Q 14.890625 38.140625 10.796875 36.28125 
z
" id="DejaVuSans-53"/>
       </defs>
       <use xlink:href="#DejaVuSans-53"/>
       <use x="63.623047" xlink:href="#DejaVuSans-48"/>
      </g>
     </g>
    </g>
    <g id="ytick_6">
     <g id="line2d_11">
      <g>
       <use style="stroke:#000000;stroke-width:0.8;" x="57.6" xlink:href="#m4545b9893f" y="91.394766"/>
      </g>
     </g>
     <g id="text_11">
      <!-- 60 -->
      <g transform="translate(37.875 95.193985)scale(0.1 -0.1)">
       <use xlink:href="#DejaVuSans-54"/>
       <use x="63.623047" xlink:href="#DejaVuSans-48"/>
      </g>
     </g>
    </g>
    <g id="ytick_7">
     <g id="line2d_12">
      <g>
       <use style="stroke:#000000;stroke-width:0.8;" x="57.6" xlink:href="#m4545b9893f" y="53.793134"/>
      </g>
     </g>
     <g id="text_12">
      <!-- 70 -->
      <g transform="translate(37.875 57.592353)scale(0.1 -0.1)">
       <defs>
        <path d="M 8.203125 72.90625 
L 55.078125 72.90625 
L 55.078125 68.703125 
L 28.609375 0 
L 18.3125 0 
L 43.21875 64.59375 
L 8.203125 64.59375 
z
" id="DejaVuSans-55"/>
       </defs>
       <use xlink:href="#DejaVuSans-55"/>
       <use x="63.623047" xlink:href="#DejaVuSans-48"/>
      </g>
     </g>
    </g>
   </g>
   <g id="line2d_13">
    <path clip-path="url(#p51e231528e)" d="M 135.113727 279.402926 
L 138.911492 279.075792 
L 142.701736 278.816341 
L 146.48822 278.617052 
L 150.267184 278.481686 
L 154.046148 278.395203 
L 157.817592 278.357601 
L 161.585276 278.365121 
L 165.349199 278.410243 
L 169.113122 278.489207 
L 172.873286 278.598251 
L 176.629689 278.733617 
L 180.386092 278.884024 
L 184.138735 279.053231 
L 187.895138 279.229959 
L 191.64778 279.410447 
L 195.400423 279.590934 
L 199.156826 279.767662 
L 202.909469 279.933109 
L 206.665872 280.083516 
L 210.426036 280.215122 
L 214.182439 280.320406 
L 217.946362 280.39937 
L 221.710285 280.440731 
L 225.481729 280.448252 
L 229.253173 280.40689 
L 233.028377 280.316646 
L 236.811101 280.17376 
L 240.597585 279.974471 
L 244.38783 279.71126 
L 248.185594 279.376605 
L 251.987119 278.970508 
L 255.781124 278.474166 
L 259.563848 277.88006 
L 263.316491 277.169389 
L 267.031532 276.334633 
L 270.697691 275.360751 
L 274.307448 274.232702 
L 277.845762 272.935446 
L 281.301352 271.461462 
L 284.666698 269.791949 
L 287.930519 267.919388 
L 291.085296 265.847538 
L 294.123508 263.59896 
L 297.045155 261.181175 
L 299.835196 258.620504 
L 302.497392 255.924467 
L 305.020461 253.111865 
L 307.400644 250.178938 
L 309.637942 247.136966 
L 311.724832 243.985949 
L 313.653796 240.737168 
L 315.424833 237.390623 
L 317.022902 233.961354 
L 318.436723 230.449362 
L 319.655016 226.877207 
L 320.6665 223.241129 
L 321.463655 219.559929 
L 322.076561 215.841128 
L 322.535301 212.096005 
L 322.866196 208.328321 
L 323.103086 204.553118 
L 323.268533 200.777914 
L 323.377578 197.00647 
L 323.437741 193.235026 
L 323.456541 189.463583 
L 323.441501 185.695899 
L 323.400139 181.928216 
L 323.339976 178.160532 
L 323.268533 174.396609 
L 323.19709 170.628925 
L 323.125647 166.861242 
L 323.069245 163.097318 
L 323.020362 159.329635 
L 322.986521 155.561951 
L 322.9602 151.790508 
L 322.945159 148.022824 
L 322.937639 144.255141 
L 322.941399 140.487457 
L 322.948919 136.716013 
L 322.9602 132.94833 
L 322.979001 129.176886 
L 323.001562 125.409203 
L 323.027883 121.637759 
L 323.057964 117.866315 
L 323.088045 114.098632 
L 323.121887 110.327188 
L 323.151968 106.559504 
L 323.182049 102.788061 
L 323.212131 99.016617 
L 323.238452 95.248934 
L 323.261013 91.47749 
L 323.283574 87.709806 
L 323.294854 83.938363 
L 323.302375 80.170679 
L 323.306135 76.399235 
L 323.298614 72.631552 
L 323.283574 68.863868 
L 323.261013 65.096185 
L 323.223411 61.328501 
L 323.178289 57.560818 
L 323.121887 53.793134 
" style="fill:none;stroke:#fea952;stroke-linecap:square;"/>
   </g>
   <g id="line2d_14">
    <path clip-path="url(#p51e231528e)" d="M 133.822926 264.417765 
L 137.884327 264.070254 
L 141.911217 263.796477 
L 145.949796 263.58604 
L 149.923061 263.444971 
L 153.896199 263.355297 
L 157.847613 263.316978 
L 161.76557 263.325549 
L 165.664668 263.372899 
L 169.549118 263.454874 
L 173.41494 263.567355 
L 177.231435 263.705007 
L 181.063589 263.858637 
L 184.845571 264.029196 
L 188.617701 264.206672 
L 192.370343 264.38716 
L 196.10726 264.5669 
L 199.819298 264.741606 
L 203.511215 264.904499 
L 207.191973 265.052067 
L 210.84743 265.180373 
L 214.497907 265.283062 
L 218.111634 265.359625 
L 221.740277 265.400108 
L 225.316787 265.408503 
L 228.893738 265.370532 
L 232.460645 265.286712 
L 236.020582 265.153896 
L 239.555605 264.969955 
L 243.067581 264.728664 
L 246.587968 264.421043 
L 250.036087 264.056933 
L 253.447481 263.615655 
L 256.765212 263.102074 
L 260.019126 262.494628 
L 263.170039 261.798124 
L 266.211441 261.004749 
L 269.130074 260.111228 
L 271.944586 259.100802 
L 274.617153 257.987682 
L 277.181795 256.745974 
L 279.674114 255.347475 
L 282.137696 253.757803 
L 284.534379 252.011474 
L 286.875055 250.100097 
L 289.132891 248.052538 
L 291.301404 245.881007 
L 293.341706 243.634106 
L 295.284179 241.267569 
L 297.098096 238.831937 
L 298.792055 236.307113 
L 300.359959 233.70189 
L 301.791812 231.037515 
L 303.070404 228.344502 
L 304.201217 225.594304 
L 305.164582 222.846258 
L 305.96656 220.057893 
L 306.623209 217.114031 
L 307.147488 214.012466 
L 307.55232 210.780134 
L 307.855067 207.386388 
L 308.076856 203.894598 
L 308.234163 200.343221 
L 308.338838 196.76657 
L 308.397275 193.160049 
L 308.416008 189.523625 
L 308.401754 185.861006 
L 308.361403 182.168355 
L 308.302032 178.445968 
L 308.230584 174.681759 
L 308.159141 170.914076 
L 308.086683 167.086601 
L 308.029857 163.29244 
L 307.980316 159.464725 
L 307.946234 155.666918 
L 307.919667 151.85055 
L 307.904536 148.052845 
L 307.896993 144.24013 
L 307.900776 140.457466 
L 307.908334 136.670982 
L 307.919734 132.873352 
L 307.938617 129.086824 
L 307.961275 125.304235 
L 307.987708 121.517797 
L 308.017791 117.746234 
L 308.047998 113.963676 
L 308.081713 110.207107 
L 308.111794 106.439543 
L 308.141875 102.668099 
L 308.171845 98.911545 
L 308.198068 95.158961 
L 308.22063 91.387428 
L 308.242988 87.66482 
L 308.254231 83.908341 
L 308.261729 80.155683 
L 308.265512 76.429257 
L 308.258082 72.691594 
L 308.243191 68.953931 
L 308.221109 65.246284 
L 308.183837 61.508616 
L 308.139321 57.785952 
L 308.082919 54.018268 
" style="fill:none;stroke:#ffffff;stroke-linecap:square;"/>
   </g>
   <g id="line2d_15">
    <path clip-path="url(#p51e231528e)" d="M 136.404528 294.388088 
L 139.938656 294.08133 
L 143.492255 293.836205 
L 147.026645 293.648065 
L 150.611308 293.518402 
L 154.196098 293.435108 
L 157.787571 293.398224 
L 161.404981 293.404693 
L 165.03373 293.447587 
L 168.677127 293.523539 
L 172.331632 293.629148 
L 176.027942 293.762228 
L 179.708594 293.90941 
L 183.431898 294.077266 
L 187.172575 294.253245 
L 190.925218 294.433733 
L 194.693587 294.614969 
L 198.494355 294.793718 
L 202.307723 294.96172 
L 206.139772 295.114965 
L 210.004641 295.24987 
L 213.86697 295.35775 
L 217.78109 295.439114 
L 221.680294 295.481354 
L 225.646671 295.488 
L 229.612607 295.443247 
L 233.596108 295.34658 
L 237.60162 295.193624 
L 241.639565 294.978988 
L 245.708078 294.693856 
L 249.783221 294.332167 
L 253.938152 293.884082 
L 258.114767 293.332677 
L 262.362485 292.658046 
L 266.613856 291.844151 
L 270.893026 290.871143 
L 275.183942 289.716753 
L 279.484822 288.354176 
L 283.746937 286.770089 
L 287.98555 284.935241 
L 292.151601 282.837924 
L 296.186925 280.491301 
L 300.032897 277.937272 
L 303.712638 275.186446 
L 307.215255 272.262254 
L 310.537501 269.18847 
L 313.69338 265.967927 
L 316.699216 262.589624 
L 319.51711 259.090306 
L 322.177787 255.441995 
L 324.657609 251.664785 
L 326.947633 247.772446 
L 329.057854 243.74373 
L 330.975401 239.578206 
L 332.67223 235.304419 
L 334.145451 230.908155 
L 335.366441 226.424364 
L 336.3041 222.005826 
L 337.005635 217.669789 
L 337.518282 213.411876 
L 337.877325 209.270255 
L 338.129316 205.211638 
L 338.302903 201.212606 
L 338.416317 197.24637 
L 338.478206 193.310004 
L 338.497074 189.403541 
L 338.481247 185.530792 
L 338.438875 181.688076 
L 338.37792 177.875097 
L 338.306483 174.111458 
L 338.23504 170.343774 
L 338.164611 166.635883 
L 338.108632 162.902197 
L 338.060409 159.194545 
L 338.026807 155.456984 
L 338.000733 151.730466 
L 337.985782 147.992803 
L 337.978284 144.270151 
L 337.982022 140.517448 
L 337.989505 136.761045 
L 338.000666 133.023307 
L 338.019384 129.266948 
L 338.041848 125.51417 
L 338.068057 121.75772 
L 338.098137 117.986396 
L 338.128093 114.233587 
L 338.16206 110.447269 
L 338.192142 106.679466 
L 338.222224 102.908022 
L 338.252416 99.121689 
L 338.278836 95.338906 
L 338.301396 91.567552 
L 338.324159 87.754793 
L 338.335477 83.968384 
L 338.34302 80.185675 
L 338.346758 76.369214 
L 338.339147 72.57151 
L 338.323957 68.773806 
L 338.300917 64.946086 
L 338.262986 61.148387 
L 338.217257 57.335684 
L 338.160855 53.568 
" style="fill:none;stroke:#ffffff;stroke-linecap:square;"/>
   </g>
   <g id="patch_3">
    <path d="M 57.6 307.584 
L 57.6 41.472 
" style="fill:none;stroke:#000000;stroke-linecap:square;stroke-linejoin:miter;stroke-width:0.8;"/>
   </g>
   <g id="patch_4">
    <path d="M 414.72 307.584 
L 414.72 41.472 
" style="fill:none;stroke:#000000;stroke-linecap:square;stroke-linejoin:miter;stroke-width:0.8;"/>
   </g>
   <g id="patch_5">
    <path d="M 57.6 307.584 
L 414.72 307.584 
" style="fill:none;stroke:#000000;stroke-linecap:square;stroke-linejoin:miter;stroke-width:0.8;"/>
   </g>
   <g id="patch_6">
    <path d="M 57.6 41.472 
L 414.72 41.472 
" style="fill:none;stroke:#000000;stroke-linecap:square;stroke-linejoin:miter;stroke-width:0.8;"/>
   </g>
  </g>
 </g>
 <defs>
  <clipPath id="p51e231528e">
   <rect height="266.112" width="357.12" x="57.6" y="41.472"/>
  </clipPath>
 </defs>
</svg>
