<?xml version="1.0" encoding="utf-8" standalone="no"?>
<!DOCTYPE svg PUBLIC "-//W3C//DTD SVG 1.1//EN"
  "http://www.w3.org/Graphics/SVG/1.1/DTD/svg11.dtd">
<!-- Created with matplotlib (https://matplotlib.org/) -->
<svg height="345.6pt" version="1.1" viewBox="0 0 460.8 345.6" width="460.8pt" xmlns="http://www.w3.org/2000/svg" xmlns:xlink="http://www.w3.org/1999/xlink">
 <metadata>
  <rdf:RDF xmlns:cc="http://creativecommons.org/ns#" xmlns:dc="http://purl.org/dc/elements/1.1/" xmlns:rdf="http://www.w3.org/1999/02/22-rdf-syntax-ns#">
   <cc:Work>
    <dc:type rdf:resource="http://purl.org/dc/dcmitype/StillImage"/>
    <dc:date>2021-03-15T17:56:32.487610</dc:date>
    <dc:format>image/svg+xml</dc:format>
    <dc:creator>
     <cc:Agent>
      <dc:title>Matplotlib v3.3.3, https://matplotlib.org/</dc:title>
     </cc:Agent>
    </dc:creator>
   </cc:Work>
  </rdf:RDF>
 </metadata>
 <defs>
  <style type="text/css">*{stroke-linecap:butt;stroke-linejoin:round;}</style>
 </defs>
 <g id="figure_1">
  <g id="patch_1">
   <path d="M 0 345.6 
L 460.8 345.6 
L 460.8 0 
L 0 0 
z
" style="fill:#ffffff;"/>
  </g>
  <g id="axes_1">
   <g id="patch_2">
    <path d="M 57.6 307.584 
L 414.72 307.584 
L 414.72 41.472 
L 57.6 41.472 
z
" style="fill:#7d9051;"/>
   </g>
   <g id="matplotlib.axis_1">
    <g id="xtick_1">
     <g id="line2d_1">
      <defs>
       <path d="M 0 0 
L 0 3.5 
" id="m0655d4bd28" style="stroke:#000000;stroke-width:0.8;"/>
      </defs>
      <g>
       <use style="stroke:#000000;stroke-width:0.8;" x="107.886833" xlink:href="#m0655d4bd28" y="307.584"/>
      </g>
     </g>
     <g id="text_1">
      <!-- 20 -->
      <g transform="translate(101.524333 322.182437)scale(0.1 -0.1)">
       <defs>
        <path d="M 19.1875 8.296875 
L 53.609375 8.296875 
L 53.609375 0 
L 7.328125 0 
L 7.328125 8.296875 
Q 12.9375 14.109375 22.625 23.890625 
Q 32.328125 33.6875 34.8125 36.53125 
Q 39.546875 41.84375 41.421875 45.53125 
Q 43.3125 49.21875 43.3125 52.78125 
Q 43.3125 58.59375 39.234375 62.25 
Q 35.15625 65.921875 28.609375 65.921875 
Q 23.96875 65.921875 18.8125 64.3125 
Q 13.671875 62.703125 7.8125 59.421875 
L 7.8125 69.390625 
Q 13.765625 71.78125 18.9375 73 
Q 24.125 74.21875 28.421875 74.21875 
Q 39.75 74.21875 46.484375 68.546875 
Q 53.21875 62.890625 53.21875 53.421875 
Q 53.21875 48.921875 51.53125 44.890625 
Q 49.859375 40.875 45.40625 35.40625 
Q 44.1875 33.984375 37.640625 27.21875 
Q 31.109375 20.453125 19.1875 8.296875 
z
" id="DejaVuSans-50"/>
        <path d="M 31.78125 66.40625 
Q 24.171875 66.40625 20.328125 58.90625 
Q 16.5 51.421875 16.5 36.375 
Q 16.5 21.390625 20.328125 13.890625 
Q 24.171875 6.390625 31.78125 6.390625 
Q 39.453125 6.390625 43.28125 13.890625 
Q 47.125 21.390625 47.125 36.375 
Q 47.125 51.421875 43.28125 58.90625 
Q 39.453125 66.40625 31.78125 66.40625 
z
M 31.78125 74.21875 
Q 44.046875 74.21875 50.515625 64.515625 
Q 56.984375 54.828125 56.984375 36.375 
Q 56.984375 17.96875 50.515625 8.265625 
Q 44.046875 -1.421875 31.78125 -1.421875 
Q 19.53125 -1.421875 13.0625 8.265625 
Q 6.59375 17.96875 6.59375 36.375 
Q 6.59375 54.828125 13.0625 64.515625 
Q 19.53125 74.21875 31.78125 74.21875 
z
" id="DejaVuSans-48"/>
       </defs>
       <use xlink:href="#DejaVuSans-50"/>
       <use x="63.623047" xlink:href="#DejaVuSans-48"/>
      </g>
     </g>
    </g>
    <g id="xtick_2">
     <g id="line2d_2">
      <g>
       <use style="stroke:#000000;stroke-width:0.8;" x="173.413724" xlink:href="#m0655d4bd28" y="307.584"/>
      </g>
     </g>
     <g id="text_2">
      <!-- 40 -->
      <g transform="translate(167.051224 322.182437)scale(0.1 -0.1)">
       <defs>
        <path d="M 37.796875 64.3125 
L 12.890625 25.390625 
L 37.796875 25.390625 
z
M 35.203125 72.90625 
L 47.609375 72.90625 
L 47.609375 25.390625 
L 58.015625 25.390625 
L 58.015625 17.1875 
L 47.609375 17.1875 
L 47.609375 0 
L 37.796875 0 
L 37.796875 17.1875 
L 4.890625 17.1875 
L 4.890625 26.703125 
z
" id="DejaVuSans-52"/>
       </defs>
       <use xlink:href="#DejaVuSans-52"/>
       <use x="63.623047" xlink:href="#DejaVuSans-48"/>
      </g>
     </g>
    </g>
    <g id="xtick_3">
     <g id="line2d_3">
      <g>
       <use style="stroke:#000000;stroke-width:0.8;" x="238.940615" xlink:href="#m0655d4bd28" y="307.584"/>
      </g>
     </g>
     <g id="text_3">
      <!-- 60 -->
      <g transform="translate(232.578115 322.182437)scale(0.1 -0.1)">
       <defs>
        <path d="M 33.015625 40.375 
Q 26.375 40.375 22.484375 35.828125 
Q 18.609375 31.296875 18.609375 23.390625 
Q 18.609375 15.53125 22.484375 10.953125 
Q 26.375 6.390625 33.015625 6.390625 
Q 39.65625 6.390625 43.53125 10.953125 
Q 47.40625 15.53125 47.40625 23.390625 
Q 47.40625 31.296875 43.53125 35.828125 
Q 39.65625 40.375 33.015625 40.375 
z
M 52.59375 71.296875 
L 52.59375 62.3125 
Q 48.875 64.0625 45.09375 64.984375 
Q 41.3125 65.921875 37.59375 65.921875 
Q 27.828125 65.921875 22.671875 59.328125 
Q 17.53125 52.734375 16.796875 39.40625 
Q 19.671875 43.65625 24.015625 45.921875 
Q 28.375 48.1875 33.59375 48.1875 
Q 44.578125 48.1875 50.953125 41.515625 
Q 57.328125 34.859375 57.328125 23.390625 
Q 57.328125 12.15625 50.6875 5.359375 
Q 44.046875 -1.421875 33.015625 -1.421875 
Q 20.359375 -1.421875 13.671875 8.265625 
Q 6.984375 17.96875 6.984375 36.375 
Q 6.984375 53.65625 15.1875 63.9375 
Q 23.390625 74.21875 37.203125 74.21875 
Q 40.921875 74.21875 44.703125 73.484375 
Q 48.484375 72.75 52.59375 71.296875 
z
" id="DejaVuSans-54"/>
       </defs>
       <use xlink:href="#DejaVuSans-54"/>
       <use x="63.623047" xlink:href="#DejaVuSans-48"/>
      </g>
     </g>
    </g>
    <g id="xtick_4">
     <g id="line2d_4">
      <g>
       <use style="stroke:#000000;stroke-width:0.8;" x="304.467506" xlink:href="#m0655d4bd28" y="307.584"/>
      </g>
     </g>
     <g id="text_4">
      <!-- 80 -->
      <g transform="translate(298.105006 322.182437)scale(0.1 -0.1)">
       <defs>
        <path d="M 31.78125 34.625 
Q 24.75 34.625 20.71875 30.859375 
Q 16.703125 27.09375 16.703125 20.515625 
Q 16.703125 13.921875 20.71875 10.15625 
Q 24.75 6.390625 31.78125 6.390625 
Q 38.8125 6.390625 42.859375 10.171875 
Q 46.921875 13.96875 46.921875 20.515625 
Q 46.921875 27.09375 42.890625 30.859375 
Q 38.875 34.625 31.78125 34.625 
z
M 21.921875 38.8125 
Q 15.578125 40.375 12.03125 44.71875 
Q 8.5 49.078125 8.5 55.328125 
Q 8.5 64.0625 14.71875 69.140625 
Q 20.953125 74.21875 31.78125 74.21875 
Q 42.671875 74.21875 48.875 69.140625 
Q 55.078125 64.0625 55.078125 55.328125 
Q 55.078125 49.078125 51.53125 44.71875 
Q 48 40.375 41.703125 38.8125 
Q 48.828125 37.15625 52.796875 32.3125 
Q 56.78125 27.484375 56.78125 20.515625 
Q 56.78125 9.90625 50.3125 4.234375 
Q 43.84375 -1.421875 31.78125 -1.421875 
Q 19.734375 -1.421875 13.25 4.234375 
Q 6.78125 9.90625 6.78125 20.515625 
Q 6.78125 27.484375 10.78125 32.3125 
Q 14.796875 37.15625 21.921875 38.8125 
z
M 18.3125 54.390625 
Q 18.3125 48.734375 21.84375 45.5625 
Q 25.390625 42.390625 31.78125 42.390625 
Q 38.140625 42.390625 41.71875 45.5625 
Q 45.3125 48.734375 45.3125 54.390625 
Q 45.3125 60.0625 41.71875 63.234375 
Q 38.140625 66.40625 31.78125 66.40625 
Q 25.390625 66.40625 21.84375 63.234375 
Q 18.3125 60.0625 18.3125 54.390625 
z
" id="DejaVuSans-56"/>
       </defs>
       <use xlink:href="#DejaVuSans-56"/>
       <use x="63.623047" xlink:href="#DejaVuSans-48"/>
      </g>
     </g>
    </g>
    <g id="xtick_5">
     <g id="line2d_5">
      <g>
       <use style="stroke:#000000;stroke-width:0.8;" x="369.994397" xlink:href="#m0655d4bd28" y="307.584"/>
      </g>
     </g>
     <g id="text_5">
      <!-- 100 -->
      <g transform="translate(360.450647 322.182437)scale(0.1 -0.1)">
       <defs>
        <path d="M 12.40625 8.296875 
L 28.515625 8.296875 
L 28.515625 63.921875 
L 10.984375 60.40625 
L 10.984375 69.390625 
L 28.421875 72.90625 
L 38.28125 72.90625 
L 38.28125 8.296875 
L 54.390625 8.296875 
L 54.390625 0 
L 12.40625 0 
z
" id="DejaVuSans-49"/>
       </defs>
       <use xlink:href="#DejaVuSans-49"/>
       <use x="63.623047" xlink:href="#DejaVuSans-48"/>
       <use x="127.246094" xlink:href="#DejaVuSans-48"/>
      </g>
     </g>
    </g>
   </g>
   <g id="matplotlib.axis_2">
    <g id="ytick_1">
     <g id="line2d_6">
      <defs>
       <path d="M 0 0 
L -3.5 0 
" id="m3b3f67445c" style="stroke:#000000;stroke-width:0.8;"/>
      </defs>
      <g>
       <use style="stroke:#000000;stroke-width:0.8;" x="57.6" xlink:href="#m3b3f67445c" y="288.96816"/>
      </g>
     </g>
     <g id="text_6">
      <!-- 0 -->
      <g transform="translate(44.2375 292.767378)scale(0.1 -0.1)">
       <use xlink:href="#DejaVuSans-48"/>
      </g>
     </g>
    </g>
    <g id="ytick_2">
     <g id="line2d_7">
      <g>
       <use style="stroke:#000000;stroke-width:0.8;" x="57.6" xlink:href="#m3b3f67445c" y="256.204714"/>
      </g>
     </g>
     <g id="text_7">
      <!-- 10 -->
      <g transform="translate(37.875 260.003933)scale(0.1 -0.1)">
       <use xlink:href="#DejaVuSans-49"/>
       <use x="63.623047" xlink:href="#DejaVuSans-48"/>
      </g>
     </g>
    </g>
    <g id="ytick_3">
     <g id="line2d_8">
      <g>
       <use style="stroke:#000000;stroke-width:0.8;" x="57.6" xlink:href="#m3b3f67445c" y="223.441269"/>
      </g>
     </g>
     <g id="text_8">
      <!-- 20 -->
      <g transform="translate(37.875 227.240487)scale(0.1 -0.1)">
       <use xlink:href="#DejaVuSans-50"/>
       <use x="63.623047" xlink:href="#DejaVuSans-48"/>
      </g>
     </g>
    </g>
    <g id="ytick_4">
     <g id="line2d_9">
      <g>
       <use style="stroke:#000000;stroke-width:0.8;" x="57.6" xlink:href="#m3b3f67445c" y="190.677823"/>
      </g>
     </g>
     <g id="text_9">
      <!-- 30 -->
      <g transform="translate(37.875 194.477042)scale(0.1 -0.1)">
       <defs>
        <path d="M 40.578125 39.3125 
Q 47.65625 37.796875 51.625 33 
Q 55.609375 28.21875 55.609375 21.1875 
Q 55.609375 10.40625 48.1875 4.484375 
Q 40.765625 -1.421875 27.09375 -1.421875 
Q 22.515625 -1.421875 17.65625 -0.515625 
Q 12.796875 0.390625 7.625 2.203125 
L 7.625 11.71875 
Q 11.71875 9.328125 16.59375 8.109375 
Q 21.484375 6.890625 26.8125 6.890625 
Q 36.078125 6.890625 40.9375 10.546875 
Q 45.796875 14.203125 45.796875 21.1875 
Q 45.796875 27.640625 41.28125 31.265625 
Q 36.765625 34.90625 28.71875 34.90625 
L 20.21875 34.90625 
L 20.21875 43.015625 
L 29.109375 43.015625 
Q 36.375 43.015625 40.234375 45.921875 
Q 44.09375 48.828125 44.09375 54.296875 
Q 44.09375 59.90625 40.109375 62.90625 
Q 36.140625 65.921875 28.71875 65.921875 
Q 24.65625 65.921875 20.015625 65.03125 
Q 15.375 64.15625 9.8125 62.3125 
L 9.8125 71.09375 
Q 15.4375 72.65625 20.34375 73.4375 
Q 25.25 74.21875 29.59375 74.21875 
Q 40.828125 74.21875 47.359375 69.109375 
Q 53.90625 64.015625 53.90625 55.328125 
Q 53.90625 49.265625 50.4375 45.09375 
Q 46.96875 40.921875 40.578125 39.3125 
z
" id="DejaVuSans-51"/>
       </defs>
       <use xlink:href="#DejaVuSans-51"/>
       <use x="63.623047" xlink:href="#DejaVuSans-48"/>
      </g>
     </g>
    </g>
    <g id="ytick_5">
     <g id="line2d_10">
      <g>
       <use style="stroke:#000000;stroke-width:0.8;" x="57.6" xlink:href="#m3b3f67445c" y="157.914377"/>
      </g>
     </g>
     <g id="text_10">
      <!-- 40 -->
      <g transform="translate(37.875 161.713596)scale(0.1 -0.1)">
       <use xlink:href="#DejaVuSans-52"/>
       <use x="63.623047" xlink:href="#DejaVuSans-48"/>
      </g>
     </g>
    </g>
    <g id="ytick_6">
     <g id="line2d_11">
      <g>
       <use style="stroke:#000000;stroke-width:0.8;" x="57.6" xlink:href="#m3b3f67445c" y="125.150932"/>
      </g>
     </g>
     <g id="text_11">
      <!-- 50 -->
      <g transform="translate(37.875 128.950151)scale(0.1 -0.1)">
       <defs>
        <path d="M 10.796875 72.90625 
L 49.515625 72.90625 
L 49.515625 64.59375 
L 19.828125 64.59375 
L 19.828125 46.734375 
Q 21.96875 47.46875 24.109375 47.828125 
Q 26.265625 48.1875 28.421875 48.1875 
Q 40.625 48.1875 47.75 41.5 
Q 54.890625 34.8125 54.890625 23.390625 
Q 54.890625 11.625 47.5625 5.09375 
Q 40.234375 -1.421875 26.90625 -1.421875 
Q 22.3125 -1.421875 17.546875 -0.640625 
Q 12.796875 0.140625 7.71875 1.703125 
L 7.71875 11.625 
Q 12.109375 9.234375 16.796875 8.0625 
Q 21.484375 6.890625 26.703125 6.890625 
Q 35.15625 6.890625 40.078125 11.328125 
Q 45.015625 15.765625 45.015625 23.390625 
Q 45.015625 31 40.078125 35.4375 
Q 35.15625 39.890625 26.703125 39.890625 
Q 22.75 39.890625 18.8125 39.015625 
Q 14.890625 38.140625 10.796875 36.28125 
z
" id="DejaVuSans-53"/>
       </defs>
       <use xlink:href="#DejaVuSans-53"/>
       <use x="63.623047" xlink:href="#DejaVuSans-48"/>
      </g>
     </g>
    </g>
    <g id="ytick_7">
     <g id="line2d_12">
      <g>
       <use style="stroke:#000000;stroke-width:0.8;" x="57.6" xlink:href="#m3b3f67445c" y="92.387486"/>
      </g>
     </g>
     <g id="text_12">
      <!-- 60 -->
      <g transform="translate(37.875 96.186705)scale(0.1 -0.1)">
       <use xlink:href="#DejaVuSans-54"/>
       <use x="63.623047" xlink:href="#DejaVuSans-48"/>
      </g>
     </g>
    </g>
    <g id="ytick_8">
     <g id="line2d_13">
      <g>
       <use style="stroke:#000000;stroke-width:0.8;" x="57.6" xlink:href="#m3b3f67445c" y="59.624041"/>
      </g>
     </g>
     <g id="text_13">
      <!-- 70 -->
      <g transform="translate(37.875 63.42326)scale(0.1 -0.1)">
       <defs>
        <path d="M 8.203125 72.90625 
L 55.078125 72.90625 
L 55.078125 68.703125 
L 28.609375 0 
L 18.3125 0 
L 43.21875 64.59375 
L 8.203125 64.59375 
z
" id="DejaVuSans-55"/>
       </defs>
       <use xlink:href="#DejaVuSans-55"/>
       <use x="63.623047" xlink:href="#DejaVuSans-48"/>
      </g>
     </g>
    </g>
   </g>
   <g id="line2d_14">
    <path clip-path="url(#pf5e8d4277b)" d="M 75.123387 256.204714 
L 80.896306 255.719815 
L 86.964097 255.529787 
L 93.274336 255.565827 
L 103.113199 255.886909 
L 120.130532 256.54873 
L 127.030514 256.653573 
L 133.91739 256.558559 
L 140.745292 256.198161 
L 147.474904 255.497024 
L 150.790565 254.999019 
L 154.060357 254.389619 
L 157.287556 253.662271 
L 160.462334 252.803868 
L 163.578138 251.80786 
L 166.631691 250.667692 
L 169.616441 249.373536 
L 172.525835 247.912286 
L 175.359873 246.280666 
L 178.105449 244.48523 
L 180.756012 242.535805 
L 183.308284 240.44222 
L 185.752437 238.220859 
L 188.078642 235.884825 
L 190.283622 233.443948 
L 192.364101 230.898229 
L 194.320078 228.254219 
L 196.141726 225.515195 
L 197.829044 222.690986 
L 199.375478 219.781592 
L 200.774477 216.800118 
L 202.012936 213.749841 
L 203.087577 210.64059 
L 203.985295 207.482194 
L 204.702814 204.281206 
L 205.256517 201.044177 
L 205.669336 197.784214 
L 206.154235 191.21842 
L 206.318052 184.649349 
L 206.232867 174.803934 
L 206.101814 161.688726 
L 206.291841 155.129485 
L 206.514633 151.85314 
L 206.868478 148.589901 
L 207.382864 145.343043 
L 208.077449 142.122397 
L 208.948957 138.931237 
L 209.990834 135.785946 
L 211.199806 132.689801 
L 212.566041 129.652629 
L 214.089542 126.684261 
L 215.757201 123.794525 
L 217.572296 120.989974 
L 219.524997 118.277161 
L 221.612029 115.672467 
L 223.823561 113.179169 
L 226.159595 110.803819 
L 228.607024 108.556247 
L 231.165849 106.436452 
L 233.829517 104.447711 
L 236.584923 102.596576 
L 239.432067 100.8896 
L 242.364395 99.326784 
L 245.368803 97.911403 
L 248.448567 96.650011 
L 251.587305 95.549159 
L 254.788294 94.608848 
L 258.035151 93.835631 
L 261.324601 93.226231 
L 264.640262 92.783924 
L 267.97558 92.508711 
L 271.320728 92.400592 
L 274.656047 92.459566 
L 277.97826 92.685634 
L 281.277539 93.075519 
L 284.534226 93.635774 
L 287.745043 94.363122 
L 290.896887 95.257564 
L 293.979927 96.3191 
L 296.990888 97.541176 
L 299.933045 98.923794 
L 302.803123 100.457123 
L 305.607674 102.134611 
L 308.346698 103.952983 
L 311.020195 105.902408 
L 313.628165 107.982886 
L 316.177161 110.187866 
L 318.660631 112.507518 
L 321.085126 114.938566 
L 325.760469 120.111914 
L 330.206469 125.665318 
L 334.43623 131.546356 
L 338.459581 137.712437 
L 342.283075 144.117691 
L 345.919817 150.719525 
L 349.379637 157.465518 
L 352.669087 164.316355 
L 357.311667 174.682709 
L 361.626613 185.022852 
L 366.934291 198.498457 
L 378.434261 228.372167 
L 381.52713 235.639099 
L 383.528976 239.9049 
L 385.491507 243.656314 
L 387.427826 246.847474 
L 387.427826 246.847474 
" style="fill:none;stroke:#fea952;stroke-linecap:square;"/>
   </g>
   <g id="line2d_15">
    <path clip-path="url(#pf5e8d4277b)" d="M 73.832727 243.163045 
L 80.338831 242.626299 
L 86.950359 242.424416 
L 93.605844 242.464642 
L 103.675801 242.793612 
L 120.404279 243.446211 
L 126.95577 243.548408 
L 133.366073 243.464783 
L 139.569051 243.145675 
L 145.528341 242.537015 
L 151.178934 241.604928 
L 153.866929 241.011174 
L 156.471943 240.320771 
L 158.99386 239.530427 
L 161.418302 238.643902 
L 163.734445 237.662299 
L 165.987016 236.554699 
L 168.187257 235.312324 
L 170.340703 233.927784 
L 172.444448 232.403241 
L 174.493947 230.743849 
L 176.46602 228.973514 
L 178.353735 227.099775 
L 180.135965 225.150819 
L 181.828325 223.104105 
L 183.407719 220.996716 
L 184.891309 218.793658 
L 186.256828 216.539988 
L 187.511289 214.214549 
L 188.631788 211.870004 
L 189.62652 209.468762 
L 190.481519 207.057541 
L 191.197252 204.615683 
L 191.785054 202.071589 
L 192.25497 199.39775 
L 192.615453 196.623579 
L 193.05638 190.774425 
L 193.212674 184.649349 
L 193.129607 175.039557 
L 192.986665 164.929071 
L 193.068621 157.898893 
L 193.216658 154.240372 
L 193.485628 150.440356 
L 193.924532 146.539245 
L 194.572029 142.580177 
L 195.435053 138.669751 
L 196.50835 134.810286 
L 197.783118 131.019124 
L 199.248006 127.313425 
L 200.906657 123.668508 
L 202.738709 120.133724 
L 204.755006 116.673946 
L 206.935857 113.333794 
L 209.297694 110.082454 
L 211.807712 106.976128 
L 214.479653 103.989919 
L 217.295195 101.151185 
L 220.246435 98.464097 
L 223.325374 95.935124 
L 226.521202 93.569316 
L 229.846066 91.356525 
L 233.268184 89.324243 
L 236.779183 87.471138 
L 240.401653 85.783817 
L 244.11115 84.28321 
L 247.893589 82.975082 
L 251.752239 81.859993 
L 255.647883 80.949518 
L 259.591705 80.235926 
L 263.562538 79.722934 
L 267.552219 79.410173 
L 271.552418 79.297262 
L 275.545776 79.384425 
L 279.516258 79.670815 
L 283.499447 80.159867 
L 287.429634 80.854242 
L 291.32286 81.755578 
L 295.163436 82.866136 
L 298.908592 84.175822 
L 302.564757 85.680193 
L 306.108499 87.364611 
L 309.53032 89.21009 
L 312.856119 91.216233 
L 316.068022 93.363738 
L 319.192926 95.657535 
L 322.202059 98.071313 
L 325.122801 100.610473 
L 327.94003 103.253131 
L 330.674106 106.005348 
L 333.304333 108.837374 
L 335.875857 111.779455 
L 340.750446 117.882292 
L 345.333355 124.266 
L 349.651279 130.893578 
L 353.710581 137.701848 
L 357.537836 144.655486 
L 361.157361 151.717808 
L 364.576829 158.843091 
L 367.812034 165.979555 
L 372.349598 176.624413 
L 376.546527 187.056145 
L 382.877806 203.536529 
L 389.534619 220.850561 
L 392.511019 228.057073 
L 395.215096 233.97316 
L 397.520751 238.295921 
L 398.487273 239.816145 
L 398.487273 239.816145 
" style="fill:none;stroke:#ffffff;stroke-linecap:square;"/>
   </g>
   <g id="line2d_16">
    <path clip-path="url(#pf5e8d4277b)" d="M 76.414047 269.246383 
L 81.453781 268.813331 
L 86.977834 268.635158 
L 92.942828 268.667012 
L 102.550596 268.980205 
L 119.856786 269.651249 
L 127.105258 269.758738 
L 134.468707 269.652336 
L 141.921534 269.250647 
L 149.421467 268.457033 
L 153.191704 267.882554 
L 156.94178 267.174311 
L 160.708183 266.313367 
L 164.452725 265.286966 
L 168.162415 264.085292 
L 171.845079 262.691481 
L 175.498436 261.084773 
L 179.064653 259.269873 
L 182.532488 257.249009 
L 185.870196 255.042675 
L 189.067576 252.668368 
L 192.122622 250.140591 
L 195.038855 247.468203 
L 197.80355 244.669876 
L 200.431279 241.737078 
L 202.899876 238.692353 
L 205.232438 235.511721 
L 207.392143 232.236731 
L 209.401259 228.841983 
L 211.239667 225.348634 
L 212.917167 221.730233 
L 214.399351 218.030921 
L 215.693634 214.22364 
L 216.773338 210.348705 
L 217.620575 206.490822 
L 218.258063 202.690604 
L 218.723219 198.944849 
L 219.25209 191.662415 
L 219.42343 184.649349 
L 219.336127 174.568311 
L 219.204832 161.937435 
L 219.367025 156.018597 
L 219.812425 150.640556 
L 220.1937 148.105909 
L 220.719845 145.575043 
L 221.389564 143.052188 
L 222.198551 140.552769 
L 223.151605 138.066177 
L 224.225425 135.63675 
L 225.440374 133.234798 
L 226.759396 130.915105 
L 228.208735 128.646155 
L 229.7523 126.471868 
L 231.416345 124.368806 
L 233.167469 122.368419 
L 235.023995 120.456453 
L 236.967614 118.648396 
L 239.006324 116.93778 
L 241.137833 115.326105 
L 243.32378 113.836627 
L 245.59595 112.454958 
L 247.949607 111.18243 
L 250.335953 110.03899 
L 252.785983 109.016811 
L 255.28102 108.123236 
L 257.824348 107.357703 
L 260.422419 106.721743 
L 263.057497 106.216535 
L 265.717986 105.844914 
L 268.398942 105.607249 
L 271.089039 105.503922 
L 273.766318 105.534707 
L 276.440263 105.700452 
L 279.055631 105.991171 
L 281.638818 106.417305 
L 284.167227 106.970666 
L 286.630338 107.648993 
L 289.051263 108.462378 
L 291.417018 109.402159 
L 293.757591 110.482977 
L 296.075926 111.704156 
L 298.359229 113.05299 
L 300.625374 114.542227 
L 302.847464 116.14728 
L 305.054272 117.89446 
L 307.231522 119.76526 
L 311.496145 123.871784 
L 315.645082 128.444373 
L 319.662492 133.448344 
L 323.539104 138.826713 
L 327.267883 144.531296 
L 330.855569 150.533533 
L 334.301798 156.783564 
L 337.601914 163.213228 
L 340.761345 169.789619 
L 345.252956 179.814805 
L 349.467447 189.91219 
L 354.6974 203.189878 
L 366.322187 233.377026 
L 369.61293 241.098292 
L 371.842857 245.83664 
L 374.156876 250.234846 
L 376.36838 253.878803 
L 376.36838 253.878803 
" style="fill:none;stroke:#ffffff;stroke-linecap:square;"/>
   </g>
   <g id="patch_3">
    <path d="M 57.6 307.584 
L 57.6 41.472 
" style="fill:none;stroke:#000000;stroke-linecap:square;stroke-linejoin:miter;stroke-width:0.8;"/>
   </g>
   <g id="patch_4">
    <path d="M 414.72 307.584 
L 414.72 41.472 
" style="fill:none;stroke:#000000;stroke-linecap:square;stroke-linejoin:miter;stroke-width:0.8;"/>
   </g>
   <g id="patch_5">
    <path d="M 57.6 307.584 
L 414.72 307.584 
" style="fill:none;stroke:#000000;stroke-linecap:square;stroke-linejoin:miter;stroke-width:0.8;"/>
   </g>
   <g id="patch_6">
    <path d="M 57.6 41.472 
L 414.72 41.472 
" style="fill:none;stroke:#000000;stroke-linecap:square;stroke-linejoin:miter;stroke-width:0.8;"/>
   </g>
  </g>
 </g>
 <defs>
  <clipPath id="pf5e8d4277b">
   <rect height="266.112" width="357.12" x="57.6" y="41.472"/>
  </clipPath>
 </defs>
</svg>
