<?xml version="1.0" encoding="utf-8" standalone="no"?>
<!DOCTYPE svg PUBLIC "-//W3C//DTD SVG 1.1//EN"
  "http://www.w3.org/Graphics/SVG/1.1/DTD/svg11.dtd">
<!-- Created with matplotlib (https://matplotlib.org/) -->
<svg height="345.6pt" version="1.1" viewBox="0 0 460.8 345.6" width="460.8pt" xmlns="http://www.w3.org/2000/svg" xmlns:xlink="http://www.w3.org/1999/xlink">
 <metadata>
  <rdf:RDF xmlns:cc="http://creativecommons.org/ns#" xmlns:dc="http://purl.org/dc/elements/1.1/" xmlns:rdf="http://www.w3.org/1999/02/22-rdf-syntax-ns#">
   <cc:Work>
    <dc:type rdf:resource="http://purl.org/dc/dcmitype/StillImage"/>
    <dc:date>2021-02-10T17:44:55.774429</dc:date>
    <dc:format>image/svg+xml</dc:format>
    <dc:creator>
     <cc:Agent>
      <dc:title>Matplotlib v3.3.3, https://matplotlib.org/</dc:title>
     </cc:Agent>
    </dc:creator>
   </cc:Work>
  </rdf:RDF>
 </metadata>
 <defs>
  <style type="text/css">*{stroke-linecap:butt;stroke-linejoin:round;}</style>
 </defs>
 <g id="figure_1">
  <g id="patch_1">
   <path d="M 0 345.6 
L 460.8 345.6 
L 460.8 0 
L 0 0 
z
" style="fill:#ffffff;"/>
  </g>
  <g id="axes_1">
   <g id="patch_2">
    <path d="M 57.6 307.584 
L 414.72 307.584 
L 414.72 41.472 
L 57.6 41.472 
z
" style="fill:#7d9051;"/>
   </g>
   <g id="matplotlib.axis_1">
    <g id="xtick_1">
     <g id="line2d_1">
      <defs>
       <path d="M 0 0 
L 0 3.5 
" id="mf19b497524" style="stroke:#000000;stroke-width:0.8;"/>
      </defs>
      <g>
       <use style="stroke:#000000;stroke-width:0.8;" x="85.707398" xlink:href="#mf19b497524" y="307.584"/>
      </g>
     </g>
     <g id="text_1">
      <!-- 10 -->
      <g transform="translate(79.344898 322.182437)scale(0.1 -0.1)">
       <defs>
        <path d="M 12.40625 8.296875 
L 28.515625 8.296875 
L 28.515625 63.921875 
L 10.984375 60.40625 
L 10.984375 69.390625 
L 28.421875 72.90625 
L 38.28125 72.90625 
L 38.28125 8.296875 
L 54.390625 8.296875 
L 54.390625 0 
L 12.40625 0 
z
" id="DejaVuSans-49"/>
        <path d="M 31.78125 66.40625 
Q 24.171875 66.40625 20.328125 58.90625 
Q 16.5 51.421875 16.5 36.375 
Q 16.5 21.390625 20.328125 13.890625 
Q 24.171875 6.390625 31.78125 6.390625 
Q 39.453125 6.390625 43.28125 13.890625 
Q 47.125 21.390625 47.125 36.375 
Q 47.125 51.421875 43.28125 58.90625 
Q 39.453125 66.40625 31.78125 66.40625 
z
M 31.78125 74.21875 
Q 44.046875 74.21875 50.515625 64.515625 
Q 56.984375 54.828125 56.984375 36.375 
Q 56.984375 17.96875 50.515625 8.265625 
Q 44.046875 -1.421875 31.78125 -1.421875 
Q 19.53125 -1.421875 13.0625 8.265625 
Q 6.59375 17.96875 6.59375 36.375 
Q 6.59375 54.828125 13.0625 64.515625 
Q 19.53125 74.21875 31.78125 74.21875 
z
" id="DejaVuSans-48"/>
       </defs>
       <use xlink:href="#DejaVuSans-49"/>
       <use x="63.623047" xlink:href="#DejaVuSans-48"/>
      </g>
     </g>
    </g>
    <g id="xtick_2">
     <g id="line2d_2">
      <g>
       <use style="stroke:#000000;stroke-width:0.8;" x="132.949874" xlink:href="#mf19b497524" y="307.584"/>
      </g>
     </g>
     <g id="text_2">
      <!-- 20 -->
      <g transform="translate(126.587374 322.182437)scale(0.1 -0.1)">
       <defs>
        <path d="M 19.1875 8.296875 
L 53.609375 8.296875 
L 53.609375 0 
L 7.328125 0 
L 7.328125 8.296875 
Q 12.9375 14.109375 22.625 23.890625 
Q 32.328125 33.6875 34.8125 36.53125 
Q 39.546875 41.84375 41.421875 45.53125 
Q 43.3125 49.21875 43.3125 52.78125 
Q 43.3125 58.59375 39.234375 62.25 
Q 35.15625 65.921875 28.609375 65.921875 
Q 23.96875 65.921875 18.8125 64.3125 
Q 13.671875 62.703125 7.8125 59.421875 
L 7.8125 69.390625 
Q 13.765625 71.78125 18.9375 73 
Q 24.125 74.21875 28.421875 74.21875 
Q 39.75 74.21875 46.484375 68.546875 
Q 53.21875 62.890625 53.21875 53.421875 
Q 53.21875 48.921875 51.53125 44.890625 
Q 49.859375 40.875 45.40625 35.40625 
Q 44.1875 33.984375 37.640625 27.21875 
Q 31.109375 20.453125 19.1875 8.296875 
z
" id="DejaVuSans-50"/>
       </defs>
       <use xlink:href="#DejaVuSans-50"/>
       <use x="63.623047" xlink:href="#DejaVuSans-48"/>
      </g>
     </g>
    </g>
    <g id="xtick_3">
     <g id="line2d_3">
      <g>
       <use style="stroke:#000000;stroke-width:0.8;" x="180.192349" xlink:href="#mf19b497524" y="307.584"/>
      </g>
     </g>
     <g id="text_3">
      <!-- 30 -->
      <g transform="translate(173.829849 322.182437)scale(0.1 -0.1)">
       <defs>
        <path d="M 40.578125 39.3125 
Q 47.65625 37.796875 51.625 33 
Q 55.609375 28.21875 55.609375 21.1875 
Q 55.609375 10.40625 48.1875 4.484375 
Q 40.765625 -1.421875 27.09375 -1.421875 
Q 22.515625 -1.421875 17.65625 -0.515625 
Q 12.796875 0.390625 7.625 2.203125 
L 7.625 11.71875 
Q 11.71875 9.328125 16.59375 8.109375 
Q 21.484375 6.890625 26.8125 6.890625 
Q 36.078125 6.890625 40.9375 10.546875 
Q 45.796875 14.203125 45.796875 21.1875 
Q 45.796875 27.640625 41.28125 31.265625 
Q 36.765625 34.90625 28.71875 34.90625 
L 20.21875 34.90625 
L 20.21875 43.015625 
L 29.109375 43.015625 
Q 36.375 43.015625 40.234375 45.921875 
Q 44.09375 48.828125 44.09375 54.296875 
Q 44.09375 59.90625 40.109375 62.90625 
Q 36.140625 65.921875 28.71875 65.921875 
Q 24.65625 65.921875 20.015625 65.03125 
Q 15.375 64.15625 9.8125 62.3125 
L 9.8125 71.09375 
Q 15.4375 72.65625 20.34375 73.4375 
Q 25.25 74.21875 29.59375 74.21875 
Q 40.828125 74.21875 47.359375 69.109375 
Q 53.90625 64.015625 53.90625 55.328125 
Q 53.90625 49.265625 50.4375 45.09375 
Q 46.96875 40.921875 40.578125 39.3125 
z
" id="DejaVuSans-51"/>
       </defs>
       <use xlink:href="#DejaVuSans-51"/>
       <use x="63.623047" xlink:href="#DejaVuSans-48"/>
      </g>
     </g>
    </g>
    <g id="xtick_4">
     <g id="line2d_4">
      <g>
       <use style="stroke:#000000;stroke-width:0.8;" x="227.434825" xlink:href="#mf19b497524" y="307.584"/>
      </g>
     </g>
     <g id="text_4">
      <!-- 40 -->
      <g transform="translate(221.072325 322.182437)scale(0.1 -0.1)">
       <defs>
        <path d="M 37.796875 64.3125 
L 12.890625 25.390625 
L 37.796875 25.390625 
z
M 35.203125 72.90625 
L 47.609375 72.90625 
L 47.609375 25.390625 
L 58.015625 25.390625 
L 58.015625 17.1875 
L 47.609375 17.1875 
L 47.609375 0 
L 37.796875 0 
L 37.796875 17.1875 
L 4.890625 17.1875 
L 4.890625 26.703125 
z
" id="DejaVuSans-52"/>
       </defs>
       <use xlink:href="#DejaVuSans-52"/>
       <use x="63.623047" xlink:href="#DejaVuSans-48"/>
      </g>
     </g>
    </g>
    <g id="xtick_5">
     <g id="line2d_5">
      <g>
       <use style="stroke:#000000;stroke-width:0.8;" x="274.677301" xlink:href="#mf19b497524" y="307.584"/>
      </g>
     </g>
     <g id="text_5">
      <!-- 50 -->
      <g transform="translate(268.314801 322.182437)scale(0.1 -0.1)">
       <defs>
        <path d="M 10.796875 72.90625 
L 49.515625 72.90625 
L 49.515625 64.59375 
L 19.828125 64.59375 
L 19.828125 46.734375 
Q 21.96875 47.46875 24.109375 47.828125 
Q 26.265625 48.1875 28.421875 48.1875 
Q 40.625 48.1875 47.75 41.5 
Q 54.890625 34.8125 54.890625 23.390625 
Q 54.890625 11.625 47.5625 5.09375 
Q 40.234375 -1.421875 26.90625 -1.421875 
Q 22.3125 -1.421875 17.546875 -0.640625 
Q 12.796875 0.140625 7.71875 1.703125 
L 7.71875 11.625 
Q 12.109375 9.234375 16.796875 8.0625 
Q 21.484375 6.890625 26.703125 6.890625 
Q 35.15625 6.890625 40.078125 11.328125 
Q 45.015625 15.765625 45.015625 23.390625 
Q 45.015625 31 40.078125 35.4375 
Q 35.15625 39.890625 26.703125 39.890625 
Q 22.75 39.890625 18.8125 39.015625 
Q 14.890625 38.140625 10.796875 36.28125 
z
" id="DejaVuSans-53"/>
       </defs>
       <use xlink:href="#DejaVuSans-53"/>
       <use x="63.623047" xlink:href="#DejaVuSans-48"/>
      </g>
     </g>
    </g>
    <g id="xtick_6">
     <g id="line2d_6">
      <g>
       <use style="stroke:#000000;stroke-width:0.8;" x="321.919777" xlink:href="#mf19b497524" y="307.584"/>
      </g>
     </g>
     <g id="text_6">
      <!-- 60 -->
      <g transform="translate(315.557277 322.182437)scale(0.1 -0.1)">
       <defs>
        <path d="M 33.015625 40.375 
Q 26.375 40.375 22.484375 35.828125 
Q 18.609375 31.296875 18.609375 23.390625 
Q 18.609375 15.53125 22.484375 10.953125 
Q 26.375 6.390625 33.015625 6.390625 
Q 39.65625 6.390625 43.53125 10.953125 
Q 47.40625 15.53125 47.40625 23.390625 
Q 47.40625 31.296875 43.53125 35.828125 
Q 39.65625 40.375 33.015625 40.375 
z
M 52.59375 71.296875 
L 52.59375 62.3125 
Q 48.875 64.0625 45.09375 64.984375 
Q 41.3125 65.921875 37.59375 65.921875 
Q 27.828125 65.921875 22.671875 59.328125 
Q 17.53125 52.734375 16.796875 39.40625 
Q 19.671875 43.65625 24.015625 45.921875 
Q 28.375 48.1875 33.59375 48.1875 
Q 44.578125 48.1875 50.953125 41.515625 
Q 57.328125 34.859375 57.328125 23.390625 
Q 57.328125 12.15625 50.6875 5.359375 
Q 44.046875 -1.421875 33.015625 -1.421875 
Q 20.359375 -1.421875 13.671875 8.265625 
Q 6.984375 17.96875 6.984375 36.375 
Q 6.984375 53.65625 15.1875 63.9375 
Q 23.390625 74.21875 37.203125 74.21875 
Q 40.921875 74.21875 44.703125 73.484375 
Q 48.484375 72.75 52.59375 71.296875 
z
" id="DejaVuSans-54"/>
       </defs>
       <use xlink:href="#DejaVuSans-54"/>
       <use x="63.623047" xlink:href="#DejaVuSans-48"/>
      </g>
     </g>
    </g>
    <g id="xtick_7">
     <g id="line2d_7">
      <g>
       <use style="stroke:#000000;stroke-width:0.8;" x="369.162253" xlink:href="#mf19b497524" y="307.584"/>
      </g>
     </g>
     <g id="text_7">
      <!-- 70 -->
      <g transform="translate(362.799753 322.182437)scale(0.1 -0.1)">
       <defs>
        <path d="M 8.203125 72.90625 
L 55.078125 72.90625 
L 55.078125 68.703125 
L 28.609375 0 
L 18.3125 0 
L 43.21875 64.59375 
L 8.203125 64.59375 
z
" id="DejaVuSans-55"/>
       </defs>
       <use xlink:href="#DejaVuSans-55"/>
       <use x="63.623047" xlink:href="#DejaVuSans-48"/>
      </g>
     </g>
    </g>
   </g>
   <g id="matplotlib.axis_2">
    <g id="ytick_1">
     <g id="line2d_8">
      <defs>
       <path d="M 0 0 
L -3.5 0 
" id="m0b2c6b57d3" style="stroke:#000000;stroke-width:0.8;"/>
      </defs>
      <g>
       <use style="stroke:#000000;stroke-width:0.8;" x="57.6" xlink:href="#m0b2c6b57d3" y="275.472298"/>
      </g>
     </g>
     <g id="text_8">
      <!-- 10 -->
      <g transform="translate(37.875 279.271517)scale(0.1 -0.1)">
       <use xlink:href="#DejaVuSans-49"/>
       <use x="63.623047" xlink:href="#DejaVuSans-48"/>
      </g>
     </g>
    </g>
    <g id="ytick_2">
     <g id="line2d_9">
      <g>
       <use style="stroke:#000000;stroke-width:0.8;" x="57.6" xlink:href="#m0b2c6b57d3" y="228.229823"/>
      </g>
     </g>
     <g id="text_9">
      <!-- 20 -->
      <g transform="translate(37.875 232.029041)scale(0.1 -0.1)">
       <use xlink:href="#DejaVuSans-50"/>
       <use x="63.623047" xlink:href="#DejaVuSans-48"/>
      </g>
     </g>
    </g>
    <g id="ytick_3">
     <g id="line2d_10">
      <g>
       <use style="stroke:#000000;stroke-width:0.8;" x="57.6" xlink:href="#m0b2c6b57d3" y="180.987347"/>
      </g>
     </g>
     <g id="text_10">
      <!-- 30 -->
      <g transform="translate(37.875 184.786566)scale(0.1 -0.1)">
       <use xlink:href="#DejaVuSans-51"/>
       <use x="63.623047" xlink:href="#DejaVuSans-48"/>
      </g>
     </g>
    </g>
    <g id="ytick_4">
     <g id="line2d_11">
      <g>
       <use style="stroke:#000000;stroke-width:0.8;" x="57.6" xlink:href="#m0b2c6b57d3" y="133.744871"/>
      </g>
     </g>
     <g id="text_11">
      <!-- 40 -->
      <g transform="translate(37.875 137.54409)scale(0.1 -0.1)">
       <use xlink:href="#DejaVuSans-52"/>
       <use x="63.623047" xlink:href="#DejaVuSans-48"/>
      </g>
     </g>
    </g>
    <g id="ytick_5">
     <g id="line2d_12">
      <g>
       <use style="stroke:#000000;stroke-width:0.8;" x="57.6" xlink:href="#m0b2c6b57d3" y="86.502395"/>
      </g>
     </g>
     <g id="text_12">
      <!-- 50 -->
      <g transform="translate(37.875 90.301614)scale(0.1 -0.1)">
       <use xlink:href="#DejaVuSans-53"/>
       <use x="63.623047" xlink:href="#DejaVuSans-48"/>
      </g>
     </g>
    </g>
   </g>
   <g id="line2d_13">
    <path clip-path="url(#p50eb17debd)" d="M 85.707398 275.472298 
L 90.478888 275.11798 
L 95.240929 274.839249 
L 99.998247 274.631382 
L 104.755564 274.480206 
L 109.503433 274.390446 
L 114.246577 274.352652 
L 118.989722 274.3621 
L 123.728142 274.409343 
L 128.461838 274.494379 
L 133.195534 274.612485 
L 137.92923 274.754213 
L 142.658202 274.919561 
L 147.387174 275.099083 
L 152.111422 275.288053 
L 156.840394 275.481747 
L 161.569365 275.675441 
L 166.293613 275.864411 
L 171.022585 276.043932 
L 175.751557 276.204557 
L 180.485253 276.346284 
L 185.218949 276.459666 
L 189.952645 276.544703 
L 194.691065 276.587221 
L 199.43421 276.591945 
L 204.182079 276.544703 
L 208.929947 276.450218 
L 213.68254 276.294317 
L 218.444582 276.077002 
L 223.206624 275.788823 
L 227.978114 275.425056 
L 232.754328 274.985701 
L 237.525818 274.461309 
L 242.297308 273.847157 
L 247.049901 273.13852 
L 251.788321 272.321225 
L 256.498396 271.399997 
L 261.180126 270.365387 
L 265.824061 269.207946 
L 270.430202 267.927675 
L 274.984377 266.519849 
L 279.481861 264.970296 
L 283.922653 263.279015 
L 288.292582 261.441283 
L 292.591648 259.447651 
L 296.815125 257.293394 
L 300.953566 254.973788 
L 305.002246 252.488834 
L 308.956441 249.84798 
L 312.816152 247.060673 
L 316.576653 244.122191 
L 320.23322 241.051431 
L 323.785855 237.848391 
L 327.229831 234.517796 
L 330.555701 231.07382 
L 333.76819 227.511737 
L 336.857848 223.850445 
L 339.824675 220.089944 
L 342.663948 216.234958 
L 345.375666 212.290211 
L 347.950381 208.265152 
L 350.392817 204.159781 
L 352.693526 199.978822 
L 354.857231 195.726999 
L 356.874485 191.404313 
L 358.745287 187.024935 
L 360.469637 182.579418 
L 362.042811 178.086659 
L 363.460086 173.537208 
L 364.72146 168.94524 
L 365.82221 164.306029 
L 366.767059 159.633748 
L 367.551284 154.933121 
L 368.179609 150.20415 
L 368.64731 145.451556 
L 368.95911 140.689515 
L 369.11501 135.918025 
L 369.110286 131.141811 
L 368.944937 126.370321 
L 368.623688 121.603555 
L 368.146539 116.850962 
L 367.51349 112.12199 
L 366.719817 107.411915 
L 365.770243 102.730186 
L 364.664769 98.090974 
L 363.398671 93.484833 
L 361.981396 88.930658 
L 360.403498 84.42845 
L 358.669699 79.978209 
L 356.78 75.598832 
L 354.7344 71.280869 
L 352.532901 67.043219 
L 350.175502 62.881157 
" style="fill:none;stroke:#fea952;stroke-linecap:square;"/>
   </g>
   <g id="line2d_14">
    <path clip-path="url(#p50eb17debd)" d="M 84.308009 256.627194 
L 89.374704 256.253277 
L 94.416029 255.960272 
L 99.398049 255.743926 
L 104.398371 255.586592 
L 109.352864 255.494055 
L 114.284221 255.455699 
L 119.178117 255.466049 
L 124.067554 255.515401 
L 128.933173 255.603268 
L 133.761059 255.723959 
L 138.589561 255.868763 
L 143.375054 256.036173 
L 148.14245 256.217192 
L 152.884776 256.406894 
L 157.613748 256.600588 
L 162.324641 256.79355 
L 167.010465 256.981022 
L 171.664071 257.157833 
L 176.317081 257.31603 
L 180.937745 257.454712 
L 185.558361 257.565724 
L 190.122202 257.648473 
L 194.709887 257.69024 
L 199.246189 257.69589 
L 203.806094 257.651453 
L 208.310399 257.563386 
L 212.821074 257.416973 
L 217.303102 257.214519 
L 221.77013 256.946511 
L 226.247123 256.607513 
L 230.68996 256.201808 
L 235.113433 255.718934 
L 239.510474 255.156791 
L 243.837928 254.516504 
L 248.161048 253.775629 
L 252.420752 252.948193 
L 256.6101 252.029326 
L 260.763508 251.00116 
L 264.849181 249.873633 
L 268.828761 248.65355 
L 272.756183 247.310695 
L 276.597122 245.859692 
L 280.342596 244.297947 
L 284.005356 242.613999 
L 287.57569 240.809187 
L 291.068582 238.868406 
L 294.507088 236.774258 
L 297.893117 234.528088 
L 301.18088 232.170519 
L 304.424012 229.651201 
L 307.579432 227.01655 
L 310.649139 224.264468 
L 313.636594 221.390719 
L 316.522643 218.418011 
L 319.326242 215.324597 
L 322.02211 212.145868 
L 324.6092 208.883448 
L 327.091492 205.53006 
L 329.456897 202.10743 
L 331.710181 198.603261 
L 333.836949 195.049377 
L 335.851849 191.40828 
L 337.733097 187.735737 
L 339.496695 183.980791 
L 341.127237 180.191154 
L 342.634432 176.334283 
L 344.001019 172.466163 
L 345.238069 168.531778 
L 346.334941 164.582654 
L 347.300152 160.560415 
L 348.127689 156.524064 
L 348.818918 152.444206 
L 349.373463 148.353445 
L 349.790696 144.216897 
L 350.072198 140.072418 
L 350.218029 135.936716 
L 350.224632 131.796264 
L 350.090715 127.640972 
L 349.821222 123.491277 
L 349.416625 119.358263 
L 348.8792 115.26197 
L 348.199924 111.16822 
L 347.387937 107.110491 
L 346.443592 103.099462 
L 345.355223 99.100014 
L 344.147941 95.180789 
L 342.795627 91.288417 
L 341.319071 87.464996 
L 339.702455 83.689178 
L 337.965308 79.992572 
L 336.090233 76.356377 
L 333.732833 72.194315 
" style="fill:none;stroke:#ffffff;stroke-linecap:square;"/>
   </g>
   <g id="line2d_15">
    <path clip-path="url(#p50eb17debd)" d="M 87.106787 294.317403 
L 91.583072 293.982683 
L 96.06583 293.718226 
L 100.598444 293.518839 
L 105.112757 293.373821 
L 109.654002 293.286836 
L 114.208934 293.249605 
L 118.801327 293.258151 
L 123.38873 293.303285 
L 127.990503 293.38549 
L 132.63001 293.501012 
L 137.2689 293.639662 
L 141.94135 293.80295 
L 146.631899 293.980974 
L 151.338068 294.169212 
L 156.067039 294.362906 
L 160.81409 294.557332 
L 165.576761 294.7478 
L 170.381099 294.930031 
L 175.186032 295.093083 
L 180.03276 295.237856 
L 184.879537 295.353608 
L 189.783087 295.440932 
L 194.672243 295.484202 
L 199.62223 295.488 
L 204.558064 295.437952 
L 209.549496 295.337049 
L 214.544007 295.171662 
L 219.586062 294.939485 
L 224.643117 294.631135 
L 229.709104 294.242599 
L 234.818696 293.769594 
L 239.938203 293.203685 
L 245.084142 292.537524 
L 250.261874 291.760536 
L 255.415594 290.866821 
L 260.57604 289.851801 
L 265.750151 288.701447 
L 270.884614 287.414732 
L 276.011224 285.981717 
L 281.139993 284.386148 
L 286.207539 282.629897 
L 291.248185 280.698339 
L 296.242569 278.584619 
L 301.17794 276.281302 
L 306.054561 273.777601 
L 310.83855 271.07917 
L 315.497405 268.20341 
L 320.019766 265.167872 
L 324.451423 261.950828 
L 328.729293 258.593182 
L 332.887009 255.086311 
L 336.92257 251.432313 
L 340.823068 247.644873 
L 344.58876 243.729629 
L 348.210137 239.698877 
L 351.693585 235.555022 
L 355.040151 231.29644 
L 358.236404 226.939856 
L 361.294435 222.472992 
L 364.190581 217.927044 
L 366.948685 213.270186 
L 369.535202 208.549364 
L 371.981365 203.718262 
L 374.252274 198.827834 
L 376.363336 193.858716 
L 378.304842 188.824553 
L 380.084604 183.707155 
L 381.682103 178.542639 
L 383.107979 173.307825 
L 384.344267 168.051642 
L 385.406429 162.743432 
L 386.28365 157.422037 
L 386.985755 152.054854 
L 387.503923 146.686216 
L 387.846022 141.306612 
L 388.011991 135.899333 
L 387.99594 130.487357 
L 387.799159 125.099669 
L 387.426155 119.715832 
L 386.876454 114.34366 
L 386.14778 108.982009 
L 385.239709 103.65561 
L 384.152549 98.349881 
L 382.885946 93.082487 
L 381.442118 87.869652 
L 379.814851 82.680528 
L 378.011368 77.568484 
L 376.020326 72.491423 
L 373.857544 67.508485 
L 371.503493 62.569167 
L 368.97557 57.730062 
L 366.61817 53.568 
" style="fill:none;stroke:#ffffff;stroke-linecap:square;"/>
   </g>
   <g id="patch_3">
    <path d="M 57.6 307.584 
L 57.6 41.472 
" style="fill:none;stroke:#000000;stroke-linecap:square;stroke-linejoin:miter;stroke-width:0.8;"/>
   </g>
   <g id="patch_4">
    <path d="M 414.72 307.584 
L 414.72 41.472 
" style="fill:none;stroke:#000000;stroke-linecap:square;stroke-linejoin:miter;stroke-width:0.8;"/>
   </g>
   <g id="patch_5">
    <path d="M 57.6 307.584 
L 414.72 307.584 
" style="fill:none;stroke:#000000;stroke-linecap:square;stroke-linejoin:miter;stroke-width:0.8;"/>
   </g>
   <g id="patch_6">
    <path d="M 57.6 41.472 
L 414.72 41.472 
" style="fill:none;stroke:#000000;stroke-linecap:square;stroke-linejoin:miter;stroke-width:0.8;"/>
   </g>
  </g>
 </g>
 <defs>
  <clipPath id="p50eb17debd">
   <rect height="266.112" width="357.12" x="57.6" y="41.472"/>
  </clipPath>
 </defs>
</svg>
