<?xml version="1.0" encoding="utf-8" standalone="no"?>
<!DOCTYPE svg PUBLIC "-//W3C//DTD SVG 1.1//EN"
  "http://www.w3.org/Graphics/SVG/1.1/DTD/svg11.dtd">
<!-- Created with matplotlib (https://matplotlib.org/) -->
<svg height="345.6pt" version="1.1" viewBox="0 0 460.8 345.6" width="460.8pt" xmlns="http://www.w3.org/2000/svg" xmlns:xlink="http://www.w3.org/1999/xlink">
 <metadata>
  <rdf:RDF xmlns:cc="http://creativecommons.org/ns#" xmlns:dc="http://purl.org/dc/elements/1.1/" xmlns:rdf="http://www.w3.org/1999/02/22-rdf-syntax-ns#">
   <cc:Work>
    <dc:type rdf:resource="http://purl.org/dc/dcmitype/StillImage"/>
    <dc:date>2021-03-15T18:03:41.068507</dc:date>
    <dc:format>image/svg+xml</dc:format>
    <dc:creator>
     <cc:Agent>
      <dc:title>Matplotlib v3.3.3, https://matplotlib.org/</dc:title>
     </cc:Agent>
    </dc:creator>
   </cc:Work>
  </rdf:RDF>
 </metadata>
 <defs>
  <style type="text/css">*{stroke-linecap:butt;stroke-linejoin:round;}</style>
 </defs>
 <g id="figure_1">
  <g id="patch_1">
   <path d="M 0 345.6 
L 460.8 345.6 
L 460.8 0 
L 0 0 
z
" style="fill:#ffffff;"/>
  </g>
  <g id="axes_1">
   <g id="patch_2">
    <path d="M 57.6 307.584 
L 414.72 307.584 
L 414.72 41.472 
L 57.6 41.472 
z
" style="fill:#7d9051;"/>
   </g>
   <g id="matplotlib.axis_1">
    <g id="xtick_1">
     <g id="line2d_1">
      <defs>
       <path d="M 0 0 
L 0 3.5 
" id="me24e1f6066" style="stroke:#000000;stroke-width:0.8;"/>
      </defs>
      <g>
       <use style="stroke:#000000;stroke-width:0.8;" x="108.048836" xlink:href="#me24e1f6066" y="307.584"/>
      </g>
     </g>
     <g id="text_1">
      <!-- 20 -->
      <g transform="translate(101.686336 322.182437)scale(0.1 -0.1)">
       <defs>
        <path d="M 19.1875 8.296875 
L 53.609375 8.296875 
L 53.609375 0 
L 7.328125 0 
L 7.328125 8.296875 
Q 12.9375 14.109375 22.625 23.890625 
Q 32.328125 33.6875 34.8125 36.53125 
Q 39.546875 41.84375 41.421875 45.53125 
Q 43.3125 49.21875 43.3125 52.78125 
Q 43.3125 58.59375 39.234375 62.25 
Q 35.15625 65.921875 28.609375 65.921875 
Q 23.96875 65.921875 18.8125 64.3125 
Q 13.671875 62.703125 7.8125 59.421875 
L 7.8125 69.390625 
Q 13.765625 71.78125 18.9375 73 
Q 24.125 74.21875 28.421875 74.21875 
Q 39.75 74.21875 46.484375 68.546875 
Q 53.21875 62.890625 53.21875 53.421875 
Q 53.21875 48.921875 51.53125 44.890625 
Q 49.859375 40.875 45.40625 35.40625 
Q 44.1875 33.984375 37.640625 27.21875 
Q 31.109375 20.453125 19.1875 8.296875 
z
" id="DejaVuSans-50"/>
        <path d="M 31.78125 66.40625 
Q 24.171875 66.40625 20.328125 58.90625 
Q 16.5 51.421875 16.5 36.375 
Q 16.5 21.390625 20.328125 13.890625 
Q 24.171875 6.390625 31.78125 6.390625 
Q 39.453125 6.390625 43.28125 13.890625 
Q 47.125 21.390625 47.125 36.375 
Q 47.125 51.421875 43.28125 58.90625 
Q 39.453125 66.40625 31.78125 66.40625 
z
M 31.78125 74.21875 
Q 44.046875 74.21875 50.515625 64.515625 
Q 56.984375 54.828125 56.984375 36.375 
Q 56.984375 17.96875 50.515625 8.265625 
Q 44.046875 -1.421875 31.78125 -1.421875 
Q 19.53125 -1.421875 13.0625 8.265625 
Q 6.59375 17.96875 6.59375 36.375 
Q 6.59375 54.828125 13.0625 64.515625 
Q 19.53125 74.21875 31.78125 74.21875 
z
" id="DejaVuSans-48"/>
       </defs>
       <use xlink:href="#DejaVuSans-50"/>
       <use x="63.623047" xlink:href="#DejaVuSans-48"/>
      </g>
     </g>
    </g>
    <g id="xtick_2">
     <g id="line2d_2">
      <g>
       <use style="stroke:#000000;stroke-width:0.8;" x="173.858738" xlink:href="#me24e1f6066" y="307.584"/>
      </g>
     </g>
     <g id="text_2">
      <!-- 40 -->
      <g transform="translate(167.496238 322.182437)scale(0.1 -0.1)">
       <defs>
        <path d="M 37.796875 64.3125 
L 12.890625 25.390625 
L 37.796875 25.390625 
z
M 35.203125 72.90625 
L 47.609375 72.90625 
L 47.609375 25.390625 
L 58.015625 25.390625 
L 58.015625 17.1875 
L 47.609375 17.1875 
L 47.609375 0 
L 37.796875 0 
L 37.796875 17.1875 
L 4.890625 17.1875 
L 4.890625 26.703125 
z
" id="DejaVuSans-52"/>
       </defs>
       <use xlink:href="#DejaVuSans-52"/>
       <use x="63.623047" xlink:href="#DejaVuSans-48"/>
      </g>
     </g>
    </g>
    <g id="xtick_3">
     <g id="line2d_3">
      <g>
       <use style="stroke:#000000;stroke-width:0.8;" x="239.66864" xlink:href="#me24e1f6066" y="307.584"/>
      </g>
     </g>
     <g id="text_3">
      <!-- 60 -->
      <g transform="translate(233.30614 322.182437)scale(0.1 -0.1)">
       <defs>
        <path d="M 33.015625 40.375 
Q 26.375 40.375 22.484375 35.828125 
Q 18.609375 31.296875 18.609375 23.390625 
Q 18.609375 15.53125 22.484375 10.953125 
Q 26.375 6.390625 33.015625 6.390625 
Q 39.65625 6.390625 43.53125 10.953125 
Q 47.40625 15.53125 47.40625 23.390625 
Q 47.40625 31.296875 43.53125 35.828125 
Q 39.65625 40.375 33.015625 40.375 
z
M 52.59375 71.296875 
L 52.59375 62.3125 
Q 48.875 64.0625 45.09375 64.984375 
Q 41.3125 65.921875 37.59375 65.921875 
Q 27.828125 65.921875 22.671875 59.328125 
Q 17.53125 52.734375 16.796875 39.40625 
Q 19.671875 43.65625 24.015625 45.921875 
Q 28.375 48.1875 33.59375 48.1875 
Q 44.578125 48.1875 50.953125 41.515625 
Q 57.328125 34.859375 57.328125 23.390625 
Q 57.328125 12.15625 50.6875 5.359375 
Q 44.046875 -1.421875 33.015625 -1.421875 
Q 20.359375 -1.421875 13.671875 8.265625 
Q 6.984375 17.96875 6.984375 36.375 
Q 6.984375 53.65625 15.1875 63.9375 
Q 23.390625 74.21875 37.203125 74.21875 
Q 40.921875 74.21875 44.703125 73.484375 
Q 48.484375 72.75 52.59375 71.296875 
z
" id="DejaVuSans-54"/>
       </defs>
       <use xlink:href="#DejaVuSans-54"/>
       <use x="63.623047" xlink:href="#DejaVuSans-48"/>
      </g>
     </g>
    </g>
    <g id="xtick_4">
     <g id="line2d_4">
      <g>
       <use style="stroke:#000000;stroke-width:0.8;" x="305.478542" xlink:href="#me24e1f6066" y="307.584"/>
      </g>
     </g>
     <g id="text_4">
      <!-- 80 -->
      <g transform="translate(299.116042 322.182437)scale(0.1 -0.1)">
       <defs>
        <path d="M 31.78125 34.625 
Q 24.75 34.625 20.71875 30.859375 
Q 16.703125 27.09375 16.703125 20.515625 
Q 16.703125 13.921875 20.71875 10.15625 
Q 24.75 6.390625 31.78125 6.390625 
Q 38.8125 6.390625 42.859375 10.171875 
Q 46.921875 13.96875 46.921875 20.515625 
Q 46.921875 27.09375 42.890625 30.859375 
Q 38.875 34.625 31.78125 34.625 
z
M 21.921875 38.8125 
Q 15.578125 40.375 12.03125 44.71875 
Q 8.5 49.078125 8.5 55.328125 
Q 8.5 64.0625 14.71875 69.140625 
Q 20.953125 74.21875 31.78125 74.21875 
Q 42.671875 74.21875 48.875 69.140625 
Q 55.078125 64.0625 55.078125 55.328125 
Q 55.078125 49.078125 51.53125 44.71875 
Q 48 40.375 41.703125 38.8125 
Q 48.828125 37.15625 52.796875 32.3125 
Q 56.78125 27.484375 56.78125 20.515625 
Q 56.78125 9.90625 50.3125 4.234375 
Q 43.84375 -1.421875 31.78125 -1.421875 
Q 19.734375 -1.421875 13.25 4.234375 
Q 6.78125 9.90625 6.78125 20.515625 
Q 6.78125 27.484375 10.78125 32.3125 
Q 14.796875 37.15625 21.921875 38.8125 
z
M 18.3125 54.390625 
Q 18.3125 48.734375 21.84375 45.5625 
Q 25.390625 42.390625 31.78125 42.390625 
Q 38.140625 42.390625 41.71875 45.5625 
Q 45.3125 48.734375 45.3125 54.390625 
Q 45.3125 60.0625 41.71875 63.234375 
Q 38.140625 66.40625 31.78125 66.40625 
Q 25.390625 66.40625 21.84375 63.234375 
Q 18.3125 60.0625 18.3125 54.390625 
z
" id="DejaVuSans-56"/>
       </defs>
       <use xlink:href="#DejaVuSans-56"/>
       <use x="63.623047" xlink:href="#DejaVuSans-48"/>
      </g>
     </g>
    </g>
    <g id="xtick_5">
     <g id="line2d_5">
      <g>
       <use style="stroke:#000000;stroke-width:0.8;" x="371.288444" xlink:href="#me24e1f6066" y="307.584"/>
      </g>
     </g>
     <g id="text_5">
      <!-- 100 -->
      <g transform="translate(361.744694 322.182437)scale(0.1 -0.1)">
       <defs>
        <path d="M 12.40625 8.296875 
L 28.515625 8.296875 
L 28.515625 63.921875 
L 10.984375 60.40625 
L 10.984375 69.390625 
L 28.421875 72.90625 
L 38.28125 72.90625 
L 38.28125 8.296875 
L 54.390625 8.296875 
L 54.390625 0 
L 12.40625 0 
z
" id="DejaVuSans-49"/>
       </defs>
       <use xlink:href="#DejaVuSans-49"/>
       <use x="63.623047" xlink:href="#DejaVuSans-48"/>
       <use x="127.246094" xlink:href="#DejaVuSans-48"/>
      </g>
     </g>
    </g>
   </g>
   <g id="matplotlib.axis_2">
    <g id="ytick_1">
     <g id="line2d_6">
      <defs>
       <path d="M 0 0 
L -3.5 0 
" id="m21895a8106" style="stroke:#000000;stroke-width:0.8;"/>
      </defs>
      <g>
       <use style="stroke:#000000;stroke-width:0.8;" x="57.6" xlink:href="#m21895a8106" y="289.468482"/>
      </g>
     </g>
     <g id="text_6">
      <!-- 0 -->
      <g transform="translate(44.2375 293.267701)scale(0.1 -0.1)">
       <use xlink:href="#DejaVuSans-48"/>
      </g>
     </g>
    </g>
    <g id="ytick_2">
     <g id="line2d_7">
      <g>
       <use style="stroke:#000000;stroke-width:0.8;" x="57.6" xlink:href="#m21895a8106" y="256.563531"/>
      </g>
     </g>
     <g id="text_7">
      <!-- 10 -->
      <g transform="translate(37.875 260.36275)scale(0.1 -0.1)">
       <use xlink:href="#DejaVuSans-49"/>
       <use x="63.623047" xlink:href="#DejaVuSans-48"/>
      </g>
     </g>
    </g>
    <g id="ytick_3">
     <g id="line2d_8">
      <g>
       <use style="stroke:#000000;stroke-width:0.8;" x="57.6" xlink:href="#m21895a8106" y="223.65858"/>
      </g>
     </g>
     <g id="text_8">
      <!-- 20 -->
      <g transform="translate(37.875 227.457799)scale(0.1 -0.1)">
       <use xlink:href="#DejaVuSans-50"/>
       <use x="63.623047" xlink:href="#DejaVuSans-48"/>
      </g>
     </g>
    </g>
    <g id="ytick_4">
     <g id="line2d_9">
      <g>
       <use style="stroke:#000000;stroke-width:0.8;" x="57.6" xlink:href="#m21895a8106" y="190.753629"/>
      </g>
     </g>
     <g id="text_9">
      <!-- 30 -->
      <g transform="translate(37.875 194.552848)scale(0.1 -0.1)">
       <defs>
        <path d="M 40.578125 39.3125 
Q 47.65625 37.796875 51.625 33 
Q 55.609375 28.21875 55.609375 21.1875 
Q 55.609375 10.40625 48.1875 4.484375 
Q 40.765625 -1.421875 27.09375 -1.421875 
Q 22.515625 -1.421875 17.65625 -0.515625 
Q 12.796875 0.390625 7.625 2.203125 
L 7.625 11.71875 
Q 11.71875 9.328125 16.59375 8.109375 
Q 21.484375 6.890625 26.8125 6.890625 
Q 36.078125 6.890625 40.9375 10.546875 
Q 45.796875 14.203125 45.796875 21.1875 
Q 45.796875 27.640625 41.28125 31.265625 
Q 36.765625 34.90625 28.71875 34.90625 
L 20.21875 34.90625 
L 20.21875 43.015625 
L 29.109375 43.015625 
Q 36.375 43.015625 40.234375 45.921875 
Q 44.09375 48.828125 44.09375 54.296875 
Q 44.09375 59.90625 40.109375 62.90625 
Q 36.140625 65.921875 28.71875 65.921875 
Q 24.65625 65.921875 20.015625 65.03125 
Q 15.375 64.15625 9.8125 62.3125 
L 9.8125 71.09375 
Q 15.4375 72.65625 20.34375 73.4375 
Q 25.25 74.21875 29.59375 74.21875 
Q 40.828125 74.21875 47.359375 69.109375 
Q 53.90625 64.015625 53.90625 55.328125 
Q 53.90625 49.265625 50.4375 45.09375 
Q 46.96875 40.921875 40.578125 39.3125 
z
" id="DejaVuSans-51"/>
       </defs>
       <use xlink:href="#DejaVuSans-51"/>
       <use x="63.623047" xlink:href="#DejaVuSans-48"/>
      </g>
     </g>
    </g>
    <g id="ytick_5">
     <g id="line2d_10">
      <g>
       <use style="stroke:#000000;stroke-width:0.8;" x="57.6" xlink:href="#m21895a8106" y="157.848678"/>
      </g>
     </g>
     <g id="text_10">
      <!-- 40 -->
      <g transform="translate(37.875 161.647897)scale(0.1 -0.1)">
       <use xlink:href="#DejaVuSans-52"/>
       <use x="63.623047" xlink:href="#DejaVuSans-48"/>
      </g>
     </g>
    </g>
    <g id="ytick_6">
     <g id="line2d_11">
      <g>
       <use style="stroke:#000000;stroke-width:0.8;" x="57.6" xlink:href="#m21895a8106" y="124.943727"/>
      </g>
     </g>
     <g id="text_11">
      <!-- 50 -->
      <g transform="translate(37.875 128.742946)scale(0.1 -0.1)">
       <defs>
        <path d="M 10.796875 72.90625 
L 49.515625 72.90625 
L 49.515625 64.59375 
L 19.828125 64.59375 
L 19.828125 46.734375 
Q 21.96875 47.46875 24.109375 47.828125 
Q 26.265625 48.1875 28.421875 48.1875 
Q 40.625 48.1875 47.75 41.5 
Q 54.890625 34.8125 54.890625 23.390625 
Q 54.890625 11.625 47.5625 5.09375 
Q 40.234375 -1.421875 26.90625 -1.421875 
Q 22.3125 -1.421875 17.546875 -0.640625 
Q 12.796875 0.140625 7.71875 1.703125 
L 7.71875 11.625 
Q 12.109375 9.234375 16.796875 8.0625 
Q 21.484375 6.890625 26.703125 6.890625 
Q 35.15625 6.890625 40.078125 11.328125 
Q 45.015625 15.765625 45.015625 23.390625 
Q 45.015625 31 40.078125 35.4375 
Q 35.15625 39.890625 26.703125 39.890625 
Q 22.75 39.890625 18.8125 39.015625 
Q 14.890625 38.140625 10.796875 36.28125 
z
" id="DejaVuSans-53"/>
       </defs>
       <use xlink:href="#DejaVuSans-53"/>
       <use x="63.623047" xlink:href="#DejaVuSans-48"/>
      </g>
     </g>
    </g>
    <g id="ytick_7">
     <g id="line2d_12">
      <g>
       <use style="stroke:#000000;stroke-width:0.8;" x="57.6" xlink:href="#m21895a8106" y="92.038776"/>
      </g>
     </g>
     <g id="text_12">
      <!-- 60 -->
      <g transform="translate(37.875 95.837995)scale(0.1 -0.1)">
       <use xlink:href="#DejaVuSans-54"/>
       <use x="63.623047" xlink:href="#DejaVuSans-48"/>
      </g>
     </g>
    </g>
    <g id="ytick_8">
     <g id="line2d_13">
      <g>
       <use style="stroke:#000000;stroke-width:0.8;" x="57.6" xlink:href="#m21895a8106" y="59.133825"/>
      </g>
     </g>
     <g id="text_13">
      <!-- 70 -->
      <g transform="translate(37.875 62.933044)scale(0.1 -0.1)">
       <defs>
        <path d="M 8.203125 72.90625 
L 55.078125 72.90625 
L 55.078125 68.703125 
L 28.609375 0 
L 18.3125 0 
L 43.21875 64.59375 
L 8.203125 64.59375 
z
" id="DejaVuSans-55"/>
       </defs>
       <use xlink:href="#DejaVuSans-55"/>
       <use x="63.623047" xlink:href="#DejaVuSans-48"/>
      </g>
     </g>
    </g>
   </g>
   <g id="line2d_14">
    <path clip-path="url(#pec2fb815a1)" d="M 75.143885 256.563531 
L 80.945028 256.076538 
L 87.035735 255.885689 
L 93.379809 255.921885 
L 103.264457 256.244353 
L 120.361869 256.909033 
L 127.294942 257.014329 
L 134.211563 256.918905 
L 141.072245 256.55366 
L 147.834213 255.849494 
L 151.164194 255.349338 
L 154.451398 254.734016 
L 157.689246 254.003526 
L 160.877735 253.138126 
L 164.010287 252.137815 
L 167.077028 250.992723 
L 170.074669 249.686396 
L 172.996629 248.218836 
L 175.842907 246.580169 
L 178.600342 244.773687 
L 181.262352 242.812552 
L 183.825648 240.709926 
L 186.277067 238.47568 
L 188.613318 236.126266 
L 190.831112 233.671557 
L 192.920577 231.111552 
L 194.881712 228.456122 
L 196.707936 225.705268 
L 198.399251 222.865571 
L 199.949074 219.943611 
L 201.350825 216.94597 
L 202.594632 213.879229 
L 203.670624 210.756549 
L 204.57551 207.581221 
L 205.299419 204.359826 
L 205.865384 201.108817 
L 206.283277 197.831484 
L 206.747237 191.240622 
L 206.83279 184.653051 
L 206.562969 161.596552 
L 206.734075 158.279733 
L 207.020348 154.953042 
L 207.425079 151.626352 
L 207.958139 148.306242 
L 208.612948 144.999295 
L 209.396086 141.721962 
L 210.310843 138.480824 
L 211.360511 135.285753 
L 212.541799 132.14333 
L 213.861287 129.070008 
L 215.322267 126.069076 
L 216.924738 123.150407 
L 218.671991 120.327162 
L 220.564026 117.609214 
L 222.607423 114.999851 
L 224.798893 112.515527 
L 227.128564 110.156242 
L 229.586563 107.921996 
L 232.166312 105.82266 
L 234.851356 103.858235 
L 237.638405 102.0353 
L 240.514298 100.353857 
L 243.469162 98.817196 
L 246.496418 97.431898 
L 249.582902 96.201252 
L 252.725325 95.12197 
L 255.913815 94.203922 
L 259.145081 93.440527 
L 262.409252 92.841657 
L 265.699747 92.407312 
L 269.009985 92.140781 
L 272.333385 92.038776 
L 275.663366 92.111167 
L 278.990057 92.348083 
L 282.300295 92.756104 
L 285.584209 93.32865 
L 288.831928 94.065721 
L 292.030289 94.964026 
L 295.172712 96.020275 
L 298.242744 97.237758 
L 301.230513 98.613185 
L 304.13273 100.139975 
L 306.949394 101.814837 
L 309.680505 103.634481 
L 312.332644 105.589035 
L 314.905811 107.671918 
L 317.400006 109.879841 
L 319.81852 112.209511 
L 322.167934 114.651058 
L 324.444956 117.197902 
L 326.652878 119.84675 
L 330.874584 125.42743 
L 334.852792 131.34374 
L 338.600666 137.549614 
L 342.141239 143.998984 
L 345.487672 150.642494 
L 348.65971 157.437366 
L 351.677094 164.334244 
L 355.944866 174.771694 
L 359.96256 185.17624 
L 371.097596 214.652495 
L 374.703978 223.369017 
L 377.132364 228.739105 
L 379.600235 233.697881 
L 382.124045 238.202568 
L 384.720245 242.203811 
L 387.41187 245.65883 
L 388.797169 247.165877 
L 388.797169 247.165877 
" style="fill:none;stroke:#fea952;stroke-linecap:square;"/>
   </g>
   <g id="line2d_15">
    <path clip-path="url(#pec2fb815a1)" d="M 73.832727 243.46702 
L 80.384535 242.926497 
L 87.021967 242.723716 
L 93.712749 242.764116 
L 103.829489 243.094506 
L 120.636798 243.749924 
L 127.219875 243.852563 
L 133.658393 243.768554 
L 139.903525 243.44367 
L 145.879243 242.83351 
L 151.554732 241.894738 
L 154.241631 241.301098 
L 156.87393 240.599893 
L 159.40621 239.807357 
L 161.818834 238.926691 
L 164.16727 237.924579 
L 166.429569 236.812195 
L 168.630113 235.570476 
L 170.793561 234.1769 
L 172.914891 232.636226 
L 174.959601 230.982083 
L 176.944035 229.194934 
L 178.847039 227.302576 
L 180.634382 225.349032 
L 182.333027 223.292246 
L 183.916177 221.176371 
L 185.399723 218.970133 
L 186.771633 216.698219 
L 188.02626 214.368288 
L 189.15384 211.999124 
L 190.150676 209.591375 
L 191.012593 207.149338 
L 191.733782 204.695439 
L 192.332467 202.102422 
L 192.809116 199.444012 
L 193.170729 196.691832 
L 193.58903 190.925456 
L 193.672293 184.850656 
L 193.418468 160.918463 
L 193.620559 157.15127 
L 193.954708 153.363454 
L 194.429532 149.539852 
L 195.046838 145.749676 
L 195.811378 141.940285 
L 196.728945 138.14687 
L 197.80638 134.372767 
L 199.04028 130.654378 
L 200.447381 126.950759 
L 202.027229 123.30869 
L 203.784865 119.734561 
L 205.732731 116.223885 
L 207.869653 112.807375 
L 210.201383 109.494205 
L 212.736928 106.292897 
L 215.433374 103.267567 
L 218.275506 100.416575 
L 221.278875 97.713175 
L 224.394651 95.200089 
L 227.646718 92.843202 
L 230.995151 90.672866 
L 234.441573 88.67654 
L 237.992329 86.84882 
L 241.621668 85.20592 
L 245.307487 83.753017 
L 249.083599 82.473825 
L 252.887572 81.394567 
L 256.769926 80.494626 
L 260.686812 79.792867 
L 264.643404 79.287789 
L 268.606194 78.984996 
L 272.619448 78.879905 
L 276.59835 78.982438 
L 280.600223 79.284963 
L 284.560967 79.789721 
L 288.497247 80.493077 
L 292.390945 81.394055 
L 296.223813 82.487966 
L 300.024752 83.785267 
L 303.746687 85.281825 
L 307.358481 86.964763 
L 310.859758 88.826937 
L 314.247301 90.861377 
L 317.489076 93.039013 
L 320.613762 95.358649 
L 323.629961 97.816619 
L 326.531191 100.400432 
L 329.302671 103.083252 
L 331.9801 105.878424 
L 334.55524 108.770572 
L 337.032939 111.754033 
L 339.40535 114.805989 
L 343.914747 121.148755 
L 348.097317 127.736742 
L 351.998427 134.527688 
L 355.643921 141.47829 
L 359.065091 148.544979 
L 362.273535 155.666203 
L 365.316823 162.830232 
L 369.594197 173.522532 
L 374.86539 187.431916 
L 382.148699 206.783702 
L 385.606167 215.381456 
L 387.863677 220.583999 
L 390.077597 225.278701 
L 392.241515 229.411078 
L 394.310454 232.891226 
L 396.225275 235.65144 
L 397.101974 236.751552 
L 398.487273 238.258598 
L 398.487273 238.258598 
" style="fill:none;stroke:#ffffff;stroke-linecap:square;"/>
   </g>
   <g id="line2d_16">
    <path clip-path="url(#pec2fb815a1)" d="M 76.455044 269.660042 
L 81.505522 269.226579 
L 87.049502 269.047662 
L 93.04687 269.079653 
L 102.699424 269.3942 
L 120.08694 270.068142 
L 127.370009 270.176095 
L 134.764733 270.069256 
L 142.240965 269.663649 
L 146.026651 269.320305 
L 149.789183 268.865477 
L 153.585886 268.286615 
L 157.348065 267.573294 
L 161.13686 266.705954 
L 164.881541 265.676358 
L 168.614363 264.468274 
L 172.335222 263.058755 
L 175.982069 261.448214 
L 179.563689 259.625476 
L 183.055701 257.589862 
L 186.407122 255.370475 
L 189.609814 252.988878 
L 192.691696 250.437769 
L 195.610099 247.756425 
L 198.379598 244.949956 
L 201.027843 241.994081 
L 203.508126 238.930857 
L 205.847246 235.735873 
L 208.01615 232.440403 
L 210.026869 229.032922 
L 211.871889 225.518934 
L 213.54781 221.892816 
L 215.038588 218.167083 
L 216.328655 214.36376 
L 217.417239 210.467003 
L 218.266371 206.617231 
L 218.921653 202.773623 
L 219.395825 198.971136 
L 219.712459 195.245999 
L 219.988163 187.96987 
L 219.941616 181.049734 
L 219.642226 165.217726 
L 219.847591 159.408196 
L 220.420626 153.712852 
L 221.414517 148.058304 
L 222.063226 145.297053 
L 222.815306 142.588881 
L 223.680742 139.917128 
L 224.636216 137.335901 
L 225.695346 134.831326 
L 226.859669 132.403591 
L 228.116745 130.076929 
L 229.47433 127.84695 
L 230.926669 125.724222 
L 232.477919 123.706805 
L 234.164412 121.763488 
L 235.981621 119.895909 
L 237.894252 118.130817 
L 239.937972 116.445231 
L 242.055993 114.873267 
L 244.281659 113.397734 
L 246.587023 112.031174 
L 248.945995 110.785572 
L 251.371168 109.657876 
L 253.858317 108.649487 
L 256.367051 107.770115 
L 258.940058 107.013277 
L 261.520236 106.386429 
L 264.131692 105.890447 
L 266.75609 105.526834 
L 269.413777 105.296567 
L 272.047323 105.197647 
L 274.728383 105.239896 
L 277.379891 105.411202 
L 280.039623 105.722487 
L 282.671171 106.164223 
L 285.27291 106.737387 
L 287.836765 107.440087 
L 290.320672 108.255284 
L 292.738801 109.193692 
L 295.102545 110.261607 
L 297.405702 111.453013 
L 299.651486 112.768297 
L 301.871934 114.229949 
L 304.051525 115.819421 
L 306.181661 117.527218 
L 308.268821 119.359249 
L 312.355767 123.423693 
L 316.272818 127.939468 
L 320.052467 132.918726 
L 323.66392 138.275324 
L 327.12806 144.00074 
L 330.437264 150.020172 
L 333.604026 156.300822 
L 336.630242 162.77868 
L 339.537469 169.420229 
L 343.693347 179.581893 
L 347.64298 189.809345 
L 358.887243 219.566253 
L 362.669253 228.698474 
L 365.287016 234.477176 
L 368.028448 239.969361 
L 370.95073 245.159203 
L 372.510803 247.646772 
L 374.142129 250.035871 
L 375.880517 252.355983 
L 379.107065 256.073156 
L 379.107065 256.073156 
" style="fill:none;stroke:#ffffff;stroke-linecap:square;"/>
   </g>
   <g id="patch_3">
    <path d="M 57.6 307.584 
L 57.6 41.472 
" style="fill:none;stroke:#000000;stroke-linecap:square;stroke-linejoin:miter;stroke-width:0.8;"/>
   </g>
   <g id="patch_4">
    <path d="M 414.72 307.584 
L 414.72 41.472 
" style="fill:none;stroke:#000000;stroke-linecap:square;stroke-linejoin:miter;stroke-width:0.8;"/>
   </g>
   <g id="patch_5">
    <path d="M 57.6 307.584 
L 414.72 307.584 
" style="fill:none;stroke:#000000;stroke-linecap:square;stroke-linejoin:miter;stroke-width:0.8;"/>
   </g>
   <g id="patch_6">
    <path d="M 57.6 41.472 
L 414.72 41.472 
" style="fill:none;stroke:#000000;stroke-linecap:square;stroke-linejoin:miter;stroke-width:0.8;"/>
   </g>
  </g>
 </g>
 <defs>
  <clipPath id="pec2fb815a1">
   <rect height="266.112" width="357.12" x="57.6" y="41.472"/>
  </clipPath>
 </defs>
</svg>
