<?xml version="1.0" encoding="utf-8" standalone="no"?>
<!DOCTYPE svg PUBLIC "-//W3C//DTD SVG 1.1//EN"
  "http://www.w3.org/Graphics/SVG/1.1/DTD/svg11.dtd">
<!-- Created with matplotlib (https://matplotlib.org/) -->
<svg height="345.6pt" version="1.1" viewBox="0 0 460.8 345.6" width="460.8pt" xmlns="http://www.w3.org/2000/svg" xmlns:xlink="http://www.w3.org/1999/xlink">
 <metadata>
  <rdf:RDF xmlns:cc="http://creativecommons.org/ns#" xmlns:dc="http://purl.org/dc/elements/1.1/" xmlns:rdf="http://www.w3.org/1999/02/22-rdf-syntax-ns#">
   <cc:Work>
    <dc:type rdf:resource="http://purl.org/dc/dcmitype/StillImage"/>
    <dc:date>2021-03-15T17:52:52.901297</dc:date>
    <dc:format>image/svg+xml</dc:format>
    <dc:creator>
     <cc:Agent>
      <dc:title>Matplotlib v3.3.3, https://matplotlib.org/</dc:title>
     </cc:Agent>
    </dc:creator>
   </cc:Work>
  </rdf:RDF>
 </metadata>
 <defs>
  <style type="text/css">*{stroke-linecap:butt;stroke-linejoin:round;}</style>
 </defs>
 <g id="figure_1">
  <g id="patch_1">
   <path d="M 0 345.6 
L 460.8 345.6 
L 460.8 0 
L 0 0 
z
" style="fill:#ffffff;"/>
  </g>
  <g id="axes_1">
   <g id="patch_2">
    <path d="M 57.6 307.584 
L 414.72 307.584 
L 414.72 41.472 
L 57.6 41.472 
z
" style="fill:#7d9051;"/>
   </g>
   <g id="matplotlib.axis_1">
    <g id="xtick_1">
     <g id="line2d_1">
      <defs>
       <path d="M 0 0 
L 0 3.5 
" id="mec48e14d7e" style="stroke:#000000;stroke-width:0.8;"/>
      </defs>
      <g>
       <use style="stroke:#000000;stroke-width:0.8;" x="108.562111" xlink:href="#mec48e14d7e" y="307.584"/>
      </g>
     </g>
     <g id="text_1">
      <!-- 20 -->
      <g transform="translate(102.199611 322.182437)scale(0.1 -0.1)">
       <defs>
        <path d="M 19.1875 8.296875 
L 53.609375 8.296875 
L 53.609375 0 
L 7.328125 0 
L 7.328125 8.296875 
Q 12.9375 14.109375 22.625 23.890625 
Q 32.328125 33.6875 34.8125 36.53125 
Q 39.546875 41.84375 41.421875 45.53125 
Q 43.3125 49.21875 43.3125 52.78125 
Q 43.3125 58.59375 39.234375 62.25 
Q 35.15625 65.921875 28.609375 65.921875 
Q 23.96875 65.921875 18.8125 64.3125 
Q 13.671875 62.703125 7.8125 59.421875 
L 7.8125 69.390625 
Q 13.765625 71.78125 18.9375 73 
Q 24.125 74.21875 28.421875 74.21875 
Q 39.75 74.21875 46.484375 68.546875 
Q 53.21875 62.890625 53.21875 53.421875 
Q 53.21875 48.921875 51.53125 44.890625 
Q 49.859375 40.875 45.40625 35.40625 
Q 44.1875 33.984375 37.640625 27.21875 
Q 31.109375 20.453125 19.1875 8.296875 
z
" id="DejaVuSans-50"/>
        <path d="M 31.78125 66.40625 
Q 24.171875 66.40625 20.328125 58.90625 
Q 16.5 51.421875 16.5 36.375 
Q 16.5 21.390625 20.328125 13.890625 
Q 24.171875 6.390625 31.78125 6.390625 
Q 39.453125 6.390625 43.28125 13.890625 
Q 47.125 21.390625 47.125 36.375 
Q 47.125 51.421875 43.28125 58.90625 
Q 39.453125 66.40625 31.78125 66.40625 
z
M 31.78125 74.21875 
Q 44.046875 74.21875 50.515625 64.515625 
Q 56.984375 54.828125 56.984375 36.375 
Q 56.984375 17.96875 50.515625 8.265625 
Q 44.046875 -1.421875 31.78125 -1.421875 
Q 19.53125 -1.421875 13.0625 8.265625 
Q 6.59375 17.96875 6.59375 36.375 
Q 6.59375 54.828125 13.0625 64.515625 
Q 19.53125 74.21875 31.78125 74.21875 
z
" id="DejaVuSans-48"/>
       </defs>
       <use xlink:href="#DejaVuSans-50"/>
       <use x="63.623047" xlink:href="#DejaVuSans-48"/>
      </g>
     </g>
    </g>
    <g id="xtick_2">
     <g id="line2d_2">
      <g>
       <use style="stroke:#000000;stroke-width:0.8;" x="175.37084" xlink:href="#mec48e14d7e" y="307.584"/>
      </g>
     </g>
     <g id="text_2">
      <!-- 40 -->
      <g transform="translate(169.00834 322.182437)scale(0.1 -0.1)">
       <defs>
        <path d="M 37.796875 64.3125 
L 12.890625 25.390625 
L 37.796875 25.390625 
z
M 35.203125 72.90625 
L 47.609375 72.90625 
L 47.609375 25.390625 
L 58.015625 25.390625 
L 58.015625 17.1875 
L 47.609375 17.1875 
L 47.609375 0 
L 37.796875 0 
L 37.796875 17.1875 
L 4.890625 17.1875 
L 4.890625 26.703125 
z
" id="DejaVuSans-52"/>
       </defs>
       <use xlink:href="#DejaVuSans-52"/>
       <use x="63.623047" xlink:href="#DejaVuSans-48"/>
      </g>
     </g>
    </g>
    <g id="xtick_3">
     <g id="line2d_3">
      <g>
       <use style="stroke:#000000;stroke-width:0.8;" x="242.179568" xlink:href="#mec48e14d7e" y="307.584"/>
      </g>
     </g>
     <g id="text_3">
      <!-- 60 -->
      <g transform="translate(235.817068 322.182437)scale(0.1 -0.1)">
       <defs>
        <path d="M 33.015625 40.375 
Q 26.375 40.375 22.484375 35.828125 
Q 18.609375 31.296875 18.609375 23.390625 
Q 18.609375 15.53125 22.484375 10.953125 
Q 26.375 6.390625 33.015625 6.390625 
Q 39.65625 6.390625 43.53125 10.953125 
Q 47.40625 15.53125 47.40625 23.390625 
Q 47.40625 31.296875 43.53125 35.828125 
Q 39.65625 40.375 33.015625 40.375 
z
M 52.59375 71.296875 
L 52.59375 62.3125 
Q 48.875 64.0625 45.09375 64.984375 
Q 41.3125 65.921875 37.59375 65.921875 
Q 27.828125 65.921875 22.671875 59.328125 
Q 17.53125 52.734375 16.796875 39.40625 
Q 19.671875 43.65625 24.015625 45.921875 
Q 28.375 48.1875 33.59375 48.1875 
Q 44.578125 48.1875 50.953125 41.515625 
Q 57.328125 34.859375 57.328125 23.390625 
Q 57.328125 12.15625 50.6875 5.359375 
Q 44.046875 -1.421875 33.015625 -1.421875 
Q 20.359375 -1.421875 13.671875 8.265625 
Q 6.984375 17.96875 6.984375 36.375 
Q 6.984375 53.65625 15.1875 63.9375 
Q 23.390625 74.21875 37.203125 74.21875 
Q 40.921875 74.21875 44.703125 73.484375 
Q 48.484375 72.75 52.59375 71.296875 
z
" id="DejaVuSans-54"/>
       </defs>
       <use xlink:href="#DejaVuSans-54"/>
       <use x="63.623047" xlink:href="#DejaVuSans-48"/>
      </g>
     </g>
    </g>
    <g id="xtick_4">
     <g id="line2d_4">
      <g>
       <use style="stroke:#000000;stroke-width:0.8;" x="308.988297" xlink:href="#mec48e14d7e" y="307.584"/>
      </g>
     </g>
     <g id="text_4">
      <!-- 80 -->
      <g transform="translate(302.625797 322.182437)scale(0.1 -0.1)">
       <defs>
        <path d="M 31.78125 34.625 
Q 24.75 34.625 20.71875 30.859375 
Q 16.703125 27.09375 16.703125 20.515625 
Q 16.703125 13.921875 20.71875 10.15625 
Q 24.75 6.390625 31.78125 6.390625 
Q 38.8125 6.390625 42.859375 10.171875 
Q 46.921875 13.96875 46.921875 20.515625 
Q 46.921875 27.09375 42.890625 30.859375 
Q 38.875 34.625 31.78125 34.625 
z
M 21.921875 38.8125 
Q 15.578125 40.375 12.03125 44.71875 
Q 8.5 49.078125 8.5 55.328125 
Q 8.5 64.0625 14.71875 69.140625 
Q 20.953125 74.21875 31.78125 74.21875 
Q 42.671875 74.21875 48.875 69.140625 
Q 55.078125 64.0625 55.078125 55.328125 
Q 55.078125 49.078125 51.53125 44.71875 
Q 48 40.375 41.703125 38.8125 
Q 48.828125 37.15625 52.796875 32.3125 
Q 56.78125 27.484375 56.78125 20.515625 
Q 56.78125 9.90625 50.3125 4.234375 
Q 43.84375 -1.421875 31.78125 -1.421875 
Q 19.734375 -1.421875 13.25 4.234375 
Q 6.78125 9.90625 6.78125 20.515625 
Q 6.78125 27.484375 10.78125 32.3125 
Q 14.796875 37.15625 21.921875 38.8125 
z
M 18.3125 54.390625 
Q 18.3125 48.734375 21.84375 45.5625 
Q 25.390625 42.390625 31.78125 42.390625 
Q 38.140625 42.390625 41.71875 45.5625 
Q 45.3125 48.734375 45.3125 54.390625 
Q 45.3125 60.0625 41.71875 63.234375 
Q 38.140625 66.40625 31.78125 66.40625 
Q 25.390625 66.40625 21.84375 63.234375 
Q 18.3125 60.0625 18.3125 54.390625 
z
" id="DejaVuSans-56"/>
       </defs>
       <use xlink:href="#DejaVuSans-56"/>
       <use x="63.623047" xlink:href="#DejaVuSans-48"/>
      </g>
     </g>
    </g>
    <g id="xtick_5">
     <g id="line2d_5">
      <g>
       <use style="stroke:#000000;stroke-width:0.8;" x="375.797026" xlink:href="#mec48e14d7e" y="307.584"/>
      </g>
     </g>
     <g id="text_5">
      <!-- 100 -->
      <g transform="translate(366.253276 322.182437)scale(0.1 -0.1)">
       <defs>
        <path d="M 12.40625 8.296875 
L 28.515625 8.296875 
L 28.515625 63.921875 
L 10.984375 60.40625 
L 10.984375 69.390625 
L 28.421875 72.90625 
L 38.28125 72.90625 
L 38.28125 8.296875 
L 54.390625 8.296875 
L 54.390625 0 
L 12.40625 0 
z
" id="DejaVuSans-49"/>
       </defs>
       <use xlink:href="#DejaVuSans-49"/>
       <use x="63.623047" xlink:href="#DejaVuSans-48"/>
       <use x="127.246094" xlink:href="#DejaVuSans-48"/>
      </g>
     </g>
    </g>
   </g>
   <g id="matplotlib.axis_2">
    <g id="ytick_1">
     <g id="line2d_6">
      <defs>
       <path d="M 0 0 
L -3.5 0 
" id="macb3b25fa7" style="stroke:#000000;stroke-width:0.8;"/>
      </defs>
      <g>
       <use style="stroke:#000000;stroke-width:0.8;" x="57.6" xlink:href="#macb3b25fa7" y="291.210412"/>
      </g>
     </g>
     <g id="text_6">
      <!-- 0 -->
      <g transform="translate(44.2375 295.009631)scale(0.1 -0.1)">
       <use xlink:href="#DejaVuSans-48"/>
      </g>
     </g>
    </g>
    <g id="ytick_2">
     <g id="line2d_7">
      <g>
       <use style="stroke:#000000;stroke-width:0.8;" x="57.6" xlink:href="#macb3b25fa7" y="257.806047"/>
      </g>
     </g>
     <g id="text_7">
      <!-- 10 -->
      <g transform="translate(37.875 261.605266)scale(0.1 -0.1)">
       <use xlink:href="#DejaVuSans-49"/>
       <use x="63.623047" xlink:href="#DejaVuSans-48"/>
      </g>
     </g>
    </g>
    <g id="ytick_3">
     <g id="line2d_8">
      <g>
       <use style="stroke:#000000;stroke-width:0.8;" x="57.6" xlink:href="#macb3b25fa7" y="224.401683"/>
      </g>
     </g>
     <g id="text_8">
      <!-- 20 -->
      <g transform="translate(37.875 228.200902)scale(0.1 -0.1)">
       <use xlink:href="#DejaVuSans-50"/>
       <use x="63.623047" xlink:href="#DejaVuSans-48"/>
      </g>
     </g>
    </g>
    <g id="ytick_4">
     <g id="line2d_9">
      <g>
       <use style="stroke:#000000;stroke-width:0.8;" x="57.6" xlink:href="#macb3b25fa7" y="190.997319"/>
      </g>
     </g>
     <g id="text_9">
      <!-- 30 -->
      <g transform="translate(37.875 194.796538)scale(0.1 -0.1)">
       <defs>
        <path d="M 40.578125 39.3125 
Q 47.65625 37.796875 51.625 33 
Q 55.609375 28.21875 55.609375 21.1875 
Q 55.609375 10.40625 48.1875 4.484375 
Q 40.765625 -1.421875 27.09375 -1.421875 
Q 22.515625 -1.421875 17.65625 -0.515625 
Q 12.796875 0.390625 7.625 2.203125 
L 7.625 11.71875 
Q 11.71875 9.328125 16.59375 8.109375 
Q 21.484375 6.890625 26.8125 6.890625 
Q 36.078125 6.890625 40.9375 10.546875 
Q 45.796875 14.203125 45.796875 21.1875 
Q 45.796875 27.640625 41.28125 31.265625 
Q 36.765625 34.90625 28.71875 34.90625 
L 20.21875 34.90625 
L 20.21875 43.015625 
L 29.109375 43.015625 
Q 36.375 43.015625 40.234375 45.921875 
Q 44.09375 48.828125 44.09375 54.296875 
Q 44.09375 59.90625 40.109375 62.90625 
Q 36.140625 65.921875 28.71875 65.921875 
Q 24.65625 65.921875 20.015625 65.03125 
Q 15.375 64.15625 9.8125 62.3125 
L 9.8125 71.09375 
Q 15.4375 72.65625 20.34375 73.4375 
Q 25.25 74.21875 29.59375 74.21875 
Q 40.828125 74.21875 47.359375 69.109375 
Q 53.90625 64.015625 53.90625 55.328125 
Q 53.90625 49.265625 50.4375 45.09375 
Q 46.96875 40.921875 40.578125 39.3125 
z
" id="DejaVuSans-51"/>
       </defs>
       <use xlink:href="#DejaVuSans-51"/>
       <use x="63.623047" xlink:href="#DejaVuSans-48"/>
      </g>
     </g>
    </g>
    <g id="ytick_5">
     <g id="line2d_10">
      <g>
       <use style="stroke:#000000;stroke-width:0.8;" x="57.6" xlink:href="#macb3b25fa7" y="157.592954"/>
      </g>
     </g>
     <g id="text_10">
      <!-- 40 -->
      <g transform="translate(37.875 161.392173)scale(0.1 -0.1)">
       <use xlink:href="#DejaVuSans-52"/>
       <use x="63.623047" xlink:href="#DejaVuSans-48"/>
      </g>
     </g>
    </g>
    <g id="ytick_6">
     <g id="line2d_11">
      <g>
       <use style="stroke:#000000;stroke-width:0.8;" x="57.6" xlink:href="#macb3b25fa7" y="124.18859"/>
      </g>
     </g>
     <g id="text_11">
      <!-- 50 -->
      <g transform="translate(37.875 127.987809)scale(0.1 -0.1)">
       <defs>
        <path d="M 10.796875 72.90625 
L 49.515625 72.90625 
L 49.515625 64.59375 
L 19.828125 64.59375 
L 19.828125 46.734375 
Q 21.96875 47.46875 24.109375 47.828125 
Q 26.265625 48.1875 28.421875 48.1875 
Q 40.625 48.1875 47.75 41.5 
Q 54.890625 34.8125 54.890625 23.390625 
Q 54.890625 11.625 47.5625 5.09375 
Q 40.234375 -1.421875 26.90625 -1.421875 
Q 22.3125 -1.421875 17.546875 -0.640625 
Q 12.796875 0.140625 7.71875 1.703125 
L 7.71875 11.625 
Q 12.109375 9.234375 16.796875 8.0625 
Q 21.484375 6.890625 26.703125 6.890625 
Q 35.15625 6.890625 40.078125 11.328125 
Q 45.015625 15.765625 45.015625 23.390625 
Q 45.015625 31 40.078125 35.4375 
Q 35.15625 39.890625 26.703125 39.890625 
Q 22.75 39.890625 18.8125 39.015625 
Q 14.890625 38.140625 10.796875 36.28125 
z
" id="DejaVuSans-53"/>
       </defs>
       <use xlink:href="#DejaVuSans-53"/>
       <use x="63.623047" xlink:href="#DejaVuSans-48"/>
      </g>
     </g>
    </g>
    <g id="ytick_7">
     <g id="line2d_12">
      <g>
       <use style="stroke:#000000;stroke-width:0.8;" x="57.6" xlink:href="#macb3b25fa7" y="90.784226"/>
      </g>
     </g>
     <g id="text_12">
      <!-- 60 -->
      <g transform="translate(37.875 94.583445)scale(0.1 -0.1)">
       <use xlink:href="#DejaVuSans-54"/>
       <use x="63.623047" xlink:href="#DejaVuSans-48"/>
      </g>
     </g>
    </g>
    <g id="ytick_8">
     <g id="line2d_13">
      <g>
       <use style="stroke:#000000;stroke-width:0.8;" x="57.6" xlink:href="#macb3b25fa7" y="57.379861"/>
      </g>
     </g>
     <g id="text_13">
      <!-- 70 -->
      <g transform="translate(37.875 61.17908)scale(0.1 -0.1)">
       <defs>
        <path d="M 8.203125 72.90625 
L 55.078125 72.90625 
L 55.078125 68.703125 
L 28.609375 0 
L 18.3125 0 
L 43.21875 64.59375 
L 8.203125 64.59375 
z
" id="DejaVuSans-55"/>
       </defs>
       <use xlink:href="#DejaVuSans-55"/>
       <use x="63.623047" xlink:href="#DejaVuSans-48"/>
      </g>
     </g>
    </g>
   </g>
   <g id="line2d_14">
    <path clip-path="url(#p3c1fae4e34)" d="M 75.157747 257.806047 
L 81.07366 257.311663 
L 87.290212 257.117918 
L 93.760637 257.158003 
L 103.842074 257.488706 
L 121.285834 258.163474 
L 128.354197 258.263687 
L 135.405858 258.156793 
L 142.400732 257.772643 
L 149.288712 257.037747 
L 152.679255 256.513299 
L 156.026372 255.875275 
L 159.326724 255.113656 
L 162.570287 254.218419 
L 165.753723 253.179543 
L 168.873691 251.990348 
L 171.920169 250.640811 
L 174.893157 249.120913 
L 177.782635 247.423971 
L 180.57858 245.556667 
L 183.280993 243.535703 
L 185.876512 241.3711 
L 188.361797 239.07622 
L 190.723486 236.661085 
L 192.964918 234.139055 
L 195.072734 231.513472 
L 197.050272 228.784336 
L 198.887512 225.965007 
L 200.587794 223.052147 
L 202.141097 220.059116 
L 203.54074 216.985914 
L 204.773361 213.849244 
L 205.838961 210.652447 
L 206.720836 207.402202 
L 207.422327 204.111872 
L 207.960138 200.791478 
L 208.354309 197.444361 
L 208.785225 190.720063 
L 208.862055 183.999104 
L 208.634906 160.479092 
L 209.082524 153.721389 
L 209.476696 150.344207 
L 209.987783 146.980388 
L 210.629146 143.639951 
L 211.404128 140.329579 
L 212.316067 137.062632 
L 213.374985 133.849132 
L 214.587564 130.69576 
L 215.957142 127.612537 
L 217.493743 124.612826 
L 219.197366 121.699965 
L 221.06467 118.883977 
L 223.088974 116.171543 
L 225.256917 113.569343 
L 227.561819 111.077377 
L 229.996997 108.709008 
L 232.54909 106.464234 
L 235.211418 104.353079 
L 237.973959 102.378881 
L 240.826692 100.548321 
L 243.766276 98.864742 
L 246.78269 97.328141 
L 249.872594 95.9452 
L 253.029306 94.71926 
L 256.239465 93.653661 
L 259.506412 92.751743 
L 262.813444 92.016847 
L 266.160562 91.452313 
L 269.534402 91.058142 
L 272.928286 90.834332 
L 276.32551 90.784226 
L 279.719393 90.904481 
L 283.099915 91.195099 
L 286.450373 91.65942 
L 289.760745 92.294103 
L 293.024351 93.102489 
L 296.22783 94.077896 
L 299.374521 95.220325 
L 302.457744 96.523096 
L 305.484179 97.979526 
L 308.450487 99.586276 
L 311.356667 101.333324 
L 314.206059 103.21733 
L 316.998664 105.234954 
L 319.7278 107.376174 
L 322.40349 109.640989 
L 325.019052 112.01604 
L 327.577826 114.504665 
L 332.521672 119.779214 
L 337.235028 125.421211 
L 341.724574 131.387231 
L 345.990312 137.627166 
L 350.028899 144.097591 
L 353.850358 150.755081 
L 357.448008 157.549529 
L 360.82853 164.440849 
L 363.991923 171.382276 
L 366.941529 178.327043 
L 369.674006 185.228385 
L 372.199376 192.042875 
L 375.589919 202.004057 
L 378.516141 211.510939 
L 380.978043 220.413202 
L 382.988985 228.557186 
L 384.545629 235.792571 
L 385.337312 240.031585 
L 385.337312 240.031585 
" style="fill:none;stroke:#fea952;stroke-linecap:square;"/>
   </g>
   <g id="line2d_15">
    <path clip-path="url(#p3c1fae4e34)" d="M 73.832727 244.510162 
L 80.507746 243.961907 
L 87.276279 243.756179 
L 94.097268 243.800498 
L 104.412347 244.139135 
L 121.551246 244.804365 
L 128.265711 244.902235 
L 134.821048 244.807852 
L 141.16786 244.467897 
L 147.24621 243.833035 
L 153.021857 242.855708 
L 155.771748 242.233501 
L 158.42499 241.515948 
L 160.994781 240.694003 
L 163.461891 239.77361 
L 165.837913 238.743651 
L 168.126635 237.599176 
L 170.361684 236.312457 
L 172.576354 234.85617 
L 174.723116 233.274174 
L 176.811862 231.554361 
L 178.8085 229.734338 
L 180.736063 227.784845 
L 182.54539 225.774268 
L 184.25288 223.673382 
L 185.855694 221.489291 
L 187.347839 219.22912 
L 188.728049 216.897256 
L 189.981089 214.521025 
L 191.104758 212.098931 
L 192.097296 209.623889 
L 192.943455 207.153563 
L 193.652783 204.61612 
L 194.232479 201.975488 
L 194.690093 199.228739 
L 195.278292 193.447699 
L 195.496976 187.346301 
L 195.45675 180.934683 
L 195.183028 167.173605 
L 195.290129 159.805913 
L 195.488236 156.009703 
L 195.81087 152.172373 
L 196.266556 148.337106 
L 196.865714 144.460951 
L 197.619158 140.594223 
L 198.534381 136.737104 
L 199.625566 132.880835 
L 200.903518 129.05343 
L 202.376355 125.271497 
L 204.064871 121.520728 
L 205.959832 117.867075 
L 208.061465 114.31566 
L 210.356313 110.892272 
L 212.823117 107.618858 
L 215.44774 104.496511 
L 218.245946 101.498715 
L 221.172223 98.676081 
L 224.247006 95.994676 
L 227.442574 93.481956 
L 230.757814 91.133282 
L 234.186061 88.95357 
L 237.701232 86.958798 
L 241.324183 85.132201 
L 245.035404 83.489766 
L 248.819789 82.037926 
L 252.683658 80.773735 
L 256.607843 79.70818 
L 260.591203 78.841192 
L 264.610033 78.180836 
L 268.655173 77.725355 
L 272.731231 77.47404 
L 276.79866 77.43086 
L 280.863859 77.591839 
L 284.934113 77.959845 
L 288.966336 78.536685 
L 292.973325 79.324308 
L 296.91637 80.32014 
L 300.78769 81.518281 
L 304.575136 82.912204 
L 308.25188 84.482986 
L 311.848154 86.23065 
L 315.334725 88.134485 
L 318.726161 90.187617 
L 322.031127 92.386607 
L 325.246449 94.722566 
L 328.360428 97.177449 
L 331.385912 99.748955 
L 334.335021 102.437472 
L 337.191995 105.225441 
L 339.956688 108.098083 
L 342.661502 111.077485 
L 347.81114 117.255301 
L 352.66983 123.723183 
L 357.255372 130.44144 
L 361.557802 137.343285 
L 365.612379 144.415433 
L 369.40144 151.578622 
L 372.951892 158.822991 
L 376.259229 166.086103 
L 379.335172 173.333662 
L 382.176951 180.515361 
L 384.803531 187.607616 
L 387.202462 194.548337 
L 390.404842 204.603203 
L 393.122802 214.090194 
L 395.36854 222.853892 
L 397.165075 230.812124 
L 398.487273 237.662031 
L 398.487273 237.662031 
" style="fill:none;stroke:#ffffff;stroke-linecap:square;"/>
   </g>
   <g id="line2d_16">
    <path clip-path="url(#p3c1fae4e34)" d="M 76.482766 271.101933 
L 81.639573 270.661419 
L 87.304145 270.479656 
L 93.424007 270.515507 
L 103.271802 270.838277 
L 121.020421 271.522584 
L 128.442683 271.62514 
L 135.990669 271.505735 
L 143.633604 271.077389 
L 151.331214 270.24246 
L 155.181205 269.638713 
L 159.030888 268.894843 
L 162.881699 267.993811 
L 166.715585 266.920889 
L 170.512666 265.665083 
L 174.285491 264.207085 
L 178.002425 262.537971 
L 181.65968 260.642649 
L 185.203586 258.535485 
L 188.580806 256.257164 
L 191.838871 253.797232 
L 194.941163 251.187839 
L 197.915094 248.418103 
L 200.710909 245.537324 
L 203.384447 242.503843 
L 205.892588 239.353562 
L 208.24485 236.07938 
L 210.427186 232.700895 
L 212.44754 229.207037 
L 214.301106 225.597206 
L 215.976722 221.872898 
L 217.449426 218.074599 
L 218.734466 214.15133 
L 219.788888 210.188284 
L 220.612176 206.248256 
L 221.230183 202.354218 
L 221.672952 198.516737 
L 221.971477 194.720065 
L 222.220454 187.372866 
L 222.173828 180.349249 
L 221.912703 164.167324 
L 222.1223 158.194117 
L 222.686836 152.351309 
L 223.639134 146.68568 
L 224.273874 143.922054 
L 225.006568 141.244429 
L 225.846452 138.644834 
L 226.798772 136.120024 
L 227.849413 133.704347 
L 229.027654 131.358576 
L 230.333267 129.08427 
L 231.773027 126.875682 
L 233.354832 124.724228 
L 235.066095 122.642175 
L 236.877691 120.656039 
L 238.82177 118.741935 
L 240.851174 116.933793 
L 242.980262 115.224202 
L 245.190104 113.62448 
L 247.467322 112.143073 
L 249.831319 110.770685 
L 252.241197 109.524081 
L 254.709783 108.400634 
L 257.238823 107.400593 
L 259.795273 106.533586 
L 262.404982 105.795306 
L 265.035686 105.192502 
L 267.711091 104.72379 
L 270.413631 104.390928 
L 273.12534 104.194625 
L 275.852359 104.137592 
L 278.574927 104.217124 
L 281.265717 104.430354 
L 283.934409 104.782155 
L 286.548165 105.263898 
L 289.132333 105.884837 
L 291.66797 106.637511 
L 294.173906 107.528447 
L 296.663607 108.563205 
L 299.120205 109.728402 
L 301.566249 111.038067 
L 303.987172 112.479032 
L 306.380991 114.048053 
L 308.750879 115.747341 
L 311.095172 117.574898 
L 315.703082 121.594607 
L 320.196257 126.088923 
L 324.540577 130.989284 
L 328.735265 136.269644 
L 332.771816 141.89099 
L 336.634354 147.801026 
L 340.319651 153.953715 
L 343.819852 160.304152 
L 347.126712 166.784772 
L 350.241657 173.371903 
L 353.162429 180.006415 
L 355.881508 186.627893 
L 358.4083 193.221229 
L 361.819454 202.905841 
L 364.783519 212.198783 
L 367.296682 220.957255 
L 369.366788 229.022675 
L 370.98418 236.169898 
L 372.187352 242.40114 
L 372.187352 242.40114 
" style="fill:none;stroke:#ffffff;stroke-linecap:square;"/>
   </g>
   <g id="patch_3">
    <path d="M 57.6 307.584 
L 57.6 41.472 
" style="fill:none;stroke:#000000;stroke-linecap:square;stroke-linejoin:miter;stroke-width:0.8;"/>
   </g>
   <g id="patch_4">
    <path d="M 414.72 307.584 
L 414.72 41.472 
" style="fill:none;stroke:#000000;stroke-linecap:square;stroke-linejoin:miter;stroke-width:0.8;"/>
   </g>
   <g id="patch_5">
    <path d="M 57.6 307.584 
L 414.72 307.584 
" style="fill:none;stroke:#000000;stroke-linecap:square;stroke-linejoin:miter;stroke-width:0.8;"/>
   </g>
   <g id="patch_6">
    <path d="M 57.6 41.472 
L 414.72 41.472 
" style="fill:none;stroke:#000000;stroke-linecap:square;stroke-linejoin:miter;stroke-width:0.8;"/>
   </g>
  </g>
 </g>
 <defs>
  <clipPath id="p3c1fae4e34">
   <rect height="266.112" width="357.12" x="57.6" y="41.472"/>
  </clipPath>
 </defs>
</svg>
