<?xml version="1.0" encoding="utf-8" standalone="no"?>
<!DOCTYPE svg PUBLIC "-//W3C//DTD SVG 1.1//EN"
  "http://www.w3.org/Graphics/SVG/1.1/DTD/svg11.dtd">
<!-- Created with matplotlib (https://matplotlib.org/) -->
<svg height="345.6pt" version="1.1" viewBox="0 0 460.8 345.6" width="460.8pt" xmlns="http://www.w3.org/2000/svg" xmlns:xlink="http://www.w3.org/1999/xlink">
 <metadata>
  <rdf:RDF xmlns:cc="http://creativecommons.org/ns#" xmlns:dc="http://purl.org/dc/elements/1.1/" xmlns:rdf="http://www.w3.org/1999/02/22-rdf-syntax-ns#">
   <cc:Work>
    <dc:type rdf:resource="http://purl.org/dc/dcmitype/StillImage"/>
    <dc:date>2021-02-10T13:48:34.285361</dc:date>
    <dc:format>image/svg+xml</dc:format>
    <dc:creator>
     <cc:Agent>
      <dc:title>Matplotlib v3.3.3, https://matplotlib.org/</dc:title>
     </cc:Agent>
    </dc:creator>
   </cc:Work>
  </rdf:RDF>
 </metadata>
 <defs>
  <style type="text/css">*{stroke-linecap:butt;stroke-linejoin:round;}</style>
 </defs>
 <g id="figure_1">
  <g id="patch_1">
   <path d="M 0 345.6 
L 460.8 345.6 
L 460.8 0 
L 0 0 
z
" style="fill:#ffffff;"/>
  </g>
  <g id="axes_1">
   <g id="patch_2">
    <path d="M 57.6 307.584 
L 414.72 307.584 
L 414.72 41.472 
L 57.6 41.472 
z
" style="fill:#7d9051;"/>
   </g>
   <g id="matplotlib.axis_1">
    <g id="xtick_1">
     <g id="line2d_1">
      <defs>
       <path d="M 0 0 
L 0 3.5 
" id="mbbb578d5e3" style="stroke:#000000;stroke-width:0.8;"/>
      </defs>
      <g>
       <use style="stroke:#000000;stroke-width:0.8;" x="62.708018" xlink:href="#mbbb578d5e3" y="307.584"/>
      </g>
     </g>
     <g id="text_1">
      <!-- 0 -->
      <g transform="translate(59.526768 322.182437)scale(0.1 -0.1)">
       <defs>
        <path d="M 31.78125 66.40625 
Q 24.171875 66.40625 20.328125 58.90625 
Q 16.5 51.421875 16.5 36.375 
Q 16.5 21.390625 20.328125 13.890625 
Q 24.171875 6.390625 31.78125 6.390625 
Q 39.453125 6.390625 43.28125 13.890625 
Q 47.125 21.390625 47.125 36.375 
Q 47.125 51.421875 43.28125 58.90625 
Q 39.453125 66.40625 31.78125 66.40625 
z
M 31.78125 74.21875 
Q 44.046875 74.21875 50.515625 64.515625 
Q 56.984375 54.828125 56.984375 36.375 
Q 56.984375 17.96875 50.515625 8.265625 
Q 44.046875 -1.421875 31.78125 -1.421875 
Q 19.53125 -1.421875 13.0625 8.265625 
Q 6.59375 17.96875 6.59375 36.375 
Q 6.59375 54.828125 13.0625 64.515625 
Q 19.53125 74.21875 31.78125 74.21875 
z
" id="DejaVuSans-48"/>
       </defs>
       <use xlink:href="#DejaVuSans-48"/>
      </g>
     </g>
    </g>
    <g id="xtick_2">
     <g id="line2d_2">
      <g>
       <use style="stroke:#000000;stroke-width:0.8;" x="111.748679" xlink:href="#mbbb578d5e3" y="307.584"/>
      </g>
     </g>
     <g id="text_2">
      <!-- 20 -->
      <g transform="translate(105.386179 322.182437)scale(0.1 -0.1)">
       <defs>
        <path d="M 19.1875 8.296875 
L 53.609375 8.296875 
L 53.609375 0 
L 7.328125 0 
L 7.328125 8.296875 
Q 12.9375 14.109375 22.625 23.890625 
Q 32.328125 33.6875 34.8125 36.53125 
Q 39.546875 41.84375 41.421875 45.53125 
Q 43.3125 49.21875 43.3125 52.78125 
Q 43.3125 58.59375 39.234375 62.25 
Q 35.15625 65.921875 28.609375 65.921875 
Q 23.96875 65.921875 18.8125 64.3125 
Q 13.671875 62.703125 7.8125 59.421875 
L 7.8125 69.390625 
Q 13.765625 71.78125 18.9375 73 
Q 24.125 74.21875 28.421875 74.21875 
Q 39.75 74.21875 46.484375 68.546875 
Q 53.21875 62.890625 53.21875 53.421875 
Q 53.21875 48.921875 51.53125 44.890625 
Q 49.859375 40.875 45.40625 35.40625 
Q 44.1875 33.984375 37.640625 27.21875 
Q 31.109375 20.453125 19.1875 8.296875 
z
" id="DejaVuSans-50"/>
       </defs>
       <use xlink:href="#DejaVuSans-50"/>
       <use x="63.623047" xlink:href="#DejaVuSans-48"/>
      </g>
     </g>
    </g>
    <g id="xtick_3">
     <g id="line2d_3">
      <g>
       <use style="stroke:#000000;stroke-width:0.8;" x="160.78934" xlink:href="#mbbb578d5e3" y="307.584"/>
      </g>
     </g>
     <g id="text_3">
      <!-- 40 -->
      <g transform="translate(154.42684 322.182437)scale(0.1 -0.1)">
       <defs>
        <path d="M 37.796875 64.3125 
L 12.890625 25.390625 
L 37.796875 25.390625 
z
M 35.203125 72.90625 
L 47.609375 72.90625 
L 47.609375 25.390625 
L 58.015625 25.390625 
L 58.015625 17.1875 
L 47.609375 17.1875 
L 47.609375 0 
L 37.796875 0 
L 37.796875 17.1875 
L 4.890625 17.1875 
L 4.890625 26.703125 
z
" id="DejaVuSans-52"/>
       </defs>
       <use xlink:href="#DejaVuSans-52"/>
       <use x="63.623047" xlink:href="#DejaVuSans-48"/>
      </g>
     </g>
    </g>
    <g id="xtick_4">
     <g id="line2d_4">
      <g>
       <use style="stroke:#000000;stroke-width:0.8;" x="209.830001" xlink:href="#mbbb578d5e3" y="307.584"/>
      </g>
     </g>
     <g id="text_4">
      <!-- 60 -->
      <g transform="translate(203.467501 322.182437)scale(0.1 -0.1)">
       <defs>
        <path d="M 33.015625 40.375 
Q 26.375 40.375 22.484375 35.828125 
Q 18.609375 31.296875 18.609375 23.390625 
Q 18.609375 15.53125 22.484375 10.953125 
Q 26.375 6.390625 33.015625 6.390625 
Q 39.65625 6.390625 43.53125 10.953125 
Q 47.40625 15.53125 47.40625 23.390625 
Q 47.40625 31.296875 43.53125 35.828125 
Q 39.65625 40.375 33.015625 40.375 
z
M 52.59375 71.296875 
L 52.59375 62.3125 
Q 48.875 64.0625 45.09375 64.984375 
Q 41.3125 65.921875 37.59375 65.921875 
Q 27.828125 65.921875 22.671875 59.328125 
Q 17.53125 52.734375 16.796875 39.40625 
Q 19.671875 43.65625 24.015625 45.921875 
Q 28.375 48.1875 33.59375 48.1875 
Q 44.578125 48.1875 50.953125 41.515625 
Q 57.328125 34.859375 57.328125 23.390625 
Q 57.328125 12.15625 50.6875 5.359375 
Q 44.046875 -1.421875 33.015625 -1.421875 
Q 20.359375 -1.421875 13.671875 8.265625 
Q 6.984375 17.96875 6.984375 36.375 
Q 6.984375 53.65625 15.1875 63.9375 
Q 23.390625 74.21875 37.203125 74.21875 
Q 40.921875 74.21875 44.703125 73.484375 
Q 48.484375 72.75 52.59375 71.296875 
z
" id="DejaVuSans-54"/>
       </defs>
       <use xlink:href="#DejaVuSans-54"/>
       <use x="63.623047" xlink:href="#DejaVuSans-48"/>
      </g>
     </g>
    </g>
    <g id="xtick_5">
     <g id="line2d_5">
      <g>
       <use style="stroke:#000000;stroke-width:0.8;" x="258.870663" xlink:href="#mbbb578d5e3" y="307.584"/>
      </g>
     </g>
     <g id="text_5">
      <!-- 80 -->
      <g transform="translate(252.508163 322.182437)scale(0.1 -0.1)">
       <defs>
        <path d="M 31.78125 34.625 
Q 24.75 34.625 20.71875 30.859375 
Q 16.703125 27.09375 16.703125 20.515625 
Q 16.703125 13.921875 20.71875 10.15625 
Q 24.75 6.390625 31.78125 6.390625 
Q 38.8125 6.390625 42.859375 10.171875 
Q 46.921875 13.96875 46.921875 20.515625 
Q 46.921875 27.09375 42.890625 30.859375 
Q 38.875 34.625 31.78125 34.625 
z
M 21.921875 38.8125 
Q 15.578125 40.375 12.03125 44.71875 
Q 8.5 49.078125 8.5 55.328125 
Q 8.5 64.0625 14.71875 69.140625 
Q 20.953125 74.21875 31.78125 74.21875 
Q 42.671875 74.21875 48.875 69.140625 
Q 55.078125 64.0625 55.078125 55.328125 
Q 55.078125 49.078125 51.53125 44.71875 
Q 48 40.375 41.703125 38.8125 
Q 48.828125 37.15625 52.796875 32.3125 
Q 56.78125 27.484375 56.78125 20.515625 
Q 56.78125 9.90625 50.3125 4.234375 
Q 43.84375 -1.421875 31.78125 -1.421875 
Q 19.734375 -1.421875 13.25 4.234375 
Q 6.78125 9.90625 6.78125 20.515625 
Q 6.78125 27.484375 10.78125 32.3125 
Q 14.796875 37.15625 21.921875 38.8125 
z
M 18.3125 54.390625 
Q 18.3125 48.734375 21.84375 45.5625 
Q 25.390625 42.390625 31.78125 42.390625 
Q 38.140625 42.390625 41.71875 45.5625 
Q 45.3125 48.734375 45.3125 54.390625 
Q 45.3125 60.0625 41.71875 63.234375 
Q 38.140625 66.40625 31.78125 66.40625 
Q 25.390625 66.40625 21.84375 63.234375 
Q 18.3125 60.0625 18.3125 54.390625 
z
" id="DejaVuSans-56"/>
       </defs>
       <use xlink:href="#DejaVuSans-56"/>
       <use x="63.623047" xlink:href="#DejaVuSans-48"/>
      </g>
     </g>
    </g>
    <g id="xtick_6">
     <g id="line2d_6">
      <g>
       <use style="stroke:#000000;stroke-width:0.8;" x="307.911324" xlink:href="#mbbb578d5e3" y="307.584"/>
      </g>
     </g>
     <g id="text_6">
      <!-- 100 -->
      <g transform="translate(298.367574 322.182437)scale(0.1 -0.1)">
       <defs>
        <path d="M 12.40625 8.296875 
L 28.515625 8.296875 
L 28.515625 63.921875 
L 10.984375 60.40625 
L 10.984375 69.390625 
L 28.421875 72.90625 
L 38.28125 72.90625 
L 38.28125 8.296875 
L 54.390625 8.296875 
L 54.390625 0 
L 12.40625 0 
z
" id="DejaVuSans-49"/>
       </defs>
       <use xlink:href="#DejaVuSans-49"/>
       <use x="63.623047" xlink:href="#DejaVuSans-48"/>
       <use x="127.246094" xlink:href="#DejaVuSans-48"/>
      </g>
     </g>
    </g>
    <g id="xtick_7">
     <g id="line2d_7">
      <g>
       <use style="stroke:#000000;stroke-width:0.8;" x="356.951985" xlink:href="#mbbb578d5e3" y="307.584"/>
      </g>
     </g>
     <g id="text_7">
      <!-- 120 -->
      <g transform="translate(347.408235 322.182437)scale(0.1 -0.1)">
       <use xlink:href="#DejaVuSans-49"/>
       <use x="63.623047" xlink:href="#DejaVuSans-50"/>
       <use x="127.246094" xlink:href="#DejaVuSans-48"/>
      </g>
     </g>
    </g>
    <g id="xtick_8">
     <g id="line2d_8">
      <g>
       <use style="stroke:#000000;stroke-width:0.8;" x="405.992647" xlink:href="#mbbb578d5e3" y="307.584"/>
      </g>
     </g>
     <g id="text_8">
      <!-- 140 -->
      <g transform="translate(396.448897 322.182437)scale(0.1 -0.1)">
       <use xlink:href="#DejaVuSans-49"/>
       <use x="63.623047" xlink:href="#DejaVuSans-52"/>
       <use x="127.246094" xlink:href="#DejaVuSans-48"/>
      </g>
     </g>
    </g>
   </g>
   <g id="matplotlib.axis_2">
    <g id="ytick_1">
     <g id="line2d_9">
      <defs>
       <path d="M 0 0 
L -3.5 0 
" id="m176a5f7907" style="stroke:#000000;stroke-width:0.8;"/>
      </defs>
      <g>
       <use style="stroke:#000000;stroke-width:0.8;" x="57.6" xlink:href="#m176a5f7907" y="258.697725"/>
      </g>
     </g>
     <g id="text_9">
      <!-- 40 -->
      <g transform="translate(37.875 262.496944)scale(0.1 -0.1)">
       <use xlink:href="#DejaVuSans-52"/>
       <use x="63.623047" xlink:href="#DejaVuSans-48"/>
      </g>
     </g>
    </g>
    <g id="ytick_2">
     <g id="line2d_10">
      <g>
       <use style="stroke:#000000;stroke-width:0.8;" x="57.6" xlink:href="#m176a5f7907" y="209.657064"/>
      </g>
     </g>
     <g id="text_10">
      <!-- 60 -->
      <g transform="translate(37.875 213.456283)scale(0.1 -0.1)">
       <use xlink:href="#DejaVuSans-54"/>
       <use x="63.623047" xlink:href="#DejaVuSans-48"/>
      </g>
     </g>
    </g>
    <g id="ytick_3">
     <g id="line2d_11">
      <g>
       <use style="stroke:#000000;stroke-width:0.8;" x="57.6" xlink:href="#m176a5f7907" y="160.616403"/>
      </g>
     </g>
     <g id="text_11">
      <!-- 80 -->
      <g transform="translate(37.875 164.415621)scale(0.1 -0.1)">
       <use xlink:href="#DejaVuSans-56"/>
       <use x="63.623047" xlink:href="#DejaVuSans-48"/>
      </g>
     </g>
    </g>
    <g id="ytick_4">
     <g id="line2d_12">
      <g>
       <use style="stroke:#000000;stroke-width:0.8;" x="57.6" xlink:href="#m176a5f7907" y="111.575741"/>
      </g>
     </g>
     <g id="text_12">
      <!-- 100 -->
      <g transform="translate(31.5125 115.37496)scale(0.1 -0.1)">
       <use xlink:href="#DejaVuSans-49"/>
       <use x="63.623047" xlink:href="#DejaVuSans-48"/>
       <use x="127.246094" xlink:href="#DejaVuSans-48"/>
      </g>
     </g>
    </g>
    <g id="ytick_5">
     <g id="line2d_13">
      <g>
       <use style="stroke:#000000;stroke-width:0.8;" x="57.6" xlink:href="#m176a5f7907" y="62.53508"/>
      </g>
     </g>
     <g id="text_13">
      <!-- 120 -->
      <g transform="translate(31.5125 66.334299)scale(0.1 -0.1)">
       <use xlink:href="#DejaVuSans-49"/>
       <use x="63.623047" xlink:href="#DejaVuSans-50"/>
       <use x="127.246094" xlink:href="#DejaVuSans-48"/>
      </g>
     </g>
    </g>
   </g>
   <g id="line2d_14">
    <path clip-path="url(#p9e2db6d388)" d="M 369.212151 295.478221 
L 369.079741 273.351075 
L 368.979207 251.223928 
L 369.155754 236.47495 
L 369.317588 231.561075 
L 369.685393 226.657009 
L 370.533796 219.330334 
L 373.4934 197.404255 
L 373.885726 192.502641 
L 374.052464 187.588766 
L 373.917602 182.674892 
L 373.400223 177.785538 
L 372.971117 175.365382 
L 371.772073 170.596177 
L 370.266525 165.915246 
L 368.520677 161.320136 
L 366.554147 156.813299 
L 364.38655 152.39964 
L 362.030146 148.084062 
L 359.48984 143.873921 
L 356.772987 139.776574 
L 353.88204 135.799376 
L 350.812095 131.959492 
L 347.560699 128.269182 
L 344.122948 124.755419 
L 340.491487 121.44027 
L 338.581354 119.890585 
L 336.592755 118.446338 
L 334.525691 117.117336 
L 330.212565 114.756028 
L 325.727796 112.738005 
L 321.135138 110.987253 
L 316.471371 109.425308 
L 307.05066 106.60547 
L 297.634853 103.77092 
L 292.975991 102.199167 
L 288.385785 100.433703 
L 283.903468 98.413228 
L 279.57563 96.081344 
L 275.404722 93.477285 
L 271.361319 90.681968 
L 265.454371 86.263404 
L 253.750818 77.284059 
L 249.73684 74.444605 
L 245.602712 71.786601 
L 241.309202 69.388512 
L 239.095016 68.319426 
L 236.834242 67.355777 
L 234.524426 66.507374 
L 232.170475 65.798736 
L 227.369394 64.737006 
L 222.509464 64.003848 
L 217.612754 63.56003 
L 212.69888 63.376127 
L 207.782554 63.430072 
L 202.873584 63.702248 
L 197.979326 64.180394 
L 193.109588 64.857155 
L 188.269275 65.725175 
L 183.468194 66.784453 
L 178.71125 68.030086 
L 174.010702 69.474334 
L 169.378812 71.1221 
L 164.830291 72.988097 
L 160.370042 75.060065 
L 156.005424 77.323291 
L 151.736434 79.763064 
L 147.567978 82.372028 
L 143.504959 85.140373 
L 139.554734 88.0681 
L 135.724658 91.150306 
L 132.026992 94.391894 
L 128.473996 97.790411 
L 125.085287 101.353215 
L 121.882931 105.08521 
L 118.920876 109.008463 
L 116.307008 113.172015 
L 114.02907 117.529278 
L 112.030663 122.021402 
L 110.262747 126.609156 
L 108.668925 131.260663 
L 106.501328 138.310258 
L 100.930309 157.173748 
L 99.341392 161.825255 
L 97.575928 166.415461 
L 97.575928 166.415461 
" style="fill:none;stroke:#fea952;stroke-linecap:square;"/>
   </g>
   <g id="line2d_15">
    <path clip-path="url(#p9e2db6d388)" d="M 359.404023 295.488 
L 359.272004 273.439168 
L 359.171197 251.174986 
L 359.350673 236.230312 
L 359.529441 230.93526 
L 359.928191 225.65878 
L 360.816379 217.999449 
L 363.72483 196.524203 
L 364.08885 192.03286 
L 364.24482 187.686647 
L 364.143959 183.4967 
L 363.742718 179.497862 
L 362.962498 175.55957 
L 361.755199 171.375113 
L 360.298974 167.206652 
L 358.622702 163.085063 
L 356.739887 159.01572 
L 354.673988 155.021877 
L 352.437965 151.12065 
L 350.036516 147.317606 
L 347.474938 143.622087 
L 344.778496 140.073683 
L 341.929824 136.667751 
L 338.950538 133.443939 
L 335.823459 130.409654 
L 332.817726 127.826583 
L 331.288438 126.69641 
L 327.876026 124.594008 
L 324.117881 122.72107 
L 320.066294 121.041933 
L 315.779496 119.51345 
L 309.00277 117.395393 
L 294.583177 113.092225 
L 289.562159 111.394014 
L 284.503296 109.440686 
L 279.411769 107.132408 
L 274.499214 104.47357 
L 269.90558 101.598794 
L 265.573868 98.600608 
L 259.444965 94.014952 
L 248.015755 85.240724 
L 244.325657 82.624981 
L 240.666149 80.261848 
L 237.044579 78.220978 
L 233.452578 76.562503 
L 231.697106 75.899164 
L 229.851558 75.328798 
L 225.755361 74.411423 
L 221.492879 73.759155 
L 217.123935 73.355974 
L 212.689101 73.184255 
L 208.212836 73.228762 
L 203.724525 73.473397 
L 199.230763 73.908362 
L 194.752151 74.52677 
L 190.284921 75.323958 
L 185.853917 76.298011 
L 181.499958 77.433414 
L 177.191468 78.752382 
L 172.989385 80.241487 
L 168.869022 81.926112 
L 164.791553 83.815047 
L 160.790259 85.885114 
L 156.861562 88.125631 
L 153.008551 90.532887 
L 149.268587 93.07637 
L 145.630383 95.767837 
L 142.111733 98.593742 
L 138.728666 101.55339 
L 135.496865 104.637219 
L 132.446638 107.834724 
L 129.591171 111.150068 
L 127.113219 114.401511 
L 124.917524 117.86866 
L 122.934455 121.639456 
L 121.143341 125.648874 
L 119.514426 129.865825 
L 118.015861 134.23291 
L 115.919432 141.048647 
L 110.23512 160.275352 
L 108.533044 165.247679 
L 106.691963 170.034488 
L 106.691963 170.034488 
" style="fill:none;stroke:#ffffff;stroke-linecap:square;"/>
   </g>
   <g id="line2d_16">
    <path clip-path="url(#p9e2db6d388)" d="M 379.020278 295.468442 
L 378.887477 273.262981 
L 378.787218 251.272871 
L 378.960835 236.719587 
L 379.105735 232.186891 
L 379.442595 227.655238 
L 380.251214 220.661219 
L 383.261971 198.284306 
L 383.682601 192.972421 
L 383.860108 187.490886 
L 383.691245 181.853084 
L 383.440832 178.983493 
L 383.057728 176.073215 
L 382.531687 173.17564 
L 381.881226 170.375017 
L 380.347152 165.119146 
L 378.547077 160.009114 
L 376.506067 155.023852 
L 374.24985 150.172699 
L 371.789296 145.437304 
L 369.126157 140.81036 
L 366.270447 136.305916 
L 363.221774 131.924438 
L 359.959775 127.650857 
L 356.487106 123.519239 
L 352.782149 119.534073 
L 348.837565 115.732091 
L 346.6709 113.823557 
L 344.344982 111.954588 
L 341.897071 110.196266 
L 339.424495 108.620209 
L 336.913722 107.183727 
L 331.85926 104.69695 
L 326.818709 102.624476 
L 321.841726 100.857427 
L 314.538878 98.576537 
L 300.686529 94.449615 
L 296.389822 93.00432 
L 292.268274 91.42672 
L 288.395167 89.694048 
L 284.652046 87.689119 
L 280.903863 85.355777 
L 277.14877 82.763327 
L 271.463778 78.511857 
L 259.48588 69.327394 
L 255.148022 66.264228 
L 250.539274 63.311354 
L 245.573825 60.556047 
L 242.940905 59.296755 
L 240.215905 58.149051 
L 237.351747 57.115584 
L 234.489391 56.268674 
L 231.698207 55.598438 
L 226.255999 54.61239 
L 220.816082 53.969709 
L 215.400455 53.632347 
L 210.014413 53.568126 
L 204.669942 53.75177 
L 199.367716 54.164487 
L 194.090833 54.793705 
L 188.864596 55.631291 
L 183.653378 56.674491 
L 178.499192 57.920896 
L 173.382599 59.38198 
L 168.292732 61.068853 
L 163.259436 62.999205 
L 158.363937 65.149393 
L 153.5675 67.510091 
L 148.911782 70.053827 
L 144.358388 72.78327 
L 139.918754 75.686005 
L 135.600236 78.761646 
L 131.402923 82.008899 
L 127.315219 85.445129 
L 123.375399 89.05833 
L 119.567799 92.879644 
L 115.935209 96.90808 
L 112.418652 101.264846 
L 110.728532 103.615415 
L 109.152508 106.026078 
L 106.359329 110.939563 
L 103.983614 115.898195 
L 101.930498 120.881073 
L 100.141409 125.827176 
L 97.801953 133.156156 
L 90.895222 156.266383 
L 89.367144 160.511139 
L 88.459892 162.796434 
L 88.459892 162.796434 
" style="fill:none;stroke:#ffffff;stroke-linecap:square;"/>
   </g>
   <g id="patch_3">
    <path d="M 57.6 307.584 
L 57.6 41.472 
" style="fill:none;stroke:#000000;stroke-linecap:square;stroke-linejoin:miter;stroke-width:0.8;"/>
   </g>
   <g id="patch_4">
    <path d="M 414.72 307.584 
L 414.72 41.472 
" style="fill:none;stroke:#000000;stroke-linecap:square;stroke-linejoin:miter;stroke-width:0.8;"/>
   </g>
   <g id="patch_5">
    <path d="M 57.6 307.584 
L 414.72 307.584 
" style="fill:none;stroke:#000000;stroke-linecap:square;stroke-linejoin:miter;stroke-width:0.8;"/>
   </g>
   <g id="patch_6">
    <path d="M 57.6 41.472 
L 414.72 41.472 
" style="fill:none;stroke:#000000;stroke-linecap:square;stroke-linejoin:miter;stroke-width:0.8;"/>
   </g>
  </g>
 </g>
 <defs>
  <clipPath id="p9e2db6d388">
   <rect height="266.112" width="357.12" x="57.6" y="41.472"/>
  </clipPath>
 </defs>
</svg>
