<?xml version="1.0" encoding="utf-8" standalone="no"?>
<!DOCTYPE svg PUBLIC "-//W3C//DTD SVG 1.1//EN"
  "http://www.w3.org/Graphics/SVG/1.1/DTD/svg11.dtd">
<!-- Created with matplotlib (https://matplotlib.org/) -->
<svg height="345.6pt" version="1.1" viewBox="0 0 460.8 345.6" width="460.8pt" xmlns="http://www.w3.org/2000/svg" xmlns:xlink="http://www.w3.org/1999/xlink">
 <metadata>
  <rdf:RDF xmlns:cc="http://creativecommons.org/ns#" xmlns:dc="http://purl.org/dc/elements/1.1/" xmlns:rdf="http://www.w3.org/1999/02/22-rdf-syntax-ns#">
   <cc:Work>
    <dc:type rdf:resource="http://purl.org/dc/dcmitype/StillImage"/>
    <dc:date>2021-02-10T18:15:27.182395</dc:date>
    <dc:format>image/svg+xml</dc:format>
    <dc:creator>
     <cc:Agent>
      <dc:title>Matplotlib v3.3.3, https://matplotlib.org/</dc:title>
     </cc:Agent>
    </dc:creator>
   </cc:Work>
  </rdf:RDF>
 </metadata>
 <defs>
  <style type="text/css">*{stroke-linecap:butt;stroke-linejoin:round;}</style>
 </defs>
 <g id="figure_1">
  <g id="patch_1">
   <path d="M 0 345.6 
L 460.8 345.6 
L 460.8 0 
L 0 0 
z
" style="fill:#ffffff;"/>
  </g>
  <g id="axes_1">
   <g id="patch_2">
    <path d="M 57.6 307.584 
L 414.72 307.584 
L 414.72 41.472 
L 57.6 41.472 
z
" style="fill:#7d9051;"/>
   </g>
   <g id="matplotlib.axis_1">
    <g id="xtick_1">
     <g id="line2d_1">
      <defs>
       <path d="M 0 0 
L 0 3.5 
" id="m9082566def" style="stroke:#000000;stroke-width:0.8;"/>
      </defs>
      <g>
       <use style="stroke:#000000;stroke-width:0.8;" x="114.806997" xlink:href="#m9082566def" y="307.584"/>
      </g>
     </g>
     <g id="text_1">
      <!-- 20 -->
      <g transform="translate(108.444497 322.182437)scale(0.1 -0.1)">
       <defs>
        <path d="M 19.1875 8.296875 
L 53.609375 8.296875 
L 53.609375 0 
L 7.328125 0 
L 7.328125 8.296875 
Q 12.9375 14.109375 22.625 23.890625 
Q 32.328125 33.6875 34.8125 36.53125 
Q 39.546875 41.84375 41.421875 45.53125 
Q 43.3125 49.21875 43.3125 52.78125 
Q 43.3125 58.59375 39.234375 62.25 
Q 35.15625 65.921875 28.609375 65.921875 
Q 23.96875 65.921875 18.8125 64.3125 
Q 13.671875 62.703125 7.8125 59.421875 
L 7.8125 69.390625 
Q 13.765625 71.78125 18.9375 73 
Q 24.125 74.21875 28.421875 74.21875 
Q 39.75 74.21875 46.484375 68.546875 
Q 53.21875 62.890625 53.21875 53.421875 
Q 53.21875 48.921875 51.53125 44.890625 
Q 49.859375 40.875 45.40625 35.40625 
Q 44.1875 33.984375 37.640625 27.21875 
Q 31.109375 20.453125 19.1875 8.296875 
z
" id="DejaVuSans-50"/>
        <path d="M 31.78125 66.40625 
Q 24.171875 66.40625 20.328125 58.90625 
Q 16.5 51.421875 16.5 36.375 
Q 16.5 21.390625 20.328125 13.890625 
Q 24.171875 6.390625 31.78125 6.390625 
Q 39.453125 6.390625 43.28125 13.890625 
Q 47.125 21.390625 47.125 36.375 
Q 47.125 51.421875 43.28125 58.90625 
Q 39.453125 66.40625 31.78125 66.40625 
z
M 31.78125 74.21875 
Q 44.046875 74.21875 50.515625 64.515625 
Q 56.984375 54.828125 56.984375 36.375 
Q 56.984375 17.96875 50.515625 8.265625 
Q 44.046875 -1.421875 31.78125 -1.421875 
Q 19.53125 -1.421875 13.0625 8.265625 
Q 6.59375 17.96875 6.59375 36.375 
Q 6.59375 54.828125 13.0625 64.515625 
Q 19.53125 74.21875 31.78125 74.21875 
z
" id="DejaVuSans-48"/>
       </defs>
       <use xlink:href="#DejaVuSans-50"/>
       <use x="63.623047" xlink:href="#DejaVuSans-48"/>
      </g>
     </g>
    </g>
    <g id="xtick_2">
     <g id="line2d_2">
      <g>
       <use style="stroke:#000000;stroke-width:0.8;" x="194.003147" xlink:href="#m9082566def" y="307.584"/>
      </g>
     </g>
     <g id="text_2">
      <!-- 40 -->
      <g transform="translate(187.640647 322.182437)scale(0.1 -0.1)">
       <defs>
        <path d="M 37.796875 64.3125 
L 12.890625 25.390625 
L 37.796875 25.390625 
z
M 35.203125 72.90625 
L 47.609375 72.90625 
L 47.609375 25.390625 
L 58.015625 25.390625 
L 58.015625 17.1875 
L 47.609375 17.1875 
L 47.609375 0 
L 37.796875 0 
L 37.796875 17.1875 
L 4.890625 17.1875 
L 4.890625 26.703125 
z
" id="DejaVuSans-52"/>
       </defs>
       <use xlink:href="#DejaVuSans-52"/>
       <use x="63.623047" xlink:href="#DejaVuSans-48"/>
      </g>
     </g>
    </g>
    <g id="xtick_3">
     <g id="line2d_3">
      <g>
       <use style="stroke:#000000;stroke-width:0.8;" x="273.199296" xlink:href="#m9082566def" y="307.584"/>
      </g>
     </g>
     <g id="text_3">
      <!-- 60 -->
      <g transform="translate(266.836796 322.182437)scale(0.1 -0.1)">
       <defs>
        <path d="M 33.015625 40.375 
Q 26.375 40.375 22.484375 35.828125 
Q 18.609375 31.296875 18.609375 23.390625 
Q 18.609375 15.53125 22.484375 10.953125 
Q 26.375 6.390625 33.015625 6.390625 
Q 39.65625 6.390625 43.53125 10.953125 
Q 47.40625 15.53125 47.40625 23.390625 
Q 47.40625 31.296875 43.53125 35.828125 
Q 39.65625 40.375 33.015625 40.375 
z
M 52.59375 71.296875 
L 52.59375 62.3125 
Q 48.875 64.0625 45.09375 64.984375 
Q 41.3125 65.921875 37.59375 65.921875 
Q 27.828125 65.921875 22.671875 59.328125 
Q 17.53125 52.734375 16.796875 39.40625 
Q 19.671875 43.65625 24.015625 45.921875 
Q 28.375 48.1875 33.59375 48.1875 
Q 44.578125 48.1875 50.953125 41.515625 
Q 57.328125 34.859375 57.328125 23.390625 
Q 57.328125 12.15625 50.6875 5.359375 
Q 44.046875 -1.421875 33.015625 -1.421875 
Q 20.359375 -1.421875 13.671875 8.265625 
Q 6.984375 17.96875 6.984375 36.375 
Q 6.984375 53.65625 15.1875 63.9375 
Q 23.390625 74.21875 37.203125 74.21875 
Q 40.921875 74.21875 44.703125 73.484375 
Q 48.484375 72.75 52.59375 71.296875 
z
" id="DejaVuSans-54"/>
       </defs>
       <use xlink:href="#DejaVuSans-54"/>
       <use x="63.623047" xlink:href="#DejaVuSans-48"/>
      </g>
     </g>
    </g>
    <g id="xtick_4">
     <g id="line2d_4">
      <g>
       <use style="stroke:#000000;stroke-width:0.8;" x="352.395446" xlink:href="#m9082566def" y="307.584"/>
      </g>
     </g>
     <g id="text_4">
      <!-- 80 -->
      <g transform="translate(346.032946 322.182437)scale(0.1 -0.1)">
       <defs>
        <path d="M 31.78125 34.625 
Q 24.75 34.625 20.71875 30.859375 
Q 16.703125 27.09375 16.703125 20.515625 
Q 16.703125 13.921875 20.71875 10.15625 
Q 24.75 6.390625 31.78125 6.390625 
Q 38.8125 6.390625 42.859375 10.171875 
Q 46.921875 13.96875 46.921875 20.515625 
Q 46.921875 27.09375 42.890625 30.859375 
Q 38.875 34.625 31.78125 34.625 
z
M 21.921875 38.8125 
Q 15.578125 40.375 12.03125 44.71875 
Q 8.5 49.078125 8.5 55.328125 
Q 8.5 64.0625 14.71875 69.140625 
Q 20.953125 74.21875 31.78125 74.21875 
Q 42.671875 74.21875 48.875 69.140625 
Q 55.078125 64.0625 55.078125 55.328125 
Q 55.078125 49.078125 51.53125 44.71875 
Q 48 40.375 41.703125 38.8125 
Q 48.828125 37.15625 52.796875 32.3125 
Q 56.78125 27.484375 56.78125 20.515625 
Q 56.78125 9.90625 50.3125 4.234375 
Q 43.84375 -1.421875 31.78125 -1.421875 
Q 19.734375 -1.421875 13.25 4.234375 
Q 6.78125 9.90625 6.78125 20.515625 
Q 6.78125 27.484375 10.78125 32.3125 
Q 14.796875 37.15625 21.921875 38.8125 
z
M 18.3125 54.390625 
Q 18.3125 48.734375 21.84375 45.5625 
Q 25.390625 42.390625 31.78125 42.390625 
Q 38.140625 42.390625 41.71875 45.5625 
Q 45.3125 48.734375 45.3125 54.390625 
Q 45.3125 60.0625 41.71875 63.234375 
Q 38.140625 66.40625 31.78125 66.40625 
Q 25.390625 66.40625 21.84375 63.234375 
Q 18.3125 60.0625 18.3125 54.390625 
z
" id="DejaVuSans-56"/>
       </defs>
       <use xlink:href="#DejaVuSans-56"/>
       <use x="63.623047" xlink:href="#DejaVuSans-48"/>
      </g>
     </g>
    </g>
   </g>
   <g id="matplotlib.axis_2">
    <g id="ytick_1">
     <g id="line2d_5">
      <defs>
       <path d="M 0 0 
L -3.5 0 
" id="mb684dc512a" style="stroke:#000000;stroke-width:0.8;"/>
      </defs>
      <g>
       <use style="stroke:#000000;stroke-width:0.8;" x="57.6" xlink:href="#mb684dc512a" y="279.82444"/>
      </g>
     </g>
     <g id="text_5">
      <!-- 10 -->
      <g transform="translate(37.875 283.623659)scale(0.1 -0.1)">
       <defs>
        <path d="M 12.40625 8.296875 
L 28.515625 8.296875 
L 28.515625 63.921875 
L 10.984375 60.40625 
L 10.984375 69.390625 
L 28.421875 72.90625 
L 38.28125 72.90625 
L 38.28125 8.296875 
L 54.390625 8.296875 
L 54.390625 0 
L 12.40625 0 
z
" id="DejaVuSans-49"/>
       </defs>
       <use xlink:href="#DejaVuSans-49"/>
       <use x="63.623047" xlink:href="#DejaVuSans-48"/>
      </g>
     </g>
    </g>
    <g id="ytick_2">
     <g id="line2d_6">
      <g>
       <use style="stroke:#000000;stroke-width:0.8;" x="57.6" xlink:href="#mb684dc512a" y="240.226366"/>
      </g>
     </g>
     <g id="text_6">
      <!-- 20 -->
      <g transform="translate(37.875 244.025584)scale(0.1 -0.1)">
       <use xlink:href="#DejaVuSans-50"/>
       <use x="63.623047" xlink:href="#DejaVuSans-48"/>
      </g>
     </g>
    </g>
    <g id="ytick_3">
     <g id="line2d_7">
      <g>
       <use style="stroke:#000000;stroke-width:0.8;" x="57.6" xlink:href="#mb684dc512a" y="200.628291"/>
      </g>
     </g>
     <g id="text_7">
      <!-- 30 -->
      <g transform="translate(37.875 204.42751)scale(0.1 -0.1)">
       <defs>
        <path d="M 40.578125 39.3125 
Q 47.65625 37.796875 51.625 33 
Q 55.609375 28.21875 55.609375 21.1875 
Q 55.609375 10.40625 48.1875 4.484375 
Q 40.765625 -1.421875 27.09375 -1.421875 
Q 22.515625 -1.421875 17.65625 -0.515625 
Q 12.796875 0.390625 7.625 2.203125 
L 7.625 11.71875 
Q 11.71875 9.328125 16.59375 8.109375 
Q 21.484375 6.890625 26.8125 6.890625 
Q 36.078125 6.890625 40.9375 10.546875 
Q 45.796875 14.203125 45.796875 21.1875 
Q 45.796875 27.640625 41.28125 31.265625 
Q 36.765625 34.90625 28.71875 34.90625 
L 20.21875 34.90625 
L 20.21875 43.015625 
L 29.109375 43.015625 
Q 36.375 43.015625 40.234375 45.921875 
Q 44.09375 48.828125 44.09375 54.296875 
Q 44.09375 59.90625 40.109375 62.90625 
Q 36.140625 65.921875 28.71875 65.921875 
Q 24.65625 65.921875 20.015625 65.03125 
Q 15.375 64.15625 9.8125 62.3125 
L 9.8125 71.09375 
Q 15.4375 72.65625 20.34375 73.4375 
Q 25.25 74.21875 29.59375 74.21875 
Q 40.828125 74.21875 47.359375 69.109375 
Q 53.90625 64.015625 53.90625 55.328125 
Q 53.90625 49.265625 50.4375 45.09375 
Q 46.96875 40.921875 40.578125 39.3125 
z
" id="DejaVuSans-51"/>
       </defs>
       <use xlink:href="#DejaVuSans-51"/>
       <use x="63.623047" xlink:href="#DejaVuSans-48"/>
      </g>
     </g>
    </g>
    <g id="ytick_4">
     <g id="line2d_8">
      <g>
       <use style="stroke:#000000;stroke-width:0.8;" x="57.6" xlink:href="#mb684dc512a" y="161.030216"/>
      </g>
     </g>
     <g id="text_8">
      <!-- 40 -->
      <g transform="translate(37.875 164.829435)scale(0.1 -0.1)">
       <use xlink:href="#DejaVuSans-52"/>
       <use x="63.623047" xlink:href="#DejaVuSans-48"/>
      </g>
     </g>
    </g>
    <g id="ytick_5">
     <g id="line2d_9">
      <g>
       <use style="stroke:#000000;stroke-width:0.8;" x="57.6" xlink:href="#mb684dc512a" y="121.432141"/>
      </g>
     </g>
     <g id="text_9">
      <!-- 50 -->
      <g transform="translate(37.875 125.23136)scale(0.1 -0.1)">
       <defs>
        <path d="M 10.796875 72.90625 
L 49.515625 72.90625 
L 49.515625 64.59375 
L 19.828125 64.59375 
L 19.828125 46.734375 
Q 21.96875 47.46875 24.109375 47.828125 
Q 26.265625 48.1875 28.421875 48.1875 
Q 40.625 48.1875 47.75 41.5 
Q 54.890625 34.8125 54.890625 23.390625 
Q 54.890625 11.625 47.5625 5.09375 
Q 40.234375 -1.421875 26.90625 -1.421875 
Q 22.3125 -1.421875 17.546875 -0.640625 
Q 12.796875 0.140625 7.71875 1.703125 
L 7.71875 11.625 
Q 12.109375 9.234375 16.796875 8.0625 
Q 21.484375 6.890625 26.703125 6.890625 
Q 35.15625 6.890625 40.078125 11.328125 
Q 45.015625 15.765625 45.015625 23.390625 
Q 45.015625 31 40.078125 35.4375 
Q 35.15625 39.890625 26.703125 39.890625 
Q 22.75 39.890625 18.8125 39.015625 
Q 14.890625 38.140625 10.796875 36.28125 
z
" id="DejaVuSans-53"/>
       </defs>
       <use xlink:href="#DejaVuSans-53"/>
       <use x="63.623047" xlink:href="#DejaVuSans-48"/>
      </g>
     </g>
    </g>
    <g id="ytick_6">
     <g id="line2d_10">
      <g>
       <use style="stroke:#000000;stroke-width:0.8;" x="57.6" xlink:href="#mb684dc512a" y="81.834067"/>
      </g>
     </g>
     <g id="text_10">
      <!-- 60 -->
      <g transform="translate(37.875 85.633285)scale(0.1 -0.1)">
       <use xlink:href="#DejaVuSans-54"/>
       <use x="63.623047" xlink:href="#DejaVuSans-48"/>
      </g>
     </g>
    </g>
    <g id="ytick_7">
     <g id="line2d_11">
      <g>
       <use style="stroke:#000000;stroke-width:0.8;" x="57.6" xlink:href="#mb684dc512a" y="42.235992"/>
      </g>
     </g>
     <g id="text_11">
      <!-- 70 -->
      <g transform="translate(37.875 46.035211)scale(0.1 -0.1)">
       <defs>
        <path d="M 8.203125 72.90625 
L 55.078125 72.90625 
L 55.078125 68.703125 
L 28.609375 0 
L 18.3125 0 
L 43.21875 64.59375 
L 8.203125 64.59375 
z
" id="DejaVuSans-55"/>
       </defs>
       <use xlink:href="#DejaVuSans-55"/>
       <use x="63.623047" xlink:href="#DejaVuSans-48"/>
      </g>
     </g>
    </g>
   </g>
   <g id="line2d_12">
    <path clip-path="url(#p2c78538f8d)" d="M 75.208923 279.82444 
L 79.204368 279.475977 
L 83.195854 279.20275 
L 87.18338 278.992881 
L 91.162987 278.850328 
L 95.138634 278.759252 
L 99.110321 278.719654 
L 103.078048 278.727574 
L 107.041815 278.775091 
L 111.005582 278.858247 
L 114.96539 278.973082 
L 118.921237 279.115635 
L 122.877085 279.277987 
L 126.832933 279.452218 
L 130.784821 279.638329 
L 134.736708 279.83236 
L 138.692556 280.022431 
L 142.644444 280.208542 
L 146.600292 280.382773 
L 150.556139 280.545125 
L 154.511987 280.683718 
L 158.471794 280.794593 
L 162.435562 280.877749 
L 166.399329 280.925267 
L 170.367056 280.929227 
L 174.338743 280.885669 
L 178.31439 280.790633 
L 182.297956 280.640161 
L 186.281522 280.430291 
L 190.273008 280.149144 
L 194.272414 279.796722 
L 198.271819 279.369062 
L 202.267265 278.846368 
L 206.246872 278.216758 
L 210.1948 277.468355 
L 214.107089 276.589278 
L 217.967902 275.563687 
L 221.769317 274.375745 
L 225.495496 273.013571 
L 229.138518 271.461327 
L 232.686506 269.711092 
L 236.127579 267.743068 
L 239.457777 265.569133 
L 242.665221 263.205128 
L 245.741991 260.662932 
L 248.688088 257.962343 
L 251.487672 255.111282 
L 254.144703 252.137466 
L 256.643341 249.036937 
L 258.991507 245.825533 
L 261.177321 242.503255 
L 263.204742 239.078021 
L 265.069811 235.553793 
L 266.768569 231.934529 
L 268.289135 228.236068 
L 269.61963 224.462372 
L 270.744216 220.633238 
L 271.639132 216.752627 
L 272.29646 212.840337 
L 272.70036 208.900329 
L 272.866672 204.948441 
L 272.846873 200.984673 
L 272.684521 197.009027 
L 272.439013 193.03338 
L 272.149947 189.053774 
L 271.876721 185.082087 
L 271.639132 181.1104 
L 271.449061 177.146632 
L 271.310468 173.186825 
L 271.227312 169.223058 
L 271.203553 165.26325 
L 271.247111 161.295523 
L 271.361946 157.327796 
L 271.552016 153.356109 
L 271.821283 149.372543 
L 272.173706 145.385017 
L 272.625124 141.393531 
L 273.179497 137.406005 
L 273.852664 133.442237 
L 274.652546 129.506189 
L 275.59894 125.613698 
L 276.699766 121.772685 
L 277.966904 117.998988 
L 279.408274 114.300528 
L 281.047635 110.689184 
L 282.884985 107.176834 
L 284.932206 103.77536 
L 287.181376 100.48872 
L 289.616658 97.328793 
L 292.222211 94.295581 
L 294.990117 91.397002 
L 297.908495 88.644935 
L 300.957547 86.035422 
L 304.133312 83.588261 
L 307.419952 81.299493 
L 310.809548 79.177036 
L 314.294178 77.224851 
L 317.869884 75.450857 
L 321.528746 73.859014 
L 325.258885 72.453283 
L 329.052381 71.241582 
L 332.909233 70.223911 
L 336.809643 69.404231 
L 340.753612 68.782541 
L 344.725299 68.362802 
L 348.712825 68.137093 
L 352.70827 68.113334 
L 356.699756 68.283605 
L 360.679363 68.655827 
L 364.63917 69.22208 
L 368.55938 69.986323 
L 372.436031 70.944596 
L 376.257245 72.10086 
L 380.015103 73.455114 
L 383.697724 75.007359 
L 387.293229 76.749674 
L 390.789739 78.693939 
" style="fill:none;stroke:#fea952;stroke-linecap:square;"/>
   </g>
   <g id="line2d_13">
    <path clip-path="url(#p2c78538f8d)" d="M 73.832727 264.045109 
L 78.122667 263.673727 
L 82.363363 263.385413 
L 86.616369 263.163803 
L 90.800231 263.015252 
L 94.980723 262.920809 
L 99.141936 262.880456 
L 103.267915 262.889482 
L 107.374033 262.939346 
L 111.464727 263.025674 
L 115.535802 263.144126 
L 119.570749 263.289728 
L 123.574033 263.454098 
L 127.578043 263.630524 
L 131.561562 263.818156 
L 135.496875 264.011382 
L 139.437666 264.200736 
L 143.341392 264.384652 
L 147.249803 264.556866 
L 151.110727 264.715607 
L 154.955312 264.850694 
L 158.804013 264.958848 
L 162.625429 265.039657 
L 166.415137 265.086045 
L 170.193356 265.090949 
L 173.960224 265.050962 
L 177.716515 264.962691 
L 181.464639 264.822867 
L 185.168619 264.630207 
L 188.882662 264.371054 
L 192.588315 264.047277 
L 196.217197 263.663658 
L 199.792142 263.201721 
L 203.296789 262.654682 
L 206.722362 262.014443 
L 210.040572 261.280958 
L 213.243455 260.44546 
L 216.330991 259.499394 
L 219.286716 258.441946 
L 222.131199 257.256445 
L 224.822936 255.961711 
L 227.469346 254.479727 
L 230.06035 252.818856 
L 232.576291 250.994694 
L 235.039033 248.986978 
L 237.386498 246.864809 
L 239.676222 244.558042 
L 241.811764 242.198662 
L 243.857488 239.687972 
L 245.759334 237.119741 
L 247.546872 234.43529 
L 249.205075 231.669208 
L 250.731432 228.823853 
L 252.119134 225.911635 
L 253.351159 222.969374 
L 254.422269 219.999031 
L 255.310079 217.073937 
L 256.018844 214.128165 
L 256.539806 211.225082 
L 256.875138 208.234337 
L 257.02764 205.027557 
L 257.020834 201.630956 
L 256.875406 197.985287 
L 256.641403 194.180868 
L 256.348065 190.140842 
L 256.065755 186.027907 
L 255.818081 181.869052 
L 255.619524 177.700666 
L 255.474723 173.519043 
L 255.388367 169.318091 
L 255.365278 165.089377 
L 255.414511 160.837294 
L 255.540822 156.570654 
L 255.748848 152.287903 
L 256.043555 147.978086 
L 256.434811 143.605023 
L 256.936784 139.212431 
L 257.563862 134.753999 
L 258.330706 130.287876 
L 259.26169 125.76416 
L 260.3727 121.249889 
L 261.684419 116.730805 
L 263.208823 112.247445 
L 264.985523 107.753358 
L 267.012721 103.347358 
L 269.314122 99.009039 
L 271.860747 94.830072 
L 274.635595 90.819978 
L 277.601697 87.007848 
L 280.766948 83.356744 
L 284.123255 79.873438 
L 287.609473 76.611177 
L 291.289617 73.489015 
L 295.081668 70.590225 
L 299.013903 67.874906 
L 303.068056 65.358552 
L 307.25469 63.035883 
L 311.550921 60.926673 
L 315.943089 59.037354 
L 320.439474 57.36506 
L 325.011342 55.926517 
L 329.651738 54.723268 
L 334.34335 53.75819 
L 339.088946 53.03103 
L 343.830171 52.548885 
L 348.618639 52.298143 
L 353.383338 52.288496 
L 358.174799 52.513207 
L 362.921563 52.976104 
L 367.669964 53.675521 
L 372.360292 54.609903 
L 377.02342 55.784218 
L 381.627305 57.19973 
L 386.167239 58.859484 
L 390.604879 60.753502 
L 394.990763 62.906655 
L 398.487273 64.85092 
" style="fill:none;stroke:#ffffff;stroke-linecap:square;"/>
   </g>
   <g id="line2d_14">
    <path clip-path="url(#p2c78538f8d)" d="M 76.585118 295.603771 
L 80.28607 295.278228 
L 84.028346 295.020088 
L 87.750392 294.821958 
L 91.525743 294.685403 
L 95.296544 294.597695 
L 99.078705 294.558852 
L 102.88818 294.565665 
L 106.709596 294.610837 
L 110.546438 294.690821 
L 114.394977 294.802037 
L 118.271726 294.941542 
L 122.180137 295.101876 
L 126.087823 295.273913 
L 130.008079 295.458502 
L 133.976541 295.653338 
L 137.947446 295.844125 
L 141.947496 296.032431 
L 145.95078 296.20868 
L 150.001552 296.374643 
L 154.068662 296.516743 
L 158.139576 296.630339 
L 162.245694 296.715841 
L 166.383521 296.764489 
L 170.540756 296.767504 
L 174.717262 296.720375 
L 178.912264 296.618575 
L 183.131273 296.457454 
L 187.394425 296.230375 
L 191.663355 295.927235 
L 195.956513 295.546166 
L 200.326441 295.074467 
L 204.742388 294.491014 
L 209.196954 293.778835 
L 213.667237 292.922266 
L 218.173607 291.897597 
L 222.692348 290.681915 
L 227.207643 289.252096 
L 231.704275 287.585197 
L 236.145838 285.666209 
L 240.550076 283.460473 
L 244.785812 281.006408 
L 248.855203 278.319411 
L 252.754151 275.415562 
L 256.444949 272.338886 
L 259.989678 269.059877 
L 263.299122 265.664521 
L 266.477641 262.076271 
L 269.429195 258.385903 
L 272.22368 254.531325 
L 274.80777 250.57122 
L 277.20441 246.486834 
L 279.408191 242.283732 
L 281.418004 237.957423 
L 283.227111 233.502763 
L 284.816992 228.925713 
L 286.178352 224.192539 
L 287.25942 219.377088 
L 288.053114 214.455592 
L 288.525583 209.56632 
L 288.705705 204.869325 
L 288.672913 200.338391 
L 288.493636 196.032767 
L 288.236623 191.885892 
L 287.95183 187.966705 
L 287.687686 184.136266 
L 287.460183 180.351748 
L 287.278599 176.592599 
L 287.146214 172.854607 
L 287.066257 169.128024 
L 287.041829 165.437124 
L 287.079711 161.753752 
L 287.183069 158.084939 
L 287.355185 154.424315 
L 287.599011 150.766999 
L 287.912601 147.165011 
L 288.313464 143.574631 
L 288.795133 140.058011 
L 289.374623 136.596599 
L 290.043401 133.248218 
L 290.825179 129.977507 
L 291.715113 126.814564 
L 292.724985 123.750532 
L 293.831026 120.847698 
L 295.082548 118.03101 
L 296.455848 115.34463 
L 298.003665 112.720647 
L 299.727158 110.157461 
L 301.631619 107.649739 
L 303.677474 105.234418 
L 305.856978 102.920566 
L 308.207517 100.678694 
L 310.625476 98.58183 
L 313.184957 96.586297 
L 315.826002 94.724079 
L 318.551039 92.99552 
L 321.333666 91.413819 
L 324.188847 89.975041 
L 327.114404 88.680675 
L 330.078297 87.541506 
L 333.093419 86.556646 
L 336.166729 85.724554 
L 339.275937 85.050272 
L 342.418278 84.534052 
L 345.620426 84.176718 
L 348.807011 83.976042 
L 352.033203 83.938171 
L 355.224714 84.054003 
L 358.437162 84.335551 
L 361.608377 84.768639 
L 364.758467 85.362742 
L 367.848642 86.104974 
L 370.887186 87.00199 
L 373.862966 88.050744 
L 376.790569 89.261215 
L 379.595695 90.592693 
L 383.092205 92.536958 
" style="fill:none;stroke:#ffffff;stroke-linecap:square;"/>
   </g>
   <g id="patch_3">
    <path d="M 57.6 307.584 
L 57.6 41.472 
" style="fill:none;stroke:#000000;stroke-linecap:square;stroke-linejoin:miter;stroke-width:0.8;"/>
   </g>
   <g id="patch_4">
    <path d="M 414.72 307.584 
L 414.72 41.472 
" style="fill:none;stroke:#000000;stroke-linecap:square;stroke-linejoin:miter;stroke-width:0.8;"/>
   </g>
   <g id="patch_5">
    <path d="M 57.6 307.584 
L 414.72 307.584 
" style="fill:none;stroke:#000000;stroke-linecap:square;stroke-linejoin:miter;stroke-width:0.8;"/>
   </g>
   <g id="patch_6">
    <path d="M 57.6 41.472 
L 414.72 41.472 
" style="fill:none;stroke:#000000;stroke-linecap:square;stroke-linejoin:miter;stroke-width:0.8;"/>
   </g>
  </g>
 </g>
 <defs>
  <clipPath id="p2c78538f8d">
   <rect height="266.112" width="357.12" x="57.6" y="41.472"/>
  </clipPath>
 </defs>
</svg>
