<?xml version="1.0" encoding="utf-8" standalone="no"?>
<!DOCTYPE svg PUBLIC "-//W3C//DTD SVG 1.1//EN"
  "http://www.w3.org/Graphics/SVG/1.1/DTD/svg11.dtd">
<!-- Created with matplotlib (https://matplotlib.org/) -->
<svg height="345.6pt" version="1.1" viewBox="0 0 460.8 345.6" width="460.8pt" xmlns="http://www.w3.org/2000/svg" xmlns:xlink="http://www.w3.org/1999/xlink">
 <metadata>
  <rdf:RDF xmlns:cc="http://creativecommons.org/ns#" xmlns:dc="http://purl.org/dc/elements/1.1/" xmlns:rdf="http://www.w3.org/1999/02/22-rdf-syntax-ns#">
   <cc:Work>
    <dc:type rdf:resource="http://purl.org/dc/dcmitype/StillImage"/>
    <dc:date>2021-03-15T18:01:37.700651</dc:date>
    <dc:format>image/svg+xml</dc:format>
    <dc:creator>
     <cc:Agent>
      <dc:title>Matplotlib v3.3.3, https://matplotlib.org/</dc:title>
     </cc:Agent>
    </dc:creator>
   </cc:Work>
  </rdf:RDF>
 </metadata>
 <defs>
  <style type="text/css">*{stroke-linecap:butt;stroke-linejoin:round;}</style>
 </defs>
 <g id="figure_1">
  <g id="patch_1">
   <path d="M 0 345.6 
L 460.8 345.6 
L 460.8 0 
L 0 0 
z
" style="fill:#ffffff;"/>
  </g>
  <g id="axes_1">
   <g id="patch_2">
    <path d="M 57.6 307.584 
L 414.72 307.584 
L 414.72 41.472 
L 57.6 41.472 
z
" style="fill:#7d9051;"/>
   </g>
   <g id="matplotlib.axis_1">
    <g id="xtick_1">
     <g id="line2d_1">
      <defs>
       <path d="M 0 0 
L 0 3.5 
" id="m8e3dc97810" style="stroke:#000000;stroke-width:0.8;"/>
      </defs>
      <g>
       <use style="stroke:#000000;stroke-width:0.8;" x="107.998239" xlink:href="#m8e3dc97810" y="307.584"/>
      </g>
     </g>
     <g id="text_1">
      <!-- 20 -->
      <g transform="translate(101.635739 322.182437)scale(0.1 -0.1)">
       <defs>
        <path d="M 19.1875 8.296875 
L 53.609375 8.296875 
L 53.609375 0 
L 7.328125 0 
L 7.328125 8.296875 
Q 12.9375 14.109375 22.625 23.890625 
Q 32.328125 33.6875 34.8125 36.53125 
Q 39.546875 41.84375 41.421875 45.53125 
Q 43.3125 49.21875 43.3125 52.78125 
Q 43.3125 58.59375 39.234375 62.25 
Q 35.15625 65.921875 28.609375 65.921875 
Q 23.96875 65.921875 18.8125 64.3125 
Q 13.671875 62.703125 7.8125 59.421875 
L 7.8125 69.390625 
Q 13.765625 71.78125 18.9375 73 
Q 24.125 74.21875 28.421875 74.21875 
Q 39.75 74.21875 46.484375 68.546875 
Q 53.21875 62.890625 53.21875 53.421875 
Q 53.21875 48.921875 51.53125 44.890625 
Q 49.859375 40.875 45.40625 35.40625 
Q 44.1875 33.984375 37.640625 27.21875 
Q 31.109375 20.453125 19.1875 8.296875 
z
" id="DejaVuSans-50"/>
        <path d="M 31.78125 66.40625 
Q 24.171875 66.40625 20.328125 58.90625 
Q 16.5 51.421875 16.5 36.375 
Q 16.5 21.390625 20.328125 13.890625 
Q 24.171875 6.390625 31.78125 6.390625 
Q 39.453125 6.390625 43.28125 13.890625 
Q 47.125 21.390625 47.125 36.375 
Q 47.125 51.421875 43.28125 58.90625 
Q 39.453125 66.40625 31.78125 66.40625 
z
M 31.78125 74.21875 
Q 44.046875 74.21875 50.515625 64.515625 
Q 56.984375 54.828125 56.984375 36.375 
Q 56.984375 17.96875 50.515625 8.265625 
Q 44.046875 -1.421875 31.78125 -1.421875 
Q 19.53125 -1.421875 13.0625 8.265625 
Q 6.59375 17.96875 6.59375 36.375 
Q 6.59375 54.828125 13.0625 64.515625 
Q 19.53125 74.21875 31.78125 74.21875 
z
" id="DejaVuSans-48"/>
       </defs>
       <use xlink:href="#DejaVuSans-50"/>
       <use x="63.623047" xlink:href="#DejaVuSans-48"/>
      </g>
     </g>
    </g>
    <g id="xtick_2">
     <g id="line2d_2">
      <g>
       <use style="stroke:#000000;stroke-width:0.8;" x="173.713689" xlink:href="#m8e3dc97810" y="307.584"/>
      </g>
     </g>
     <g id="text_2">
      <!-- 40 -->
      <g transform="translate(167.351189 322.182437)scale(0.1 -0.1)">
       <defs>
        <path d="M 37.796875 64.3125 
L 12.890625 25.390625 
L 37.796875 25.390625 
z
M 35.203125 72.90625 
L 47.609375 72.90625 
L 47.609375 25.390625 
L 58.015625 25.390625 
L 58.015625 17.1875 
L 47.609375 17.1875 
L 47.609375 0 
L 37.796875 0 
L 37.796875 17.1875 
L 4.890625 17.1875 
L 4.890625 26.703125 
z
" id="DejaVuSans-52"/>
       </defs>
       <use xlink:href="#DejaVuSans-52"/>
       <use x="63.623047" xlink:href="#DejaVuSans-48"/>
      </g>
     </g>
    </g>
    <g id="xtick_3">
     <g id="line2d_3">
      <g>
       <use style="stroke:#000000;stroke-width:0.8;" x="239.429139" xlink:href="#m8e3dc97810" y="307.584"/>
      </g>
     </g>
     <g id="text_3">
      <!-- 60 -->
      <g transform="translate(233.066639 322.182437)scale(0.1 -0.1)">
       <defs>
        <path d="M 33.015625 40.375 
Q 26.375 40.375 22.484375 35.828125 
Q 18.609375 31.296875 18.609375 23.390625 
Q 18.609375 15.53125 22.484375 10.953125 
Q 26.375 6.390625 33.015625 6.390625 
Q 39.65625 6.390625 43.53125 10.953125 
Q 47.40625 15.53125 47.40625 23.390625 
Q 47.40625 31.296875 43.53125 35.828125 
Q 39.65625 40.375 33.015625 40.375 
z
M 52.59375 71.296875 
L 52.59375 62.3125 
Q 48.875 64.0625 45.09375 64.984375 
Q 41.3125 65.921875 37.59375 65.921875 
Q 27.828125 65.921875 22.671875 59.328125 
Q 17.53125 52.734375 16.796875 39.40625 
Q 19.671875 43.65625 24.015625 45.921875 
Q 28.375 48.1875 33.59375 48.1875 
Q 44.578125 48.1875 50.953125 41.515625 
Q 57.328125 34.859375 57.328125 23.390625 
Q 57.328125 12.15625 50.6875 5.359375 
Q 44.046875 -1.421875 33.015625 -1.421875 
Q 20.359375 -1.421875 13.671875 8.265625 
Q 6.984375 17.96875 6.984375 36.375 
Q 6.984375 53.65625 15.1875 63.9375 
Q 23.390625 74.21875 37.203125 74.21875 
Q 40.921875 74.21875 44.703125 73.484375 
Q 48.484375 72.75 52.59375 71.296875 
z
" id="DejaVuSans-54"/>
       </defs>
       <use xlink:href="#DejaVuSans-54"/>
       <use x="63.623047" xlink:href="#DejaVuSans-48"/>
      </g>
     </g>
    </g>
    <g id="xtick_4">
     <g id="line2d_4">
      <g>
       <use style="stroke:#000000;stroke-width:0.8;" x="305.144589" xlink:href="#m8e3dc97810" y="307.584"/>
      </g>
     </g>
     <g id="text_4">
      <!-- 80 -->
      <g transform="translate(298.782089 322.182437)scale(0.1 -0.1)">
       <defs>
        <path d="M 31.78125 34.625 
Q 24.75 34.625 20.71875 30.859375 
Q 16.703125 27.09375 16.703125 20.515625 
Q 16.703125 13.921875 20.71875 10.15625 
Q 24.75 6.390625 31.78125 6.390625 
Q 38.8125 6.390625 42.859375 10.171875 
Q 46.921875 13.96875 46.921875 20.515625 
Q 46.921875 27.09375 42.890625 30.859375 
Q 38.875 34.625 31.78125 34.625 
z
M 21.921875 38.8125 
Q 15.578125 40.375 12.03125 44.71875 
Q 8.5 49.078125 8.5 55.328125 
Q 8.5 64.0625 14.71875 69.140625 
Q 20.953125 74.21875 31.78125 74.21875 
Q 42.671875 74.21875 48.875 69.140625 
Q 55.078125 64.0625 55.078125 55.328125 
Q 55.078125 49.078125 51.53125 44.71875 
Q 48 40.375 41.703125 38.8125 
Q 48.828125 37.15625 52.796875 32.3125 
Q 56.78125 27.484375 56.78125 20.515625 
Q 56.78125 9.90625 50.3125 4.234375 
Q 43.84375 -1.421875 31.78125 -1.421875 
Q 19.734375 -1.421875 13.25 4.234375 
Q 6.78125 9.90625 6.78125 20.515625 
Q 6.78125 27.484375 10.78125 32.3125 
Q 14.796875 37.15625 21.921875 38.8125 
z
M 18.3125 54.390625 
Q 18.3125 48.734375 21.84375 45.5625 
Q 25.390625 42.390625 31.78125 42.390625 
Q 38.140625 42.390625 41.71875 45.5625 
Q 45.3125 48.734375 45.3125 54.390625 
Q 45.3125 60.0625 41.71875 63.234375 
Q 38.140625 66.40625 31.78125 66.40625 
Q 25.390625 66.40625 21.84375 63.234375 
Q 18.3125 60.0625 18.3125 54.390625 
z
" id="DejaVuSans-56"/>
       </defs>
       <use xlink:href="#DejaVuSans-56"/>
       <use x="63.623047" xlink:href="#DejaVuSans-48"/>
      </g>
     </g>
    </g>
    <g id="xtick_5">
     <g id="line2d_5">
      <g>
       <use style="stroke:#000000;stroke-width:0.8;" x="370.860039" xlink:href="#m8e3dc97810" y="307.584"/>
      </g>
     </g>
     <g id="text_5">
      <!-- 100 -->
      <g transform="translate(361.316289 322.182437)scale(0.1 -0.1)">
       <defs>
        <path d="M 12.40625 8.296875 
L 28.515625 8.296875 
L 28.515625 63.921875 
L 10.984375 60.40625 
L 10.984375 69.390625 
L 28.421875 72.90625 
L 38.28125 72.90625 
L 38.28125 8.296875 
L 54.390625 8.296875 
L 54.390625 0 
L 12.40625 0 
z
" id="DejaVuSans-49"/>
       </defs>
       <use xlink:href="#DejaVuSans-49"/>
       <use x="63.623047" xlink:href="#DejaVuSans-48"/>
       <use x="127.246094" xlink:href="#DejaVuSans-48"/>
      </g>
     </g>
    </g>
   </g>
   <g id="matplotlib.axis_2">
    <g id="ytick_1">
     <g id="line2d_6">
      <defs>
       <path d="M 0 0 
L -3.5 0 
" id="m063ee42eef" style="stroke:#000000;stroke-width:0.8;"/>
      </defs>
      <g>
       <use style="stroke:#000000;stroke-width:0.8;" x="57.6" xlink:href="#m063ee42eef" y="289.303796"/>
      </g>
     </g>
     <g id="text_6">
      <!-- 0 -->
      <g transform="translate(44.2375 293.103015)scale(0.1 -0.1)">
       <use xlink:href="#DejaVuSans-48"/>
      </g>
     </g>
    </g>
    <g id="ytick_2">
     <g id="line2d_7">
      <g>
       <use style="stroke:#000000;stroke-width:0.8;" x="57.6" xlink:href="#m063ee42eef" y="256.446071"/>
      </g>
     </g>
     <g id="text_7">
      <!-- 10 -->
      <g transform="translate(37.875 260.24529)scale(0.1 -0.1)">
       <use xlink:href="#DejaVuSans-49"/>
       <use x="63.623047" xlink:href="#DejaVuSans-48"/>
      </g>
     </g>
    </g>
    <g id="ytick_3">
     <g id="line2d_8">
      <g>
       <use style="stroke:#000000;stroke-width:0.8;" x="57.6" xlink:href="#m063ee42eef" y="223.588346"/>
      </g>
     </g>
     <g id="text_8">
      <!-- 20 -->
      <g transform="translate(37.875 227.387565)scale(0.1 -0.1)">
       <use xlink:href="#DejaVuSans-50"/>
       <use x="63.623047" xlink:href="#DejaVuSans-48"/>
      </g>
     </g>
    </g>
    <g id="ytick_4">
     <g id="line2d_9">
      <g>
       <use style="stroke:#000000;stroke-width:0.8;" x="57.6" xlink:href="#m063ee42eef" y="190.730621"/>
      </g>
     </g>
     <g id="text_9">
      <!-- 30 -->
      <g transform="translate(37.875 194.52984)scale(0.1 -0.1)">
       <defs>
        <path d="M 40.578125 39.3125 
Q 47.65625 37.796875 51.625 33 
Q 55.609375 28.21875 55.609375 21.1875 
Q 55.609375 10.40625 48.1875 4.484375 
Q 40.765625 -1.421875 27.09375 -1.421875 
Q 22.515625 -1.421875 17.65625 -0.515625 
Q 12.796875 0.390625 7.625 2.203125 
L 7.625 11.71875 
Q 11.71875 9.328125 16.59375 8.109375 
Q 21.484375 6.890625 26.8125 6.890625 
Q 36.078125 6.890625 40.9375 10.546875 
Q 45.796875 14.203125 45.796875 21.1875 
Q 45.796875 27.640625 41.28125 31.265625 
Q 36.765625 34.90625 28.71875 34.90625 
L 20.21875 34.90625 
L 20.21875 43.015625 
L 29.109375 43.015625 
Q 36.375 43.015625 40.234375 45.921875 
Q 44.09375 48.828125 44.09375 54.296875 
Q 44.09375 59.90625 40.109375 62.90625 
Q 36.140625 65.921875 28.71875 65.921875 
Q 24.65625 65.921875 20.015625 65.03125 
Q 15.375 64.15625 9.8125 62.3125 
L 9.8125 71.09375 
Q 15.4375 72.65625 20.34375 73.4375 
Q 25.25 74.21875 29.59375 74.21875 
Q 40.828125 74.21875 47.359375 69.109375 
Q 53.90625 64.015625 53.90625 55.328125 
Q 53.90625 49.265625 50.4375 45.09375 
Q 46.96875 40.921875 40.578125 39.3125 
z
" id="DejaVuSans-51"/>
       </defs>
       <use xlink:href="#DejaVuSans-51"/>
       <use x="63.623047" xlink:href="#DejaVuSans-48"/>
      </g>
     </g>
    </g>
    <g id="ytick_5">
     <g id="line2d_10">
      <g>
       <use style="stroke:#000000;stroke-width:0.8;" x="57.6" xlink:href="#m063ee42eef" y="157.872896"/>
      </g>
     </g>
     <g id="text_10">
      <!-- 40 -->
      <g transform="translate(37.875 161.672115)scale(0.1 -0.1)">
       <use xlink:href="#DejaVuSans-52"/>
       <use x="63.623047" xlink:href="#DejaVuSans-48"/>
      </g>
     </g>
    </g>
    <g id="ytick_6">
     <g id="line2d_11">
      <g>
       <use style="stroke:#000000;stroke-width:0.8;" x="57.6" xlink:href="#m063ee42eef" y="125.015171"/>
      </g>
     </g>
     <g id="text_11">
      <!-- 50 -->
      <g transform="translate(37.875 128.81439)scale(0.1 -0.1)">
       <defs>
        <path d="M 10.796875 72.90625 
L 49.515625 72.90625 
L 49.515625 64.59375 
L 19.828125 64.59375 
L 19.828125 46.734375 
Q 21.96875 47.46875 24.109375 47.828125 
Q 26.265625 48.1875 28.421875 48.1875 
Q 40.625 48.1875 47.75 41.5 
Q 54.890625 34.8125 54.890625 23.390625 
Q 54.890625 11.625 47.5625 5.09375 
Q 40.234375 -1.421875 26.90625 -1.421875 
Q 22.3125 -1.421875 17.546875 -0.640625 
Q 12.796875 0.140625 7.71875 1.703125 
L 7.71875 11.625 
Q 12.109375 9.234375 16.796875 8.0625 
Q 21.484375 6.890625 26.703125 6.890625 
Q 35.15625 6.890625 40.078125 11.328125 
Q 45.015625 15.765625 45.015625 23.390625 
Q 45.015625 31 40.078125 35.4375 
Q 35.15625 39.890625 26.703125 39.890625 
Q 22.75 39.890625 18.8125 39.015625 
Q 14.890625 38.140625 10.796875 36.28125 
z
" id="DejaVuSans-53"/>
       </defs>
       <use xlink:href="#DejaVuSans-53"/>
       <use x="63.623047" xlink:href="#DejaVuSans-48"/>
      </g>
     </g>
    </g>
    <g id="ytick_7">
     <g id="line2d_12">
      <g>
       <use style="stroke:#000000;stroke-width:0.8;" x="57.6" xlink:href="#m063ee42eef" y="92.157446"/>
      </g>
     </g>
     <g id="text_12">
      <!-- 60 -->
      <g transform="translate(37.875 95.956665)scale(0.1 -0.1)">
       <use xlink:href="#DejaVuSans-54"/>
       <use x="63.623047" xlink:href="#DejaVuSans-48"/>
      </g>
     </g>
    </g>
    <g id="ytick_8">
     <g id="line2d_13">
      <g>
       <use style="stroke:#000000;stroke-width:0.8;" x="57.6" xlink:href="#m063ee42eef" y="59.299721"/>
      </g>
     </g>
     <g id="text_13">
      <!-- 70 -->
      <g transform="translate(37.875 63.09894)scale(0.1 -0.1)">
       <defs>
        <path d="M 8.203125 72.90625 
L 55.078125 72.90625 
L 55.078125 68.703125 
L 28.609375 0 
L 18.3125 0 
L 43.21875 64.59375 
L 8.203125 64.59375 
z
" id="DejaVuSans-55"/>
       </defs>
       <use xlink:href="#DejaVuSans-55"/>
       <use x="63.623047" xlink:href="#DejaVuSans-48"/>
      </g>
     </g>
    </g>
   </g>
   <g id="line2d_14">
    <path clip-path="url(#pfde8e89cdf)" d="M 75.140514 256.446071 
L 80.936616 255.959777 
L 87.021867 255.769202 
L 93.360122 255.805345 
L 103.233868 256.127351 
L 120.3166 256.791077 
L 127.239722 256.896222 
L 134.152988 256.800934 
L 141.007109 256.436214 
L 147.759372 255.729772 
L 151.084573 255.227049 
L 154.370346 254.61261 
L 157.606832 253.879883 
L 160.790745 253.015724 
L 163.915515 252.013564 
L 166.981141 250.866829 
L 169.974479 249.562377 
L 172.892245 248.093637 
L 175.734439 246.450751 
L 178.487916 244.643576 
L 181.146106 242.68197 
L 183.705723 240.579075 
L 186.153623 238.348036 
L 188.486522 235.998709 
L 190.697847 233.544237 
L 192.784312 230.98462 
L 194.739347 228.329716 
L 196.562951 225.579524 
L 198.251838 222.740617 
L 199.796151 219.819565 
L 201.192604 216.82294 
L 202.43134 213.7606 
L 203.505788 210.639116 
L 204.402804 207.46506 
L 205.122388 204.248289 
L 205.680969 200.99866 
L 206.091691 197.726031 
L 206.554985 191.138057 
L 206.660129 184.553369 
L 206.476126 174.68948 
L 206.347981 164.815733 
L 206.551699 158.208045 
L 206.794846 154.899272 
L 207.14971 151.587213 
L 207.622861 148.288298 
L 208.217586 145.009097 
L 208.940456 141.759468 
L 209.798042 138.545982 
L 210.793631 135.381783 
L 211.940366 132.276728 
L 213.238246 129.234103 
L 214.697129 126.270336 
L 216.317015 123.388714 
L 218.101189 120.599093 
L 220.043081 117.908045 
L 222.126261 115.322142 
L 224.347443 112.84467 
L 226.69677 110.482199 
L 229.167671 108.241302 
L 231.750288 106.128551 
L 234.431479 104.14723 
L 237.207956 102.303911 
L 240.069864 100.605167 
L 243.010631 99.050997 
L 246.023684 97.651258 
L 249.102453 96.399378 
L 252.23708 95.305216 
L 255.420993 94.368771 
L 258.650908 93.593328 
L 261.920251 92.982175 
L 265.219167 92.538596 
L 268.541083 92.262591 
L 271.876142 92.157446 
L 275.214487 92.223161 
L 278.549546 92.453165 
L 281.861605 92.850744 
L 285.144091 93.415897 
L 288.387149 94.142052 
L 291.58092 95.032497 
L 294.708975 96.08723 
L 297.764744 97.29968 
L 300.738368 98.673133 
L 303.629847 100.197731 
L 306.442469 101.870189 
L 309.176231 103.683936 
L 311.834421 105.635685 
L 314.420324 107.718864 
L 316.93394 109.923618 
L 319.375269 112.246659 
L 321.747597 114.684702 
L 324.057495 117.22789 
L 326.301678 119.872937 
L 330.599468 125.442321 
L 334.663969 131.35014 
L 338.508323 137.543821 
L 342.145673 143.98065 
L 345.595734 150.614624 
L 348.868363 157.396459 
L 351.97999 164.283438 
L 356.376353 174.702623 
L 360.499998 185.095521 
L 368.119704 205.168305 
L 372.893932 217.52281 
L 376.403137 225.980388 
L 378.736035 231.148908 
L 381.082077 235.890278 
L 383.454405 240.151925 
L 385.869447 243.891134 
L 388.343634 247.061905 
L 388.343634 247.061905 
" style="fill:none;stroke:#fea952;stroke-linecap:square;"/>
   </g>
   <g id="line2d_15">
    <path clip-path="url(#pfde8e89cdf)" d="M 73.832727 243.368208 
L 80.377537 242.828583 
L 87.008119 242.626119 
L 93.692584 242.666461 
L 103.797541 242.996354 
L 120.591134 243.650855 
L 127.164834 243.753345 
L 133.600612 243.669457 
L 139.814903 243.347308 
L 145.794651 242.734362 
L 151.468248 241.793926 
L 154.164165 241.195685 
L 156.776934 240.500528 
L 159.310791 239.703514 
L 161.730494 238.818115 
L 164.065004 237.822748 
L 166.31486 236.714761 
L 168.522825 235.462874 
L 170.683869 234.068243 
L 172.802835 232.526644 
L 174.8524 230.865194 
L 176.827504 229.087134 
L 178.721891 227.201391 
L 180.510524 225.240065 
L 182.201087 223.191279 
L 183.785548 221.066444 
L 185.267545 218.859804 
L 186.632638 216.597733 
L 187.883102 214.26798 
L 189.008576 211.894423 
L 190.003857 209.48293 
L 190.858069 207.064761 
L 191.576709 204.595893 
L 192.169264 202.021766 
L 192.640179 199.362015 
L 192.997864 196.589141 
L 193.416664 190.78403 
L 193.517833 184.697789 
L 193.336504 174.991389 
L 193.206999 164.580372 
L 193.443953 157.244814 
L 193.726551 153.499097 
L 194.139753 149.721243 
L 194.690735 145.942892 
L 195.388082 142.155213 
L 196.24179 138.37056 
L 197.260894 134.601272 
L 198.464471 130.828474 
L 199.851199 127.119902 
L 201.446332 123.429657 
L 203.240189 119.82989 
L 205.244835 116.307213 
L 207.443272 112.908214 
L 209.808025 109.662777 
L 212.340317 106.548538 
L 215.027988 103.577061 
L 217.867376 100.746563 
L 220.845675 98.068535 
L 223.939246 95.558384 
L 227.16195 93.197583 
L 230.499399 91.001873 
L 233.928727 88.985045 
L 237.473254 87.131338 
L 241.073093 85.476182 
L 244.771058 83.990517 
L 248.528542 82.696189 
L 252.352768 81.588833 
L 256.235843 80.67403 
L 260.168766 79.956312 
L 264.130909 79.440637 
L 268.126925 79.126028 
L 272.134814 79.016902 
L 276.118759 79.111216 
L 280.115993 79.403757 
L 284.091667 79.898229 
L 288.015862 80.590385 
L 291.916907 81.481815 
L 295.780276 82.578332 
L 299.556205 83.870635 
L 303.275807 85.367832 
L 306.868425 87.047161 
L 310.347221 88.90093 
L 313.708624 90.918303 
L 316.954821 93.089864 
L 320.079689 95.400628 
L 323.086991 97.83809 
L 325.99398 100.402247 
L 328.79492 103.080907 
L 331.476676 105.848084 
L 334.079407 108.724827 
L 336.589932 111.694145 
L 338.999013 114.733283 
L 343.580583 121.04421 
L 347.855384 127.605363 
L 351.855019 134.377176 
L 355.60278 141.306494 
L 359.126171 148.355353 
L 362.448784 155.483698 
L 365.589283 162.644543 
L 369.998341 173.337713 
L 375.409703 187.274448 
L 385.080755 212.601208 
L 388.421464 220.660555 
L 390.570553 225.431828 
L 392.651962 229.65501 
L 394.623056 233.223575 
L 396.431413 236.069005 
L 397.241965 237.192973 
L 398.487273 238.704428 
L 398.487273 238.704428 
" style="fill:none;stroke:#ffffff;stroke-linecap:square;"/>
   </g>
   <g id="line2d_16">
    <path clip-path="url(#pfde8e89cdf)" d="M 76.4483 269.523934 
L 81.495695 269.09097 
L 87.035615 268.912285 
L 93.02766 268.94423 
L 102.670196 269.258348 
L 120.042065 269.931299 
L 127.314611 270.039098 
L 134.705363 269.932412 
L 142.199316 269.525119 
L 149.724093 268.725183 
L 153.500454 268.146195 
L 157.272444 267.431293 
L 161.049498 266.56408 
L 164.804557 265.53092 
L 168.520239 264.323614 
L 172.231788 262.915544 
L 175.883955 261.302007 
L 179.46963 259.472513 
L 182.946052 257.438628 
L 186.291963 255.218909 
L 189.489377 252.837295 
L 192.559046 250.292957 
L 195.479743 247.608938 
L 198.251152 244.796027 
L 200.885169 241.848408 
L 203.367538 238.77796 
L 205.693145 235.592987 
L 207.858356 232.299244 
L 209.871037 228.8835 
L 211.709199 225.37115 
L 213.376632 221.751458 
L 214.858824 218.038271 
L 216.153507 214.213472 
L 217.228898 210.334227 
L 218.075512 206.474812 
L 218.721759 202.635305 
L 219.185518 198.86292 
L 219.501636 195.140267 
L 219.786627 187.911296 
L 219.764448 181.001501 
L 219.488964 165.051094 
L 219.659445 159.171275 
L 220.159666 153.453183 
L 221.047089 147.86298 
L 221.639122 145.148375 
L 222.33519 142.490692 
L 223.122792 139.935092 
L 224.029533 137.433554 
L 225.03016 135.038548 
L 226.154069 132.710782 
L 227.389195 130.470214 
L 228.759107 128.289971 
L 230.278137 126.153313 
L 231.912204 124.095746 
L 233.666898 122.112278 
L 235.526164 120.217836 
L 237.489668 118.414069 
L 239.561331 116.698718 
L 241.701007 115.096877 
L 243.916514 113.60595 
L 246.211002 112.225289 
L 248.548008 110.970656 
L 250.974275 109.826333 
L 253.433848 108.808239 
L 255.945617 107.914243 
L 258.489218 107.148709 
L 261.065973 106.512627 
L 263.671737 106.008038 
L 266.307425 105.636554 
L 268.955241 105.399154 
L 271.61747 105.29799 
L 274.310215 105.335107 
L 276.983099 105.502574 
L 279.631542 105.803259 
L 282.27232 106.241408 
L 284.857391 106.80229 
L 287.381564 107.486662 
L 289.861746 108.303824 
L 292.25368 109.231528 
L 294.60831 110.299104 
L 296.912474 111.494532 
L 299.176314 112.822075 
L 301.397642 114.278008 
L 303.589154 115.870741 
L 305.753658 117.599639 
L 307.873901 119.444989 
L 309.955619 121.41241 
L 314.035583 125.730954 
L 317.961276 130.49326 
L 321.738712 135.669393 
L 325.36948 141.219598 
L 328.848263 147.091437 
L 332.184627 153.246065 
L 335.377355 159.622872 
L 338.435713 166.176484 
L 341.367321 172.855313 
L 345.560416 183.020227 
L 350.827814 196.585407 
L 360.707109 222.444411 
L 364.38481 231.300221 
L 366.901518 236.865989 
L 369.512191 242.125546 
L 372.285753 247.080275 
L 375.307482 251.713263 
L 378.199995 255.419381 
L 378.199995 255.419381 
" style="fill:none;stroke:#ffffff;stroke-linecap:square;"/>
   </g>
   <g id="patch_3">
    <path d="M 57.6 307.584 
L 57.6 41.472 
" style="fill:none;stroke:#000000;stroke-linecap:square;stroke-linejoin:miter;stroke-width:0.8;"/>
   </g>
   <g id="patch_4">
    <path d="M 414.72 307.584 
L 414.72 41.472 
" style="fill:none;stroke:#000000;stroke-linecap:square;stroke-linejoin:miter;stroke-width:0.8;"/>
   </g>
   <g id="patch_5">
    <path d="M 57.6 307.584 
L 414.72 307.584 
" style="fill:none;stroke:#000000;stroke-linecap:square;stroke-linejoin:miter;stroke-width:0.8;"/>
   </g>
   <g id="patch_6">
    <path d="M 57.6 41.472 
L 414.72 41.472 
" style="fill:none;stroke:#000000;stroke-linecap:square;stroke-linejoin:miter;stroke-width:0.8;"/>
   </g>
  </g>
 </g>
 <defs>
  <clipPath id="pfde8e89cdf">
   <rect height="266.112" width="357.12" x="57.6" y="41.472"/>
  </clipPath>
 </defs>
</svg>
