<?xml version="1.0" encoding="utf-8" standalone="no"?>
<!DOCTYPE svg PUBLIC "-//W3C//DTD SVG 1.1//EN"
  "http://www.w3.org/Graphics/SVG/1.1/DTD/svg11.dtd">
<!-- Created with matplotlib (https://matplotlib.org/) -->
<svg height="345.6pt" version="1.1" viewBox="0 0 460.8 345.6" width="460.8pt" xmlns="http://www.w3.org/2000/svg" xmlns:xlink="http://www.w3.org/1999/xlink">
 <metadata>
  <rdf:RDF xmlns:cc="http://creativecommons.org/ns#" xmlns:dc="http://purl.org/dc/elements/1.1/" xmlns:rdf="http://www.w3.org/1999/02/22-rdf-syntax-ns#">
   <cc:Work>
    <dc:type rdf:resource="http://purl.org/dc/dcmitype/StillImage"/>
    <dc:date>2021-02-10T13:56:17.808181</dc:date>
    <dc:format>image/svg+xml</dc:format>
    <dc:creator>
     <cc:Agent>
      <dc:title>Matplotlib v3.3.3, https://matplotlib.org/</dc:title>
     </cc:Agent>
    </dc:creator>
   </cc:Work>
  </rdf:RDF>
 </metadata>
 <defs>
  <style type="text/css">*{stroke-linecap:butt;stroke-linejoin:round;}</style>
 </defs>
 <g id="figure_1">
  <g id="patch_1">
   <path d="M 0 345.6 
L 460.8 345.6 
L 460.8 0 
L 0 0 
z
" style="fill:#ffffff;"/>
  </g>
  <g id="axes_1">
   <g id="patch_2">
    <path d="M 57.6 307.584 
L 414.72 307.584 
L 414.72 41.472 
L 57.6 41.472 
z
" style="fill:#7d9051;"/>
   </g>
   <g id="matplotlib.axis_1">
    <g id="xtick_1">
     <g id="line2d_1">
      <defs>
       <path d="M 0 0 
L 0 3.5 
" id="m72858709c4" style="stroke:#000000;stroke-width:0.8;"/>
      </defs>
      <g>
       <use style="stroke:#000000;stroke-width:0.8;" x="85.058307" xlink:href="#m72858709c4" y="307.584"/>
      </g>
     </g>
     <g id="text_1">
      <!-- 80 -->
      <g transform="translate(78.695807 322.182437)scale(0.1 -0.1)">
       <defs>
        <path d="M 31.78125 34.625 
Q 24.75 34.625 20.71875 30.859375 
Q 16.703125 27.09375 16.703125 20.515625 
Q 16.703125 13.921875 20.71875 10.15625 
Q 24.75 6.390625 31.78125 6.390625 
Q 38.8125 6.390625 42.859375 10.171875 
Q 46.921875 13.96875 46.921875 20.515625 
Q 46.921875 27.09375 42.890625 30.859375 
Q 38.875 34.625 31.78125 34.625 
z
M 21.921875 38.8125 
Q 15.578125 40.375 12.03125 44.71875 
Q 8.5 49.078125 8.5 55.328125 
Q 8.5 64.0625 14.71875 69.140625 
Q 20.953125 74.21875 31.78125 74.21875 
Q 42.671875 74.21875 48.875 69.140625 
Q 55.078125 64.0625 55.078125 55.328125 
Q 55.078125 49.078125 51.53125 44.71875 
Q 48 40.375 41.703125 38.8125 
Q 48.828125 37.15625 52.796875 32.3125 
Q 56.78125 27.484375 56.78125 20.515625 
Q 56.78125 9.90625 50.3125 4.234375 
Q 43.84375 -1.421875 31.78125 -1.421875 
Q 19.734375 -1.421875 13.25 4.234375 
Q 6.78125 9.90625 6.78125 20.515625 
Q 6.78125 27.484375 10.78125 32.3125 
Q 14.796875 37.15625 21.921875 38.8125 
z
M 18.3125 54.390625 
Q 18.3125 48.734375 21.84375 45.5625 
Q 25.390625 42.390625 31.78125 42.390625 
Q 38.140625 42.390625 41.71875 45.5625 
Q 45.3125 48.734375 45.3125 54.390625 
Q 45.3125 60.0625 41.71875 63.234375 
Q 38.140625 66.40625 31.78125 66.40625 
Q 25.390625 66.40625 21.84375 63.234375 
Q 18.3125 60.0625 18.3125 54.390625 
z
" id="DejaVuSans-56"/>
        <path d="M 31.78125 66.40625 
Q 24.171875 66.40625 20.328125 58.90625 
Q 16.5 51.421875 16.5 36.375 
Q 16.5 21.390625 20.328125 13.890625 
Q 24.171875 6.390625 31.78125 6.390625 
Q 39.453125 6.390625 43.28125 13.890625 
Q 47.125 21.390625 47.125 36.375 
Q 47.125 51.421875 43.28125 58.90625 
Q 39.453125 66.40625 31.78125 66.40625 
z
M 31.78125 74.21875 
Q 44.046875 74.21875 50.515625 64.515625 
Q 56.984375 54.828125 56.984375 36.375 
Q 56.984375 17.96875 50.515625 8.265625 
Q 44.046875 -1.421875 31.78125 -1.421875 
Q 19.53125 -1.421875 13.0625 8.265625 
Q 6.59375 17.96875 6.59375 36.375 
Q 6.59375 54.828125 13.0625 64.515625 
Q 19.53125 74.21875 31.78125 74.21875 
z
" id="DejaVuSans-48"/>
       </defs>
       <use xlink:href="#DejaVuSans-56"/>
       <use x="63.623047" xlink:href="#DejaVuSans-48"/>
      </g>
     </g>
    </g>
    <g id="xtick_2">
     <g id="line2d_2">
      <g>
       <use style="stroke:#000000;stroke-width:0.8;" x="143.335413" xlink:href="#m72858709c4" y="307.584"/>
      </g>
     </g>
     <g id="text_2">
      <!-- 100 -->
      <g transform="translate(133.791663 322.182437)scale(0.1 -0.1)">
       <defs>
        <path d="M 12.40625 8.296875 
L 28.515625 8.296875 
L 28.515625 63.921875 
L 10.984375 60.40625 
L 10.984375 69.390625 
L 28.421875 72.90625 
L 38.28125 72.90625 
L 38.28125 8.296875 
L 54.390625 8.296875 
L 54.390625 0 
L 12.40625 0 
z
" id="DejaVuSans-49"/>
       </defs>
       <use xlink:href="#DejaVuSans-49"/>
       <use x="63.623047" xlink:href="#DejaVuSans-48"/>
       <use x="127.246094" xlink:href="#DejaVuSans-48"/>
      </g>
     </g>
    </g>
    <g id="xtick_3">
     <g id="line2d_3">
      <g>
       <use style="stroke:#000000;stroke-width:0.8;" x="201.612518" xlink:href="#m72858709c4" y="307.584"/>
      </g>
     </g>
     <g id="text_3">
      <!-- 120 -->
      <g transform="translate(192.068768 322.182437)scale(0.1 -0.1)">
       <defs>
        <path d="M 19.1875 8.296875 
L 53.609375 8.296875 
L 53.609375 0 
L 7.328125 0 
L 7.328125 8.296875 
Q 12.9375 14.109375 22.625 23.890625 
Q 32.328125 33.6875 34.8125 36.53125 
Q 39.546875 41.84375 41.421875 45.53125 
Q 43.3125 49.21875 43.3125 52.78125 
Q 43.3125 58.59375 39.234375 62.25 
Q 35.15625 65.921875 28.609375 65.921875 
Q 23.96875 65.921875 18.8125 64.3125 
Q 13.671875 62.703125 7.8125 59.421875 
L 7.8125 69.390625 
Q 13.765625 71.78125 18.9375 73 
Q 24.125 74.21875 28.421875 74.21875 
Q 39.75 74.21875 46.484375 68.546875 
Q 53.21875 62.890625 53.21875 53.421875 
Q 53.21875 48.921875 51.53125 44.890625 
Q 49.859375 40.875 45.40625 35.40625 
Q 44.1875 33.984375 37.640625 27.21875 
Q 31.109375 20.453125 19.1875 8.296875 
z
" id="DejaVuSans-50"/>
       </defs>
       <use xlink:href="#DejaVuSans-49"/>
       <use x="63.623047" xlink:href="#DejaVuSans-50"/>
       <use x="127.246094" xlink:href="#DejaVuSans-48"/>
      </g>
     </g>
    </g>
    <g id="xtick_4">
     <g id="line2d_4">
      <g>
       <use style="stroke:#000000;stroke-width:0.8;" x="259.889623" xlink:href="#m72858709c4" y="307.584"/>
      </g>
     </g>
     <g id="text_4">
      <!-- 140 -->
      <g transform="translate(250.345873 322.182437)scale(0.1 -0.1)">
       <defs>
        <path d="M 37.796875 64.3125 
L 12.890625 25.390625 
L 37.796875 25.390625 
z
M 35.203125 72.90625 
L 47.609375 72.90625 
L 47.609375 25.390625 
L 58.015625 25.390625 
L 58.015625 17.1875 
L 47.609375 17.1875 
L 47.609375 0 
L 37.796875 0 
L 37.796875 17.1875 
L 4.890625 17.1875 
L 4.890625 26.703125 
z
" id="DejaVuSans-52"/>
       </defs>
       <use xlink:href="#DejaVuSans-49"/>
       <use x="63.623047" xlink:href="#DejaVuSans-52"/>
       <use x="127.246094" xlink:href="#DejaVuSans-48"/>
      </g>
     </g>
    </g>
    <g id="xtick_5">
     <g id="line2d_5">
      <g>
       <use style="stroke:#000000;stroke-width:0.8;" x="318.166729" xlink:href="#m72858709c4" y="307.584"/>
      </g>
     </g>
     <g id="text_5">
      <!-- 160 -->
      <g transform="translate(308.622979 322.182437)scale(0.1 -0.1)">
       <defs>
        <path d="M 33.015625 40.375 
Q 26.375 40.375 22.484375 35.828125 
Q 18.609375 31.296875 18.609375 23.390625 
Q 18.609375 15.53125 22.484375 10.953125 
Q 26.375 6.390625 33.015625 6.390625 
Q 39.65625 6.390625 43.53125 10.953125 
Q 47.40625 15.53125 47.40625 23.390625 
Q 47.40625 31.296875 43.53125 35.828125 
Q 39.65625 40.375 33.015625 40.375 
z
M 52.59375 71.296875 
L 52.59375 62.3125 
Q 48.875 64.0625 45.09375 64.984375 
Q 41.3125 65.921875 37.59375 65.921875 
Q 27.828125 65.921875 22.671875 59.328125 
Q 17.53125 52.734375 16.796875 39.40625 
Q 19.671875 43.65625 24.015625 45.921875 
Q 28.375 48.1875 33.59375 48.1875 
Q 44.578125 48.1875 50.953125 41.515625 
Q 57.328125 34.859375 57.328125 23.390625 
Q 57.328125 12.15625 50.6875 5.359375 
Q 44.046875 -1.421875 33.015625 -1.421875 
Q 20.359375 -1.421875 13.671875 8.265625 
Q 6.984375 17.96875 6.984375 36.375 
Q 6.984375 53.65625 15.1875 63.9375 
Q 23.390625 74.21875 37.203125 74.21875 
Q 40.921875 74.21875 44.703125 73.484375 
Q 48.484375 72.75 52.59375 71.296875 
z
" id="DejaVuSans-54"/>
       </defs>
       <use xlink:href="#DejaVuSans-49"/>
       <use x="63.623047" xlink:href="#DejaVuSans-54"/>
       <use x="127.246094" xlink:href="#DejaVuSans-48"/>
      </g>
     </g>
    </g>
    <g id="xtick_6">
     <g id="line2d_6">
      <g>
       <use style="stroke:#000000;stroke-width:0.8;" x="376.443834" xlink:href="#m72858709c4" y="307.584"/>
      </g>
     </g>
     <g id="text_6">
      <!-- 180 -->
      <g transform="translate(366.900084 322.182437)scale(0.1 -0.1)">
       <use xlink:href="#DejaVuSans-49"/>
       <use x="63.623047" xlink:href="#DejaVuSans-56"/>
       <use x="127.246094" xlink:href="#DejaVuSans-48"/>
      </g>
     </g>
    </g>
   </g>
   <g id="matplotlib.axis_2">
    <g id="ytick_1">
     <g id="line2d_7">
      <defs>
       <path d="M 0 0 
L -3.5 0 
" id="me1e136462b" style="stroke:#000000;stroke-width:0.8;"/>
      </defs>
      <g>
       <use style="stroke:#000000;stroke-width:0.8;" x="57.6" xlink:href="#me1e136462b" y="261.677806"/>
      </g>
     </g>
     <g id="text_7">
      <!-- 100 -->
      <g transform="translate(31.5125 265.477025)scale(0.1 -0.1)">
       <use xlink:href="#DejaVuSans-49"/>
       <use x="63.623047" xlink:href="#DejaVuSans-48"/>
       <use x="127.246094" xlink:href="#DejaVuSans-48"/>
      </g>
     </g>
    </g>
    <g id="ytick_2">
     <g id="line2d_8">
      <g>
       <use style="stroke:#000000;stroke-width:0.8;" x="57.6" xlink:href="#me1e136462b" y="203.400701"/>
      </g>
     </g>
     <g id="text_8">
      <!-- 120 -->
      <g transform="translate(31.5125 207.199919)scale(0.1 -0.1)">
       <use xlink:href="#DejaVuSans-49"/>
       <use x="63.623047" xlink:href="#DejaVuSans-50"/>
       <use x="127.246094" xlink:href="#DejaVuSans-48"/>
      </g>
     </g>
    </g>
    <g id="ytick_3">
     <g id="line2d_9">
      <g>
       <use style="stroke:#000000;stroke-width:0.8;" x="57.6" xlink:href="#me1e136462b" y="145.123595"/>
      </g>
     </g>
     <g id="text_9">
      <!-- 140 -->
      <g transform="translate(31.5125 148.922814)scale(0.1 -0.1)">
       <use xlink:href="#DejaVuSans-49"/>
       <use x="63.623047" xlink:href="#DejaVuSans-52"/>
       <use x="127.246094" xlink:href="#DejaVuSans-48"/>
      </g>
     </g>
    </g>
    <g id="ytick_4">
     <g id="line2d_10">
      <g>
       <use style="stroke:#000000;stroke-width:0.8;" x="57.6" xlink:href="#me1e136462b" y="86.84649"/>
      </g>
     </g>
     <g id="text_10">
      <!-- 160 -->
      <g transform="translate(31.5125 90.645709)scale(0.1 -0.1)">
       <use xlink:href="#DejaVuSans-49"/>
       <use x="63.623047" xlink:href="#DejaVuSans-54"/>
       <use x="127.246094" xlink:href="#DejaVuSans-48"/>
      </g>
     </g>
    </g>
   </g>
   <g id="line2d_11">
    <path clip-path="url(#p8277b585d2)" d="M 76.316742 101.415766 
L 88.193616 118.021828 
L 96.955579 129.956979 
L 105.595159 141.44631 
L 114.112358 152.489821 
L 122.504262 163.090427 
L 130.770869 173.242299 
L 138.915094 182.948351 
L 146.936938 192.208583 
L 154.833486 201.022995 
L 162.604738 209.391587 
L 170.253608 217.317273 
L 177.780096 224.794226 
L 185.181288 231.825359 
L 192.460099 238.413586 
L 199.613613 244.553079 
L 206.644746 250.246752 
L 213.550583 255.497519 
L 220.334038 260.299552 
L 226.992197 264.65868 
L 233.525061 268.569074 
L 239.938456 272.036561 
L 244.14315 274.099571 
L 248.292479 275.964438 
L 252.38936 277.631164 
L 256.427963 279.099747 
L 260.414117 280.370188 
L 264.344908 281.442486 
L 268.220336 282.316643 
L 272.0404 282.992657 
L 275.805101 283.47053 
L 279.517352 283.75026 
L 283.171327 283.834761 
L 286.772852 283.718207 
L 290.3161 283.403511 
L 293.806899 282.890672 
L 297.242334 282.179692 
L 300.622406 281.270569 
L 303.947115 280.166218 
L 307.219375 278.860811 
L 310.433357 277.357261 
L 313.591976 275.65557 
L 316.698146 273.75865 
L 319.748952 271.660674 
L 322.744395 269.364556 
L 325.684475 266.870296 
L 328.569192 264.180808 
L 331.398545 261.290263 
L 334.172536 258.201577 
L 336.894077 254.917662 
L 339.55734 251.432691 
L 342.168155 247.749578 
L 344.723606 243.871236 
L 348.45334 237.679294 
L 352.057779 231.041532 
L 355.539836 223.95795 
L 358.899511 216.428548 
L 362.130977 208.453326 
L 365.242974 200.035198 
L 368.229676 191.168336 
L 371.091082 181.855655 
L 373.830106 172.097154 
L 376.446748 161.895746 
L 378.938094 151.245605 
L 381.307058 140.152558 
L 383.550727 128.610778 
L 385.6691 116.623177 
L 387.665091 104.19267 
L 389.5387 91.31343 
L 391.287013 77.991284 
L 392.912944 64.220404 
L 393.926966 54.794082 
L 393.926966 54.794082 
" style="fill:none;stroke:#fea952;stroke-linecap:square;"/>
   </g>
   <g id="line2d_12">
    <path clip-path="url(#p8277b585d2)" d="M 85.831202 94.683465 
L 97.615944 111.161174 
L 106.300081 122.990694 
L 114.855786 134.368907 
L 123.286022 145.300056 
L 131.576993 155.773708 
L 139.73328 165.790853 
L 147.765711 175.364458 
L 155.661445 184.479946 
L 163.42423 193.145943 
L 171.04487 201.353366 
L 178.523638 209.104147 
L 185.872545 216.406073 
L 193.077991 223.252674 
L 200.128449 229.636044 
L 207.034725 235.565535 
L 213.80369 241.049015 
L 220.3959 246.064043 
L 226.845824 250.632832 
L 233.112544 254.739497 
L 239.221615 258.400587 
L 245.150919 261.611636 
L 250.921148 264.387155 
L 254.643466 265.986581 
L 260.070189 268.028025 
L 265.339808 269.654517 
L 268.729425 270.505925 
L 272.022365 271.178845 
L 275.24629 271.676793 
L 278.381553 272.003119 
L 281.462054 272.162394 
L 284.448672 272.156396 
L 287.364027 271.989275 
L 290.216748 271.6633 
L 292.993227 271.18582 
L 295.738769 270.543657 
L 298.455485 269.73727 
L 301.122721 268.771718 
L 303.751512 267.643271 
L 306.338607 266.356461 
L 308.939692 264.871164 
L 311.506479 263.212894 
L 314.054695 261.36857 
L 316.568913 259.352554 
L 319.090168 257.114258 
L 321.576077 254.694398 
L 324.033768 252.084347 
L 327.702239 247.751145 
L 331.297104 242.970555 
L 334.830202 237.709304 
L 338.292567 231.968994 
L 341.667144 225.761045 
L 344.954619 219.079218 
L 348.145288 211.934604 
L 351.241501 204.297828 
L 354.230602 196.217281 
L 357.118478 187.648377 
L 359.894943 178.616008 
L 362.561752 169.118389 
L 365.116943 159.15999 
L 367.555961 148.736445 
L 369.878315 137.865057 
L 372.08453 126.519086 
L 374.170719 114.716328 
L 376.139319 102.459055 
L 377.989644 89.742391 
L 379.718202 76.573028 
L 381.326632 62.953039 
L 382.336212 53.568 
L 382.336212 53.568 
" style="fill:none;stroke:#ffffff;stroke-linecap:square;"/>
   </g>
   <g id="line2d_13">
    <path clip-path="url(#p8277b585d2)" d="M 66.802281 108.148068 
L 78.771288 124.882482 
L 87.611076 136.923263 
L 96.334533 148.523713 
L 104.938695 159.679587 
L 113.43153 170.407146 
L 121.808458 180.693744 
L 130.064478 190.532243 
L 138.212431 199.937219 
L 146.242741 208.900047 
L 154.164605 217.429809 
L 161.983578 225.5304 
L 169.687647 233.182379 
L 177.284586 240.398044 
L 184.791748 247.191127 
L 192.192502 253.540622 
L 199.485802 259.444489 
L 206.705266 264.930995 
L 213.822253 269.966273 
L 220.87185 274.577863 
L 227.828507 278.73756 
L 232.426731 281.264838 
L 236.99398 283.593988 
L 241.531964 285.723476 
L 246.050029 287.655642 
L 250.531581 289.377361 
L 254.995192 290.896161 
L 259.433787 292.204778 
L 263.847474 293.299826 
L 268.25294 294.182905 
L 272.616694 294.838843 
L 276.952556 295.27012 
L 281.238281 295.472162 
L 285.507163 295.443194 
L 289.73658 295.179065 
L 293.923734 294.677505 
L 298.070575 293.936993 
L 302.137627 292.959053 
L 306.128606 291.749052 
L 310.058338 290.301932 
L 313.915789 288.621422 
L 317.704209 286.708819 
L 321.367913 284.592591 
L 324.955188 282.253051 
L 328.450308 279.703282 
L 331.874527 276.934748 
L 335.175155 273.986382 
L 338.40623 270.823295 
L 341.554796 267.459943 
L 344.593789 263.927058 
L 347.56248 260.186813 
L 350.445874 256.264163 
L 353.239487 252.165793 
L 355.96021 247.874302 
L 358.614114 243.389594 
L 361.193715 238.716347 
L 364.921907 231.370363 
L 368.490736 223.614884 
L 371.917138 215.421434 
L 375.193059 206.820847 
L 378.326313 197.793753 
L 381.32405 188.332971 
L 384.180565 178.456458 
L 386.896824 168.163615 
L 389.489153 157.421336 
L 391.94111 146.269152 
L 394.270183 134.665424 
L 396.463602 122.638948 
L 398.533239 110.170628 
L 400.468146 97.281709 
L 402.282021 83.944757 
L 403.96635 70.175924 
L 405.517719 56.020164 
L 405.517719 56.020164 
" style="fill:none;stroke:#ffffff;stroke-linecap:square;"/>
   </g>
   <g id="patch_3">
    <path d="M 57.6 307.584 
L 57.6 41.472 
" style="fill:none;stroke:#000000;stroke-linecap:square;stroke-linejoin:miter;stroke-width:0.8;"/>
   </g>
   <g id="patch_4">
    <path d="M 414.72 307.584 
L 414.72 41.472 
" style="fill:none;stroke:#000000;stroke-linecap:square;stroke-linejoin:miter;stroke-width:0.8;"/>
   </g>
   <g id="patch_5">
    <path d="M 57.6 307.584 
L 414.72 307.584 
" style="fill:none;stroke:#000000;stroke-linecap:square;stroke-linejoin:miter;stroke-width:0.8;"/>
   </g>
   <g id="patch_6">
    <path d="M 57.6 41.472 
L 414.72 41.472 
" style="fill:none;stroke:#000000;stroke-linecap:square;stroke-linejoin:miter;stroke-width:0.8;"/>
   </g>
  </g>
 </g>
 <defs>
  <clipPath id="p8277b585d2">
   <rect height="266.112" width="357.12" x="57.6" y="41.472"/>
  </clipPath>
 </defs>
</svg>
