<?xml version="1.0" encoding="utf-8" standalone="no"?>
<!DOCTYPE svg PUBLIC "-//W3C//DTD SVG 1.1//EN"
  "http://www.w3.org/Graphics/SVG/1.1/DTD/svg11.dtd">
<!-- Created with matplotlib (https://matplotlib.org/) -->
<svg height="345.6pt" version="1.1" viewBox="0 0 460.8 345.6" width="460.8pt" xmlns="http://www.w3.org/2000/svg" xmlns:xlink="http://www.w3.org/1999/xlink">
 <metadata>
  <rdf:RDF xmlns:cc="http://creativecommons.org/ns#" xmlns:dc="http://purl.org/dc/elements/1.1/" xmlns:rdf="http://www.w3.org/1999/02/22-rdf-syntax-ns#">
   <cc:Work>
    <dc:type rdf:resource="http://purl.org/dc/dcmitype/StillImage"/>
    <dc:date>2021-03-15T19:25:21.434851</dc:date>
    <dc:format>image/svg+xml</dc:format>
    <dc:creator>
     <cc:Agent>
      <dc:title>Matplotlib v3.3.3, https://matplotlib.org/</dc:title>
     </cc:Agent>
    </dc:creator>
   </cc:Work>
  </rdf:RDF>
 </metadata>
 <defs>
  <style type="text/css">*{stroke-linecap:butt;stroke-linejoin:round;}</style>
 </defs>
 <g id="figure_1">
  <g id="patch_1">
   <path d="M 0 345.6 
L 460.8 345.6 
L 460.8 0 
L 0 0 
z
" style="fill:#ffffff;"/>
  </g>
  <g id="axes_1">
   <g id="patch_2">
    <path d="M 57.6 307.584 
L 414.72 307.584 
L 414.72 41.472 
L 57.6 41.472 
z
" style="fill:#7d9051;"/>
   </g>
   <g id="matplotlib.axis_1">
    <g id="xtick_1">
     <g id="line2d_1">
      <defs>
       <path d="M 0 0 
L 0 3.5 
" id="mbd5af40820" style="stroke:#000000;stroke-width:0.8;"/>
      </defs>
      <g>
       <use style="stroke:#000000;stroke-width:0.8;" x="97.258791" xlink:href="#mbd5af40820" y="307.584"/>
      </g>
     </g>
     <g id="text_1">
      <!-- 20 -->
      <g transform="translate(90.896291 322.182437)scale(0.1 -0.1)">
       <defs>
        <path d="M 19.1875 8.296875 
L 53.609375 8.296875 
L 53.609375 0 
L 7.328125 0 
L 7.328125 8.296875 
Q 12.9375 14.109375 22.625 23.890625 
Q 32.328125 33.6875 34.8125 36.53125 
Q 39.546875 41.84375 41.421875 45.53125 
Q 43.3125 49.21875 43.3125 52.78125 
Q 43.3125 58.59375 39.234375 62.25 
Q 35.15625 65.921875 28.609375 65.921875 
Q 23.96875 65.921875 18.8125 64.3125 
Q 13.671875 62.703125 7.8125 59.421875 
L 7.8125 69.390625 
Q 13.765625 71.78125 18.9375 73 
Q 24.125 74.21875 28.421875 74.21875 
Q 39.75 74.21875 46.484375 68.546875 
Q 53.21875 62.890625 53.21875 53.421875 
Q 53.21875 48.921875 51.53125 44.890625 
Q 49.859375 40.875 45.40625 35.40625 
Q 44.1875 33.984375 37.640625 27.21875 
Q 31.109375 20.453125 19.1875 8.296875 
z
" id="DejaVuSans-50"/>
        <path d="M 31.78125 66.40625 
Q 24.171875 66.40625 20.328125 58.90625 
Q 16.5 51.421875 16.5 36.375 
Q 16.5 21.390625 20.328125 13.890625 
Q 24.171875 6.390625 31.78125 6.390625 
Q 39.453125 6.390625 43.28125 13.890625 
Q 47.125 21.390625 47.125 36.375 
Q 47.125 51.421875 43.28125 58.90625 
Q 39.453125 66.40625 31.78125 66.40625 
z
M 31.78125 74.21875 
Q 44.046875 74.21875 50.515625 64.515625 
Q 56.984375 54.828125 56.984375 36.375 
Q 56.984375 17.96875 50.515625 8.265625 
Q 44.046875 -1.421875 31.78125 -1.421875 
Q 19.53125 -1.421875 13.0625 8.265625 
Q 6.59375 17.96875 6.59375 36.375 
Q 6.59375 54.828125 13.0625 64.515625 
Q 19.53125 74.21875 31.78125 74.21875 
z
" id="DejaVuSans-48"/>
       </defs>
       <use xlink:href="#DejaVuSans-50"/>
       <use x="63.623047" xlink:href="#DejaVuSans-48"/>
      </g>
     </g>
    </g>
    <g id="xtick_2">
     <g id="line2d_2">
      <g>
       <use style="stroke:#000000;stroke-width:0.8;" x="140.800218" xlink:href="#mbd5af40820" y="307.584"/>
      </g>
     </g>
     <g id="text_2">
      <!-- 40 -->
      <g transform="translate(134.437718 322.182437)scale(0.1 -0.1)">
       <defs>
        <path d="M 37.796875 64.3125 
L 12.890625 25.390625 
L 37.796875 25.390625 
z
M 35.203125 72.90625 
L 47.609375 72.90625 
L 47.609375 25.390625 
L 58.015625 25.390625 
L 58.015625 17.1875 
L 47.609375 17.1875 
L 47.609375 0 
L 37.796875 0 
L 37.796875 17.1875 
L 4.890625 17.1875 
L 4.890625 26.703125 
z
" id="DejaVuSans-52"/>
       </defs>
       <use xlink:href="#DejaVuSans-52"/>
       <use x="63.623047" xlink:href="#DejaVuSans-48"/>
      </g>
     </g>
    </g>
    <g id="xtick_3">
     <g id="line2d_3">
      <g>
       <use style="stroke:#000000;stroke-width:0.8;" x="184.341645" xlink:href="#mbd5af40820" y="307.584"/>
      </g>
     </g>
     <g id="text_3">
      <!-- 60 -->
      <g transform="translate(177.979145 322.182437)scale(0.1 -0.1)">
       <defs>
        <path d="M 33.015625 40.375 
Q 26.375 40.375 22.484375 35.828125 
Q 18.609375 31.296875 18.609375 23.390625 
Q 18.609375 15.53125 22.484375 10.953125 
Q 26.375 6.390625 33.015625 6.390625 
Q 39.65625 6.390625 43.53125 10.953125 
Q 47.40625 15.53125 47.40625 23.390625 
Q 47.40625 31.296875 43.53125 35.828125 
Q 39.65625 40.375 33.015625 40.375 
z
M 52.59375 71.296875 
L 52.59375 62.3125 
Q 48.875 64.0625 45.09375 64.984375 
Q 41.3125 65.921875 37.59375 65.921875 
Q 27.828125 65.921875 22.671875 59.328125 
Q 17.53125 52.734375 16.796875 39.40625 
Q 19.671875 43.65625 24.015625 45.921875 
Q 28.375 48.1875 33.59375 48.1875 
Q 44.578125 48.1875 50.953125 41.515625 
Q 57.328125 34.859375 57.328125 23.390625 
Q 57.328125 12.15625 50.6875 5.359375 
Q 44.046875 -1.421875 33.015625 -1.421875 
Q 20.359375 -1.421875 13.671875 8.265625 
Q 6.984375 17.96875 6.984375 36.375 
Q 6.984375 53.65625 15.1875 63.9375 
Q 23.390625 74.21875 37.203125 74.21875 
Q 40.921875 74.21875 44.703125 73.484375 
Q 48.484375 72.75 52.59375 71.296875 
z
" id="DejaVuSans-54"/>
       </defs>
       <use xlink:href="#DejaVuSans-54"/>
       <use x="63.623047" xlink:href="#DejaVuSans-48"/>
      </g>
     </g>
    </g>
    <g id="xtick_4">
     <g id="line2d_4">
      <g>
       <use style="stroke:#000000;stroke-width:0.8;" x="227.883072" xlink:href="#mbd5af40820" y="307.584"/>
      </g>
     </g>
     <g id="text_4">
      <!-- 80 -->
      <g transform="translate(221.520572 322.182437)scale(0.1 -0.1)">
       <defs>
        <path d="M 31.78125 34.625 
Q 24.75 34.625 20.71875 30.859375 
Q 16.703125 27.09375 16.703125 20.515625 
Q 16.703125 13.921875 20.71875 10.15625 
Q 24.75 6.390625 31.78125 6.390625 
Q 38.8125 6.390625 42.859375 10.171875 
Q 46.921875 13.96875 46.921875 20.515625 
Q 46.921875 27.09375 42.890625 30.859375 
Q 38.875 34.625 31.78125 34.625 
z
M 21.921875 38.8125 
Q 15.578125 40.375 12.03125 44.71875 
Q 8.5 49.078125 8.5 55.328125 
Q 8.5 64.0625 14.71875 69.140625 
Q 20.953125 74.21875 31.78125 74.21875 
Q 42.671875 74.21875 48.875 69.140625 
Q 55.078125 64.0625 55.078125 55.328125 
Q 55.078125 49.078125 51.53125 44.71875 
Q 48 40.375 41.703125 38.8125 
Q 48.828125 37.15625 52.796875 32.3125 
Q 56.78125 27.484375 56.78125 20.515625 
Q 56.78125 9.90625 50.3125 4.234375 
Q 43.84375 -1.421875 31.78125 -1.421875 
Q 19.734375 -1.421875 13.25 4.234375 
Q 6.78125 9.90625 6.78125 20.515625 
Q 6.78125 27.484375 10.78125 32.3125 
Q 14.796875 37.15625 21.921875 38.8125 
z
M 18.3125 54.390625 
Q 18.3125 48.734375 21.84375 45.5625 
Q 25.390625 42.390625 31.78125 42.390625 
Q 38.140625 42.390625 41.71875 45.5625 
Q 45.3125 48.734375 45.3125 54.390625 
Q 45.3125 60.0625 41.71875 63.234375 
Q 38.140625 66.40625 31.78125 66.40625 
Q 25.390625 66.40625 21.84375 63.234375 
Q 18.3125 60.0625 18.3125 54.390625 
z
" id="DejaVuSans-56"/>
       </defs>
       <use xlink:href="#DejaVuSans-56"/>
       <use x="63.623047" xlink:href="#DejaVuSans-48"/>
      </g>
     </g>
    </g>
    <g id="xtick_5">
     <g id="line2d_5">
      <g>
       <use style="stroke:#000000;stroke-width:0.8;" x="271.424499" xlink:href="#mbd5af40820" y="307.584"/>
      </g>
     </g>
     <g id="text_5">
      <!-- 100 -->
      <g transform="translate(261.880749 322.182437)scale(0.1 -0.1)">
       <defs>
        <path d="M 12.40625 8.296875 
L 28.515625 8.296875 
L 28.515625 63.921875 
L 10.984375 60.40625 
L 10.984375 69.390625 
L 28.421875 72.90625 
L 38.28125 72.90625 
L 38.28125 8.296875 
L 54.390625 8.296875 
L 54.390625 0 
L 12.40625 0 
z
" id="DejaVuSans-49"/>
       </defs>
       <use xlink:href="#DejaVuSans-49"/>
       <use x="63.623047" xlink:href="#DejaVuSans-48"/>
       <use x="127.246094" xlink:href="#DejaVuSans-48"/>
      </g>
     </g>
    </g>
    <g id="xtick_6">
     <g id="line2d_6">
      <g>
       <use style="stroke:#000000;stroke-width:0.8;" x="314.965925" xlink:href="#mbd5af40820" y="307.584"/>
      </g>
     </g>
     <g id="text_6">
      <!-- 120 -->
      <g transform="translate(305.422175 322.182437)scale(0.1 -0.1)">
       <use xlink:href="#DejaVuSans-49"/>
       <use x="63.623047" xlink:href="#DejaVuSans-50"/>
       <use x="127.246094" xlink:href="#DejaVuSans-48"/>
      </g>
     </g>
    </g>
    <g id="xtick_7">
     <g id="line2d_7">
      <g>
       <use style="stroke:#000000;stroke-width:0.8;" x="358.507352" xlink:href="#mbd5af40820" y="307.584"/>
      </g>
     </g>
     <g id="text_7">
      <!-- 140 -->
      <g transform="translate(348.963602 322.182437)scale(0.1 -0.1)">
       <use xlink:href="#DejaVuSans-49"/>
       <use x="63.623047" xlink:href="#DejaVuSans-52"/>
       <use x="127.246094" xlink:href="#DejaVuSans-48"/>
      </g>
     </g>
    </g>
    <g id="xtick_8">
     <g id="line2d_8">
      <g>
       <use style="stroke:#000000;stroke-width:0.8;" x="402.048779" xlink:href="#mbd5af40820" y="307.584"/>
      </g>
     </g>
     <g id="text_8">
      <!-- 160 -->
      <g transform="translate(392.505029 322.182437)scale(0.1 -0.1)">
       <use xlink:href="#DejaVuSans-49"/>
       <use x="63.623047" xlink:href="#DejaVuSans-54"/>
       <use x="127.246094" xlink:href="#DejaVuSans-48"/>
      </g>
     </g>
    </g>
   </g>
   <g id="matplotlib.axis_2">
    <g id="ytick_1">
     <g id="line2d_9">
      <defs>
       <path d="M 0 0 
L -3.5 0 
" id="m3142849338" style="stroke:#000000;stroke-width:0.8;"/>
      </defs>
      <g>
       <use style="stroke:#000000;stroke-width:0.8;" x="57.6" xlink:href="#m3142849338" y="301.671622"/>
      </g>
     </g>
     <g id="text_9">
      <!-- −20 -->
      <g transform="translate(29.495313 305.470841)scale(0.1 -0.1)">
       <defs>
        <path d="M 10.59375 35.5 
L 73.1875 35.5 
L 73.1875 27.203125 
L 10.59375 27.203125 
z
" id="DejaVuSans-8722"/>
       </defs>
       <use xlink:href="#DejaVuSans-8722"/>
       <use x="83.789062" xlink:href="#DejaVuSans-50"/>
       <use x="147.412109" xlink:href="#DejaVuSans-48"/>
      </g>
     </g>
    </g>
    <g id="ytick_2">
     <g id="line2d_10">
      <g>
       <use style="stroke:#000000;stroke-width:0.8;" x="57.6" xlink:href="#m3142849338" y="258.130195"/>
      </g>
     </g>
     <g id="text_10">
      <!-- 0 -->
      <g transform="translate(44.2375 261.929414)scale(0.1 -0.1)">
       <use xlink:href="#DejaVuSans-48"/>
      </g>
     </g>
    </g>
    <g id="ytick_3">
     <g id="line2d_11">
      <g>
       <use style="stroke:#000000;stroke-width:0.8;" x="57.6" xlink:href="#m3142849338" y="214.588768"/>
      </g>
     </g>
     <g id="text_11">
      <!-- 20 -->
      <g transform="translate(37.875 218.387987)scale(0.1 -0.1)">
       <use xlink:href="#DejaVuSans-50"/>
       <use x="63.623047" xlink:href="#DejaVuSans-48"/>
      </g>
     </g>
    </g>
    <g id="ytick_4">
     <g id="line2d_12">
      <g>
       <use style="stroke:#000000;stroke-width:0.8;" x="57.6" xlink:href="#m3142849338" y="171.047341"/>
      </g>
     </g>
     <g id="text_12">
      <!-- 40 -->
      <g transform="translate(37.875 174.84656)scale(0.1 -0.1)">
       <use xlink:href="#DejaVuSans-52"/>
       <use x="63.623047" xlink:href="#DejaVuSans-48"/>
      </g>
     </g>
    </g>
    <g id="ytick_5">
     <g id="line2d_13">
      <g>
       <use style="stroke:#000000;stroke-width:0.8;" x="57.6" xlink:href="#m3142849338" y="127.505914"/>
      </g>
     </g>
     <g id="text_13">
      <!-- 60 -->
      <g transform="translate(37.875 131.305133)scale(0.1 -0.1)">
       <use xlink:href="#DejaVuSans-54"/>
       <use x="63.623047" xlink:href="#DejaVuSans-48"/>
      </g>
     </g>
    </g>
    <g id="ytick_6">
     <g id="line2d_14">
      <g>
       <use style="stroke:#000000;stroke-width:0.8;" x="57.6" xlink:href="#m3142849338" y="83.964487"/>
      </g>
     </g>
     <g id="text_14">
      <!-- 80 -->
      <g transform="translate(37.875 87.763706)scale(0.1 -0.1)">
       <use xlink:href="#DejaVuSans-56"/>
       <use x="63.623047" xlink:href="#DejaVuSans-48"/>
      </g>
     </g>
    </g>
   </g>
   <g id="line2d_15">
    <path clip-path="url(#p629ee62ea6)" d="M 75.488077 236.359482 
L 79.483003 235.680235 
L 83.617262 235.321019 
L 87.866905 235.218696 
L 92.212339 235.307956 
L 98.856761 235.667173 
L 110.099157 236.335534 
L 114.590456 236.440033 
L 119.049098 236.359482 
L 123.446782 236.02639 
L 127.768269 235.381977 
L 131.98961 234.358753 
L 134.055651 233.686038 
L 136.086858 232.897938 
L 138.081055 231.998808 
L 140.027357 230.990824 
L 141.923586 229.880517 
L 145.535348 227.376885 
L 148.870621 224.522745 
L 151.885865 221.35946 
L 154.572371 217.913156 
L 156.921431 214.214312 
L 158.926514 210.289052 
L 160.55714 206.174387 
L 161.212439 204.064805 
L 161.745821 201.929098 
L 162.148579 199.775975 
L 162.412005 197.611966 
L 162.525213 195.443603 
L 162.483848 193.281771 
L 162.00707 188.97117 
L 160.781378 182.524861 
L 159.991102 178.218614 
L 159.470781 173.897128 
L 159.244366 169.556047 
L 159.268314 165.199728 
L 159.505615 160.828168 
L 160.169621 154.249059 
L 160.811857 149.873145 
L 161.680509 145.553836 
L 162.843065 141.336849 
L 164.371369 137.270079 
L 165.294447 135.308538 
L 166.33291 133.401423 
L 167.488935 131.55309 
L 168.755991 129.767891 
L 170.125369 128.052359 
L 171.592715 126.406493 
L 173.149321 124.836825 
L 176.506365 121.94132 
L 178.291563 120.622015 
L 182.044834 118.259892 
L 185.998396 116.29182 
L 190.115238 114.73086 
L 194.35835 113.590074 
L 198.697253 112.880349 
L 200.891741 112.690944 
L 203.094937 112.614746 
L 207.514392 112.804151 
L 209.715411 113.0654 
L 214.063023 113.916635 
L 218.288718 115.196753 
L 220.337342 115.991384 
L 222.33154 116.88616 
L 224.266956 117.883259 
L 226.134883 118.978326 
L 227.930967 120.169184 
L 231.325021 122.825211 
L 234.464358 125.823038 
L 237.375103 129.134364 
L 240.074671 132.730886 
L 242.584834 136.584302 
L 244.925186 140.666311 
L 247.11532 144.950787 
L 249.177006 149.407252 
L 252.072511 156.356464 
L 254.79385 163.534268 
L 259.126222 175.756347 
L 263.482542 187.917467 
L 266.240892 195.001657 
L 269.193 201.811536 
L 271.300405 206.152617 
L 273.547143 210.299938 
L 275.948453 214.229551 
L 278.528282 217.906625 
L 281.306225 221.309387 
L 284.304053 224.40736 
L 287.539181 227.172241 
L 289.252536 228.419702 
L 291.03338 229.575727 
L 292.883891 230.633784 
L 294.808422 231.589518 
L 296.804796 232.44293 
L 298.881722 233.187489 
L 301.037023 233.821016 
L 303.277229 234.339159 
L 305.600165 234.737564 
L 308.01236 235.016229 
L 310.513815 235.168624 
L 313.108884 235.192571 
L 315.799744 235.085895 
L 318.588572 234.839886 
L 321.477546 234.456721 
L 324.471019 233.92987 
L 327.568992 233.257155 
L 330.773641 232.434222 
L 334.091497 231.456717 
L 337.520385 230.322463 
L 341.066834 229.029282 
L 348.516772 225.944372 
L 356.460905 222.175862 
L 364.921005 217.695449 
L 373.914486 212.472655 
L 383.463121 206.483532 
L 393.58868 199.6976 
L 393.58868 199.6976 
" style="fill:none;stroke:#fea952;stroke-linecap:square;"/>
   </g>
   <g id="line2d_16">
    <path clip-path="url(#p629ee62ea6)" d="M 73.832727 227.809976 
L 78.573769 227.019547 
L 83.29429 226.618724 
L 87.963365 226.510945 
L 92.599948 226.608301 
L 101.669528 227.125771 
L 110.377209 227.631689 
L 116.562025 227.722697 
L 120.455026 227.557546 
L 124.158254 227.162913 
L 127.639506 226.508803 
L 130.905665 225.567428 
L 134.07627 224.266025 
L 137.144976 222.600468 
L 140.039746 220.621695 
L 142.721612 218.35639 
L 145.150667 215.839375 
L 147.335986 213.068678 
L 149.258747 210.07698 
L 150.912626 206.881438 
L 152.24084 203.591099 
L 153.186004 200.327919 
L 153.715564 197.157935 
L 153.818521 195.610196 
L 153.806679 194.017273 
L 153.426609 190.457754 
L 152.681967 186.403079 
L 151.364856 179.411143 
L 150.782133 174.481605 
L 150.536359 169.625711 
L 150.568396 164.818076 
L 150.828248 160.094991 
L 151.263388 155.434205 
L 151.864817 150.693297 
L 152.703687 145.849128 
L 153.87392 140.945039 
L 154.617177 138.478701 
L 155.485027 136.014408 
L 156.49195 133.562117 
L 157.646481 131.144063 
L 158.949765 128.783697 
L 160.38753 126.512824 
L 161.950068 124.335245 
L 163.625261 122.257289 
L 165.409353 120.274588 
L 167.29831 118.387026 
L 169.269904 116.613201 
L 171.330718 114.93797 
L 173.476847 113.365794 
L 175.683113 111.914046 
L 177.973092 110.562156 
L 180.313003 109.336459 
L 182.710873 108.227923 
L 185.153087 107.243749 
L 187.647779 106.37946 
L 190.169489 105.645428 
L 192.736852 105.034083 
L 195.32871 104.554093 
L 197.948429 104.204319 
L 200.590745 103.987862 
L 203.249346 103.90783 
L 205.895293 103.965701 
L 208.540811 104.156568 
L 211.17754 104.480738 
L 213.784843 104.935557 
L 216.378259 105.52176 
L 218.927541 106.236189 
L 221.437924 107.077841 
L 223.902257 108.046221 
L 226.319765 109.144824 
L 228.67113 110.370771 
L 230.947084 111.720436 
L 233.124899 113.179384 
L 235.195482 114.731467 
L 237.191559 116.389531 
L 239.082856 118.126161 
L 242.610852 121.832075 
L 245.81108 125.799785 
L 248.721986 129.987442 
L 251.387347 134.367615 
L 253.834417 138.905817 
L 256.095395 143.571036 
L 258.204708 148.345983 
L 261.140859 155.646902 
L 264.75618 165.504289 
L 272.503031 187.149416 
L 275.194017 193.850935 
L 277.064438 198.08666 
L 279.006179 202.096106 
L 281.04173 205.865368 
L 283.160465 209.348864 
L 285.379936 212.531769 
L 287.700064 215.397276 
L 290.128606 217.933658 
L 292.66487 220.132245 
L 295.355815 222.015913 
L 298.231405 223.582183 
L 301.337536 224.832657 
L 304.749284 225.756194 
L 308.541909 226.324059 
L 310.594173 226.460709 
L 312.763923 226.491121 
L 315.034537 226.411294 
L 317.443619 226.207197 
L 319.968088 225.880255 
L 322.623107 225.419908 
L 325.403035 224.822532 
L 328.312598 224.080929 
L 331.3566 223.189035 
L 337.845924 220.938549 
L 344.878112 218.032711 
L 352.464852 214.438563 
L 360.618134 210.124482 
L 369.350113 205.056407 
L 378.667821 199.214465 
L 388.690088 192.497737 
L 388.690088 192.497737 
" style="fill:none;stroke:#ffffff;stroke-linecap:square;"/>
   </g>
   <g id="line2d_17">
    <path clip-path="url(#p629ee62ea6)" d="M 77.143427 244.908988 
L 80.392238 244.340924 
L 83.940233 244.023313 
L 87.770444 243.926447 
L 93.924348 244.100591 
L 114.641331 245.14817 
L 119.563481 245.052562 
L 124.554602 244.663922 
L 129.616719 243.891822 
L 132.146674 243.332072 
L 134.685757 242.639153 
L 137.205636 241.804648 
L 139.666196 240.836614 
L 142.085841 239.73159 
L 144.427542 238.50565 
L 146.702197 237.160567 
L 148.901446 235.703673 
L 151.03095 234.132076 
L 153.065053 232.463338 
L 155.01963 230.689099 
L 156.872324 228.825793 
L 158.621063 226.879545 
L 160.267166 224.854708 
L 161.808756 222.757634 
L 163.250544 220.585833 
L 164.584114 218.351644 
L 165.809497 216.063135 
L 166.940401 213.696667 
L 167.965663 211.258241 
L 168.873441 208.757676 
L 169.661223 206.174848 
L 170.305638 203.530277 
L 170.793052 200.82827 
L 171.108446 198.065997 
L 171.231904 195.277009 
L 171.161018 192.546269 
L 170.929247 189.946521 
L 170.182842 185.159557 
L 168.617347 177.026086 
L 168.15943 173.31265 
L 167.952373 169.486383 
L 167.968232 165.581379 
L 168.182981 161.561345 
L 168.799558 155.414572 
L 169.375524 151.453601 
L 170.120585 147.698445 
L 171.068953 144.194996 
L 172.250789 140.978041 
L 173.716056 138.01915 
L 175.561914 135.200538 
L 177.776077 132.538399 
L 180.311761 130.082215 
L 183.106279 127.878236 
L 186.116577 125.957629 
L 189.285918 124.355716 
L 192.582697 123.082259 
L 195.979848 122.146065 
L 199.446077 121.556379 
L 202.940529 121.321663 
L 206.487973 121.451735 
L 210.017538 121.939802 
L 213.46121 122.772699 
L 216.772427 123.936547 
L 219.862782 125.395747 
L 222.737035 127.158984 
L 225.458484 129.26089 
L 228.048954 131.711741 
L 230.509422 134.49129 
L 232.853266 137.597665 
L 235.089093 141.016919 
L 237.215459 144.715304 
L 239.244365 148.676683 
L 241.183895 152.863321 
L 243.957608 159.515985 
L 246.605585 166.498479 
L 250.906607 178.632482 
L 255.338534 191.001193 
L 258.201801 198.349381 
L 260.248237 203.16622 
L 262.436222 207.887833 
L 264.800062 212.493596 
L 267.362586 216.941493 
L 270.173171 221.224305 
L 273.254874 225.282576 
L 276.657915 229.095935 
L 278.479499 230.881062 
L 280.402283 232.595783 
L 282.413491 234.212236 
L 284.511017 235.723964 
L 286.710945 237.135542 
L 289.010617 238.43327 
L 291.385439 239.596854 
L 293.866087 240.640383 
L 296.425908 241.54232 
L 299.074667 242.305319 
L 301.805174 242.922125 
L 304.6008 243.388315 
L 307.482811 243.708398 
L 310.433456 243.876538 
L 313.453844 243.894022 
L 316.564951 243.760495 
L 319.733526 243.472575 
L 322.987004 243.033187 
L 326.318931 242.439832 
L 329.734948 241.691778 
L 333.234683 240.787515 
L 336.826394 239.724399 
L 340.503638 238.50381 
L 344.287744 237.120016 
L 348.167869 235.571963 
L 352.155432 233.856034 
L 360.456959 229.91316 
L 369.223875 225.266416 
L 378.478859 219.888903 
L 388.258422 213.752598 
L 398.487273 206.897463 
L 398.487273 206.897463 
" style="fill:none;stroke:#ffffff;stroke-linecap:square;"/>
   </g>
   <g id="patch_3">
    <path d="M 57.6 307.584 
L 57.6 41.472 
" style="fill:none;stroke:#000000;stroke-linecap:square;stroke-linejoin:miter;stroke-width:0.8;"/>
   </g>
   <g id="patch_4">
    <path d="M 414.72 307.584 
L 414.72 41.472 
" style="fill:none;stroke:#000000;stroke-linecap:square;stroke-linejoin:miter;stroke-width:0.8;"/>
   </g>
   <g id="patch_5">
    <path d="M 57.6 307.584 
L 414.72 307.584 
" style="fill:none;stroke:#000000;stroke-linecap:square;stroke-linejoin:miter;stroke-width:0.8;"/>
   </g>
   <g id="patch_6">
    <path d="M 57.6 41.472 
L 414.72 41.472 
" style="fill:none;stroke:#000000;stroke-linecap:square;stroke-linejoin:miter;stroke-width:0.8;"/>
   </g>
  </g>
 </g>
 <defs>
  <clipPath id="p629ee62ea6">
   <rect height="266.112" width="357.12" x="57.6" y="41.472"/>
  </clipPath>
 </defs>
</svg>
