<?xml version="1.0" encoding="utf-8" standalone="no"?>
<!DOCTYPE svg PUBLIC "-//W3C//DTD SVG 1.1//EN"
  "http://www.w3.org/Graphics/SVG/1.1/DTD/svg11.dtd">
<!-- Created with matplotlib (https://matplotlib.org/) -->
<svg height="345.6pt" version="1.1" viewBox="0 0 460.8 345.6" width="460.8pt" xmlns="http://www.w3.org/2000/svg" xmlns:xlink="http://www.w3.org/1999/xlink">
 <metadata>
  <rdf:RDF xmlns:cc="http://creativecommons.org/ns#" xmlns:dc="http://purl.org/dc/elements/1.1/" xmlns:rdf="http://www.w3.org/1999/02/22-rdf-syntax-ns#">
   <cc:Work>
    <dc:type rdf:resource="http://purl.org/dc/dcmitype/StillImage"/>
    <dc:date>2021-03-15T18:13:21.376561</dc:date>
    <dc:format>image/svg+xml</dc:format>
    <dc:creator>
     <cc:Agent>
      <dc:title>Matplotlib v3.3.3, https://matplotlib.org/</dc:title>
     </cc:Agent>
    </dc:creator>
   </cc:Work>
  </rdf:RDF>
 </metadata>
 <defs>
  <style type="text/css">*{stroke-linecap:butt;stroke-linejoin:round;}</style>
 </defs>
 <g id="figure_1">
  <g id="patch_1">
   <path d="M 0 345.6 
L 460.8 345.6 
L 460.8 0 
L 0 0 
z
" style="fill:#ffffff;"/>
  </g>
  <g id="axes_1">
   <g id="patch_2">
    <path d="M 57.6 307.584 
L 414.72 307.584 
L 414.72 41.472 
L 57.6 41.472 
z
" style="fill:#7d9051;"/>
   </g>
   <g id="matplotlib.axis_1">
    <g id="xtick_1">
     <g id="line2d_1">
      <defs>
       <path d="M 0 0 
L 0 3.5 
" id="m681e6a441e" style="stroke:#000000;stroke-width:0.8;"/>
      </defs>
      <g>
       <use style="stroke:#000000;stroke-width:0.8;" x="109.492121" xlink:href="#m681e6a441e" y="307.584"/>
      </g>
     </g>
     <g id="text_1">
      <!-- 20 -->
      <g transform="translate(103.129621 322.182437)scale(0.1 -0.1)">
       <defs>
        <path d="M 19.1875 8.296875 
L 53.609375 8.296875 
L 53.609375 0 
L 7.328125 0 
L 7.328125 8.296875 
Q 12.9375 14.109375 22.625 23.890625 
Q 32.328125 33.6875 34.8125 36.53125 
Q 39.546875 41.84375 41.421875 45.53125 
Q 43.3125 49.21875 43.3125 52.78125 
Q 43.3125 58.59375 39.234375 62.25 
Q 35.15625 65.921875 28.609375 65.921875 
Q 23.96875 65.921875 18.8125 64.3125 
Q 13.671875 62.703125 7.8125 59.421875 
L 7.8125 69.390625 
Q 13.765625 71.78125 18.9375 73 
Q 24.125 74.21875 28.421875 74.21875 
Q 39.75 74.21875 46.484375 68.546875 
Q 53.21875 62.890625 53.21875 53.421875 
Q 53.21875 48.921875 51.53125 44.890625 
Q 49.859375 40.875 45.40625 35.40625 
Q 44.1875 33.984375 37.640625 27.21875 
Q 31.109375 20.453125 19.1875 8.296875 
z
" id="DejaVuSans-50"/>
        <path d="M 31.78125 66.40625 
Q 24.171875 66.40625 20.328125 58.90625 
Q 16.5 51.421875 16.5 36.375 
Q 16.5 21.390625 20.328125 13.890625 
Q 24.171875 6.390625 31.78125 6.390625 
Q 39.453125 6.390625 43.28125 13.890625 
Q 47.125 21.390625 47.125 36.375 
Q 47.125 51.421875 43.28125 58.90625 
Q 39.453125 66.40625 31.78125 66.40625 
z
M 31.78125 74.21875 
Q 44.046875 74.21875 50.515625 64.515625 
Q 56.984375 54.828125 56.984375 36.375 
Q 56.984375 17.96875 50.515625 8.265625 
Q 44.046875 -1.421875 31.78125 -1.421875 
Q 19.53125 -1.421875 13.0625 8.265625 
Q 6.59375 17.96875 6.59375 36.375 
Q 6.59375 54.828125 13.0625 64.515625 
Q 19.53125 74.21875 31.78125 74.21875 
z
" id="DejaVuSans-48"/>
       </defs>
       <use xlink:href="#DejaVuSans-50"/>
       <use x="63.623047" xlink:href="#DejaVuSans-48"/>
      </g>
     </g>
    </g>
    <g id="xtick_2">
     <g id="line2d_2">
      <g>
       <use style="stroke:#000000;stroke-width:0.8;" x="175.776289" xlink:href="#m681e6a441e" y="307.584"/>
      </g>
     </g>
     <g id="text_2">
      <!-- 40 -->
      <g transform="translate(169.413789 322.182437)scale(0.1 -0.1)">
       <defs>
        <path d="M 37.796875 64.3125 
L 12.890625 25.390625 
L 37.796875 25.390625 
z
M 35.203125 72.90625 
L 47.609375 72.90625 
L 47.609375 25.390625 
L 58.015625 25.390625 
L 58.015625 17.1875 
L 47.609375 17.1875 
L 47.609375 0 
L 37.796875 0 
L 37.796875 17.1875 
L 4.890625 17.1875 
L 4.890625 26.703125 
z
" id="DejaVuSans-52"/>
       </defs>
       <use xlink:href="#DejaVuSans-52"/>
       <use x="63.623047" xlink:href="#DejaVuSans-48"/>
      </g>
     </g>
    </g>
    <g id="xtick_3">
     <g id="line2d_3">
      <g>
       <use style="stroke:#000000;stroke-width:0.8;" x="242.060457" xlink:href="#m681e6a441e" y="307.584"/>
      </g>
     </g>
     <g id="text_3">
      <!-- 60 -->
      <g transform="translate(235.697957 322.182437)scale(0.1 -0.1)">
       <defs>
        <path d="M 33.015625 40.375 
Q 26.375 40.375 22.484375 35.828125 
Q 18.609375 31.296875 18.609375 23.390625 
Q 18.609375 15.53125 22.484375 10.953125 
Q 26.375 6.390625 33.015625 6.390625 
Q 39.65625 6.390625 43.53125 10.953125 
Q 47.40625 15.53125 47.40625 23.390625 
Q 47.40625 31.296875 43.53125 35.828125 
Q 39.65625 40.375 33.015625 40.375 
z
M 52.59375 71.296875 
L 52.59375 62.3125 
Q 48.875 64.0625 45.09375 64.984375 
Q 41.3125 65.921875 37.59375 65.921875 
Q 27.828125 65.921875 22.671875 59.328125 
Q 17.53125 52.734375 16.796875 39.40625 
Q 19.671875 43.65625 24.015625 45.921875 
Q 28.375 48.1875 33.59375 48.1875 
Q 44.578125 48.1875 50.953125 41.515625 
Q 57.328125 34.859375 57.328125 23.390625 
Q 57.328125 12.15625 50.6875 5.359375 
Q 44.046875 -1.421875 33.015625 -1.421875 
Q 20.359375 -1.421875 13.671875 8.265625 
Q 6.984375 17.96875 6.984375 36.375 
Q 6.984375 53.65625 15.1875 63.9375 
Q 23.390625 74.21875 37.203125 74.21875 
Q 40.921875 74.21875 44.703125 73.484375 
Q 48.484375 72.75 52.59375 71.296875 
z
" id="DejaVuSans-54"/>
       </defs>
       <use xlink:href="#DejaVuSans-54"/>
       <use x="63.623047" xlink:href="#DejaVuSans-48"/>
      </g>
     </g>
    </g>
    <g id="xtick_4">
     <g id="line2d_4">
      <g>
       <use style="stroke:#000000;stroke-width:0.8;" x="308.344625" xlink:href="#m681e6a441e" y="307.584"/>
      </g>
     </g>
     <g id="text_4">
      <!-- 80 -->
      <g transform="translate(301.982125 322.182437)scale(0.1 -0.1)">
       <defs>
        <path d="M 31.78125 34.625 
Q 24.75 34.625 20.71875 30.859375 
Q 16.703125 27.09375 16.703125 20.515625 
Q 16.703125 13.921875 20.71875 10.15625 
Q 24.75 6.390625 31.78125 6.390625 
Q 38.8125 6.390625 42.859375 10.171875 
Q 46.921875 13.96875 46.921875 20.515625 
Q 46.921875 27.09375 42.890625 30.859375 
Q 38.875 34.625 31.78125 34.625 
z
M 21.921875 38.8125 
Q 15.578125 40.375 12.03125 44.71875 
Q 8.5 49.078125 8.5 55.328125 
Q 8.5 64.0625 14.71875 69.140625 
Q 20.953125 74.21875 31.78125 74.21875 
Q 42.671875 74.21875 48.875 69.140625 
Q 55.078125 64.0625 55.078125 55.328125 
Q 55.078125 49.078125 51.53125 44.71875 
Q 48 40.375 41.703125 38.8125 
Q 48.828125 37.15625 52.796875 32.3125 
Q 56.78125 27.484375 56.78125 20.515625 
Q 56.78125 9.90625 50.3125 4.234375 
Q 43.84375 -1.421875 31.78125 -1.421875 
Q 19.734375 -1.421875 13.25 4.234375 
Q 6.78125 9.90625 6.78125 20.515625 
Q 6.78125 27.484375 10.78125 32.3125 
Q 14.796875 37.15625 21.921875 38.8125 
z
M 18.3125 54.390625 
Q 18.3125 48.734375 21.84375 45.5625 
Q 25.390625 42.390625 31.78125 42.390625 
Q 38.140625 42.390625 41.71875 45.5625 
Q 45.3125 48.734375 45.3125 54.390625 
Q 45.3125 60.0625 41.71875 63.234375 
Q 38.140625 66.40625 31.78125 66.40625 
Q 25.390625 66.40625 21.84375 63.234375 
Q 18.3125 60.0625 18.3125 54.390625 
z
" id="DejaVuSans-56"/>
       </defs>
       <use xlink:href="#DejaVuSans-56"/>
       <use x="63.623047" xlink:href="#DejaVuSans-48"/>
      </g>
     </g>
    </g>
    <g id="xtick_5">
     <g id="line2d_5">
      <g>
       <use style="stroke:#000000;stroke-width:0.8;" x="374.628793" xlink:href="#m681e6a441e" y="307.584"/>
      </g>
     </g>
     <g id="text_5">
      <!-- 100 -->
      <g transform="translate(365.085043 322.182437)scale(0.1 -0.1)">
       <defs>
        <path d="M 12.40625 8.296875 
L 28.515625 8.296875 
L 28.515625 63.921875 
L 10.984375 60.40625 
L 10.984375 69.390625 
L 28.421875 72.90625 
L 38.28125 72.90625 
L 38.28125 8.296875 
L 54.390625 8.296875 
L 54.390625 0 
L 12.40625 0 
z
" id="DejaVuSans-49"/>
       </defs>
       <use xlink:href="#DejaVuSans-49"/>
       <use x="63.623047" xlink:href="#DejaVuSans-48"/>
       <use x="127.246094" xlink:href="#DejaVuSans-48"/>
      </g>
     </g>
    </g>
   </g>
   <g id="matplotlib.axis_2">
    <g id="ytick_1">
     <g id="line2d_6">
      <defs>
       <path d="M 0 0 
L -3.5 0 
" id="m301a61627e" style="stroke:#000000;stroke-width:0.8;"/>
      </defs>
      <g>
       <use style="stroke:#000000;stroke-width:0.8;" x="57.6" xlink:href="#m301a61627e" y="301.79731"/>
      </g>
     </g>
     <g id="text_6">
      <!-- 0 -->
      <g transform="translate(44.2375 305.596528)scale(0.1 -0.1)">
       <use xlink:href="#DejaVuSans-48"/>
      </g>
     </g>
    </g>
    <g id="ytick_2">
     <g id="line2d_7">
      <g>
       <use style="stroke:#000000;stroke-width:0.8;" x="57.6" xlink:href="#m301a61627e" y="268.655226"/>
      </g>
     </g>
     <g id="text_7">
      <!-- 10 -->
      <g transform="translate(37.875 272.454444)scale(0.1 -0.1)">
       <use xlink:href="#DejaVuSans-49"/>
       <use x="63.623047" xlink:href="#DejaVuSans-48"/>
      </g>
     </g>
    </g>
    <g id="ytick_3">
     <g id="line2d_8">
      <g>
       <use style="stroke:#000000;stroke-width:0.8;" x="57.6" xlink:href="#m301a61627e" y="235.513142"/>
      </g>
     </g>
     <g id="text_8">
      <!-- 20 -->
      <g transform="translate(37.875 239.31236)scale(0.1 -0.1)">
       <use xlink:href="#DejaVuSans-50"/>
       <use x="63.623047" xlink:href="#DejaVuSans-48"/>
      </g>
     </g>
    </g>
    <g id="ytick_4">
     <g id="line2d_9">
      <g>
       <use style="stroke:#000000;stroke-width:0.8;" x="57.6" xlink:href="#m301a61627e" y="202.371058"/>
      </g>
     </g>
     <g id="text_9">
      <!-- 30 -->
      <g transform="translate(37.875 206.170276)scale(0.1 -0.1)">
       <defs>
        <path d="M 40.578125 39.3125 
Q 47.65625 37.796875 51.625 33 
Q 55.609375 28.21875 55.609375 21.1875 
Q 55.609375 10.40625 48.1875 4.484375 
Q 40.765625 -1.421875 27.09375 -1.421875 
Q 22.515625 -1.421875 17.65625 -0.515625 
Q 12.796875 0.390625 7.625 2.203125 
L 7.625 11.71875 
Q 11.71875 9.328125 16.59375 8.109375 
Q 21.484375 6.890625 26.8125 6.890625 
Q 36.078125 6.890625 40.9375 10.546875 
Q 45.796875 14.203125 45.796875 21.1875 
Q 45.796875 27.640625 41.28125 31.265625 
Q 36.765625 34.90625 28.71875 34.90625 
L 20.21875 34.90625 
L 20.21875 43.015625 
L 29.109375 43.015625 
Q 36.375 43.015625 40.234375 45.921875 
Q 44.09375 48.828125 44.09375 54.296875 
Q 44.09375 59.90625 40.109375 62.90625 
Q 36.140625 65.921875 28.71875 65.921875 
Q 24.65625 65.921875 20.015625 65.03125 
Q 15.375 64.15625 9.8125 62.3125 
L 9.8125 71.09375 
Q 15.4375 72.65625 20.34375 73.4375 
Q 25.25 74.21875 29.59375 74.21875 
Q 40.828125 74.21875 47.359375 69.109375 
Q 53.90625 64.015625 53.90625 55.328125 
Q 53.90625 49.265625 50.4375 45.09375 
Q 46.96875 40.921875 40.578125 39.3125 
z
" id="DejaVuSans-51"/>
       </defs>
       <use xlink:href="#DejaVuSans-51"/>
       <use x="63.623047" xlink:href="#DejaVuSans-48"/>
      </g>
     </g>
    </g>
    <g id="ytick_5">
     <g id="line2d_10">
      <g>
       <use style="stroke:#000000;stroke-width:0.8;" x="57.6" xlink:href="#m301a61627e" y="169.228974"/>
      </g>
     </g>
     <g id="text_10">
      <!-- 40 -->
      <g transform="translate(37.875 173.028192)scale(0.1 -0.1)">
       <use xlink:href="#DejaVuSans-52"/>
       <use x="63.623047" xlink:href="#DejaVuSans-48"/>
      </g>
     </g>
    </g>
    <g id="ytick_6">
     <g id="line2d_11">
      <g>
       <use style="stroke:#000000;stroke-width:0.8;" x="57.6" xlink:href="#m301a61627e" y="136.08689"/>
      </g>
     </g>
     <g id="text_11">
      <!-- 50 -->
      <g transform="translate(37.875 139.886108)scale(0.1 -0.1)">
       <defs>
        <path d="M 10.796875 72.90625 
L 49.515625 72.90625 
L 49.515625 64.59375 
L 19.828125 64.59375 
L 19.828125 46.734375 
Q 21.96875 47.46875 24.109375 47.828125 
Q 26.265625 48.1875 28.421875 48.1875 
Q 40.625 48.1875 47.75 41.5 
Q 54.890625 34.8125 54.890625 23.390625 
Q 54.890625 11.625 47.5625 5.09375 
Q 40.234375 -1.421875 26.90625 -1.421875 
Q 22.3125 -1.421875 17.546875 -0.640625 
Q 12.796875 0.140625 7.71875 1.703125 
L 7.71875 11.625 
Q 12.109375 9.234375 16.796875 8.0625 
Q 21.484375 6.890625 26.703125 6.890625 
Q 35.15625 6.890625 40.078125 11.328125 
Q 45.015625 15.765625 45.015625 23.390625 
Q 45.015625 31 40.078125 35.4375 
Q 35.15625 39.890625 26.703125 39.890625 
Q 22.75 39.890625 18.8125 39.015625 
Q 14.890625 38.140625 10.796875 36.28125 
z
" id="DejaVuSans-53"/>
       </defs>
       <use xlink:href="#DejaVuSans-53"/>
       <use x="63.623047" xlink:href="#DejaVuSans-48"/>
      </g>
     </g>
    </g>
    <g id="ytick_7">
     <g id="line2d_12">
      <g>
       <use style="stroke:#000000;stroke-width:0.8;" x="57.6" xlink:href="#m301a61627e" y="102.944806"/>
      </g>
     </g>
     <g id="text_12">
      <!-- 60 -->
      <g transform="translate(37.875 106.744024)scale(0.1 -0.1)">
       <use xlink:href="#DejaVuSans-54"/>
       <use x="63.623047" xlink:href="#DejaVuSans-48"/>
      </g>
     </g>
    </g>
    <g id="ytick_8">
     <g id="line2d_13">
      <g>
       <use style="stroke:#000000;stroke-width:0.8;" x="57.6" xlink:href="#m301a61627e" y="69.802721"/>
      </g>
     </g>
     <g id="text_13">
      <!-- 70 -->
      <g transform="translate(37.875 73.60194)scale(0.1 -0.1)">
       <defs>
        <path d="M 8.203125 72.90625 
L 55.078125 72.90625 
L 55.078125 68.703125 
L 28.609375 0 
L 18.3125 0 
L 43.21875 64.59375 
L 8.203125 64.59375 
z
" id="DejaVuSans-55"/>
       </defs>
       <use xlink:href="#DejaVuSans-55"/>
       <use x="63.623047" xlink:href="#DejaVuSans-48"/>
      </g>
     </g>
    </g>
   </g>
   <g id="line2d_14">
    <path clip-path="url(#p046d0ca828)" d="M 76.350037 268.655226 
L 79.365967 268.071925 
L 82.441552 267.621193 
L 85.566851 267.293086 
L 91.959959 266.951723 
L 98.515463 266.958351 
L 105.196907 267.206917 
L 118.808361 268.055354 
L 129.105607 268.618769 
L 135.952761 268.777851 
L 142.743574 268.651912 
L 149.448218 268.138209 
L 152.759112 267.710676 
L 156.03355 267.147261 
L 159.271531 266.441334 
L 162.463114 265.57964 
L 165.611612 264.548921 
L 168.707083 263.34255 
L 171.742898 261.963839 
L 174.709114 260.422732 
L 177.592475 258.725857 
L 180.392982 256.883157 
L 183.094061 254.897947 
L 185.685772 252.780167 
L 188.1648 250.539763 
L 190.517888 248.180046 
L 192.74835 245.707647 
L 194.856187 243.125878 
L 196.831455 240.444684 
L 198.680784 237.667377 
L 200.400858 234.797273 
L 201.988364 231.840999 
L 203.443301 228.805184 
L 204.755728 225.696456 
L 205.912386 222.528073 
L 206.90002 219.309977 
L 207.702059 216.05211 
L 208.305245 212.767729 
L 208.693007 209.470092 
L 208.852089 206.165826 
L 208.772548 202.871503 
L 208.484212 199.583808 
L 208.026851 196.302742 
L 206.813851 189.750552 
L 205.514681 183.198362 
L 204.95458 179.913981 
L 204.507162 176.622973 
L 204.179055 173.325335 
L 203.850949 166.710175 
L 203.900662 160.068502 
L 204.271853 153.403628 
L 204.901553 146.722184 
L 205.756618 140.034112 
L 206.906649 133.399067 
L 207.629146 130.124629 
L 208.464327 126.893275 
L 209.425447 123.708321 
L 210.529079 120.583023 
L 211.785164 117.524008 
L 213.206959 114.541221 
L 214.807722 111.644603 
L 216.587452 108.837468 
L 218.536206 106.12976 
L 220.637414 103.528106 
L 222.887762 101.035821 
L 225.273992 98.659534 
L 227.782848 96.405872 
L 230.404386 94.278151 
L 233.128666 92.286311 
L 235.942429 90.433669 
L 238.842361 88.726851 
L 241.815206 87.169174 
L 244.857649 85.760635 
L 247.959748 84.507864 
L 251.121503 83.410861 
L 254.332971 82.47294 
L 257.584209 81.697415 
L 260.875218 81.087601 
L 264.199369 80.646811 
L 267.543406 80.375046 
L 270.907327 80.27562 
L 274.271249 80.345218 
L 277.628542 80.583841 
L 280.969264 80.991489 
L 284.280158 81.564847 
L 287.547968 82.303916 
L 290.766064 83.20538 
L 293.917876 84.272555 
L 296.996776 85.502127 
L 299.99282 86.89078 
L 302.906009 88.431887 
L 305.739658 90.122133 
L 308.493765 91.95489 
L 311.171645 93.926844 
L 313.773299 96.028053 
L 316.305354 98.255201 
L 318.764497 100.60166 
L 321.157355 103.060803 
L 323.480615 105.626 
L 327.934911 111.061302 
L 332.143956 116.854538 
L 336.12432 122.962624 
L 339.885947 129.339161 
L 343.452035 135.934436 
L 346.832528 142.705364 
L 350.043996 149.602231 
L 354.574518 160.081758 
L 358.813391 170.584485 
L 364.092925 184.355021 
L 372.660154 206.745813 
L 376.199728 215.273271 
L 378.55613 220.483207 
L 380.925789 225.258981 
L 383.321962 229.554195 
L 385.764534 233.325764 
L 388.266761 236.520661 
L 388.266761 236.520661 
" style="fill:none;stroke:#fea952;stroke-linecap:square;"/>
   </g>
   <g id="line2d_15">
    <path clip-path="url(#p046d0ca828)" d="M 73.832727 255.639589 
L 77.443688 254.9552 
L 81.057402 254.436817 
L 84.6557 254.067601 
L 91.825105 253.695575 
L 98.911801 253.707443 
L 105.92435 253.970057 
L 119.639279 254.824586 
L 129.528073 255.368669 
L 135.862405 255.521326 
L 141.949073 255.418907 
L 147.75047 254.990537 
L 150.511113 254.645833 
L 153.2097 254.194674 
L 155.816051 253.642768 
L 158.338632 252.98074 
L 160.797789 252.196968 
L 163.225337 251.272168 
L 165.63096 250.200002 
L 167.985337 248.997564 
L 170.305579 247.651347 
L 172.542012 246.20112 
L 174.705769 244.632462 
L 176.797096 242.944768 
L 178.777628 241.178959 
L 180.674666 239.300034 
L 182.479323 237.323691 
L 184.183033 235.262838 
L 185.797053 233.097194 
L 187.309668 230.852586 
L 188.721459 228.525488 
L 190.033562 226.111569 
L 191.230242 223.649137 
L 192.302757 221.150341 
L 193.238964 218.638599 
L 194.027531 216.140961 
L 194.66329 213.657503 
L 195.139122 211.219552 
L 195.451511 208.832588 
L 195.599118 206.485818 
L 195.566405 204.029703 
L 195.354326 201.414035 
L 194.968298 198.586999 
L 193.820561 192.380773 
L 192.446511 185.42694 
L 191.818586 181.699842 
L 191.315465 177.935513 
L 190.950306 174.187791 
L 190.714469 170.471992 
L 190.577135 163.115153 
L 190.822271 155.856763 
L 191.371892 148.719943 
L 192.16494 141.576683 
L 193.256823 134.265141 
L 193.961198 130.542682 
L 194.794089 126.80726 
L 195.772779 123.06336 
L 196.925116 119.2941 
L 198.265828 115.547517 
L 199.818305 111.819806 
L 201.604028 108.129074 
L 203.611483 104.546161 
L 205.827577 101.093519 
L 208.222922 97.800305 
L 210.798013 94.64386 
L 213.533355 91.642275 
L 216.414999 88.79739 
L 219.428576 86.112681 
L 222.580024 83.576609 
L 225.83842 81.214006 
L 229.218094 79.008829 
L 232.68963 76.984299 
L 236.245698 75.139036 
L 239.893455 73.468344 
L 243.614281 71.983466 
L 247.405051 70.685625 
L 251.257085 69.577881 
L 255.168872 68.662471 
L 259.132587 67.945802 
L 263.125546 67.43354 
L 267.151749 67.123999 
L 271.181548 67.021623 
L 275.211121 67.121744 
L 279.234281 67.424615 
L 283.231324 67.929073 
L 287.204547 68.634589 
L 291.12387 69.538472 
L 295.017612 70.648789 
L 298.834485 71.961154 
L 302.571559 73.474432 
L 306.191854 75.172606 
L 309.697198 77.04666 
L 313.084029 79.085655 
L 316.354551 81.280075 
L 319.5011 83.613561 
L 322.528783 86.073901 
L 325.457031 88.664036 
L 328.265667 91.356586 
L 330.983259 94.161631 
L 333.606893 97.070175 
L 336.114883 100.047679 
L 338.550726 103.121018 
L 343.164993 109.487017 
L 347.475112 116.114035 
L 351.493849 122.936017 
L 355.271846 129.931461 
L 358.816525 137.037257 
L 362.161097 144.224547 
L 365.31788 151.43475 
L 369.758491 162.214259 
L 375.206811 176.26544 
L 384.952444 201.781618 
L 388.313976 209.889161 
L 391.552563 216.913236 
L 393.600871 220.84324 
L 395.525256 224.091362 
L 397.227874 226.553094 
L 398.487273 228.07763 
L 398.487273 228.07763 
" style="fill:none;stroke:#ffffff;stroke-linecap:square;"/>
   </g>
   <g id="line2d_16">
    <path clip-path="url(#p046d0ca828)" d="M 78.867347 281.670862 
L 81.288246 281.18865 
L 83.825702 280.805569 
L 89.246648 280.321568 
L 95.057956 280.17445 
L 101.251292 280.30155 
L 111.097842 280.832659 
L 125.074019 281.706188 
L 132.342959 281.983569 
L 139.758384 282.005391 
L 143.538075 281.884916 
L 147.342933 281.649196 
L 151.145965 281.285882 
L 155.007111 280.77552 
L 158.857399 280.099848 
L 162.727011 279.239901 
L 166.587596 278.17854 
L 170.425435 276.900875 
L 174.188828 275.412931 
L 177.854835 273.727676 
L 181.432891 271.8479 
L 184.879372 269.800367 
L 188.243951 267.565194 
L 191.482354 265.163432 
L 194.574449 262.615566 
L 197.551972 259.900566 
L 200.361111 257.060058 
L 203.017378 254.091602 
L 205.529341 250.988919 
L 207.865857 247.792174 
L 210.051899 244.482168 
L 212.080256 241.069057 
L 213.943165 237.570429 
L 215.656361 233.96123 
L 217.208698 230.242572 
L 218.585808 226.417548 
L 219.77251 222.478992 
L 220.740828 218.446717 
L 221.471367 214.315907 
L 221.934503 210.107596 
L 222.10506 205.845835 
L 221.978691 201.713303 
L 221.614098 197.753582 
L 221.085404 194.018486 
L 219.807141 187.120331 
L 218.090574 178.128121 
L 217.407805 172.462879 
L 217.107544 166.630715 
L 217.144226 160.661497 
L 217.479487 154.544705 
L 218.065797 148.286253 
L 218.848254 142.120428 
L 219.8521 136.255451 
L 221.155874 130.723191 
L 221.925779 128.122542 
L 222.792329 125.618529 
L 223.752022 123.228211 
L 224.80989 120.953367 
L 226.00396 118.743044 
L 227.347326 116.581417 
L 228.84949 114.459214 
L 230.476815 112.412352 
L 232.242168 110.429368 
L 234.132985 108.521678 
L 236.137119 106.699064 
L 238.228749 104.979692 
L 240.418912 103.358617 
L 242.666763 101.858509 
L 244.995092 100.469404 
L 247.384714 99.199311 
L 249.821844 98.052926 
L 252.305216 97.032262 
L 254.837955 96.136097 
L 257.408857 95.368 
L 259.999547 94.73236 
L 262.61785 94.2294 
L 265.273193 93.860083 
L 267.935062 93.626093 
L 270.633107 93.529617 
L 273.331377 93.568693 
L 276.022803 93.743068 
L 278.707204 94.053905 
L 281.355769 94.495106 
L 283.972066 95.06936 
L 286.514516 95.761971 
L 289.001267 96.583956 
L 291.421993 97.529821 
L 293.793786 98.608954 
L 296.114821 99.817114 
L 298.395286 101.158611 
L 300.632979 102.629706 
L 302.842191 104.240128 
L 305.017815 105.982204 
L 307.153677 107.846365 
L 311.331451 111.959974 
L 315.3603 116.546825 
L 319.238178 121.55887 
L 322.9721 126.981726 
L 326.546128 132.744096 
L 329.978521 138.821142 
L 333.261186 145.142075 
L 336.405351 151.662803 
L 339.41963 158.341834 
L 343.72373 168.543729 
L 347.797528 178.828094 
L 355.451404 199.00425 
L 360.367863 211.710007 
L 364.085481 220.657381 
L 366.622256 226.256097 
L 369.259714 231.555513 
L 372.065209 236.556277 
L 375.128756 241.239289 
L 378.046249 244.963692 
L 378.046249 244.963692 
" style="fill:none;stroke:#ffffff;stroke-linecap:square;"/>
   </g>
   <g id="patch_3">
    <path d="M 57.6 307.584 
L 57.6 41.472 
" style="fill:none;stroke:#000000;stroke-linecap:square;stroke-linejoin:miter;stroke-width:0.8;"/>
   </g>
   <g id="patch_4">
    <path d="M 414.72 307.584 
L 414.72 41.472 
" style="fill:none;stroke:#000000;stroke-linecap:square;stroke-linejoin:miter;stroke-width:0.8;"/>
   </g>
   <g id="patch_5">
    <path d="M 57.6 307.584 
L 414.72 307.584 
" style="fill:none;stroke:#000000;stroke-linecap:square;stroke-linejoin:miter;stroke-width:0.8;"/>
   </g>
   <g id="patch_6">
    <path d="M 57.6 41.472 
L 414.72 41.472 
" style="fill:none;stroke:#000000;stroke-linecap:square;stroke-linejoin:miter;stroke-width:0.8;"/>
   </g>
  </g>
 </g>
 <defs>
  <clipPath id="p046d0ca828">
   <rect height="266.112" width="357.12" x="57.6" y="41.472"/>
  </clipPath>
 </defs>
</svg>
