<?xml version="1.0" encoding="utf-8" standalone="no"?>
<!DOCTYPE svg PUBLIC "-//W3C//DTD SVG 1.1//EN"
  "http://www.w3.org/Graphics/SVG/1.1/DTD/svg11.dtd">
<!-- Created with matplotlib (https://matplotlib.org/) -->
<svg height="345.6pt" version="1.1" viewBox="0 0 460.8 345.6" width="460.8pt" xmlns="http://www.w3.org/2000/svg" xmlns:xlink="http://www.w3.org/1999/xlink">
 <metadata>
  <rdf:RDF xmlns:cc="http://creativecommons.org/ns#" xmlns:dc="http://purl.org/dc/elements/1.1/" xmlns:rdf="http://www.w3.org/1999/02/22-rdf-syntax-ns#">
   <cc:Work>
    <dc:type rdf:resource="http://purl.org/dc/dcmitype/StillImage"/>
    <dc:date>2021-03-15T18:32:03.232530</dc:date>
    <dc:format>image/svg+xml</dc:format>
    <dc:creator>
     <cc:Agent>
      <dc:title>Matplotlib v3.3.3, https://matplotlib.org/</dc:title>
     </cc:Agent>
    </dc:creator>
   </cc:Work>
  </rdf:RDF>
 </metadata>
 <defs>
  <style type="text/css">*{stroke-linecap:butt;stroke-linejoin:round;}</style>
 </defs>
 <g id="figure_1">
  <g id="patch_1">
   <path d="M 0 345.6 
L 460.8 345.6 
L 460.8 0 
L 0 0 
z
" style="fill:#ffffff;"/>
  </g>
  <g id="axes_1">
   <g id="patch_2">
    <path d="M 57.6 307.584 
L 414.72 307.584 
L 414.72 41.472 
L 57.6 41.472 
z
" style="fill:#7d9051;"/>
   </g>
   <g id="matplotlib.axis_1">
    <g id="xtick_1">
     <g id="line2d_1">
      <defs>
       <path d="M 0 0 
L 0 3.5 
" id="m24bec22c06" style="stroke:#000000;stroke-width:0.8;"/>
      </defs>
      <g>
       <use style="stroke:#000000;stroke-width:0.8;" x="102.857773" xlink:href="#m24bec22c06" y="307.584"/>
      </g>
     </g>
     <g id="text_1">
      <!-- 20 -->
      <g transform="translate(96.495273 322.182437)scale(0.1 -0.1)">
       <defs>
        <path d="M 19.1875 8.296875 
L 53.609375 8.296875 
L 53.609375 0 
L 7.328125 0 
L 7.328125 8.296875 
Q 12.9375 14.109375 22.625 23.890625 
Q 32.328125 33.6875 34.8125 36.53125 
Q 39.546875 41.84375 41.421875 45.53125 
Q 43.3125 49.21875 43.3125 52.78125 
Q 43.3125 58.59375 39.234375 62.25 
Q 35.15625 65.921875 28.609375 65.921875 
Q 23.96875 65.921875 18.8125 64.3125 
Q 13.671875 62.703125 7.8125 59.421875 
L 7.8125 69.390625 
Q 13.765625 71.78125 18.9375 73 
Q 24.125 74.21875 28.421875 74.21875 
Q 39.75 74.21875 46.484375 68.546875 
Q 53.21875 62.890625 53.21875 53.421875 
Q 53.21875 48.921875 51.53125 44.890625 
Q 49.859375 40.875 45.40625 35.40625 
Q 44.1875 33.984375 37.640625 27.21875 
Q 31.109375 20.453125 19.1875 8.296875 
z
" id="DejaVuSans-50"/>
        <path d="M 31.78125 66.40625 
Q 24.171875 66.40625 20.328125 58.90625 
Q 16.5 51.421875 16.5 36.375 
Q 16.5 21.390625 20.328125 13.890625 
Q 24.171875 6.390625 31.78125 6.390625 
Q 39.453125 6.390625 43.28125 13.890625 
Q 47.125 21.390625 47.125 36.375 
Q 47.125 51.421875 43.28125 58.90625 
Q 39.453125 66.40625 31.78125 66.40625 
z
M 31.78125 74.21875 
Q 44.046875 74.21875 50.515625 64.515625 
Q 56.984375 54.828125 56.984375 36.375 
Q 56.984375 17.96875 50.515625 8.265625 
Q 44.046875 -1.421875 31.78125 -1.421875 
Q 19.53125 -1.421875 13.0625 8.265625 
Q 6.59375 17.96875 6.59375 36.375 
Q 6.59375 54.828125 13.0625 64.515625 
Q 19.53125 74.21875 31.78125 74.21875 
z
" id="DejaVuSans-48"/>
       </defs>
       <use xlink:href="#DejaVuSans-50"/>
       <use x="63.623047" xlink:href="#DejaVuSans-48"/>
      </g>
     </g>
    </g>
    <g id="xtick_2">
     <g id="line2d_2">
      <g>
       <use style="stroke:#000000;stroke-width:0.8;" x="168.146159" xlink:href="#m24bec22c06" y="307.584"/>
      </g>
     </g>
     <g id="text_2">
      <!-- 40 -->
      <g transform="translate(161.783659 322.182437)scale(0.1 -0.1)">
       <defs>
        <path d="M 37.796875 64.3125 
L 12.890625 25.390625 
L 37.796875 25.390625 
z
M 35.203125 72.90625 
L 47.609375 72.90625 
L 47.609375 25.390625 
L 58.015625 25.390625 
L 58.015625 17.1875 
L 47.609375 17.1875 
L 47.609375 0 
L 37.796875 0 
L 37.796875 17.1875 
L 4.890625 17.1875 
L 4.890625 26.703125 
z
" id="DejaVuSans-52"/>
       </defs>
       <use xlink:href="#DejaVuSans-52"/>
       <use x="63.623047" xlink:href="#DejaVuSans-48"/>
      </g>
     </g>
    </g>
    <g id="xtick_3">
     <g id="line2d_3">
      <g>
       <use style="stroke:#000000;stroke-width:0.8;" x="233.434545" xlink:href="#m24bec22c06" y="307.584"/>
      </g>
     </g>
     <g id="text_3">
      <!-- 60 -->
      <g transform="translate(227.072045 322.182437)scale(0.1 -0.1)">
       <defs>
        <path d="M 33.015625 40.375 
Q 26.375 40.375 22.484375 35.828125 
Q 18.609375 31.296875 18.609375 23.390625 
Q 18.609375 15.53125 22.484375 10.953125 
Q 26.375 6.390625 33.015625 6.390625 
Q 39.65625 6.390625 43.53125 10.953125 
Q 47.40625 15.53125 47.40625 23.390625 
Q 47.40625 31.296875 43.53125 35.828125 
Q 39.65625 40.375 33.015625 40.375 
z
M 52.59375 71.296875 
L 52.59375 62.3125 
Q 48.875 64.0625 45.09375 64.984375 
Q 41.3125 65.921875 37.59375 65.921875 
Q 27.828125 65.921875 22.671875 59.328125 
Q 17.53125 52.734375 16.796875 39.40625 
Q 19.671875 43.65625 24.015625 45.921875 
Q 28.375 48.1875 33.59375 48.1875 
Q 44.578125 48.1875 50.953125 41.515625 
Q 57.328125 34.859375 57.328125 23.390625 
Q 57.328125 12.15625 50.6875 5.359375 
Q 44.046875 -1.421875 33.015625 -1.421875 
Q 20.359375 -1.421875 13.671875 8.265625 
Q 6.984375 17.96875 6.984375 36.375 
Q 6.984375 53.65625 15.1875 63.9375 
Q 23.390625 74.21875 37.203125 74.21875 
Q 40.921875 74.21875 44.703125 73.484375 
Q 48.484375 72.75 52.59375 71.296875 
z
" id="DejaVuSans-54"/>
       </defs>
       <use xlink:href="#DejaVuSans-54"/>
       <use x="63.623047" xlink:href="#DejaVuSans-48"/>
      </g>
     </g>
    </g>
    <g id="xtick_4">
     <g id="line2d_4">
      <g>
       <use style="stroke:#000000;stroke-width:0.8;" x="298.722931" xlink:href="#m24bec22c06" y="307.584"/>
      </g>
     </g>
     <g id="text_4">
      <!-- 80 -->
      <g transform="translate(292.360431 322.182437)scale(0.1 -0.1)">
       <defs>
        <path d="M 31.78125 34.625 
Q 24.75 34.625 20.71875 30.859375 
Q 16.703125 27.09375 16.703125 20.515625 
Q 16.703125 13.921875 20.71875 10.15625 
Q 24.75 6.390625 31.78125 6.390625 
Q 38.8125 6.390625 42.859375 10.171875 
Q 46.921875 13.96875 46.921875 20.515625 
Q 46.921875 27.09375 42.890625 30.859375 
Q 38.875 34.625 31.78125 34.625 
z
M 21.921875 38.8125 
Q 15.578125 40.375 12.03125 44.71875 
Q 8.5 49.078125 8.5 55.328125 
Q 8.5 64.0625 14.71875 69.140625 
Q 20.953125 74.21875 31.78125 74.21875 
Q 42.671875 74.21875 48.875 69.140625 
Q 55.078125 64.0625 55.078125 55.328125 
Q 55.078125 49.078125 51.53125 44.71875 
Q 48 40.375 41.703125 38.8125 
Q 48.828125 37.15625 52.796875 32.3125 
Q 56.78125 27.484375 56.78125 20.515625 
Q 56.78125 9.90625 50.3125 4.234375 
Q 43.84375 -1.421875 31.78125 -1.421875 
Q 19.734375 -1.421875 13.25 4.234375 
Q 6.78125 9.90625 6.78125 20.515625 
Q 6.78125 27.484375 10.78125 32.3125 
Q 14.796875 37.15625 21.921875 38.8125 
z
M 18.3125 54.390625 
Q 18.3125 48.734375 21.84375 45.5625 
Q 25.390625 42.390625 31.78125 42.390625 
Q 38.140625 42.390625 41.71875 45.5625 
Q 45.3125 48.734375 45.3125 54.390625 
Q 45.3125 60.0625 41.71875 63.234375 
Q 38.140625 66.40625 31.78125 66.40625 
Q 25.390625 66.40625 21.84375 63.234375 
Q 18.3125 60.0625 18.3125 54.390625 
z
" id="DejaVuSans-56"/>
       </defs>
       <use xlink:href="#DejaVuSans-56"/>
       <use x="63.623047" xlink:href="#DejaVuSans-48"/>
      </g>
     </g>
    </g>
    <g id="xtick_5">
     <g id="line2d_5">
      <g>
       <use style="stroke:#000000;stroke-width:0.8;" x="364.011317" xlink:href="#m24bec22c06" y="307.584"/>
      </g>
     </g>
     <g id="text_5">
      <!-- 100 -->
      <g transform="translate(354.467567 322.182437)scale(0.1 -0.1)">
       <defs>
        <path d="M 12.40625 8.296875 
L 28.515625 8.296875 
L 28.515625 63.921875 
L 10.984375 60.40625 
L 10.984375 69.390625 
L 28.421875 72.90625 
L 38.28125 72.90625 
L 38.28125 8.296875 
L 54.390625 8.296875 
L 54.390625 0 
L 12.40625 0 
z
" id="DejaVuSans-49"/>
       </defs>
       <use xlink:href="#DejaVuSans-49"/>
       <use x="63.623047" xlink:href="#DejaVuSans-48"/>
       <use x="127.246094" xlink:href="#DejaVuSans-48"/>
      </g>
     </g>
    </g>
   </g>
   <g id="matplotlib.axis_2">
    <g id="ytick_1">
     <g id="line2d_6">
      <defs>
       <path d="M 0 0 
L -3.5 0 
" id="m4c4beb9123" style="stroke:#000000;stroke-width:0.8;"/>
      </defs>
      <g>
       <use style="stroke:#000000;stroke-width:0.8;" x="57.6" xlink:href="#m4c4beb9123" y="282.237778"/>
      </g>
     </g>
     <g id="text_6">
      <!-- 10 -->
      <g transform="translate(37.875 286.036997)scale(0.1 -0.1)">
       <use xlink:href="#DejaVuSans-49"/>
       <use x="63.623047" xlink:href="#DejaVuSans-48"/>
      </g>
     </g>
    </g>
    <g id="ytick_2">
     <g id="line2d_7">
      <g>
       <use style="stroke:#000000;stroke-width:0.8;" x="57.6" xlink:href="#m4c4beb9123" y="249.593585"/>
      </g>
     </g>
     <g id="text_7">
      <!-- 20 -->
      <g transform="translate(37.875 253.392804)scale(0.1 -0.1)">
       <use xlink:href="#DejaVuSans-50"/>
       <use x="63.623047" xlink:href="#DejaVuSans-48"/>
      </g>
     </g>
    </g>
    <g id="ytick_3">
     <g id="line2d_8">
      <g>
       <use style="stroke:#000000;stroke-width:0.8;" x="57.6" xlink:href="#m4c4beb9123" y="216.949392"/>
      </g>
     </g>
     <g id="text_8">
      <!-- 30 -->
      <g transform="translate(37.875 220.748611)scale(0.1 -0.1)">
       <defs>
        <path d="M 40.578125 39.3125 
Q 47.65625 37.796875 51.625 33 
Q 55.609375 28.21875 55.609375 21.1875 
Q 55.609375 10.40625 48.1875 4.484375 
Q 40.765625 -1.421875 27.09375 -1.421875 
Q 22.515625 -1.421875 17.65625 -0.515625 
Q 12.796875 0.390625 7.625 2.203125 
L 7.625 11.71875 
Q 11.71875 9.328125 16.59375 8.109375 
Q 21.484375 6.890625 26.8125 6.890625 
Q 36.078125 6.890625 40.9375 10.546875 
Q 45.796875 14.203125 45.796875 21.1875 
Q 45.796875 27.640625 41.28125 31.265625 
Q 36.765625 34.90625 28.71875 34.90625 
L 20.21875 34.90625 
L 20.21875 43.015625 
L 29.109375 43.015625 
Q 36.375 43.015625 40.234375 45.921875 
Q 44.09375 48.828125 44.09375 54.296875 
Q 44.09375 59.90625 40.109375 62.90625 
Q 36.140625 65.921875 28.71875 65.921875 
Q 24.65625 65.921875 20.015625 65.03125 
Q 15.375 64.15625 9.8125 62.3125 
L 9.8125 71.09375 
Q 15.4375 72.65625 20.34375 73.4375 
Q 25.25 74.21875 29.59375 74.21875 
Q 40.828125 74.21875 47.359375 69.109375 
Q 53.90625 64.015625 53.90625 55.328125 
Q 53.90625 49.265625 50.4375 45.09375 
Q 46.96875 40.921875 40.578125 39.3125 
z
" id="DejaVuSans-51"/>
       </defs>
       <use xlink:href="#DejaVuSans-51"/>
       <use x="63.623047" xlink:href="#DejaVuSans-48"/>
      </g>
     </g>
    </g>
    <g id="ytick_4">
     <g id="line2d_9">
      <g>
       <use style="stroke:#000000;stroke-width:0.8;" x="57.6" xlink:href="#m4c4beb9123" y="184.305199"/>
      </g>
     </g>
     <g id="text_9">
      <!-- 40 -->
      <g transform="translate(37.875 188.104418)scale(0.1 -0.1)">
       <use xlink:href="#DejaVuSans-52"/>
       <use x="63.623047" xlink:href="#DejaVuSans-48"/>
      </g>
     </g>
    </g>
    <g id="ytick_5">
     <g id="line2d_10">
      <g>
       <use style="stroke:#000000;stroke-width:0.8;" x="57.6" xlink:href="#m4c4beb9123" y="151.661006"/>
      </g>
     </g>
     <g id="text_10">
      <!-- 50 -->
      <g transform="translate(37.875 155.460225)scale(0.1 -0.1)">
       <defs>
        <path d="M 10.796875 72.90625 
L 49.515625 72.90625 
L 49.515625 64.59375 
L 19.828125 64.59375 
L 19.828125 46.734375 
Q 21.96875 47.46875 24.109375 47.828125 
Q 26.265625 48.1875 28.421875 48.1875 
Q 40.625 48.1875 47.75 41.5 
Q 54.890625 34.8125 54.890625 23.390625 
Q 54.890625 11.625 47.5625 5.09375 
Q 40.234375 -1.421875 26.90625 -1.421875 
Q 22.3125 -1.421875 17.546875 -0.640625 
Q 12.796875 0.140625 7.71875 1.703125 
L 7.71875 11.625 
Q 12.109375 9.234375 16.796875 8.0625 
Q 21.484375 6.890625 26.703125 6.890625 
Q 35.15625 6.890625 40.078125 11.328125 
Q 45.015625 15.765625 45.015625 23.390625 
Q 45.015625 31 40.078125 35.4375 
Q 35.15625 39.890625 26.703125 39.890625 
Q 22.75 39.890625 18.8125 39.015625 
Q 14.890625 38.140625 10.796875 36.28125 
z
" id="DejaVuSans-53"/>
       </defs>
       <use xlink:href="#DejaVuSans-53"/>
       <use x="63.623047" xlink:href="#DejaVuSans-48"/>
      </g>
     </g>
    </g>
    <g id="ytick_6">
     <g id="line2d_11">
      <g>
       <use style="stroke:#000000;stroke-width:0.8;" x="57.6" xlink:href="#m4c4beb9123" y="119.016813"/>
      </g>
     </g>
     <g id="text_11">
      <!-- 60 -->
      <g transform="translate(37.875 122.816032)scale(0.1 -0.1)">
       <use xlink:href="#DejaVuSans-54"/>
       <use x="63.623047" xlink:href="#DejaVuSans-48"/>
      </g>
     </g>
    </g>
    <g id="ytick_7">
     <g id="line2d_12">
      <g>
       <use style="stroke:#000000;stroke-width:0.8;" x="57.6" xlink:href="#m4c4beb9123" y="86.37262"/>
      </g>
     </g>
     <g id="text_12">
      <!-- 70 -->
      <g transform="translate(37.875 90.171839)scale(0.1 -0.1)">
       <defs>
        <path d="M 8.203125 72.90625 
L 55.078125 72.90625 
L 55.078125 68.703125 
L 28.609375 0 
L 18.3125 0 
L 43.21875 64.59375 
L 8.203125 64.59375 
z
" id="DejaVuSans-55"/>
       </defs>
       <use xlink:href="#DejaVuSans-55"/>
       <use x="63.623047" xlink:href="#DejaVuSans-48"/>
      </g>
     </g>
    </g>
    <g id="ytick_8">
     <g id="line2d_13">
      <g>
       <use style="stroke:#000000;stroke-width:0.8;" x="57.6" xlink:href="#m4c4beb9123" y="53.728427"/>
      </g>
     </g>
     <g id="text_13">
      <!-- 80 -->
      <g transform="translate(37.875 57.527646)scale(0.1 -0.1)">
       <use xlink:href="#DejaVuSans-56"/>
       <use x="63.623047" xlink:href="#DejaVuSans-48"/>
      </g>
     </g>
    </g>
   </g>
   <g id="line2d_14">
    <path clip-path="url(#p8ec236b68e)" d="M 70.21358 282.237778 
L 76.344159 281.630596 
L 82.628167 281.336798 
L 89.042751 281.287832 
L 98.858859 281.526134 
L 122.251688 282.391206 
L 128.953541 282.420585 
L 135.619485 282.231249 
L 142.22667 281.757908 
L 148.752244 280.935275 
L 151.974226 280.37053 
L 155.170092 279.694795 
L 158.33005 278.898277 
L 161.457364 277.971182 
L 164.545504 276.906981 
L 167.591208 275.705675 
L 170.587945 274.367263 
L 173.532451 272.898274 
L 176.414933 271.301973 
L 179.235391 269.584889 
L 181.980768 267.753549 
L 184.651063 265.81122 
L 187.239747 263.764429 
L 189.737028 261.616441 
L 192.142905 259.370521 
L 194.45085 257.033197 
L 196.660861 254.610997 
L 198.772941 252.100659 
L 200.783823 249.50871 
L 202.693508 246.838415 
L 204.501997 244.093038 
L 206.209288 241.275845 
L 207.812118 238.386833 
L 209.313751 235.435798 
L 210.704393 232.422739 
L 211.984046 229.354185 
L 213.13965 226.236665 
L 214.164678 223.079971 
L 215.046071 219.890634 
L 215.780565 216.671916 
L 216.355103 213.436877 
L 216.759891 210.185515 
L 216.9884 206.934154 
L 217.027573 203.679528 
L 216.883939 200.437959 
L 216.580348 197.199655 
L 215.610815 190.736105 
L 213.710923 181.057102 
L 212.493295 174.596816 
L 211.582522 168.116944 
L 211.037364 161.610956 
L 210.821912 155.088646 
L 210.903523 148.543486 
L 211.243022 141.978738 
L 211.811031 135.400934 
L 212.571641 128.810071 
L 213.557496 122.238795 
L 214.876321 115.755658 
L 215.692426 112.569585 
L 216.635843 109.432478 
L 217.713102 106.354131 
L 218.943788 103.341072 
L 220.340959 100.39983 
L 221.911145 97.546727 
L 223.660873 94.781764 
L 225.577088 92.114734 
L 227.646729 89.5489 
L 229.860006 87.094057 
L 232.210388 84.750204 
L 234.681553 82.530399 
L 237.263709 80.434641 
L 239.947061 78.469461 
L 242.721818 76.644651 
L 245.578185 74.96021 
L 248.506369 73.422669 
L 251.503106 72.035291 
L 254.561867 70.798076 
L 257.672858 69.717553 
L 260.83608 68.793722 
L 264.038476 68.029848 
L 267.280044 67.42593 
L 270.554257 66.991763 
L 273.848056 66.720816 
L 277.161441 66.622883 
L 280.474827 66.691436 
L 283.784948 66.926474 
L 287.075483 67.324733 
L 290.333373 67.889478 
L 293.555355 68.614179 
L 296.725106 69.502101 
L 299.832833 70.553244 
L 302.865479 71.761079 
L 305.816514 73.128871 
L 308.685938 74.646826 
L 311.477017 76.31168 
L 314.193014 78.116904 
L 316.830665 80.055969 
L 319.396498 82.125611 
L 321.88725 84.3193 
L 324.312714 86.630509 
L 326.66636 89.052708 
L 328.957982 91.579369 
L 333.345362 96.933017 
L 337.491174 102.639221 
L 341.411742 108.655546 
L 345.120122 114.936289 
L 348.632637 121.432483 
L 351.962345 128.101692 
L 355.125567 134.894949 
L 358.135362 141.766551 
L 362.401958 152.124554 
L 367.700111 165.779619 
L 377.405229 191.189859 
L 380.894893 199.58921 
L 383.212631 204.720877 
L 385.546691 209.42817 
L 387.91013 213.658857 
L 390.316007 217.373766 
L 392.780644 220.520667 
L 394.04071 221.868872 
L 394.04071 221.868872 
" style="fill:none;stroke:#fea952;stroke-linecap:square;"/>
   </g>
   <g id="line2d_15">
    <path clip-path="url(#p8ec236b68e)" d="M 68.739554 269.263566 
L 75.594954 268.59443 
L 82.414573 268.280868 
L 89.226274 268.231444 
L 99.373048 268.478585 
L 122.40425 269.33442 
L 128.710828 269.365164 
L 134.84819 269.196371 
L 140.790371 268.779465 
L 146.49788 268.073674 
L 151.978525 267.033167 
L 157.203096 265.625975 
L 159.754423 264.760028 
L 162.266301 263.783079 
L 164.758739 262.682945 
L 167.206465 261.475278 
L 169.624815 260.148623 
L 171.989315 258.722232 
L 174.299844 257.193893 
L 178.724885 253.864931 
L 180.826614 252.071419 
L 182.851522 250.195929 
L 186.669193 246.204483 
L 190.162742 241.912949 
L 193.334926 237.325509 
L 196.174462 232.465018 
L 198.652671 227.396915 
L 199.740463 224.815726 
L 201.578769 219.601778 
L 202.315642 216.985617 
L 202.924069 214.388623 
L 203.39746 211.823676 
L 203.734344 209.270065 
L 203.931669 206.777001 
L 203.982696 204.257548 
L 203.883269 201.656772 
L 203.638933 198.938249 
L 202.7762 193.139348 
L 200.897437 183.570566 
L 199.590175 176.599921 
L 198.586332 169.382637 
L 197.992941 162.199131 
L 197.764261 155.062583 
L 197.857781 147.98531 
L 198.225343 140.95749 
L 198.828885 133.998501 
L 199.63787 127.015494 
L 200.723177 119.833968 
L 201.41426 116.179741 
L 202.227022 112.515571 
L 203.187949 108.809134 
L 204.311042 105.119451 
L 205.624898 101.416695 
L 207.149208 97.738319 
L 208.901273 94.104076 
L 210.877219 90.564219 
L 213.056493 87.162705 
L 215.413637 83.916734 
L 217.948733 80.805228 
L 220.639684 77.848052 
L 223.484483 75.036218 
L 226.452787 72.391841 
L 229.548542 69.899978 
L 232.772232 67.559614 
L 236.088958 65.397068 
L 239.507776 63.399368 
L 243.020531 61.573259 
L 246.606867 59.930342 
L 250.277673 58.463222 
L 254.012238 57.183487 
L 257.806403 56.092384 
L 261.646927 55.193048 
L 265.563592 54.48156 
L 269.483752 53.978041 
L 273.462283 53.668839 
L 277.431542 53.568 
L 281.399671 53.666552 
L 285.353892 53.963398 
L 289.305728 54.458928 
L 293.198771 55.150073 
L 297.077536 56.040509 
L 300.908837 57.132811 
L 304.664316 58.422304 
L 308.356512 59.914076 
L 311.922421 61.586738 
L 315.375103 63.432638 
L 318.705025 65.436992 
L 321.927263 67.596242 
L 325.028664 69.892518 
L 328.026816 72.326603 
L 330.895086 74.866162 
L 333.677455 77.530808 
L 336.33843 80.280366 
L 338.932133 83.152077 
L 341.402446 86.08485 
L 343.801696 89.112019 
L 348.346644 95.382382 
L 352.586821 101.901249 
L 356.553639 108.629339 
L 360.270252 115.510587 
L 363.768388 122.523137 
L 367.058292 129.592777 
L 370.167637 136.694344 
L 374.53995 147.310815 
L 379.913628 161.160862 
L 389.512854 186.300242 
L 392.835117 194.303949 
L 394.967224 199.034712 
L 397.030304 203.212901 
L 398.997774 206.761967 
L 400.792004 209.579126 
L 402.32038 211.604593 
L 403.580446 212.952799 
L 403.580446 212.952799 
" style="fill:none;stroke:#ffffff;stroke-linecap:square;"/>
   </g>
   <g id="line2d_16">
    <path clip-path="url(#p8ec236b68e)" d="M 71.687606 295.21199 
L 77.093364 294.666762 
L 82.841761 294.392728 
L 88.859227 294.344219 
L 98.34467 294.573684 
L 122.099126 295.447992 
L 129.196254 295.476007 
L 136.39078 295.266127 
L 143.662968 294.736351 
L 147.33116 294.324325 
L 151.006608 293.796876 
L 154.675423 293.145759 
L 158.36166 292.356424 
L 162.041363 291.417426 
L 165.711632 290.316389 
L 169.336586 289.053934 
L 172.916114 287.628271 
L 176.41715 286.051581 
L 179.858436 284.32127 
L 183.205051 282.455324 
L 186.481468 280.447545 
L 189.661692 278.313206 
L 192.749714 276.054012 
L 195.75461 273.663927 
L 198.647442 271.161463 
L 201.434288 268.545113 
L 204.09685 265.834197 
L 206.65253 263.017512 
L 209.089835 260.104698 
L 211.404904 257.104471 
L 213.597883 254.021558 
L 215.669068 250.860568 
L 217.627401 247.61064 
L 219.449773 244.308649 
L 221.169591 240.907725 
L 222.756116 237.448564 
L 224.227629 233.892644 
L 225.558984 230.269416 
L 226.750587 226.558165 
L 227.7765 222.79565 
L 228.637062 218.955209 
L 229.312746 215.050077 
L 229.785438 211.100965 
L 230.045132 207.091306 
L 230.072451 203.101507 
L 229.884609 199.219146 
L 229.521763 195.461061 
L 228.445431 188.332862 
L 226.52441 178.543637 
L 225.396415 172.593711 
L 224.578712 166.85125 
L 224.081787 161.022781 
L 223.879564 155.114709 
L 223.949264 149.101662 
L 224.260702 142.999986 
L 224.793178 136.803366 
L 225.505412 130.604648 
L 226.391815 124.643622 
L 227.52562 118.995745 
L 228.960645 113.745505 
L 229.801305 111.291566 
L 230.738367 108.943824 
L 231.780645 106.695584 
L 232.94507 104.529235 
L 234.265253 102.400823 
L 235.740538 100.312733 
L 237.344726 98.292572 
L 239.080327 96.340062 
L 240.936293 94.464189 
L 242.910319 92.668956 
L 244.978876 90.969305 
L 247.12189 89.379308 
L 249.354678 87.892233 
L 251.648593 86.521052 
L 253.992207 85.272079 
L 256.399344 84.140239 
L 258.84606 83.132929 
L 261.333478 82.251618 
L 263.865757 81.49506 
L 266.430025 80.866648 
L 268.996496 80.370301 
L 271.624761 80.005484 
L 274.233828 79.772793 
L 276.89134 79.677767 
L 279.549983 79.71632 
L 282.216004 79.889551 
L 284.845238 80.190539 
L 287.467975 80.628883 
L 290.033174 81.187849 
L 292.541376 81.871391 
L 295.00135 82.684184 
L 297.374445 83.608082 
L 299.710607 84.671004 
L 301.996774 85.861014 
L 304.249009 87.186368 
L 306.458765 88.637566 
L 308.632665 90.21942 
L 310.76618 91.924618 
L 312.879414 93.772439 
L 314.947973 95.73021 
L 318.983831 100.00666 
L 322.889028 104.754014 
L 326.635705 109.896061 
L 330.236663 115.409844 
L 333.686605 121.243239 
L 336.995023 127.35438 
L 340.156302 133.680247 
L 343.192843 140.19712 
L 347.514546 150.185699 
L 351.599281 160.304667 
L 356.747368 173.732254 
L 364.090282 193.026807 
L 367.730114 202.018405 
L 370.195669 207.674317 
L 372.738836 213.048813 
L 375.415673 218.132309 
L 378.28625 222.891637 
L 379.84001 225.168407 
L 381.473195 227.335226 
L 384.500973 230.784945 
L 384.500973 230.784945 
" style="fill:none;stroke:#ffffff;stroke-linecap:square;"/>
   </g>
   <g id="patch_3">
    <path d="M 57.6 307.584 
L 57.6 41.472 
" style="fill:none;stroke:#000000;stroke-linecap:square;stroke-linejoin:miter;stroke-width:0.8;"/>
   </g>
   <g id="patch_4">
    <path d="M 414.72 307.584 
L 414.72 41.472 
" style="fill:none;stroke:#000000;stroke-linecap:square;stroke-linejoin:miter;stroke-width:0.8;"/>
   </g>
   <g id="patch_5">
    <path d="M 57.6 307.584 
L 414.72 307.584 
" style="fill:none;stroke:#000000;stroke-linecap:square;stroke-linejoin:miter;stroke-width:0.8;"/>
   </g>
   <g id="patch_6">
    <path d="M 57.6 41.472 
L 414.72 41.472 
" style="fill:none;stroke:#000000;stroke-linecap:square;stroke-linejoin:miter;stroke-width:0.8;"/>
   </g>
  </g>
 </g>
 <defs>
  <clipPath id="p8ec236b68e">
   <rect height="266.112" width="357.12" x="57.6" y="41.472"/>
  </clipPath>
 </defs>
</svg>
